<svg xmlns="http://www.w3.org/2000/svg" viewBox="0 0 1440 1440" version="1">
  <path fill="#FFF" d="M0 0h1440v1440H0z"/>
  <path fill="#fff" stroke="#fff" stroke-width="1.5" d="M0 1440h608l-5-4c-2-2-6.5-5.5-9-7-2.5-2-8-5.5-11-7-2.5-2-7.5-5.5-10-7-2.5-2-8-5.5-11-7-2.5-2-7.5-5.5-10-7-2.5-2-7.5-5.5-10-7l-10-8c-2.5-2-8-5.5-11-7-2.5-1.5-8-4.5-11-6s-8.5-4.5-11-6c-2.5-2-7.5-5.5-10-7-2.5-2-8-5.5-11-7-2.5-2-7.5-5.5-10-7-2.5-2-8-5.5-11-7-2.5-2-7.5-5.5-10-7-2.5-2-7.5-5.5-10-7-2.5-2-8-5.5-11-7s-8.5-4.5-11-6c-2.5-2-8-5.5-11-7-2.5-2-7.5-5.5-10-7-2.5-2-8-5.5-11-7-2.5-1.5-7.5-5-10-7s-8-5.5-11-7c-2.5-1.5-8-4.5-11-6-2.5-2-7.5-5.5-10-7-2.5-2-7.5-5.5-10-7-2.5-2-8-5.5-11-7s-8.5-4.5-11-6l-10-8c-2.5-2-8-5.5-11-7-2.5-1.5-8-4.5-11-6-2.5-1.5-8-4.5-11-6-2.5-2-8-5.5-11-7-2.5-1.5-8-4.5-11-6s-8.5-5-11-7c-2-2-7-5.5-10-7-2.5-1.5-8-4.5-11-6-2.5-2-8-5.5-11-7-2.5-1.5-8-4.5-11-6l-12-6c-2.5-1.5-7.5-5-10-7-2-2-7-5.5-10-7s-8.5-4.5-11-6c-2.5-2-8-5.5-11-7l-12-6c-2.5-1.5-8-4-11-5-3-1.5-8.5-4.5-11-6-2-2-6.5-5-9-6-2.5-1.5-8.5-4-12-5s-10-3-13-4c-3-1.5-9.5-4-13-5-3-1-9.5-3-13-4-3-1.5-7-4-8-5-1-1.5 0-5 2-7 2.5-2.5 4.5-9 4-13l-1-9-3 3c-1 1.5-3.5 6-5 9-1 3-3 9.5-4 13-1 3-3 10-4 14-.5 3.5-2.5 10-4 13-1 3-3 9.5-4 13s-3.5 10-5 13c-1 3-4 9.5-6 13l-4 6v280z" stroke-linejoin="round"/>
  <path stroke="#000" stroke-width="1.5" d="M608 1440h21l-8-6c-3.5-3.5-9.5-8.5-12-10-2.5-2-8-5.5-11-7-2.5-1.5-7.5-5-10-7s-8-5.5-11-7c-2.5-1.5-8-4.5-11-6-2.5-2-7.5-5.5-10-7-2.5-2-7.5-5.5-10-7-2.5-2-8-5.5-11-7-2.5-2-7.5-5.5-10-7-2.5-2-8-5.5-11-7-2.5-2-7.5-5.5-10-7-2.5-2-7.5-5.5-10-7-2.5-2-8-5.5-11-7-2.5-2-7.5-5.5-10-7-2.5-2-8-5.5-11-7-2.5-2-7.5-5.5-10-7-2.5-2-8-5.5-11-7-2.5-1.5-8-4.5-11-6-2.5-2-7.5-5.5-10-7-2.5-2-8-5.5-11-7-2.5-2-7.5-5.5-10-7-2.5-2-7.5-5.5-10-7-2.5-2-8-5.5-11-7-2.5-2-7.5-5.5-10-7-2.5-2-8-5.5-11-7-2.5-2-7.5-5.5-10-7-2.5-2-8-5.5-11-7-2.5-1.5-8-4.5-11-6-2.5-2-8-5.5-11-7-2.5-1.5-7.5-5-10-7s-8-5.5-11-7l-10-6c-2.5-2-8-5.5-11-7-2.5-2-7.5-5.5-10-7-2.5-2-8-5.5-11-7-2.5-2-8-5.5-11-7l-10-6c-2.5-2-8-5.5-11-7-2.5-2-8-5.5-11-7-2.5-1.5-7.5-5-10-7s-8-5.5-11-7l-10-6c-2.5-2-8-5.5-11-7-2.5-2-7.5-5.5-10-7-2.5-2-8-5.5-11-7-2.5-2-8-5.5-11-7l-10-6c-2.5-2-8-5.5-11-7-2.5-2-7.5-5.5-10-7-2.5-2-8-5.5-11-7-2.5-2-7.5-5.5-10-7l-10-8c-2-2-6.5-6-9-8l-10-8c-2-2-3.5-5-3-6s3 0 5 2c2.5 2 7.5 5.5 10 7 3 1.5 9 2 12 1s6.5-4.5 7-7c1-2.5 0-4.5-2-4s-3-2-2-5c1-3.5 3.5-6 5-5 1.5.5 4.5 4 6 7s4.5 6 6 6c2 0 2.5-3 1-6s-5-8.5-7-11c-1.5-2.5-6-6.5-9-8-2.5-1.5-6.5-5-8-7l-3-4 4 4c2.5 2 7 3 9 2 2.5-1.5 6.5-3.5 8-4 2-.5 2.5-2.5 1-4-1-1.5-.5-3 1-3s2-2 1-4c-1-2.5-6.5-4.5-11-4-4 0-10 .5-12 1-2 0-2-2 0-4 2.5-2 8.5-4 12-4 4-.5 9-2 10-3 1-1.5-2.5-2.5-7-2-4 0-9.5-.5-11-1-1-.5 0-3 2-5 2.5-2 8-5 11-6l7-3-4-1c-2-1-5-3-6-4s-.5-4.5 1-7c2-2.5 5.5-7.5 7-10 1.5-3 4.5-8.5 6-11 2-3 6-8 8-10 2-2.5 5.5-7.5 7-10 2-3 5.5-8.5 7-11 2-2.5 6-7 8-9 2-2.5 5.5-7.5 7-10 2-3 5.5-8.5 7-11l6-12c1.5-3 5-8 7-10 2-2.5 6-7 8-9 2.5-2 7-6.5 9-9s5.5-7.5 7-10c2-2.5 5.5-7.5 7-10 2-3 5.5-8.5 7-11 2-2.5 5.5-7.5 7-10l8-10c2-2.5 5.5-7.5 7-10 2-2.5 5.5-7.5 7-10 2-3 5.5-8.5 7-11 2-2.5 5.5-7.5 7-10 2-2.5 5.5-7.5 7-10 2-3 5.5-8.5 7-11 2-2.5 5.5-7.5 7-10 2-3 5.5-8.5 7-11 2-2.5 5.5-7.5 7-10l8-10c2-2.5 5.5-7.5 7-10 2-2.5 5.5-7.5 7-10 2-3 5.5-8.5 7-11 1.5-3 5-8 7-10 2-2.5 5.5-7.5 7-10 2-3 5.5-8.5 7-11 1.5-3 5-8.5 7-11s5.5-7.5 7-10c2-2.5 5.5-7.5 7-10 2-2.5 5.5-7.5 7-10 2-3 5.5-8.5 7-11 2-2.5 5.5-7.5 7-10 2-3 5.5-8.5 7-11 2-2.5 5.5-7.5 7-10 2-2.5 5.5-8 7-11s5-8 7-10c2-2.5 5.5-7.5 7-10 2-3 5.5-8.5 7-11 2-2.5 5.5-7.5 7-10 2-2.5 5.5-7.5 7-10l4-6-3 1c-1.5 0-5 3-7 6-1.5 2.5-5 7.5-7 10-2 2-5.5 7-7 10-1.5 2.5-5 7.5-7 10l-8 10c-1.5 2.5-5 8-7 11-1.5 2.5-4.5 8-6 11-1.5 2.5-5 7.5-7 10-2 2-6 7-8 10-1.5 2.5-5 7.5-7 10-1.5 2.5-5 7.5-7 10s-5.5 8-7 11c-1.5 2.5-5 7.5-7 10-2 2-6 7-8 10-1.5 2.5-5 7.5-7 10-1.5 2.5-5 7.5-7 10s-5.5 8-7 11c-1.5 2.5-5 7.5-7 10-2 2-6 7-8 10-1.5 2.5-5 7.5-7 10-1.5 2.5-5 7.5-7 10s-5.5 8-7 11c-1.5 2.5-5 7.5-7 10-1.5 2.5-5 7.5-7 10l-8 10c-1.5 2.5-5 8-7 11-1.5 2.5-5 7.5-7 10-1.5 2.5-5 7.5-7 10-1.5 2.5-5 7.5-7 10l-8 10c-1.5 2.5-5 8-7 11-1.5 2.5-5 7.5-7 10-1.5 2.5-5 7.5-7 10-2 2-6 7-8 10-1.5 2.5-5 7.5-7 10-1.5 2.5-5 7.5-7 10s-6 5-8 5c-2-.5-6.5-1.5-9-2-2.5-1-5 2-5 6 .5 3.5.5 11 0 15 0 4-2 11-4 14-1.5 2.5-5 7.5-7 10-2 2-5.5 7-7 10-1.5 2.5-5 7.5-7 10l-8 10c-1.5 2.5-5 7.5-7 10l-8 10c-1.5 2.5-4.5 8-6 11-1.5 2.5-5 7.5-7 10l-8 10c-1.5 2.5-5 7.5-7 10s-5.5 6.5-7 8c-1.5 1-2.5-1-2-4 .5-3.5.5-10.5 0-14s-2-10-3-13c-1-3.5-4-9.5-6-12s-6.5-7-9-9c-2-2-6.5-6-9-8-2-2-7-5.5-10-7s-6.5-5.5-7-8c0-2.5.5-8.5 1-12 1-4 2-12 2-16 .5-4 1.5-11.5 2-15 1-3.5 2.5-11 3-15s1-12 1-16c.5-4 1.5-11.5 2-15 1-4 2.5-11.5 3-15 .5-4 1.5-11.5 2-15l2-16c.5-4 1.5-11.5 2-15 1-3.5 2.5-11 3-15s1.5-11.5 2-15c1-3.5 2.5-10.5 3-14l2-16c.5-4 1.5-11.5 2-15 1-3.5 2.5-10.5 3-14 1-4 3.5-10.5 5-13 1.5-3 4.5-8.5 6-11 1.5-3 6-7 9-8 3.5-1.5 10.5-3.5 14-4 4-.5 12-1 16-1 4.5-.5 13-1 17-1h34c4.5-.5 13-.5 17 0h34c4-.5 12-.5 16 0h49c4 0 11.5-.5 15-1 3.5-1 7-.5 7 1 .5 1.5-1 6-3 9-1.5 2.5-5 7.5-7 10-1.5 2.5-5 7.5-7 10l-8 10c-1.5 2.5-5 7.5-7 10-1.5 2.5-5 8-7 11-1.5 2.5-5 7.5-7 10-1.5 2.5-5 7.5-7 10l-8 10c-1.5 2.5-5 7.5-7 10-2 2-6 7-8 10-1.5 2.5-5 7.5-7 10-1.5 2.5-5 7.5-7 10l-8 10c-1.5 2.5-5 7.5-7 10-1.5 2.5-5 7.5-7 10l-8 10c-1.5 2.5-5 8-7 11-1.5 2.5-3.5 7.5-4 10l-1 4 4-4 8-10c2-2.5 6-7 8-9 2-2.5 5.5-7.5 7-10 2-3 6-8 8-10 2-2.5 5.5-7.5 7-10l8-10c2-2.5 5.5-7.5 7-10l8-10c2-2.5 5.5-7.5 7-10 2-2.5 5.5-7.5 7-10l8-10c2-2.5 5.5-7.5 7-10 2-2.5 5.5-7.5 7-10 2-3 6-8 8-10 2-2.5 5.5-7.5 7-10l8-10c2-2.5 5.5-7.5 7-10 2-2.5 5.5-7.5 7-10 2-3 6-8 8-10 2-2.5 5.5-7.5 7-10 2-2.5 5.5-7.5 7-10 2-3 5.5-8.5 7-11l8-10c2-2.5 5.5-7.5 7-10 2-2.5 5.5-7.5 7-10 2-2.5 5.5-7.5 7-10 2-3 5.5-8.5 7-11l8-10c2-2.5 5.5-7.5 7-10 2-2.5 5.5-7.5 7-10 2-2.5 5.5-7.5 7-10 2-3 5.5-8.5 7-11l8-10c2-2.5 5.5-7.5 7-10 2-2.5 5.5-7.5 7-10 2-2.5 5.5-7.5 7-10 2-3 5.5-8.5 7-11 2-2.5 5-7.5 6-10 1.5-3 4.5-8.5 6-11 2-2.5 6-7 8-9 2-2.5 5.5-7.5 7-10 2-3 6-8 8-10l8-10c2-2.5 4.5-7.5 5-10 1-2.5 3.5-7.5 5-10l8-10c2-2.5 5.5-7.5 7-10l8-10c2-2.5 5.5-7.5 7-10 2-2.5 5.5-7.5 7-10 1.5-3 4.5-8.5 6-11 2-3 5.5-8.5 7-11l8-10c2-2.5 5.5-7.5 7-10 1.5-3 5-8 7-10 2-2.5 5.5-7.5 7-10 2-3 5.5-8.5 7-11 2-2.5 5.5-7.5 7-10 2-3 5.5-8.5 7-11 2-2.5 6-7 8-9 2-2.5 5.5-7.5 7-10 2-3 5.5-8.5 7-11 1.5-3 5-8.5 7-11s5.5-7.5 7-10c2-2.5 5.5-7.5 7-10l3-6-2 1c-1 .5-4 3.5-6 6-2 2-6 7-8 10-1.5 2.5-5 7.5-7 10-1.5 2.5-5 7.5-7 10-1.5 2.5-5 8-7 11-1.5 2.5-5 7.5-7 10-2 2-6 7-8 10-1.5 2.5-5 7.5-7 10-1.5 2.5-5 7.5-7 10-1.5 2.5-5 8-7 11-1.5 2.5-5 7.5-7 10-2 2-6 7-8 10-1.5 2.5-5 7.5-7 10-1.5 2.5-5 7.5-7 10-1.5 2.5-5 8-7 11-1.5 2.5-5 7.5-7 10-2 2-6 7-8 10-1.5 2.5-5 7.5-7 10-1.5 2.5-5 7.5-7 10-1.5 2.5-5 8-7 11-1.5 2.5-5 7.5-7 10-1.5 2.5-5 7.5-7 10l-8 10c-1.5 2.5-5 7.5-7 10-1.5 2.5-5 8-7 11-1.5 2.5-5 7.5-7 10-2 2-6 7-8 10-1.5 2.5-5 7.5-7 10-1.5 2.5-5 7.5-7 10-1.5 2.5-5 8-7 11-1.5 2.5-5 7.5-7 10-1.5 2.5-5 8-7 11-1.5 2.5-5 7.5-7 10-2 2-6 6.5-8 9-1.5 2.5-5 8-7 11-1.5 2.5-5 7.5-7 10-2 2-6 7-8 10-1.5 2.5-5 7.5-7 10-1.5 2.5-5 7.5-7 10-1.5 2.5-5 8-7 11-1.5 2.5-5 7.5-7 10-2 2-6 7-8 10-1.5 2.5-5 7.5-7 10-1.5 2.5-5.5 7-8 9-2 2-8 5-12 6-3.5.5-11.5 1-16 1H126c-4.5 0-13-.5-17-1-3.5-.5-11-1.5-15-2-3.5-1-7-4.5-7-7 .5-2.5 2.5-7.5 4-10l6-12c1.5-3 4.5-8.5 6-11 2-2.5 5.5-8 7-11s4.5-8.5 6-11c1.5-3 4.5-8.5 6-11 1.5-3 4.5-8.5 6-11 2-3 5.5-8.5 7-11 1.5-3 4.5-8.5 6-11 2-3 5.5-8.5 7-11 1.5-3 4.5-8.5 6-11l6-12c1.5-3 4.5-8.5 6-11l6-12c1.5-3 4-9 5-12 1-3.5 3.5-9.5 5-12 1.5-3 3.5-9.5 4-13 1-4 3-11 4-14 1.5-3 4-9.5 5-13s3-10 4-13c1.5-3 3.5-9.5 4-13 1-3.5 2.5-10.5 3-14 1-4 2.5-11.5 3-15l2-16c.5-4 1-12 1-16v-17-18c0-4.5-1-12.5-2-16-.5-3.5-1.5-11-2-15s-1.5-11.5-2-15c-.5-4-2-11.5-3-15-.5-3.5-2.5-10-4-13l-4-14c-.5-3.5-2.5-10-4-13l-6-12c-1-3-3-5.5-4-5-.5.5 0 4.5 1 8l4 14c1 3 3 9.5 4 13 1.5 3 3.5 9.5 4 13 1 3.5 2.5 10.5 3 14 1 3.5 2 11.5 2 16l2 16c.5 3.5 1 11.5 1 16v18c0 4-1 11.5-2 15-.5 3.5-2 11-3 15-.5 3.5-1.5 11-2 15-.5 3.5-2 10.5-3 14l-4 14c-1 3-3.5 9-5 12-1.5 2.5-4 8.5-5 12l-4 14c-1 3-3.5 9-5 12l-6 12c-1.5 2.5-4.5 8-6 11-1.5 2.5-4.5 8-6 11l-6 12c-1.5 2.5-4.5 8-6 11l-6 12c-1.5 2.5-5 7.5-7 10-1.5 2.5-5 8-7 11-1.5 2.5-4.5 8-6 11-1.5 2.5-4.5 8-6 11s-5 8.5-7 11c-1.5 2.5-4.5 8-6 11l-6 12c-1.5 2.5-4.5 8-6 11-1.5 2.5-5 7.5-7 10s-5.5 7-7 9l-3 3 2-6c1.5-3.5 4-10 5-13 1.5-3 4.5-8.5 6-11 2-2.5 5-8.5 6-12s3-10 4-13c1.5-3 2.5-9 2-12v-7l-2 5c-1 2-3 7.5-4 11-1 3-3.5 9.5-5 13-1 3-4 8.5-6 11l-3 5v-2c0-1 .5-3.5 1-5 .5-2 1-6 1-8 .5-2 .5-5.5 0-7 0-2 1.5-2.5 3-1 2 1.5 4.5-.5 5-4 1-4 .5-9.5-1-11-1-1.5-2-7-2-11v-9l2 4c1.5 1.5 3.5 5.5 4 8l2 5 1-7c1-4 1-11.5 0-15-.5-3.5-.5-10 0-13 .5-3.5 1-10.5 1-14 .5-4 1-12 1-16 .5-4 1-12 1-16v-8l1 6 1 5 2-4c1-2.5 2.5-10 3-15l2-11-1-6c0-3.5-.5-9-1-11 0-2-1.5-6.5-3-9-1-2.5-3.5-4.5-5-4-1 0-1.5-3.5-1-7 .5-4 .5-12 0-16s.5-10.5 2-13c1.5-3 3.5-9.5 4-13 1-3.5.5-6.5-1-6-1 0-2.5-.5-3-1 0-.5 1.5-4 3-7s4-9 5-12c1.5-3 3.5-9.5 4-13 1-3.5 2.5-10.5 3-14 1-4 1-7.5 0-7-1 0-3.5 3.5-5 7-1 3-3.5 7-5 8l-5 5-6 9c-1.5 2.5-4.5 8-6 11-1 3-3.5 9-5 12l-6 12c-1 3-3.5 9-5 12-1.5 2.5-5 7.5-7 10s-5.5 8-7 11c-1.5 2.5-4.5 8-6 11l-3 6v-5c0-3 1-9 2-12 1.5-3 4.5-8.5 6-11 2-3 5.5-8.5 7-11 1.5-3 4-9 5-12 1.5-3.5 4-10 5-13 1-3.5 3-10 4-13 1.5-3 3-7.5 3-9v-3l-4 5c-2 2-5 7.5-6 11s-3.5 10-5 13c-1 3-4 8.5-6 11-2 2-4.5 2-5 0 0-2.5 1-8 2-11 1.5-3 3-10 3-14 .5-4.5 1.5-12.5 2-16 1-3.5 3.5-9.5 5-12 2-2.5 3.5-7 3-9v-5l-4 5-9 9c-2 2-5 7.5-6 11-1 3-3 9.5-4 13-.5 3.5-2 11-3 15-.5 3.5-2 10.5-3 14-.5 3.5-1.5 6.5-2 6v-8c.5-3 1.5-9.5 2-13 1-3.5 3-10 4-13 1.5-3.5 3-11 3-15 .5-4 2-11 3-14 1.5-3.5 4-9 5-11 1.5-2 4.5-6.5 6-9 1.5-3 3.5-10 4-14s0-10.5-1-13c-.5-2.5 0-6.5 1-8 1.5-2 4.5-6.5 6-9 1.5-3 3-10 3-14 .5-4 1-11.5 1-15 .5-4 .5-12 0-16 0-4-1-11-2-14s-3.5-9-5-12l-4-12c-1-3.5-3.5-10-5-13s-4.5-8.5-6-11c-1.5-3-3-7-3-8v-2l4 5 4 4-2-6c-1-3.5-3.5-10-5-13s-4.5-8.5-6-11l-6-12c-1-3.5-3.5-10-5-13-1-3-3.5-8.5-5-11-1.5-3-5-11-7-16L8 0H0v13l1 4c.5 1.5.5 3 0 3l-1-1v262l3-2 3-3c.5-.5 1.5-.5 2 0l2 1H9c-.5 0-3 1.5-5 3l-4 3v463l2-7c1.5-4 4.5-10.5 6-13l3-6v6c0 3-.5 10-1 14-.5 3.5-1.5 11-2 15-.5 3.5-2 11-3 15-.5 3.5-1.5 11-2 15l-2 14-1 7v45l4-5 4-5-2 7c-.5 3-2 9.5-3 13-.5 3.5-.5 9.5 0 12s0 8-1 11l-2 6v9l1-1c1-.5 2-.5 2 0s-1 3.5-2 6l-1 4v27l4-1 5-2-1 2c-.5.5-2.5 3-4 5-1 1.5-2.5 3.5-3 4l-1 1v8l5-6c2.5-3.5 4.5-9.5 4-12-.5-3 1.5-5 4-4s6.5 4 8 6c2 2 3.5 7.5 3 11-.5 3-2.5 9-4 12s-4 9.5-5 13c-1 3-1.5 7.5-1 9l1 3 2-6c1-3.5 3-10 4-13 1.5-3 5-10.5 7-15l4-10-2 1c-.5 0-1.5-1-2-2l-1-2 2 2 3 1 4 5c2 2 5.5 7 7 10 1.5 2.5 3 9 3 13s-1.5 10.5-3 13c-1 2.5-3 9-4 13l-1 7 3-4c1.5-2.5 3.5-7 4-9l2-4-2 8c-.5 3.5-2 10.5-3 14-.5 3.5-2 11-3 15-.5 3.5-2.5 10-4 13-1 3-3.5 9-5 12-1 3-3.5 9-5 12s-4 9.5-5 13c-.5 3.5-2 11-3 15-.5 3.5-2.5 10-4 13-1 3-3 9.5-4 13-1 3-4 10-6 14l-3 8v26l4-6c2-3.5 5-10 6-13 1.5-3 4-9.5 5-13s3-10 4-13c1.5-3 3.5-9.5 4-13 1-4 3-11 4-14 1-3.5 3-10 4-13 1.5-3 4-7.5 5-9l3-3 4 2c2.5.5 5 2.5 5 4 .5 1.5.5 5.5 0 8l-1 4-3-9c-1.5-4.5-3.5-9-4-9h-1l1 9c.5 4-1.5 10.5-4 13-2 2-3 5.5-2 7 1 1 5 3.5 8 5 3.5 1 10 3 13 4 3.5 1 10 3.5 13 5 3 1 9.5 3 13 4s9.5 3.5 12 5c2.5 1 7 4 9 6 2.5 1.5 8 4.5 11 6 3 1 8.5 3.5 11 5l12 6c3 1.5 8.5 5 11 7 2.5 1.5 8 4.5 11 6s8 5 10 7c2.5 2 7.5 5.5 10 7l12 6c3 1.5 8.5 4.5 11 6 3 1.5 8.5 5 11 7 3 1.5 8.5 4.5 11 6 3 1.5 8 5 10 7 2.5 2 8 5.5 11 7s8.5 4.5 11 6c3 1.5 8.5 5 11 7 3 1.5 8.5 4.5 11 6 3 1.5 8.5 4.5 11 6 3 1.5 8.5 5 11 7l10 8c2.5 1.5 8 4.5 11 6s8.5 5 11 7c2.5 1.5 7.5 5 10 7 2.5 1.5 7.5 5 10 7 3 1.5 8.5 4.5 11 6 3 1.5 8.5 5 11 7s7.5 5.5 10 7c3 1.5 8.5 5 11 7 2.5 1.5 7.5 5 10 7 3 1.5 8.5 5 11 7 2.5 1.5 8 4.5 11 6s8.5 5 11 7c2.5 1.5 7.5 5 10 7 2.5 1.5 7.5 5 10 7 3 1.5 8.5 5 11 7 2.5 1.5 7.5 5 10 7 3 1.5 8.5 5 11 7 2.5 1.5 7.5 5 10 7 2.5 1.5 8 4.5 11 6s8.5 4.5 11 6c3 1.5 8.5 5 11 7l10 8c2.5 1.5 7.5 5 10 7 2.5 1.5 7.5 5 10 7 3 1.5 8.5 5 11 7 2.5 1.5 7.5 5 10 7 3 1.5 8.5 5 11 7 2.5 1.5 7 5 9 7l5 4z" stroke-linejoin="round"/>
  <path fill="#fff" stroke="#fff" stroke-width="1.5" d="M629 1440h183v-7l1 4 2 3h125l3-6c1.5-3 4.5-8.5 6-11 1.5-3 4-9 5-12 1.5-3 4.5-8.5 6-11 2-3 5.5-8.5 7-11l6-12c1.5-3 4.5-8.5 6-11 1.5-3 4.5-8.5 6-11l6-12c1.5-3 4.5-8.5 6-11l6-12c1.5-3 4.5-8.5 6-11 1.5-3 4.5-8.5 6-11l6-12c1.5-3 4-9 5-12l6-12c1.5-3 4-9 5-12 1.5-3 4.5-8.5 6-11l6-12c1.5-3 4.5-8.5 6-11l6-12c1.5-3 4.5-8.5 6-11 1.5-3 4-9 5-12l6-12c1.5-3 4.5-8.5 6-11 2-2.5 5.5-8 7-11s4.5-8.5 6-11c1.5-3 4.5-8.5 6-11l6-12c1.5-3 4.5-8.5 6-11l6-12c1.5-3 4.5-8.5 6-11 1.5-3 4.5-8.5 6-11 1.5-3 4.5-8.5 6-11 2-3 5.5-8.5 7-11 1.5-3 4-9 5-12 1.5-3.5 4.5-9.5 6-12 1.5-3 4.5-8.5 6-11l6-12c1.5-3 4.5-8.5 6-11l6-12c1.5-3 4.5-8.5 6-11 1.5-3 4-9 5-12 1.5-3 4.5-8.5 6-11 2-3 5.5-8.5 7-11l6-12c1.5-3 4.5-8.5 6-11 1.5-3 4.5-8.5 6-11 1.5-3 4.5-8.5 6-11 2-3 5.5-8.5 7-11l6-12c1.5-3 4.5-8.5 6-11 1.5-3 4.5-8.5 6-11 2-2.5 5.5-8 7-11s4-9 5-12c1-3.5 3.5-10 5-13s4.5-8.5 6-11c1.5-3 4.5-8.5 6-11l6-12c1.5-3 4.5-8.5 6-11l6-12c1.5-3 4.5-8.5 6-11 1.5-3 4.5-8.5 6-11 1.5-3 5-8.5 7-11s5-8 6-11l6-12c1.5-3 4.5-8.5 6-11 1.5-3 4.5-8.5 6-11 1.5-3 4-9 5-12 1.5-3.5 4.5-9.5 6-12 1.5-3 5-8.5 7-11s5.5-7.5 7-10c1.5-3 4.5-8.5 6-11l6-12c1.5-3 4.5-8.5 6-11 1.5-3 4.5-8.5 6-11 2-3 5.5-8.5 7-11 1.5-3 4.5-8.5 6-11 1.5-3 4-9 5-12 1.5-3.5 4.5-9.5 6-12 1.5-3 4.5-8.5 6-11 2-3 7-9.5 10-13l7-8v-12-20-18-17-17-18-17-24l-8-2c-4-1-11-3.5-14-5-2.5-1.5-8.5-4-12-5-3-1.5-7.5-4.5-9-6l-3-4v-6c0-3 1-9 2-12 1.5-3 4-9 5-12 1-3.5 1-10.5 0-14-.5-4-2.5-10.5-4-13-1.5-3-5.5-8-8-10s-8-5.5-11-7c-2.5-1.5-8-4-11-5l-12-6c-2.5-2-8-5.5-11-7-2.5-1.5-8-4.5-11-6s-9.5-4-13-5c-3-1-9-3.5-12-5-2.5-1.5-8-4.5-11-6l-12-6c-2.5-1.5-8.5-4-12-5l-12-6c-2.5-1.5-8-4-11-5-3-1.5-9.5-4-13-5l-12-6c-2.5-1.5-8-4.5-11-6s-7.5-6-9-9c-1-3-2.5-9.5-3-13l-2-16-2-16c0-4-.5-12-1-16l-2-16c0-4-.5-12-1-16 0-4-.5-12-1-16s-1-12-1-16c0-4.5-.5-13-1-17s-1.5-14-2-20V0h-11v8c0 3.5.5 10.5 1 14 .5 3 1 10 1 14l2 16c.5 4 1 12 1 16l2 16c.5 4 1 12 1 16 .5 4 1 12 1 16 .5 4 1 12.5 1 17 .5 4 1 12 1 16l1 8-2-2c-1-1.5-2.5-7-3-11l-2-16c0-4-.5-11.5-1-15l-2-16c0-4.5-.5-13-1-17 0-4-.5-12-1-16 0-4.5-.5-13-1-17 0-4-.5-11.5-1-15-.5-4-1.5-14-2-20V0h-26l3 7c1.5 3 4.5 8.5 6 11 2 2.5 4.5 9 5 13s0 11.5-1 15c-.5 3.5-2 11-3 15-.5 3.5-1.5 11-2 15 0 4-1.5 11-3 14-1 3 .5 8 3 10s7 6.5 9 9c2 2 2.5 7 1 10l-6 12c-1.5 2.5-4.5 8-6 11l-3 5 4-4 5-5-1 5c0 2.5-1.5 8.5-3 12-1 3-3.5 9-5 12l-6 10c-1 2.5-2.5 7-3 9v10c0 3-2.5 5.5-5 5-2-1-6.5-3.5-9-5l-4-3 1 3c.5 1 3.5 4 6 6s7 6 9 8c2.5 2 6.5 3.5 8 3 2-1 5.5-2.5 7-3 2-.5 5-3.5 6-6 1.5-2.5 6-6.5 9-8s8.5-1.5 11 0c3 1.5 7.5 6 9 9 2 2.5 4.5 8.5 5 12 .5 3 2 5.5 3 5 1-1 2.5-5.5 3-9s-.5-9.5-2-12l-6-12c-1.5-3-5-8.5-7-11-1.5-2.5-4.5-8-6-11-1-3-.5-5.5 1-5s4.5 4 6 7c1.5 2.5 4.5 8 6 11l6 12c1.5 2.5 4.5 8 6 11 1.5 2.5 2 8.5 1 12s-4 9.5-6 12l-6 10c-1.5 2.5-2 7.5-1 10l3 5-5-2c-2.5-1.5-4.5 0-4 3 1 2.5 2.5 8.5 3 12 .5 3 .5 10 0 14 0 3.5-1.5 10-3 13-1.5 2.5-4.5 8-6 11-1 3-7.5 7.5-13 9-5 1-13 .5-16-1l-12-6c-2.5-1.5-8-4.5-11-6l-12-6c-2.5-1.5-8-4-11-5l-12-6c-2.5-2-8-5-11-6l-12-6c-2.5-1.5-8-4.5-11-6l-12-6c-2.5-1.5-8-4.5-11-6l-12-6-10-6c-2.5-2-8-5.5-11-7s-9-4-12-5l-12-6-12-6c-2.5-1.5-8-4.5-11-6-2.5-1.5-8-4.5-11-6l-12-6c-2.5-1.5-8-4.5-11-6-2.5-2-8-5-11-6-3-1.5-9-4-12-5l-12-6c-2.5-2-8-5.5-11-7-2.5-1.5-8-4.5-11-6s-8.5-4.5-11-6c-2.5-2-7-6-9-8-2-2.5-4-8.5-4-12s1.5-9.5 3-12c1.5-3 5-8 7-10l9-9c2-2.5 6.5-6.5 9-8 3-1.5 10-3.5 14-4s11.5 0 15 1c3.5.5 6.5-1.5 6-4 0-3 1-9 2-12 1.5-3 6-5.5 9-5 3 0 8 2.5 10 5 2.5 2 8 5 11 6l12 2c3.5 0 9 2 11 4 2 1.5 2.5 6 1 9-1.5 2.5-5 6-7 7s-2.5 4-1 6c1.5 1.5 5.5 2.5 8 2s6.5-3.5 8-6c2-2.5 5.5-7.5 7-10l6-12c1.5-3 4.5-8.5 6-11 1.5-3 4.5-8.5 6-11 2-3 6-8 8-10 2-2.5 6-7 8-9 2.5-2 5.5-5.5 6-7 1-2 4-6 6-8 2.5-2 8-5.5 11-7s9-4 12-5l6-3-3 5c-1.5 2-6 6-9 8-2.5 1.5-5 3.5-5 4 .5.5 4 0 7-1 3.5-1.5 9.5-4.5 12-6 3-1.5 8.5-4.5 11-6 2.5-2 8-7.5 11-11l7-8H848l6 4c3.5 1.5 9.5 4.5 12 6l12 6c3 1.5 8.5 4.5 11 6l12 6c3 1 8.5 4 11 6l12 6c3 1 9 3.5 12 5 3.5 1 9.5 3.5 12 5 3 1.5 8.5 4.5 11 6l12 6c3.5 1 9.5 2.5 12 3h5-12c-6-.5-15-2.5-18-4-2.5-1.5-8-4.5-11-6s-9-4-12-5l-12-6-12-6c-2.5-1.5-8-4.5-11-6-2.5-1.5-8-4.5-11-6s-9-4-12-5l-12-6c-2.5-2-9-6.5-13-9l-8-6H740l-4 8c-2 3.5-6 9-8 11l-4 3 3-6c2-3.5 4.5-9 5-11l2-5H88l4 7c2 3 5.5 8.5 7 11 2 2.5 5 8 6 11 1.5 3 4 9.5 5 13 1.5 3 2 6.5 1 7-1 0-3.5-3-5-6-1-3-3.5-8.5-5-11-1.5-3-5-8.5-7-11-1.5-3-5.5-9.5-8-13l-4-8H8l4 10c2 5 5.5 13 7 16 1.5 2.5 4 8 5 11 1.5 3 4 9.5 5 13l6 12c1.5 2.5 4.5 8 6 11s4 9.5 5 13l2 6-4-4-4-5v2c0 1 1.5 5 3 8 1.5 2.5 4.5 8 6 11s4 9.5 5 13l4 12c1.5 3 4 9 5 12s2 10 2 14c.5 4 .5 12 0 16 0 3.5-.5 11-1 15 0 4-1.5 11-3 14-1.5 2.5-4.5 7-6 9-1 1.5-1.5 5.5-1 8 1 2.5 1.5 9 1 13s-2.5 11-4 14c-1.5 2.5-4.5 7-6 9-1 2-3.5 7.5-5 11-1 3-2.5 10-3 14 0 4-1.5 11.5-3 15-1 3-3 9.5-4 13-.5 3.5-1.5 10-2 13v8c.5.5 1.5-2.5 2-6 1-3.5 2.5-10.5 3-14 1-4 2.5-11.5 3-15 1-3.5 3-10 4-13 1-3.5 4-9 6-11l9-9 4-5v5c.5 2-1 6.5-3 9-1.5 2.5-4 8.5-5 12-.5 3.5-1.5 11.5-2 16 0 4-1.5 11-3 14-1 3-2 8.5-2 11 .5 2 3 2 5 0 2-2.5 5-8 6-11 1.5-3 4-9.5 5-13s4-9 6-11l4-5v3c0 1.5-1.5 6-3 9-1 3-3 9.5-4 13-1 3-3.5 9.5-5 13-1 3-3.5 9-5 12-1.5 2.5-5 8-7 11-1.5 2.5-4.5 8-6 11-1 3-2 9-2 12v5l3-6c1.5-3 4.5-8.5 6-11 1.5-3 5-8.5 7-11s5.5-7.5 7-10c1.5-3 4-9 5-12l6-12c1.5-3 4-9 5-12 1.5-3 4.5-8.5 6-11l6-9 5-5c1.5-1 4-5 5-8 1.5-3.5 4-7 5-7 1-.5 1 3 0 7-.5 3.5-2 10.5-3 14-.5 3.5-2.5 10-4 13-1 3-3.5 9-5 12s-3 6.5-3 7c.5.5 2 1 3 1 1.5-.5 2 2.5 1 6-.5 3.5-2.5 10-4 13-1.5 2.5-2.5 9-2 13s.5 12 0 16c-.5 3.5 0 7 1 7 1.5-.5 4 1.5 5 4 1.5 2.5 3 7 3 9 .5 2 1 7.5 1 11l1 6 2 6c1.5 3 3.5 9.5 4 13 1 3.5 1 10 0 13l-2 5-1-9c-.5-4.5-1.5-13-2-17s-1-8.5-1-9v-2l-2 11c-.5 5-2 12.5-3 15l-2 4-1-5-1-6v8c0 4-.5 12-1 16 0 4-.5 12-1 16 0 3.5-.5 10.5-1 14-.5 3-.5 9.5 0 13 1 3.5 1 11 0 15l-1 7-2-5c-.5-2.5-2.5-6.5-4-8l-2-4v9c0 4 1 9.5 2 11 1.5 1.5 2 7 1 11-.5 3.5-3 5.5-5 4-1.5-1.5-3-1-3 1 .5 1.5.5 5 0 7 0 2-.5 6-1 8-.5 1.5-1 4-1 5v2l3-5c2-2.5 5-8 6-11 1.5-3.5 4-10 5-13 1-3.5 3-9 4-11l2-5v7c.5 3-.5 9-2 12-1 3-3 9.5-4 13s-4 9.5-6 12c-1.5 2.5-4.5 8-6 11-1 3-3.5 9.5-5 13l-2 6 3-3c1.5-2 5-6.5 7-9s5.5-7.5 7-10c1.5-3 4.5-8.5 6-11l6-12c1.5-3 4.5-8.5 6-11 2-2.5 5.5-8 7-11s4.5-8.5 6-11c1.5-3 4.5-8.5 6-11 2-3 5.5-8.5 7-11 2-2.5 5.5-7.5 7-10l6-12c1.5-3 4.5-8.5 6-11l6-12c1.5-3 4.5-8.5 6-11 1.5-3 4.5-8.5 6-11l6-12c1.5-3 4-9 5-12l4-14c1-3.5 3.5-9.5 5-12 1.5-3 4-9 5-12l4-14c1-3.5 2.5-10.5 3-14 .5-4 1.5-11.5 2-15 1-4 2.5-11.5 3-15 1-3.5 2-11 2-15v-18c0-4.5-.5-12.5-1-16l-2-16c0-4.5-1-12.5-2-16-.5-3.5-2-10.5-3-14-.5-3.5-2.5-10-4-13-1-3.5-3-10-4-13l-4-14c-1-3.5-1.5-7.5-1-8 1-.5 3 2 4 5l6 12c1.5 3 3.5 9.5 4 13l4 14c1.5 3 3.5 9.5 4 13 1 3.5 2.5 11 3 15 .5 3.5 1.5 11 2 15s1.5 11.5 2 15c1 3.5 2 11.5 2 16v35c0 4-.5 12-1 16l-2 16c-.5 3.5-2 11-3 15-.5 3.5-2 10.5-3 14-.5 3.5-2.5 10-4 13-1 3-3 9.5-4 13s-3.5 10-5 13c-1 3-3 10-4 14-.5 3.5-2.5 10-4 13-1.5 2.5-4 8.5-5 12-1 3-3.5 9-5 12l-6 12c-1.5 2.5-4.5 8-6 11l-6 12c-1.5 2.5-4.5 8-6 11-1.5 2.5-5 8-7 11-1.5 2.5-4.5 8-6 11-1.5 2.5-5 8-7 11-1.5 2.5-4.5 8-6 11-1.5 2.5-4.5 8-6 11-1.5 2.5-4.5 8-6 11s-5 8.5-7 11c-1.5 2.5-4.5 8-6 11l-6 12c-1.5 2.5-3.5 7.5-4 10 0 2.5 3.5 6 7 7 4 .5 11.5 1.5 15 2 4 .5 12.5 1 17 1h156c4.5 0 12.5-.5 16-1 4-1 10-4 12-6 2.5-2 6.5-6.5 8-9 2-2.5 5.5-7.5 7-10 2-3 6-8 8-10 2-2.5 5.5-7.5 7-10 2-3 5.5-8.5 7-11 2-2.5 5.5-7.5 7-10 2-2.5 5.5-7.5 7-10 2-3 6-8 8-10 2-2.5 5.5-7.5 7-10 2-3 5.5-8.5 7-11 2-2.5 6-7 8-9 2-2.5 5.5-7.5 7-10 2-3 5.5-8.5 7-11 2-2.5 5.5-7.5 7-10 2-3 5.5-8.5 7-11 2-2.5 5.5-7.5 7-10 2-2.5 5.5-7.5 7-10 2-3 6-8 8-10 2-2.5 5.5-7.5 7-10 2-3 5.5-8.5 7-11 2-2.5 5.5-7.5 7-10l8-10c2-2.5 5.5-7.5 7-10 2-2.5 5.5-7.5 7-10 2-3 5.5-8.5 7-11 2-2.5 5.5-7.5 7-10 2-2.5 5.5-7.5 7-10 2-3 6-8 8-10 2-2.5 5.5-7.5 7-10 2-3 5.5-8.5 7-11 2-2.5 5.5-7.5 7-10 2-2.5 5.5-7.5 7-10 2-3 6-8 8-10 2-2.5 5.5-7.5 7-10 2-3 5.5-8.5 7-11 2-2.5 5.5-7.5 7-10 2-2.5 5.5-7.5 7-10 2-3 6-8 8-10 2-2.5 5.5-7.5 7-10 2-3 5.5-8.5 7-11 2-2.5 5.5-7.5 7-10 2-2.5 5.5-7.5 7-10 2-3 6-8 8-10 2-2.5 5-5.5 6-6l2-1-3 6c-1.5 2.5-5 7.5-7 10-1.5 2.5-5 7.5-7 10s-5.5 8-7 11c-1.5 2.5-5 8-7 11-1.5 2.5-5 7.5-7 10-2 2-6 6.5-8 9-1.5 2.5-5 8-7 11-1.5 2.5-5 7.5-7 10-1.5 2.5-5 8-7 11-1.5 2.5-5 7.5-7 10-2 2-5.5 7-7 10-1.5 2.5-5 7.5-7 10l-8 10c-1.5 2.5-5 8-7 11-1.5 2.5-4.5 8-6 11-1.5 2.5-5 7.5-7 10-1.5 2.5-5 7.5-7 10l-8 10c-1.5 2.5-5 7.5-7 10l-8 10c-1.5 2.5-4 7.5-5 10-.5 2.5-3 7.5-5 10l-8 10c-2 2-6 7-8 10-1.5 2.5-5 7.5-7 10-2 2-6 6.5-8 9-1.5 2.5-4.5 8-6 11-1 2.5-4 7.5-6 10-1.5 2.5-5 8-7 11-1.5 2.5-5 7.5-7 10-1.5 2.5-5 7.5-7 10-1.5 2.5-5 7.5-7 10l-8 10c-1.5 2.5-5 8-7 11-1.5 2.5-5 7.5-7 10-1.5 2.5-5 7.5-7 10-1.5 2.5-5 7.5-7 10l-8 10c-1.5 2.5-5 8-7 11-1.5 2.5-5 7.5-7 10-1.5 2.5-5 7.5-7 10-1.5 2.5-5 7.5-7 10l-8 10c-1.5 2.5-5 8-7 11-1.5 2.5-5 7.5-7 10-1.5 2.5-5 7.5-7 10-2 2-6 7-8 10-1.5 2.5-5 7.5-7 10-1.5 2.5-5 7.5-7 10l-8 10c-1.5 2.5-5 7.5-7 10-2 2-6 7-8 10-1.5 2.5-5 7.5-7 10-1.5 2.5-5 7.5-7 10l-8 10c-1.5 2.5-5 7.5-7 10-1.5 2.5-5 7.5-7 10l-8 10c-1.5 2.5-5 7.5-7 10l-8 10c-1.5 2.5-5 7.5-7 10-2 2-6 7-8 10-1.5 2.5-5 7.5-7 10-2 2-6 6.5-8 9l-8 10-4 4 1-4c.5-2.5 2.5-7.5 4-10 2-3 5.5-8.5 7-11l8-10c2-2.5 5.5-7.5 7-10 2-2.5 5.5-7.5 7-10l8-10c2-2.5 5.5-7.5 7-10 2-2.5 5.5-7.5 7-10 2-3 6-8 8-10 2-2.5 5.5-7.5 7-10l8-10c2-2.5 5.5-7.5 7-10 2-2.5 5.5-7.5 7-10 2-3 5.5-8.5 7-11 2-2.5 5.5-7.5 7-10l8-10c2-2.5 5.5-7.5 7-10 2-2.5 5.5-7.5 7-10 2-3 3.5-7.5 3-9 0-1.5-3.5-2-7-1-3.5.5-11 1-15 1h-49c-4-.5-12-.5-16 0h-34c-4-.5-12.5-.5-17 0h-34c-4 0-12.5.5-17 1-4 0-12 .5-16 1-3.5.5-10.5 2.5-14 4-3 1-7.5 5-9 8-1.5 2.5-4.5 8-6 11-1.5 2.5-4 9-5 13-.5 3.5-2 10.5-3 14-.5 3.5-1.5 11-2 15l-2 16c-.5 3.5-2 10.5-3 14-.5 3.5-1.5 11-2 15s-2 11.5-3 15c-.5 3.5-1.5 11-2 15l-2 16c-.5 3.5-1.5 11-2 15-.5 3.5-2 11-3 15-.5 3.5-1.5 11-2 15 0 4-.5 12-1 16s-2 11.5-3 15c-.5 3.5-1.5 11-2 15 0 4-1 12-2 16-.5 3.5-1 9.5-1 12 .5 2.5 4 6.5 7 8s8 5 10 7c2.5 2 7 6 9 8 2.5 2 7 6.5 9 9s5 8.5 6 12c1 3 2.5 9.5 3 13s.5 10.5 0 14c-.5 3 .5 5 2 4 1.5-1.5 5-5.5 7-8s5.5-7.5 7-10l8-10c2-2.5 5.5-7.5 7-10 1.5-3 4.5-8.5 6-11l8-10c2-2.5 5.5-7.5 7-10l8-10c2-2.5 5.5-7.5 7-10 1.5-3 5-8 7-10 2-2.5 5.5-7.5 7-10 2-3 4-10 4-14 .5-4 .5-11.5 0-15 0-4 2.5-7 5-6 2.5.5 7 1.5 9 2 2 0 6-2.5 8-5s5.5-7.5 7-10c2-2.5 5.5-7.5 7-10 2-3 6-8 8-10 2-2.5 5.5-7.5 7-10 2-2.5 5.5-7.5 7-10 2-3 5.5-8.5 7-11l8-10c2-2.5 5.5-7.5 7-10 2-2.5 5.5-7.5 7-10 2-2.5 5.5-7.5 7-10 2-3 5.5-8.5 7-11l8-10c2-2.5 5.5-7.5 7-10 2-2.5 5.5-7.5 7-10 1.5-3 5-8.5 7-11s5.5-7.5 7-10c2-2.5 5.5-7.5 7-10 2-3 6-8 8-10 2-2.5 5.5-7.5 7-10 1.5-3 5-8.5 7-11s5.5-7.5 7-10c2-2.5 5.5-7.5 7-10 2-3 6-8 8-10 2-2.5 5.5-7.5 7-10 1.5-3 5-8.5 7-11s5.5-7.5 7-10c2-2.5 5.5-7.5 7-10 2-3 6-8 8-10 2-2.5 5.5-7.5 7-10 1.5-3 4.5-8.5 6-11 2-3 5.5-8.5 7-11l8-10c2-2.5 5.5-7.5 7-10 1.5-3 5-8 7-10 2-2.5 5.5-7.5 7-10 2-3 5.5-6 7-6l3-1-4 6c-1.5 2.5-5 7.5-7 10-1.5 2.5-5 7.5-7 10-1.5 2.5-5 8-7 11-1.5 2.5-5 7.5-7 10-2 2-5.5 7-7 10s-5 8.5-7 11c-1.5 2.5-5 7.5-7 10-1.5 2.5-5 8-7 11-1.5 2.5-5 7.5-7 10-1.5 2.5-5 8-7 11-1.5 2.5-5 7.5-7 10-1.5 2.5-5 7.5-7 10-1.5 2.5-5 7.5-7 10s-5.5 8-7 11c-1.5 2.5-5 8-7 11-1.5 2.5-5 7.5-7 10-2 2-5.5 7-7 10-1.5 2.5-5 8-7 11-1.5 2.5-5 7.5-7 10-1.5 2.5-5 7.5-7 10l-8 10c-1.5 2.5-5 7.5-7 10-1.5 2.5-5 8-7 11-1.5 2.5-5 7.5-7 10-1.5 2.5-5 8-7 11-1.5 2.5-5 7.5-7 10-1.5 2.5-5 7.5-7 10-1.5 2.5-5 8-7 11-1.5 2.5-5 7.5-7 10-1.5 2.5-5 7.5-7 10l-8 10c-1.5 2.5-5 7.5-7 10-1.5 2.5-5 8-7 11-1.5 2.5-5 7.5-7 10-1.5 2.5-5 7.5-7 10s-6.5 7-9 9c-2 2-6 6.5-8 9-2 2-5.5 7-7 10l-6 12c-1.5 2.5-5 8-7 11-1.5 2.5-5 7.5-7 10-2 2-6 6.5-8 9-1.5 2.5-5 8-7 11-1.5 2.5-5 7.5-7 10-2 2-6 7-8 10-1.5 2.5-4.5 8-6 11-1.5 2.5-5 7.5-7 10-1.5 2.5-2 6-1 7s4 3 6 4l4 1-7 3c-3 1-8.5 4-11 6-2 2-3 4.5-2 5 1.5.5 7 1 11 1 4.5-.5 8 .5 7 2-1 1-6 2.5-10 3-3.5 0-9.5 2-12 4-2 2-2 4 0 4 2-.5 8-1 12-1 4.5-.5 10 1.5 11 4 1 2 .5 4-1 4s-2 1.5-1 3c1.5 1.5 1 3.5-1 4-1.5.5-5.5 2.5-8 4-2 1-6.5 0-9-2l-4-4 3 4c1.5 2 5.5 5.5 8 7 3 1.5 7.5 5.5 9 8 2 2.5 5.5 8 7 11s1 6-1 6c-1.5 0-4.5-3-6-6s-4.5-6.5-6-7c-1.5-1-4 1.5-5 5-1 3 0 5.5 2 5s3 1.5 2 4c-.5 2.5-4 6-7 7s-9 .5-12-1c-2.5-1.5-7.5-5-10-7-2-2-4.5-3-5-2s1 4 3 6l10 8c2.5 2 7 6 9 8l10 8c2.5 1.5 7.5 5 10 7 3 1.5 8.5 5 11 7 2.5 1.5 7.5 5 10 7 3 1.5 8.5 5 11 7l10 6c3 1.5 8.5 5 11 7 3 1.5 8.5 5 11 7 2.5 1.5 7.5 5 10 7 3 1.5 8.5 5 11 7l10 6c3 1.5 8.5 5 11 7s7.5 5.5 10 7c3 1.5 8.5 5 11 7 3 1.5 8.5 5 11 7l10 6c3 1.5 8.5 5 11 7 3 1.5 8.5 5 11 7 2.5 1.5 7.5 5 10 7 3 1.5 8.5 5 11 7l10 6c3 1.5 8.5 5 11 7s7.5 5.5 10 7c3 1.5 8.5 5 11 7 3 1.5 8.5 4.5 11 6 3 1.5 8.5 5 11 7 2.5 1.5 7.5 5 10 7 3 1.5 8.5 5 11 7 2.5 1.5 7.5 5 10 7 3 1.5 8.5 5 11 7 2.5 1.5 7.5 5 10 7 2.5 1.5 7.5 5 10 7 3 1.5 8.5 5 11 7 2.5 1.5 7.5 5 10 7 3 1.5 8.5 4.5 11 6 3 1.5 8.5 5 11 7 2.5 1.5 7.5 5 10 7 3 1.5 8.5 5 11 7 2.5 1.5 7.5 5 10 7 3 1.5 8.5 5 11 7 2.5 1.5 7.5 5 10 7 2.5 1.5 7.5 5 10 7 3 1.5 8.5 5 11 7 2.5 1.5 7.5 5 10 7 3 1.5 8.5 5 11 7 2.5 1.5 7.5 5 10 7 2.5 1.5 7.5 5 10 7 3 1.5 8.5 4.5 11 6 3 1.5 8.5 5 11 7s7.5 5.5 10 7c3 1.5 8.5 5 11 7 2.5 1.5 8.5 6.5 12 10l8 6z" stroke-linejoin="round"/>
  <path stroke="#000" stroke-width="1.5" d="M812 1440h3l-2-3-1-4v7zM940 1440h9l2-6c1-3.5 3.5-9.5 5-12 1.5-3 4.5-8.5 6-11l6-12c1.5-3 4.5-8.5 6-11l6-12c1.5-3 4.5-8.5 6-11 1.5-3 4.5-8.5 6-11l6-12c1.5-3 4.5-8.5 6-11l6-12c1.5-3 4.5-8.5 6-11 1.5-3 4.5-8.5 6-11l6-12c1.5-3 4-9 5-12l6-12c1.5-3 4.5-8.5 6-11 1.5-3 4.5-8.5 6-11l6-12c1.5-3 4.5-8.5 6-11 1.5-3 4-9 5-12l6-12c1.5-3 4-9 5-12l6-12c1.5-3 4.5-8.5 6-11 1.5-3 4.5-8.5 6-11 2-2.5 5.5-8 7-11s4.5-8.5 6-11l6-12c1.5-3 4.5-8.5 6-11 1.5-3 4.5-8.5 6-11 1.5-3 4.5-8.5 6-11 2-3 5-9 6-12 1.5-3 4.5-8.5 6-11 2-3 5-9 6-12 1.5-3 4.5-8.5 6-11l6-12c1.5-3 4.5-8.5 6-11l6-12c1.5-3 4-9 5-12 1.5-3 4.5-8.5 6-11l6-12c1.5-3 4.5-8.5 6-11 1.5-3 4.5-8.5 6-11 2-3 5-9 6-12 1.5-3 4.5-8.5 6-11 2-2.5 5.5-8 7-11s4.5-8.5 6-11c2-2.5 5.5-8 7-11s4.5-8.5 6-11c1.5-3 4.5-8.5 6-11l6-12c1.5-3 4-9 5-12 1-3.5 3.5-9.5 5-12 2-3 5-9 6-12 1.5-3 4.5-8.5 6-11l6-12c1.5-3 4.5-8.5 6-11l6-12c1.5-3 4.5-8.5 6-11 1.5-3 4.5-8.5 6-11 1.5-3 4.5-8.5 6-11 2-3 5.5-8.5 7-11l6-12c1.5-3 4.5-8.5 6-11 2-2.5 5.5-7.5 7-10l6-12c1.5-3 4.5-8.5 6-11l6-12c1.5-3 5-8 7-10 2-2.5 7-5.5 10-6 3.5-.5 11-1.5 15-2s12-1 16-1c4-.5 14.5-.5 21 0h14v-7h-35l2-1c1-1 6-2 10-2 4.5 0 12.5-.5 16-1l7-1v-10l-13 1h-21c-4-.5-11-2-14-3-3-1.5-5-6-4-9 1-3.5 3.5-10 5-13s4.5-8.5 6-11l6-12c1.5-3 4.5-8.5 6-11 1.5-3 4.5-8.5 6-11 1.5-3 4.5-8.5 6-11 2-3 7-9.5 10-13l7-7v-4-10l-7 8c-3 3.5-8 10-10 13-1.5 2.5-4.5 8-6 11-1.5 2.5-4.5 8.5-6 12-1 3-3.5 9-5 12-1.5 2.5-4.5 8-6 11-1.5 2.5-5 8-7 11-1.5 2.5-4.5 8-6 11-1.5 2.5-4.5 8-6 11l-6 12c-1.5 2.5-4.5 8-6 11-1.5 2.5-5 7.5-7 10s-5.5 8-7 11c-1.5 2.5-4.5 8.5-6 12-1 3-3.5 9-5 12-1.5 2.5-4.5 8-6 11-1.5 2.5-4.5 8-6 11l-6 12c-1 3-4 8.5-6 11s-5.5 8-7 11c-1.5 2.5-4.5 8-6 11-1.5 2.5-4.5 8-6 11l-6 12c-1.5 2.5-4.5 8-6 11l-6 12c-1.5 2.5-4.5 8-6 11-1.5 2.5-4.5 8-6 11s-4 9.5-5 13c-1 3-3.5 9-5 12s-5 8.5-7 11c-1.5 2.5-4.5 8-6 11-1.5 2.5-4.5 8-6 11l-6 12c-1.5 2.5-5 8-7 11-1.5 2.5-4.5 8-6 11-1.5 2.5-4.5 8-6 11-1.5 2.5-4.5 8-6 11l-6 12c-1.5 2.5-5 8-7 11-1.5 2.5-4.5 8-6 11-1 3-3.5 9-5 12-1.5 2.5-4.5 8-6 11l-6 12c-1.5 2.5-4.5 8-6 11l-6 12c-1.5 2.5-4.5 8-6 11-1.5 2.5-4.5 8.5-6 12-1 3-3.5 9-5 12-1.5 2.5-5 8-7 11-1.5 2.5-4.5 8-6 11-1.5 2.5-4.5 8-6 11-1.5 2.5-4.5 8-6 11l-6 12c-1.5 2.5-4.5 8-6 11l-6 12c-1.5 2.5-4.5 8-6 11-1.5 2.5-4.5 8-6 11s-5 8.5-7 11c-1.5 2.5-4.5 8-6 11l-6 12c-1 3-3.5 9-5 12-1.5 2.5-4.5 8-6 11l-6 12c-1.5 2.5-4.5 8-6 11l-6 12c-1.5 2.5-4.5 8-6 11-1 3-3.5 9-5 12l-6 12c-1 3-3.5 9-5 12l-6 12c-1.5 2.5-4.5 8-6 11-1.5 2.5-4.5 8-6 11l-6 12c-1.5 2.5-4.5 8-6 11l-6 12c-1.5 2.5-4.5 8-6 11-1.5 2.5-4.5 8-6 11l-6 12c-1.5 2.5-5 8-7 11-1.5 2.5-4.5 8-6 11-1 3-3.5 9-5 12-1.5 2.5-4.5 8-6 11l-3 6z" stroke-linejoin="round"/>
  <path fill="#fff" stroke="#fff" stroke-width="1.5" d="M949 1440h491v-6-14-18-17-18-17-17-18-17-18-17-17-18-17-18-17-17-18-17-18-17-17-18-17-18-17-17-18-17-18-17-17-18-17-18-17-17-18-17-18-17-17-18-17-18-17-16h-14c-6.5-.5-17-.5-21 0-4 0-12 .5-16 1s-11.5 1.5-15 2c-3 .5-8 3.5-10 6-2 2-5.5 7-7 10l-6 12c-1.5 2.5-4.5 8-6 11l-6 12c-1.5 2.5-5 7.5-7 10-1.5 2.5-4.5 8-6 11l-6 12c-1.5 2.5-5 8-7 11-1.5 2.5-4.5 8-6 11-1.5 2.5-4.5 8-6 11-1.5 2.5-4.5 8-6 11l-6 12c-1.5 2.5-4.5 8-6 11l-6 12c-1.5 2.5-4.5 8-6 11-1 3-4 9-6 12-1.5 2.5-4 8.5-5 12-1 3-3.5 9-5 12l-6 12c-1.5 2.5-4.5 8-6 11-1.5 2.5-4.5 8-6 11s-5 8.5-7 11c-1.5 2.5-4.5 8-6 11s-5 8.5-7 11c-1.5 2.5-4.5 8-6 11-1 3-4 9-6 12-1.5 2.5-4.5 8-6 11-1.5 2.5-4.5 8-6 11l-6 12c-1.5 2.5-4.5 8-6 11-1 3-3.5 9-5 12l-6 12c-1.5 2.5-4.5 8-6 11l-6 12c-1.5 2.5-4.5 8-6 11-1 3-4 9-6 12-1.5 2.5-4.5 8-6 11-1 3-4 9-6 12-1.5 2.5-4.5 8-6 11-1.5 2.5-4.5 8-6 11-1.5 2.5-4.5 8-6 11l-6 12c-1.5 2.5-4.5 8-6 11s-5 8.5-7 11c-1.5 2.5-4.5 8-6 11-1.5 2.5-4.5 8-6 11l-6 12c-1 3-3.5 9-5 12l-6 12c-1 3-3.5 9-5 12-1.5 2.5-4.5 8-6 11l-6 12c-1.5 2.5-4.5 8-6 11-1.5 2.5-4.5 8-6 11l-6 12c-1 3-3.5 9-5 12l-6 12c-1.5 2.5-4.5 8-6 11-1.5 2.5-4.5 8-6 11l-6 12c-1.5 2.5-4.5 8-6 11l-6 12c-1.5 2.5-4.5 8-6 11-1.5 2.5-4.5 8-6 11l-6 12c-1.5 2.5-4.5 8-6 11l-6 12c-1.5 2.5-4.5 8-6 11-1.5 2.5-4 8.5-5 12l-2 6z" stroke-linejoin="round"/>
  <path stroke="#000" stroke-width="1.5" d="M644 1339l10-1-5 1h-5zM782 1306c11 0 15.5-1 16-2 .5-1.5-2.5-3-6-3s-9.5-2-12-4l-4-4 1 5c.5 2 2 5 3 6l2 2zM527 1284l-5-4 2 2 3 2zM724 1247v-1 1zM347 1233c-5.5-6-10-9.5-13-11l-10-8c-2-2-6.5-5.5-9-7-2.5-2-8-5.5-11-7-2.5-2-7.5-5.5-10-7-2.5-2-8-5.5-11-7-2.5-2-7.5-5.5-10-7-2.5-2-7.5-5.5-10-7-2.5-2-8-5.5-11-7-2.5-2-8-5.5-11-7-2.5-1.5-8-4.5-11-6s-9-4-12-5l-6-3 2 4c1 1.5 4.5 5 7 7 3 1.5 8.5 4.5 11 6 3 1.5 8.5 5 11 7 3 1.5 8.5 4.5 11 6 3 1.5 8.5 5 11 7 2.5 1.5 7.5 5 10 7l10 8c2.5 1.5 7 5.5 9 8l10 8 5 3h-11l5 4c2.5 1.5 8 4.5 11 6 3.5 1 7 1.5 7 1 .5-.5 0-2.5-1-4-.5-1.5 2-1.5 5 0s8 5 10 7c2.5 2 6.5 4 8 4h4zM444 1139c-3-5-6-8-8-9l-3-2 4 5c2.5 2 5.5 4.5 6 5l1 1z" stroke-linejoin="round"/>
  <path fill="#fff" stroke="#fff" stroke-width="1.5" d="M0 1134c5-12 8-19 9-22 1-3.5 3-10 4-13 1.5-3 3.5-9.5 4-13 1-4 2.5-11.5 3-15 1-3.5 3.5-10 5-13s4-9 5-12c1.5-3 4-9 5-12 1.5-3 3.5-9.5 4-13 1-4 2.5-11.5 3-15 1-3.5 2.5-10.5 3-14l2-8-2 4c-.5 2-2.5 6.5-4 9l-3 4 1-7c1-4 3-10.5 4-13 1.5-2.5 3-9 3-13s-1.5-10.5-3-13c-1.5-3-5-8-7-10l-4-5-4 10c-2 4.5-5.5 12-7 15-1 3-3 9.5-4 13l-2 6-1-3c-.5-1.5 0-6 1-9 1-3.5 3.5-10 5-13s3.5-9 4-12c.5-3.5-1-9-3-11-1.5-2-5.5-5-8-6s-4.5 1-4 4c.5 2.5-1.5 8.5-4 12l-5 6v18l3-9c2-5 5-13 6-16 1.5-3 4-5 5-4 1 .5 1 4.5 0 8s-3.5 10-5 13c-1 3-4 8.5-6 11l-3 4v32l3-5 3-6v6c0 2.5-1.5 7.5-3 10l-3 5v14l3-8c2-4.5 5-12 6-15 1-3.5 3-10 4-13 1.5-3.5 4-10 5-13 1-3.5 3-10 4-13l6-12 3-6-2 6c-.5 3-2 10-3 14-.5 3.5-2.5 10-4 13-1 3-3 9.5-4 13-.5 3.5-2.5 10-4 13s-4 9.5-5 13c-1 3-4 8.5-6 11l-3 4v48l3-8c2-4 5-11 6-14 1-3.5 3-10 4-13 1.5-3.5 4-6.5 5-6 1 0 1 3.5 0 7-.5 3.5-2.5 10.5-4 14-1 3-3.5 9-5 12-1 3-4 8.5-6 11l-3 4v39z" stroke-linejoin="round"/>
  <path stroke="#000" stroke-width="1.5" d="M100 1126c0-2-3-4-6-5-3-1.5-9.5-4-13-5l-6-3 2 3c1.5 1.5 6 4.5 9 6 3 1 8 2.5 10 3l4 1zM0 1095c5-6.5 8-12 9-15 1.5-3 4-9 5-12 1.5-3.5 3.5-10.5 4-14 1-3.5 1-7 0-7-1-.5-3.5 2.5-5 6-1 3-3 9.5-4 13-1 3-4 10-6 14l-3 8v7z" stroke-linejoin="round"/>
  <path fill="#fff" stroke="#fff" stroke-width="1.5" d="M47 1081c1.5-6.5 1.5-10.5 1-12 0-1.5-2.5-3.5-5-4l-4-2h1c.5 0 2.5 4.5 4 9l3 9zM76 1047l-2-5 1 3 1 2zM63 1045l2-5-1 3-1 2z" stroke-linejoin="round"/>
  <path stroke="#000" stroke-width="1.5" d="M106 1045c-1.5-5-4-9-6-11l-4-5v2c0 1 2 4.5 4 7 2 2 4.5 5 5 6l1 1zM0 1040c5-6.5 8-12 9-15 1-3.5 3.5-10 5-13s3.5-9.5 4-13c1-3.5 3-10 4-13 1.5-3 3.5-9.5 4-13 1-4 2.5-11 3-14l2-6-3 6-6 12c-1 3-3 9.5-4 13-1 3-3.5 9.5-5 13-1 3-3 9.5-4 13-1 3-4 10.5-6 15l-3 8v7zM0 1018v1l3-5c1.5-2.5 3-7.5 3-10v-6l-3 6-3 5v9z" stroke-linejoin="round"/>
  <path fill="#fff" stroke="#fff" stroke-width="1.5" d="M78 1017l1-2-1 1v1z" stroke-linejoin="round"/>
  <path stroke="#000" stroke-width="1.5" d="M430 998c-4.5-3.5-9-6.5-12-8-2.5-1.5-6.5-2-8-1-1 .5 1 2.5 4 4 3 1 8.5 3 11 4l5 1zM0 977c5-6.5 8-12 9-15 1.5-3 4-9.5 5-13s1-7.5 0-8c-1-1-3.5 1-5 4-1 3-4 11-6 16l-3 9v7zM37 966c1.5-5 1.5-7 1-7l-1 4v3zM34 962l4-3v-2l1-3-3 4-2 4z" stroke-linejoin="round"/>
  <path fill="#fff" stroke="#fff" stroke-width="1.5" d="M0 943v1l1-1c.5-.5 2-2.5 3-4 1.5-2 3.5-4.5 4-5l1-2-5 2-4 1v8zM29 941l3-1-3-1-2-2 1 2 1 2zM0 907v1l1-4c1-2.5 2-5.5 2-6s-1-.5-2 0l-1 1v8zM0 890c3-9 3.5-14.5 3-17s-.5-8.5 0-12c1-3.5 2.5-10 3-13l2-7-4 5-4 5v39z" stroke-linejoin="round"/>
  <path stroke="#000" stroke-width="1.5" d="M371 886c-4.5-3.5-9-6-12-7l-6-3 4 3c2 1.5 6.5 4 9 5l5 2zM787 880l-3-2 1 1 2 1zM799 877l10-5-5 2c-2 1-4.5 2.5-5 3zM746 876c-3-3.5-7-6.5-10-8-2.5-1.5-7.5-5-10-7l-5-4 2 5c1.5 2.5 5.5 7 8 9 2.5 1.5 7.5 3.5 10 4l5 1zM298 871l3-2-6 1h-6l4 1h5zM793 867c2-10.5 2.5-18 2-22s-3.5-10-6-12c-2-2-6.5-6-9-8-2-2-3.5-5-3-6l1-2-6 3c-3 1-7.5 5.5-9 9-1 3-2.5 9-3 12 0 3-1.5 6.5-3 7-1.5 0-2.5 2-2 4l2 3-5-4c-2-2-7.5-4.5-11-5l-6-2 5 4c2.5 1.5 7 5 9 7l10 8c3 1.5 5.5 1.5 5 0 0-1.5 2-1.5 4 0 2.5 1 10 2.5 15 3l10 1zM370 858c-1-3-4-5-7-6l-6-3 4 4c2.5 1.5 6 3.5 7 4l2 1z" stroke-linejoin="round"/>
  <path fill="#fff" stroke="#fff" stroke-width="1.5" d="M784 852c-4-6-5.5-8.5-6-9-.5-1 .5-1.5 2-1h4l-7-1-7-2 3 5c1.5 2 5 5 7 6l4 2z" stroke-linejoin="round"/>
  <path stroke="#000" stroke-width="1.5" d="M755 833c6-6.5 10-11 12-13 2.5-2.5 4.5-6 4-7 0-1-2-3-4-4-2-1.5-4-4-4-5 .5-1.5 2.5-2.5 4-2 2 .5 4.5 3 5 5 1 1.5 4.5 4.5 7 6 3 1.5 9 4 12 5 3.5 1 7 .5 7-1s1.5-2.5 3-2l4 1h1l-5-3c-2.5-1.5-4-4-3-5 1-1.5 5-3.5 8-4l6-1-6-3c-2.5-1.5-8-1.5-11 0s-8 2-10 1c-2-1.5-2.5-5.5-1-8 2-2.5 1.5-5-1-5-2-.5-7.5 0-11 1-3 1-9 4-12 6-2.5 1.5-5.5 6-6 9-.5 2.5-3 5.5-5 6-1.5.5-2.5-1-2-3s2.5-6.5 4-9c2-2.5 6-7 8-9l9-9 5-4-5 2c-2.5.5-3.5-1.5-2-4 2-3 6.5-7 9-8 3-1 8.5 0 11 2 3 1.5 8.5 5 11 7 2.5 1.5 7 5 9 7 2.5 2 6.5 7 8 10s2.5 9.5 2 13c0 3.5-1 6.5-2 6-.5-.5-3 .5-5 2l-3 3-2 4c-1 2-4 4.5-6 5-1.5 0-6-.5-9-1l-6-2 5 4c2.5 2 8.5 5 12 6 3.5.5 9.5-.5 12-2 2.5-2 6.5-6.5 8-9 2-3 4.5-9.5 5-13 1-3.5.5-10-1-13s-5-8.5-7-11c-1.5-2.5-5.5-6.5-8-8-2.5-2-8-5.5-11-7-2.5-2-7.5-5.5-10-7-2.5-2-8.5-4-12-4-3-.5-8 1.5-10 4-1.5 2.5-5 7.5-7 10-1.5 2.5-5 7.5-7 10l-8 10c-2 2-6 7-8 10-1.5 2.5-5 7.5-7 10-2 2-4 6.5-4 9 .5 2.5 3.5 7 6 9 3 1.5 10.5 3 15 3h9z" stroke-linejoin="round"/>
  <path fill="#fff" stroke="#fff" stroke-width="1.5" d="M770 836l12-3-5 1c-2.5 0-5.5.5-6 1l-1 1zM746 829l-5-4 2 2 3 2zM816 812c.5-10.5-.5-17-2-20s-5.5-8-8-10c-2-2-6.5-5.5-9-7-2.5-2-8-5.5-11-7-2.5-2-8-3-11-2-2.5 1-7 5-9 8-1.5 2.5-.5 4.5 2 4l5-2-5 4-9 9c-2 2-6 6.5-8 9-1.5 2.5-3.5 7-4 9s.5 3.5 2 3c2-.5 4.5-3.5 5-6 .5-3 3.5-7.5 6-9 3-2 9-5 12-6 3.5-1 9-1.5 11-1 2.5 0 3 2.5 1 5-1.5 2.5-1 6.5 1 8 2 1 7 .5 10-1s8.5-1.5 11 0l6 3-6 1c-3 .5-7 2.5-8 4-1 1 .5 3.5 3 5l5 3 3-3c2-1.5 4.5-2.5 5-2l2 1zM0 806l3-21c.5-4 1.5-11.5 2-15 1-4 2.5-11.5 3-15 .5-4 1.5-11.5 2-15 .5-4 1-11 1-14v-6l-3 6c-1.5 2.5-4.5 9-6 13l-2 7v60z" stroke-linejoin="round"/>
  <path stroke="#000" stroke-width="1.5" d="M721 803c8-4.5 13-8 15-10 2.5-2.5 6.5-7.5 8-10 2-2.5 5-8 6-11 1-3.5 2-10.5 2-14 .5-4-.5-10.5-2-13-1.5-3-5-8.5-7-11-1.5-3-5.5-7.5-8-9-2.5-2-8-5.5-11-7-2.5-1.5-9-3.5-13-4-3.5-1-11-1.5-15-1-4 0-11 1.5-14 3s-8 5.5-10 8c-2 2-6 6.5-8 9-2 2-5 7.5-6 11s-1.5 11-1 15c.5 3.5 2.5 10 4 13s4.5 8.5 6 11c2 2.5 6.5 7 9 9 2.5 1.5 8 4.5 11 6 3.5 1 13.5 3 20 4l14 1z" stroke-linejoin="round"/>
  <path fill="#fff" stroke="#fff" stroke-width="1.5" d="M13 797l1-10-1 5v5zM719 790c9-3.5 14-6 16-7s5.5-4.5 7-7c1.5-3 3.5-9.5 4-13 1-3.5.5-10-1-13-1-3.5-4-9.5-6-12-1.5-2.5-4.5-6.5-6-8s-6-4.5-9-6c-2.5-1.5-8.5-3.5-12-4-3-.5-10-1-14-1s-11 1.5-14 3c-2.5 1.5-7 5.5-9 8s-5.5 8-7 11c-1.5 2.5-3.5 8.5-4 12-.5 3 0 6.5 1 7s2.5-2.5 3-6l2-7 1 7c1 3 2.5 9.5 3 13 .5 3 3.5 8 6 10 2.5 1.5 7.5 5 10 7 3 1.5 11.5 4 17 5l12 1z" stroke-linejoin="round"/>
  <path stroke="#000" stroke-width="1.5" d="M808 793c-2.5-4.5-5.5-8-8-10-2-2-6.5-4.5-9-5l-4-2 4 5c2 2 6.5 6 9 8 2.5 1.5 5.5 3.5 6 4h2zM722 784c7.5-5 11.5-9 13-11l4-5-6 2c-2.5 1-7.5 4-10 6-2 2-7.5 5-11 6-3 .5-9 0-12-1-3-1.5-5.5-1.5-5 0 1 1 5 3.5 8 5 3 1 9 1 12 0l7-2zM645 773c-7.5-5-13-8.5-16-10l-6-3 3 5c1.5 2 5.5 6 8 8 2.5 1.5 6.5 2.5 8 2l3-2zM847 771c3-9.5 5.5-16 7-19s2.5-7 2-8c-.5-1.5-3-.5-5 2-1.5 2.5-4.5 8.5-6 12-1 3-3 9.5-4 13l-2 6 4-3 4-3z" stroke-linejoin="round"/>
  <path stroke="#000" stroke-width="1.5" d="M714 776c6.5-6 10.5-10.5 12-13s3-7 3-9c.5-2-1-6-3-8-2-2.5-6.5-7-9-9s-8-3-11-2c-3 .5-9 3-12 5-2.5 1.5-6.5 6-8 9-1 3-1.5 9.5-1 13 .5 3 3.5 8 6 10s9.5 4 14 4h9z" stroke-linejoin="round"/>
  <path fill="#fff" stroke="#fff" stroke-width="1.5" d="M714 767c3.5-9 3-14.5 1-17-1.5-3-6.5-6-10-6-3 0-8 2.5-10 5-2 2-3.5 7.5-3 11 1 3 7 6.5 12 7h10z" stroke-linejoin="round"/>
  <path stroke="#000" stroke-width="1.5" d="M679 762c.5-7.5 0-10.5-1-11l-1-1 1 6 1 6zM741 761v-1 1zM818 750c6-6.5 9.5-11.5 11-14 2-3 6-8 8-10 2-2.5 6.5-5 9-5 3 0 9-.5 12-1 3.5-1 8.5-4.5 10-7 2-2.5 4-7.5 4-10s-2.5-6.5-5-8l-10-8c-2-2-7-5.5-10-7-2.5-2-7.5-5.5-10-7-2.5-2-8.5-5-12-6-3-1.5-8-.5-10 2-2 2-5.5 7-7 10-1.5 2.5-1.5 6.5 0 8s3.5 5 4 7c1 2 0 7-2 10-1.5 2.5-5 7.5-7 10-1.5 2.5-5 7.5-7 10-2 2-5 7-6 10s0 8 2 10c2.5 2 10 4.5 15 5l11 1z" stroke-linejoin="round"/>
  <path fill="#fff" stroke="#fff" stroke-width="1.5" d="M818 741c6-6.5 9.5-11.5 11-14 2-3 6-8 8-10 2-2.5 7-4.5 10-4 3.5.5 9-1 11-3 2.5-2.5 3.5-7 2-9-1.5-2.5-5.5-7-8-9s-5.5-4-6-4h-1l1 4 2 4-5-3c-2.5-2-8-5.5-11-7-2.5-2-6.5-6-8-8l-2-4-3 8c-1.5 3.5-2 9-1 11 1.5 2 1 7-1 10-1.5 2.5-5 7.5-7 10-1.5 2.5-5 7.5-7 10s-5 7.5-6 10c-1 2 0 6 2 8 2.5 2 8.5 3 12 2l7-2z" stroke-linejoin="round"/>
  <path stroke="#000" stroke-width="1.5" d="M632 746c9.5-3 15.5-6 18-8s7-6 9-8c2-2.5 5.5-7.5 7-10 2-2.5 4.5-8.5 5-12s0-10-1-13c-1-3.5-4-9.5-6-12-1.5-3-5.5-8-8-10-2-2-6.5-6-9-8-2-2-7-5.5-10-7s-9-4-12-5c-2.5-1-7.5.5-10 3-2 2-6 6.5-8 9-1.5 2.5-5 7.5-7 10-2 2-6 6.5-8 9l-8 10c-2 2-6 7-8 10-1.5 2.5-3 7.5-3 10 0 2 2.5 6 5 8 2.5 1.5 7.5 5 10 7l10 8c2.5 1.5 12 4.5 19 6l15 3z" stroke-linejoin="round"/>
  <path fill="#fff" stroke="#fff" stroke-width="1.5" d="M638 733c3 1 6.5-.5 9-2 3-2 7.5-6.5 9-9 2-2.5 5-8 6-11 1.5-3 2-9.5 1-13s-4-9-6-11c-2-2.5-5.5-7-7-9-1-2.5-4.5-7-7-9-2-2-7-5.5-10-7-2.5-1.5-8-2-11-1s-8 4.5-10 7c-2 2-6 7-8 10-1.5 2.5-5 7.5-7 10-1.5 2.5-5 7.5-7 10-1.5 2.5-4.5 8-6 11-1 2.5 0 7 2 9 2 1.5 6.5 5 9 7 3 1.5 7.5 3.5 9 4l4 1-4-4c-2-2.5-4.5-8.5-5-12 0-4-2.5-6.5-5-5l-4 3 3-4c1.5-2 4.5-6.5 6-9 1.5-3 3.5-5 4-4 .5.5 1.5 2 2 3s0 5.5-1 9c-1 3-.5 9 1 12 2 2.5 6.5 6.5 9 8 3 1.5 10.5 4 15 5l9 1z" stroke-linejoin="round"/>
  <path stroke="#000" stroke-width="1.5" d="M686 734l6-5-3 3-3 2zM645 728l5-8-3 4-2 4zM632 721c6.5-6 11-10.5 13-13s2.5-7 1-9c-1-2-4-6-6-8-2-2.5-6.5-6-9-7-2-1.5-6-.5-8 2l-9 9c-2 2-5.5 7-7 10-1 3 0 8.5 2 11 2 2 8.5 4.5 13 5h10zM822 721l-1-6v3l1 3z" stroke-linejoin="round"/>
  <path fill="#fff" stroke="#fff" stroke-width="1.5" d="M633 710c6-6.5 6-11.5 4-14-1.5-3-4.5-7-6-8-1-1-3.5 1-5 4-1.5 2.5-4.5 8-6 11s1 6.5 5 7h8z" stroke-linejoin="round"/>
  <path stroke="#000" stroke-width="1.5" d="M570 705c6-6.5 10-11.5 12-14s5.5-7.5 7-10c2-2.5 6-7 8-9 2-2.5 5.5-7.5 7-10 2-3 6-8 8-10 2-2.5 3-6.5 2-8s-4.5-4.5-7-6c-2.5-2-7.5-4.5-10-5-2.5-1-7.5.5-10 3-2 2-6 6.5-8 9-2 2-6 7-8 10-1.5 2.5-1.5 5 0 5 2 0 5.5-2.5 7-5l8-10c2-2.5 6.5-5 9-5 3 0 7.5 2 9 4 2 1.5 2 5.5 0 8-1.5 2.5-5 7.5-7 10l-9 9c-2 2-6 6.5-8 9-2 2-6 7-8 10-1.5 2.5-5 6.5-7 8-2 1-6.5 0-9-2-2-2-4.5-7-5-10 0-3.5-.5-10.5-1-14 0-3.5.5-10.5 1-14 1-4 1-9 0-10-1-1.5-3.5 0-5 3-1 3-2.5 10-3 14l-2 16c0 4 .5 11 1 14 1 2.5 4.5 7 7 9 2.5 1.5 9 2.5 13 2l8-1zM767 713c8-4.5 12-8 13-10l3-4-7 4c-3.5 2-10.5 4-14 4-3 0-9.5-1-13-2s-10-3.5-13-5c-2.5-1.5-7.5-5-10-7-2-2.5-5.5-8-7-11l-2-6-2 4c-1 1.5-.5 6 1 9 2 2.5 6.5 7 9 9 2.5 1.5 7.5 5 10 7s11.5 5 18 6l14 2zM855 711c3-5 1.5-7-1-7-2.5-.5-6.5-1.5-8-2l-2-1h-9l4 3c2.5 1.5 7.5 4 10 5l6 2zM844 700v1l-1-3c-.5-1.5-4-4.5-7-6-2.5-1.5-7.5-3.5-10-4l-4-2 4 4c2.5 2 7.5 5.5 10 7 3 1.5 6.5 3 7 3h1zM593 698c6-5 8-8 8-9l1-2-4 5c-2 2.5-4.5 5.5-5 6zM783 699l12-12c2-2.5 5.5-7.5 7-10 2-3 6-8 8-10 2-2.5 2-7.5 0-10-1.5-2.5-6-6.5-9-8-2.5-2-8-3.5-11-3-3 0-8 3-10 6-1.5 2.5-5 7.5-7 10-1.5 2.5-5 7.5-7 10-2 2-5 6.5-6 9l-1 4 4-4 8-10c2-2.5 5.5-7.5 7-10 2-2.5 6.5-6.5 9-8 3-1.5 8.5-1 11 1s4 7 3 10c-.5 3-3 9-5 12-1.5 2.5-5 7.5-7 10-1.5 2.5-4 7-5 9l-1 4z" stroke-linejoin="round"/>
  <path stroke="#000" stroke-width="1.5" d="M570 690c-1-6-2-9.5-3-11-.5-2-1-5-1-6 0-1.5-.5-6-1-9 0-3 1-9 2-12 1.5-3.5 3.5-10.5 4-14 .5-4 1-11.5 1-15s-2.5-9-5-11c-2-2-6.5-5.5-9-7-2.5-2-8-2.5-11-1s-8 5.5-10 8c-1.5 2.5-5 7.5-7 10l-8 10c-2 2-6 6.5-8 9-1.5 2.5-5 7.5-7 10s-6.5 7-9 9c-2 2-1.5 6 1 8l10 8c2.5 1.5 8 2.5 11 2 3-1 8-4.5 10-7s5.5-7.5 7-10c2-2.5 4.5-8 5-11l2-7-4 4c-2 1.5-4 .5-4-2 0-3 1-7 2-8s2-4 2-6c.5-2 1-6 1-8 .5-2.5 3-7 5-9 2.5-2 7.5-2 10 0 2.5 1.5 6 5.5 7 8 1.5 2 2 7.5 1 11-1 3-3 9.5-4 13-.5 3-1.5 10-2 14-.5 3.5-1.5 7-2 7-.5-.5-1.5 1-2 3 0 1.5 2 5.5 4 8 2 2 4.5 6.5 5 9 1 2 3 4 4 4l3-1zM848 696l-3-8h-1c-.5-.5-2.5-1.5-4-2-1-1-3-2.5-4-3-.5-1-1.5-2.5-2-3l-1-1h-2c-.5-.5-3-1.5-5-2-1.5-1-3.5-2-4-2v-1l2 4c1.5 2 5.5 6 8 8 3 1.5 8.5 5 11 7l5 3z" stroke-linejoin="round"/>
  <path fill="#fff" stroke="#fff" stroke-width="1.5" d="M843 687l2 1-4-3c-1.5-2-4.5-4.5-6-5l-2-1 1 1c.5.5 1.5 2 2 3 1 .5 3 2 4 3l3 1z" stroke-linejoin="round"/>
  <path stroke="#000" stroke-width="1.5" d="M770 679c6.5-4.5 11-8 13-10 2-2.5 4.5-7.5 5-10l1-5-4 5c-1.5 2.5-5 7.5-7 10-2 2-5 5.5-6 7l-2 3z" stroke-linejoin="round"/>
  <path fill="#fff" stroke="#fff" stroke-width="1.5" d="M830 678l3 1-4-2c-2-1.5-5-3-6-3h-1v1c.5 0 2.5 1 4 2l4 1z" stroke-linejoin="round"/>
  <path stroke="#000" stroke-width="1.5" d="M701 667c-9 1-14.5-1-17-3-2-2.5-5-8-6-11-1-3.5-2-11-2-15v-9l-3 4c-1 1.5-2.5 7-3 11 0 4 1.5 11 3 14 2 2.5 6 7 8 9 2.5 2 8.5 3 12 2l8-2zM579 672c1.5-8 0-10-2-9-1.5 1-2 4-1 6l3 3z" stroke-linejoin="round"/>
  <path fill="#fff" stroke="#fff" stroke-width="1.5" d="M526 666l-2-4h-3c-1 0-1-1.5 0-3l2-3v1c.5 0 1 1.5 1 3v2l2-3c1.5-1.5 3.5-6 4-9s0-5.5-1-5c-1 0-1-2.5 0-5l2-5-4 5c-2 2-6 6.5-8 9-2 2-5 7-6 10-.5 2.5-1 6-1 7 .5 1 4 1.5 7 1l7-1z" stroke-linejoin="round"/>
  <path stroke="#000" stroke-width="1.5" d="M749 663c7.5-5 12-9.5 14-12s5.5-7.5 7-10c1.5-3 2-8 1-10-1-2.5-5-6.5-8-8s-6.5-2-7-1c0 1 2.5 4 5 6s3.5 7 2 10c-1 3-4 8.5-6 11l-9 9c-2 2-3 4.5-2 5h3zM519 662h5v-2c0-1.5-.5-3-1-3v-1l-2 3-2 3z" stroke-linejoin="round"/>
  <path fill="#fff" stroke="#fff" stroke-width="1.5" d="M21 650c5-7.5 8.5-12.5 10-15 2-3 5.5-8.5 7-11 1.5-3 4.5-8.5 6-11 1.5-3 5-8.5 7-11s4-6 4-7v-3l-3 6c-1.5 3-5.5 7.5-8 9-2 1.5-5.5 6-7 9-1 3-3.5 9-5 12s-5 8.5-7 11c-1.5 2.5-4.5 8-6 11l-3 6 2-3 3-3z" stroke-linejoin="round"/>
  <path stroke="#000" stroke-width="1.5" d="M495 655c6-6.5 8-10.5 8-12 .5-2-1.5-5.5-4-7-2-1.5-6.5-4.5-9-6-2.5-2-5-4.5-5-5 .5-1 3.5-.5 6 1 3 1.5 8.5 4 11 5 3 .5 8-1 10-3 2-2.5 3.5-7.5 3-10 0-2.5-2.5-7-5-9s-7-6-9-8c-2-2.5-7-5.5-10-6s-6.5-.5-7 0c0 .5 1 2 2 3 1.5 1-.5 3-4 4s-6-.5-5-3c1.5-2.5 5-6 7-7 2.5-1.5 7.5-1.5 10 0 3 1.5 8.5 5 11 7 2.5 1.5 7.5 5 10 7s6.5 5 8 6c1.5.5 5-1 7-3 2.5-2.5 6.5-7.5 8-10 2-2.5 1.5-6.5-1-8-2.5-2-8-5.5-11-7-2.5-2-7.5-5.5-10-7-2.5-2-8-5.5-11-7-2.5-2-7.5-2.5-10-1-2.5 1-7 4.5-9 7l-9 9c-2 2-6 6.5-8 9-1.5 2.5-5 7.5-7 10l-8 10c-2 2-6 6.5-8 9-2 2-2 6.5 0 9l10 8c2.5 1.5 7.5 5 10 7 3 1.5 8 5 10 7 2.5 2 8.5 3.5 12 3l7-2z" stroke-linejoin="round"/>
  <path fill="#fff" stroke="#fff" stroke-width="1.5" d="M483 647c-3-2-4.5-3-5-3l2 2 3 1zM478 644c-4.5-6.5-6.5-11-7-13-.5-2.5-2-5.5-3-6-.5-1 1.5-3.5 4-5 3-1.5 9.5-3 13-3 4 0 10 1.5 12 3 2.5 1 5.5 1.5 6 1 1-.5-.5-3-3-5-2-2.5-7.5-6-11-7-3-1-7-.5-8 1-.5 1.5-4 4.5-7 6s-8 5.5-10 8c-2 2-2.5 6.5-1 9 2 2 6.5 6 9 8l6 3z" stroke-linejoin="round"/>
  <path stroke="#000" stroke-width="1.5" d="M655 637c5-7.5 5.5-10 4-10s-5 2.5-7 5c-2 2-7 3-10 2-2.5-1-8-3.5-11-5-2.5-2-5.5-6.5-6-9 0-2.5 1-8.5 2-12s3-10 4-13c1-3.5 1.5-9 1-11l-1-5-2 7c-1 3.5-3.5 10-5 13-1 3-3.5 9.5-5 13-1 3-4 4.5-6 3-2-2-6-6.5-8-9-1.5-2.5-5-7.5-7-10-1.5-3-6-7.5-9-9-2.5-1.5-9-3.5-13-4s-9-2-10-3c-.5-1 3-1.5 7-1h8l-5-2c-2.5-1-7.5-2.5-10-3-2.5-1-2-3.5 1-5s8.5-4.5 11-6c2.5-2 7.5-5.5 10-7 2.5-2 7.5-5.5 10-7 3-2 8.5-5.5 11-7 2.5-2 6.5-5.5 8-7l3-3-6 3c-3 1-8.5 4-11 6-2.5 1.5-8 4.5-11 6l-12 6c-2.5 1.5-8 5-11 7-2.5 1.5-7.5 5-10 7-2.5 1.5-6 2.5-7 2-1-1 0-4.5 2-7s3.5-5 3-5c-.5-.5-4.5.5-8 2-3 1-8.5 2-11 2-2.5-.5-7.5-2.5-10-4-2.5-2-8-5.5-11-7-2.5-2-5.5-6-6-8 0-2 1.5-6.5 3-9 2-3 6-8 8-10 2-2.5 6-7 8-9l8-10c2-2.5 6.5-6.5 9-8 3-1.5 9-1.5 12 0s8.5 4.5 11 6c3 1.5 7 6 8 9 1 2.5 0 5.5-2 6-1.5 0-6-1.5-9-3-2.5-1.5-8-4.5-11-6s-9-1.5-12 0l-6 2h4c2-.5 6.5 1 9 3 3 1.5 8.5 4.5 11 6l12 6c3.5 1 9 0 11-2 2-2.5 3.5-7.5 3-10 0-2.5-2.5-7-5-9s-7.5-5.5-10-7c-2.5-2-8-5.5-11-7-2.5-2-8-4-11-4-3-.5-8 1.5-10 4-2 2-6 6.5-8 9l-8 10c-2 2-6 6.5-8 9l-8 10c-2 2-6 6.5-8 9-2 2-2 6.5 0 9l10 8c2.5 1.5 7.5 5 10 7 3 1.5 8.5 5 11 7 2.5 1.5 6 4 7 5 1 .5 4.5 3 7 5 3 1.5 8.5 4.5 11 6l12 6c3.5 1 10 2 13 2 3.5 0 8.5 3 10 6 1.5 2.5 4.5 8 6 11 2 2.5 6.5 7 9 9 2.5 1.5 7.5 5 10 7s7.5 5.5 10 7c3 1.5 8.5 4.5 11 6 3 1.5 8.5 2 11 1l6-2zM695 634c4.5-6.5 7.5-11.5 9-14 2-2.5 3.5-6 3-7v-3l-4 5c-1.5 2.5-4.5 8-6 11-1.5 2.5-3 6-3 7l1 1zM559 633c-1.5-5-4.5-8.5-7-10l-4-3 4 5c2 2.5 4.5 6 5 7l2 1zM435 632c-3-5-6.5-9-9-11-2-2-5.5-3.5-7-3s-.5 3 2 5c2.5 1.5 7 4.5 9 6l5 3z" stroke-linejoin="round"/>
  <path fill="#fff" stroke="#fff" stroke-width="1.5" d="M1405 631h35v-5l-7 1c-3.5.5-11.5 1-16 1-4 0-9 1-10 2l-2 1zM199 629h78c4.5 0 11.5-1 14-2l6-2-6-1c-2.5-1-9.5-2-14-2h-69c-4.5 0-13-.5-17-1-3.5-.5-11.5-1-16-1-4 0-12 .5-16 1s-12.5 1-17 1h-17c-4.5 0-12.5 1-16 2l-7 1 2 1c1 0 6 .5 10 1s12 1 16 1h35c4.5 0 15 .5 21 1h13z" stroke-linejoin="round"/>
  <path stroke="#000" stroke-width="1.5" d="M690 628c3.5-7.5 4.5-13 4-16v-6l-2 8c-.5 3.5-1.5 9-2 11v3zM709 627l12-1h-6c-3-.5-6-.5-6 0v1zM172 624h15l-4-1c-1.5-.5-5-.5-7 0l-4 1zM639 616c5-7.5 8.5-12.5 10-15l3-5-5 4c-2 2-6 6.5-8 9-2 2-3 5-2 6l2 1z" stroke-linejoin="round"/>
  <path fill="#fff" stroke="#fff" stroke-width="1.5" d="M1415 617l25-1v-10-19-17-18-17-19l-7 7c-3 3.5-8 10-10 13-1.5 2.5-4.5 8-6 11-1.5 2.5-4.5 8-6 11-1.5 2.5-4.5 8-6 11l-6 12c-1.5 2.5-4.5 8-6 11s-4 9.5-5 13c-1 3 1 7.5 4 9 3 1 10 2.5 14 3h9z" stroke-linejoin="round"/>
  <path stroke="#000" stroke-width="1.5" d="M744 613c-1.5-3.5-5-6.5-8-8-2.5-1.5-7-2.5-9-2h-3l5 4c2.5 1.5 7.5 4 10 5l5 1zM424 607c6.5-6 12-9.5 15-11s8.5-4.5 11-6c2.5-2 7.5-5.5 10-7 3-1.5 8.5-4.5 11-6 3-2 8.5-5.5 11-7 2.5-2 5-5.5 5-7 .5-2-1.5-6-4-8-2-2-6.5-5.5-9-7-2.5-2-8-2.5-11-1s-8.5 5-11 7c-2.5 1.5-7.5 5-10 7s-6 4-7 4c-1-.5-.5-3.5 1-6l6-12c1.5-3 2.5-9 2-12 0-3-2.5-8-5-10s-7.5-5.5-10-7c-2.5-2-7-2.5-9-1-2 1-5.5 5-7 8s-4 9.5-5 13c-1 3-3 9.5-4 13l-4 14c-1 3-3 9.5-4 13-1 3-2 9.5-2 13s2.5 9 5 11c2.5 1.5 10 3.5 15 4l10 1z" stroke-linejoin="round"/>
  <path fill="#fff" stroke="#fff" stroke-width="1.5" d="M422 597c6.5-4.5 11-8 13-10l9-9c2-2.5 6-7 8-9 2.5-2 5-2.5 5-1v5c.5 1 3.5.5 6-1 3-2 6.5-6 7-8 1-2 0-5-2-6-2-1.5-6.5-1-9 1s-7 6.5-9 9c-2 2-6 6.5-8 9s-6.5 7-9 9c-2.5 1.5-8.5 4-12 5-3 1-8.5 1-11 0l-4-2-1 2c-.5.5-.5 3 0 5 1 2 5.5 3.5 9 3l8-2zM531 596c-5.5-4.5-9.5-6-12-6-2-.5-3.5 1-3 3 .5 1.5-2 1.5-5 0-2.5-1.5-6-3-7-3h-2l5 3c3 1.5 10.5 3 15 3h9z" stroke-linejoin="round"/>
  <path fill="#fff" stroke="#fff" stroke-width="1.5" d="M406 588v1l3-1c2-1 3.5-3.5 3-5l-1-4-3 5-2 4zM500 582l-3-2 1 1 2 1z" stroke-linejoin="round"/>
  <path stroke="#000" stroke-width="1.5" d="M624 582l-2-7 1 4 1 3z" stroke-linejoin="round"/>
  <path fill="#fff" stroke="#fff" stroke-width="1.5" d="M409 567c6-5 8.5-8 9-9l1-3-4 3c-1.5 1-4 4-5 6l-1 3z" stroke-linejoin="round"/>
  <path stroke="#000" stroke-width="1.5" d="M547 553c3-2 1-4-2-5l-12-6-5-4 3 5c1.5 2 5.5 5.5 8 7 3 1.5 6.5 3 7 3h1z" stroke-linejoin="round"/>
  <path fill="#fff" stroke="#fff" stroke-width="1.5" d="M415 551c5-6 9-10 11-12 2.5-2 3-5.5 1-7s-5.5 0-7 3c-1 3-3 8.5-4 11l-1 5z" stroke-linejoin="round"/>
  <path stroke="#000" stroke-width="1.5" d="M524 548c-2.5-7.5-4-10-5-10-.5 0 .5 2.5 2 5l3 5zM568 539c2-6 .5-10-2-12s-8-5.5-11-7l-5-3 3 5c1.5 2 5.5 6 8 8s2.5 5.5 0 7c-2.5 1-8.5 1-12 0-3-1.5-8.5-2-11-1l-5 1 6 2c3 .5 9 2.5 12 4 3.5 1 9.5.5 12-1l5-3zM525 536c6.5-4.5 9.5-8 10-10l1-5-5 5c-2 2-4.5 5.5-5 7l-1 3zM467 512c6-6.5 10-7.5 12-6 2.5 1 7.5 3.5 10 5 3 1.5 9.5 3 13 3 4 0 10.5-1.5 13-3 3-2 8-6 10-8 2-2.5 5.5-8 7-11s2-9 1-12c-1-3.5-4-9-6-11-2-2.5-6.5-7-9-9-2-2.5-7-6.5-10-8-2.5-1.5-8-4.5-11-6-2.5-2-8-2.5-11-1-3 1-8 4.5-10 7-2 2-6 6.5-8 9l-8 10c-1.5 2.5-5.5 7.5-8 10-2 2-6 6.5-8 9-2 2-4.5 7-5 10-.5 2.5 1 7.5 3 10 2.5 2 10 3.5 15 3l10-1z" stroke-linejoin="round"/>
  <path fill="#fff" stroke="#fff" stroke-width="1.5" d="M514 503l8-9-3 2-8 4c-2.5 1.5-8 2-11 1-3-1.5-8.5-5-11-7-2-2.5-4.5-8-5-11 0-3 .5-8 1-10l2-5-4 3c-1.5 1.5-5.5 5-8 7-2 2-2 4.5 0 5 2.5 0 5 2.5 5 5 .5 2.5 2 5.5 3 6s4 2.5 6 4c2.5 1.5 10 3.5 15 4l10 1z" stroke-linejoin="round"/>
  <path stroke="#000" stroke-width="1.5" d="M620 499c-9-2-14.5-5-17-7s-6-3-7-2c-1 .5.5 3 3 5 2.5 1.5 9 3.5 13 4h8z" stroke-linejoin="round"/>
  <path fill="#fff" stroke="#fff" stroke-width="1.5" d="M68 498c2-9 2-11.5 1-11-.5.5-1 3.5-1 6v5zM513 491c6.5-6 7.5-10.5 6-13-1-3-4.5-6.5-7-7l-5-2 3 5c2 2.5 3.5 6 3 7s-3 2-5 2c-1.5 0-5-2.5-7-5s-5-3-6-1c-1 1.5-.5 5.5 1 8 2 2.5 5 7 6 9 1.5 1.5 5 1.5 7 0l4-3z" stroke-linejoin="round"/>
  <path stroke="#000" stroke-width="1.5" d="M952 484c-7-6-12.5-9-16-10s-7 0-7 2c0 1.5 3 4.5 6 6 3 1 8.5 4 11 6s5 2 5 0l1-4zM1061 486c-5.5-7.5-5-11-3-12 2.5-1.5 4-4.5 3-6-.5-1.5-4-1.5-7 0-3 1-6 5-6 8s2 8 4 10c2.5 2 6 3 7 2l2-2z" stroke-linejoin="round"/>
  <path fill="#fff" stroke="#fff" stroke-width="1.5" d="M452 492l2-3-1 2-1 1z" stroke-linejoin="round"/>
  <path stroke="#000" stroke-width="1.5" d="M712 486c0-6.5-3-10.5-6-12-2.5-2-7.5-5.5-10-7-2.5-2-7.5-5.5-10-7-2.5-2-8-4.5-11-5s-8 1.5-10 4l-3 5 4-2c2-1 6.5-1 9 0 2.5.5 7.5 2.5 10 4 3 1.5 8.5 5 11 7 3 1.5 8 5 10 7 2 1.5 4.5 4 5 5l1 1zM881 481c8-4.5 12.5-6 14-6l4-1-4 5c-1.5 2.5-2 6-1 7 1 .5 3.5-2 5-5s.5-7.5-2-9c-2-1.5-7.5-2-11-1s-9 4.5-11 7c-1.5 2.5-1 4.5 1 4l5-1zM866 484c4.5-8 5-11 4-11s-3.5-1-5-2c-1-1-4-4.5-6-7l-3-5 1 8c1 3.5 3.5 9.5 5 12l4 5zM907 487c6-5 9-10 10-13l3-6-4 4c-1.5 1.5-4.5 6-6 9-1.5 2.5-3 5.5-3 6zM831 485c-8.5-4.5-10.5-8-10-10s2.5-6.5 4-9c2-2.5 2-7.5 0-10-1.5-2.5-6.5-5.5-10-6-3-1-9.5-1.5-13-1h-7l6 3c3.5 1 9.5 3.5 12 5 3 1.5 4.5 5.5 3 8-1 2.5-5.5 6-9 7s-6.5 3-6 4c1 1 4.5 4 7 6 3 1.5 10 3 14 3h9zM977 482c5-7.5 5.5-10.5 4-11-1-1-4.5 0-7 2-2 2-6.5 3-9 2-2-1-5.5-2-7-2l-2-1 3 6c1.5 2.5 6.5 5 10 5l8-1zM1035 481c-1.5-2-2.5-4.5-3-6s-5-2.5-9-2c-4 0-11-1.5-14-3-2.5-1.5-7-5.5-9-8-1.5-3-4.5-6.5-6-7-1-.5-3 2.5-4 6-.5 3 .5 9 2 12 1.5 2.5 5 4.5 7 4 2.5-.5 7 .5 9 2 2.5 1 10.5 2 16 2h11z" stroke-linejoin="round"/>
  <path fill="#fff" stroke="#fff" stroke-width="1.5" d="M464 478l2-3-1 2-1 1z" stroke-linejoin="round"/>
  <path stroke="#000" stroke-width="1.5" d="M585 475c6-6.5 11.5-10 15-11l7-2-6-2c-2.5-1-7.5 0-10 2-2.5 1.5-7.5 5-10 7s-7.5 2.5-10 1c-2.5-2-4-6.5-3-9 1.5-3 5-8 7-10 2-2.5 5.5-7.5 7-10l8-10c2-2.5 6-7 8-9 2-2.5 6.5-5 9-5 3-.5 8.5 1 11 3 2.5 1.5 3 5 1 7-2 1.5-5 5.5-6 8l-2 5 4-4c2.5-2 7-6 9-8 2.5-2.5 2.5-7 0-9-2-2-7-5.5-10-7-2.5-1.5-7.5-2-10-1s-7 4.5-9 7l-9 9c-2 2-6 6.5-8 9-2 2-6 6.5-8 9-2 2-6 7-8 10-1.5 2.5-2.5 7.5-2 10 1 2.5 4.5 7 7 9s8 3.5 11 3l7-2zM90 474c3.5-7.5 4.5-14 4-18v-8l-3 7c-1 3-2 9.5-2 13l1 6z" stroke-linejoin="round"/>
  <path fill="#fff" stroke="#fff" stroke-width="1.5" d="M472 469c6.5-4.5 10.5-8.5 12-11l4-5-4 3c-2 1.5-6 5.5-8 8-1.5 2.5-3.5 5-4 5zM499 468c-4.5-5-6.5-6-7-5-.5.5 1 2 3 3l4 2z" stroke-linejoin="round"/>
  <path stroke="#000" stroke-width="1.5" d="M922 466c-1-7.5-2.5-11.5-4-13l-2-3 2 7c1.5 3 3 7 3 8l1 1zM647 464c6.5-4.5 10.5-8 12-10l4-4-6 4c-2.5 1.5-6.5 5-8 7l-2 3zM543 447c5-7.5 9-12 11-14 2.5-2.5 6.5-7.5 8-10 1.5-3 1.5-8.5 0-11-1-2.5-3-4-4-3s-2.5 5.5-3 9c-.5 3-2.5 7.5-4 9l-3 3-1 2c-.5 1-2 3-3 4l-2 1-2 3c-1 1.5-2.5 3-3 3-.5-.5 0-1.5 1-2l3-3 1-1v-1c.5-.5 1.5-2 2-3 1-1 2.5-2 3-2l1-1 1-7 2-7-4 5c-2 2.5-6.5 7-9 9-2 2-5.5 3-7 2-1.5-1.5-2-5.5-1-8 1.5-3 5-8 7-10 2-2.5 6-7 8-9 2.5-2.5 3.5-7.5 2-10-1.5-3-2-8.5-1-11 1-3 5-5 8-4s8.5 3.5 11 5c3 1.5 8.5 5 11 7 3 1.5 8 5 10 7 2.5 2 3.5 6 2 8-1.5 1.5-6.5 3.5-10 4-3 0-5.5 1-5 2 1 1 5 2 8 2s8-2 10-4c2.5-2 4.5-6 4-8 0-2-2.5-6-5-8s-7.5-5.5-10-7c-2.5-2-8-5.5-11-7-2.5-2-8-5.5-11-7-2.5-1.5-8-2-11-1-2.5 1-7 5-9 8-1.5 2.5-2 7.5-1 10 1 2 1 6.5 0 9-.5 2-3 6.5-5 9-1.5 2.5-5 7.5-7 10-2 2-6 7-8 10-1.5 2.5-1.5 7.5 0 10 2 2.5 9.5 6 15 7l11 1zM637 443c8-1.5 13.5 0 16 2 3 1.5 7 2.5 8 2 1-1-.5-4-3-6-2-2-7-5.5-10-7s-8-.5-10 2c-2 2-3.5 5-3 6l2 1z" stroke-linejoin="round"/>
  <path fill="#fff" stroke="#fff" stroke-width="1.5" d="M536 442c1.5 1 3-.5 4-2l2-3-1 1-3 3-2 1z" stroke-linejoin="round"/>
  <path stroke="#000" stroke-width="1.5" d="M930 435c4.5-8 6-14.5 6-18 .5-4 2-10.5 3-13 1-3 1-8 0-10-.5-2-3.5-3.5-6-3-2 0-7 1.5-10 3-2.5 1.5-5.5 5.5-6 8s1.5 7 4 9c2.5 1.5 3.5 6 2 9-1.5 2.5-4 8-5 11s-1 6.5 0 7c1 0 4.5-.5 7-1l5-2zM108 439v-9 9z" stroke-linejoin="round"/>
  <path fill="#fff" stroke="#fff" stroke-width="1.5" d="M542 437c3-2 4.5-4 5-5l1-2-1 1c-.5 0-2 1-3 2-.5 1-1.5 2.5-2 3v1z" stroke-linejoin="round"/>
  <path stroke="#000" stroke-width="1.5" d="M148 427c4.5-8 7-14 8-17 1.5-3.5 4.5-9.5 6-12 2-2.5 4.5-8 5-11l1-7-4 6c-1.5 2.5-4.5 8-6 11-1.5 2.5-4.5 8-6 11l-6 12c-1 3-1 6.5 0 7h2zM102 432c3-8 3-14.5 2-18-.5-3.5-2.5-10-4-13l-2-6v2c0 .5.5 5 1 9s1.5 12.5 2 17l1 9zM1116 425c-8.5-4.5-14-7.5-17-9l-5-4h4c2-.5 6.5-2.5 9-4 3-1.5 4-4 2-5s-7.5-1-11 0c-3.5.5-7-.5-7-2s-3-4-6-5c-3-1.5-8-5.5-10-8-1.5-2.5-5-7-7-9l-3-5v6c0 2.5-1.5 3.5-3 2l-2-4-1 6c-.5 2.5-2 5-3 5-1-.5-6-1-10-1l-7-1 4 3c2.5 1.5 6.5 6 8 9 2 2.5 5 8 6 11 1.5 3 4.5 7.5 6 9l4 3-2-7c-.5-4 .5-7.5 2-7 2 .5 5.5 4 7 7l4 5-1-5c0-2.5 1.5-6 3-7 2-1 5.5.5 7 3s5 7 7 9c2.5 2 9 4.5 13 5h9zM502 418c6-6.5 10-11.5 12-14l4-5-4 1c-1.5.5-5 3.5-7 6-2 2-6 6.5-8 9l-4 5 3-1 4-1zM1126 424c5-6 5.5-8.5 4-9-1.5-1-5-4.5-7-7l-3-6v6c0 2.5 1.5 8 3 11l3 5zM1042 416l6-9-6 3c-2.5 1-8.5 2.5-12 3h-7l5-3c2.5-2 4.5-5 4-6 0-1.5-2.5-1-5 1-2.5 1.5-6.5 4-8 5l-2 2 2 2c1 .5 7 1.5 12 2h11zM1013 413c-7.5-5-14-6-18-5-3.5.5-6.5-1-6-3 1-2 2-6 2-8l1-4-4 5c-2 2.5-3 7.5-2 10 1 2 6 4.5 10 5s10 1 12 1l5-1zM1143 415l14-1-3-2c-1-1-5.5-3-9-4s-9.5-3-12-4l-5-3 3 5c1.5 2 5 5.5 7 7l5 2zM1211 412c0-9.5 1-15.5 2-18 1.5-3 3-9 3-12v-7l-4 5c-2 2-7 5-10 6l-5 1 3-3 3-4-6 4c-2.5 1.5-3 5.5-1 8 2 2 5 7 6 10 1 2.5-1.5 4.5-5 4-3-1-8.5-3.5-11-5l-4-3 3 5c1.5 2.5 5.5 7 8 9 2.5 1.5 8 2.5 11 2l7-2zM116 414c1.5-9.5 1-16.5 0-20-.5-3.5-2-8-3-9l-2-2v5c.5 2 1.5 7.5 2 11 1 3.5 2 9 2 11l1 4zM542 413l4-5-2 3-2 2zM1015 411l2 1-2-4c-1-2-5-5.5-8-7l-5-3 4 4c2 2 5 5.5 6 7l3 2zM851 407c2-7.5.5-12-2-14-2-2.5-7.5-5.5-11-6l-7-2 3 4c2 2 6.5 6 9 8s2.5 4.5 0 5c-2 .5-7-.5-10-2l-5-4 1 4c.5 1.5 6 4 11 5l11 2zM1233 409l7-8-2 1c-1 0-3 2-4 4l-1 3zM1297 405l5-10-5 4c-2.5 2-8 2.5-11 1-2.5-1.5-4.5-5.5-4-8 .5-3 3-8 5-10 2.5-2.5 7.5-6.5 10-8l5-4h-5c-2.5 0-7.5 2-10 4-2.5 1.5-7 5.5-9 8-2 2-4 7-4 10s2 8.5 4 11c2 2 7.5 3.5 11 3l8-1zM895 406c6.5-6 8-10.5 7-13-.5-3-4-7-7-8-3-1.5-9-1.5-12 0-3 1-8 4.5-10 7s-2 7.5 0 10c2 2 8.5 4 13 4h9zM824 401c-7-3-7.5-7-6-10s1-8-1-10c-2-2.5-7.5-5.5-11-6-3-.5-5 .5-4 2 1.5 1 4.5 5 6 8 1.5 2.5-.5 6.5-4 8-3 1-8.5 3.5-11 5l-5 2 7 2c3.5.5 10.5 2 14 3 4 .5 9.5 0 11-1l4-3z" stroke-linejoin="round"/>
  <path fill="#fff" stroke="#fff" stroke-width="1.5" d="M884 402c7.5-3.5 8-6.5 6-8-2-2-5.5-1.5-7 1s-2 5.5-1 6l2 1z" stroke-linejoin="round"/>
  <path stroke="#000" stroke-width="1.5" d="M1235 398l6-11-4 2c-1.5.5-5 3.5-7 6l-3 5v-6c.5-3 2.5-8.5 4-11 2-3 1.5-5.5-1-5-2 .5-5.5 4-7 7s-2 8.5-1 11c1 2 4.5 3.5 7 3l6-1zM857 388l12-3-5-1c-2.5-1-8.5-3-12-4-3-1.5-9-1.5-12 0l-6 2 6 1c3.5.5 9.5 2 12 3l5 2zM446 372c2-10.5 3-18 3-22 .5-4.5 0-10-1-11l-2-3-1 8c0 4-.5 12-1 16s-1 12-1 16l1 8 1-6 1-6zM111 383c-1-10.5-1-17-1-20v-7l-2 4-2 4-1-6v-6l-2 3c-1 1-2 6-2 10s1.5 8.5 3 9c1.5 0 4 2.5 5 5l2 4zM1254 381c8-3 11.5-5.5 12-7 .5-2-2.5-3-6-2s-8 3.5-9 5c-1 1-1 2.5 0 3l3 1zM460 376c3-8 4-15 4-19v-9l-2 4c-.5 1.5-1.5 7-2 11v13zM872 363c2-10.5 3.5-17.5 4-21 1-4 1.5-9.5 1-11 0-1.5-2.5-3.5-5-4-2-.5-7 1-10 3-2.5 1.5-3.5 3.5-2 4 1.5 0 5.5-.5 8-1l6-2-5 4c-2.5 1.5-4 6-3 9 1.5 3 2 10 1 14-.5 3.5.5 6.5 2 6l3-1zM980 362c-3-9.5-4-16-4-19 .5-3.5 2-9.5 3-12 1-3 3.5-8.5 5-11 2-2.5 4.5-7.5 5-10l2-6-5 4c-2 2-6 6.5-8 9s-5.5 8-7 11c-1.5 2.5-3 8.5-3 12l2 14c1 3 4 8.5 6 11 2 2 4 2.5 4 1v-4z" stroke-linejoin="round"/>
  <path stroke="#000" stroke-width="1.5" d="M992 357c0-11 .5-18.5 1-22 1-4 3.5-10.5 5-13 1.5-3 3.5-8.5 4-11l1-6-5 5c-2 2-6 6.5-8 9-1.5 2.5-4 8-5 11-.5 2.5-1 9-1 13 .5 4 2 11.5 3 15l2 6 1-3 2-4zM1067 363c1.5-3.5-1.5-5.5-5-6s-9-3-11-5c-1.5-2 0-5 3-6 3-1.5 5-4 4-5-.5-1.5-5-2.5-9-2-3.5.5-9.5-.5-12-2s-8.5-3.5-12-4c-3.5-1-10.5-1-14 0-3 1-6.5 5-7 8 0 2.5 2.5 6.5 5 8 3 1.5 7.5 2 9 1s0-3-3-4l-6-3 4-1c2.5-.5 8.5-2 12-3s7.5.5 8 3c1 2.5 3.5 8 5 11 2 2.5 10 6.5 16 8l13 2zM1440 359v-5l-9-3c-4-1.5-11-4-14-5-3-1.5-10.5-4.5-15-6l-8-3 3 4c1.5 1.5 6 4.5 9 6 3.5 1 9.5 3.5 12 5 3 1.5 10 4 14 5l8 2z" stroke-linejoin="round"/>
  <path fill="#fff" stroke="#fff" stroke-width="1.5" d="M1440 354v-23-18-17-17-18-17-18-17-17-18-17-18-17-17-18-17-18-17-17V0h-247l1 11c.5 5 1 14 1 18l2 16c.5 4 1 12 1 16 .5 4 1 12.5 1 17 0 4 .5 12 1 16s1 12 1 16l2 16 2 16c.5 3.5 1.5 11 2 15 .5 3.5 2.5 10 4 13s5.5 8 8 10c2.5 1.5 8 4.5 11 6l12 6c3 1 8.5 3.5 11 5l12 6c3.5 1 9.5 3.5 12 5l12 6 12 6c3 1 9 3.5 12 5 3 1 9 3.5 12 5s8.5 4.5 11 6l12 6c3.5 1 10 3.5 13 5 3 1 8.5 3.5 11 5l12 6c3 1.5 8.5 5 11 7 2.5 1.5 7 5.5 9 8s5 8.5 6 12c1 3 1 9.5 0 13-.5 3.5-2.5 10-4 13l-8 16-4 10 8 3c4.5 1.5 12 4.5 15 6 3 1 10 3.5 14 5l9 3z" stroke-linejoin="round"/>
  <path stroke="#000" stroke-width="1.5" d="M956 344c6.5-6 8.5-10 8-12 0-2.5-3.5-4.5-7-4-3 .5-9 2.5-12 4-2.5 1.5-5.5 5-6 7 0 1.5 4 3.5 8 4l9 1z" stroke-linejoin="round"/>
  <path fill="#fff" stroke="#fff" stroke-width="1.5" d="M73 340c5-6 8.5-10.5 10-13 1.5-3 2-6 1-6-.5-.5-2.5 2-4 5-1.5 2.5-4 7.5-5 10l-2 4z" stroke-linejoin="round"/>
  <path stroke="#000" stroke-width="1.5" d="M809 330c2-10.5 4-17 5-20 1.5-3.5 2.5-9.5 2-12l-1-6-3 6c-1.5 2.5-4 8.5-5 12s-2.5 11-3 15c-.5 3.5.5 6.5 2 6l3-1zM915 340c7.5-3.5 12.5-6.5 15-8 2.5-2 4-5 3-6-.5-1.5-3.5-1-6 1-2.5 1.5-7 5.5-9 8l-3 5z" stroke-linejoin="round"/>
  <path fill="#fff" stroke="#fff" stroke-width="1.5" d="M941 340c9.5-1.5 15-3.5 17-5l5-3-7 3c-3 1-8.5 3-11 4l-4 1z" stroke-linejoin="round"/>
  <path stroke="#000" stroke-width="1.5" d="M842 337c6-6.5 6-11.5 4-14s-6.5-7-9-9c-2-2-2-5 0-6 2-1.5 7.5-2 11-1 4 .5 8 0 8-1 .5-1-2.5-3-6-4-3-1.5-9.5-3.5-13-4-3-.5-8 1.5-10 4-1.5 2.5-3 7.5-3 10 .5 2 3.5 6 6 8 2.5 1.5 4 5.5 3 8-.5 2-4 2.5-7 1-2.5-1.5-6.5-2.5-8-2-1 .5 0 3.5 2 6 2.5 2 9 4 13 4h9zM1394 337c6.5-15 10.5-23 12-26s3.5-9.5 4-13c1-3.5 1-10 0-13-1-3.5-4-9.5-6-12s-6.5-6.5-9-8c-2.5-2-8-5.5-11-7l-12-6c-2.5-1.5-8-4-11-5-3-1.5-9.5-4-13-5l-12-6c-2.5-1.5-8-4.5-11-6s-9-4-12-5c-3-1.5-9-4-12-5l-12-6-12-6c-2.5-1.5-8.5-4-12-5l-12-6c-2.5-1.5-8-4-11-5l-12-6c-3-1.5-8.5-4.5-11-6-2.5-2-6.5-7-8-10s-3.5-9.5-4-13c-.5-4-1.5-11.5-2-15l-2-16-2-16c0-4-.5-12-1-16s-1-12-1-16c0-4.5-.5-13-1-17 0-4-.5-12-1-16l-2-16c0-4-.5-13-1-18l-1-11h-4v13c.5 6 1.5 16 2 20s1 12.5 1 17c0 4 .5 12 1 16s1 12 1 16c.5 4 1 12 1 16l2 16c.5 4 1 12 1 16l2 16 2 16c.5 3.5 2 10 3 13 1.5 3 6 7.5 9 9s8.5 4.5 11 6l12 6c3.5 1 10 3.5 13 5 3 1 8.5 3.5 11 5l12 6c3.5 1 9.5 3.5 12 5l12 6c3 1.5 8.5 4.5 11 6 3 1.5 9 4 12 5 3.5 1 10 3.5 13 5s8.5 4.5 11 6c3 1.5 8.5 5 11 7l12 6c3 1 8.5 3.5 11 5 3 1.5 8.5 5 11 7s6.5 7 8 10c1.5 2.5 3.5 9 4 13 1 3.5 1 10.5 0 14-1 3-3.5 9-5 12-1 3-2 9-2 12v6z" stroke-linejoin="round"/>
  <path fill="#fff" stroke="#fff" stroke-width="1.5" d="M38 318c2-10.5 4-17 5-20l3-7-3 2c-1 1-3 5.5-4 9-1 3-2.5 10-3 14l-1 8 1-3 2-3z" stroke-linejoin="round"/>
  <path stroke="#000" stroke-width="1.5" d="M1179 309c3.5-9 6.5-14.5 8-17 1.5-3 3-9.5 3-13 .5-4 .5-11 0-14-.5-3.5-2-9.5-3-12-.5-3 1.5-4.5 4-3l5 2-3-5c-1-2.5-.5-7.5 1-10l6-10c2-2.5 5-8.5 6-12s.5-9.5-1-12c-1.5-3-4.5-8.5-6-11l-6-12c-1.5-3-4.5-8.5-6-11-1.5-3-4.5-6.5-6-7s-2 2-1 5c1.5 3 4.5 8.5 6 11 2 2.5 5.5 8 7 11l6 12c1.5 2.5 2.5 8.5 2 12s-2 8-3 9c-1 .5-2.5-2-3-5-.5-3.5-3-9.5-5-12-1.5-3-6-7.5-9-9-2.5-1.5-8-1.5-11 0s-7.5 5.5-9 8c-1 2.5-4 5.5-6 6-1.5.5-5 2-7 3-1.5.5-5.5-1-8-3-2-2-6.5-6-9-8s-5.5-5-6-6l-1-3 4 3c2.5 1.5 7 4 9 5 2.5.5 5-2 5-5v-10c.5-2 2-6.5 3-9l6-10c1.5-3 4-9 5-12 1.5-3.5 3-9.5 3-12l1-5-5 5-4 4 3-5c1.5-3 4.5-8.5 6-11l6-12c1.5-3 1-8-1-10-2-2.5-6.5-7-9-9s-4-7-3-10c1.5-3 3-10 3-14 .5-4 1.5-11.5 2-15 1-4 2.5-11.5 3-15 1-3.5 1.5-11 1-15s-3-10.5-5-13c-1.5-2.5-4.5-8-6-11l-3-7h-21l4 6c2.5 3 5.5 9.5 6 13 .5 3 0 9.5-1 13s-4.5 9-7 11c-2 2-10.5 5-17 6-6 1-14.5.5-17-1-2.5-2-7-5-9-6s-4-1-4 0v2l3 4c2 2 5 5.5 6 7l3 3-5-4c-2.5-2-5.5-5.5-6-7l-1-3v-6c.5-3.5 2.5-9.5 4-12l8-16 6-10h-18l-7 8c-3 3.5-8.5 9-11 11-2.5 1.5-8 4.5-11 6-2.5 1.5-8.5 4.5-12 6-3 1-6.5 1.5-7 1 0-.5 2.5-2.5 5-4 3-2 7.5-6 9-8l3-5-6 3c-3 1-9 3.5-12 5s-8.5 5-11 7c-2 2-5 6-6 8-.5 1.5-3.5 5-6 7-2 2-6 6.5-8 9-2 2-6 7-8 10-1.5 2.5-4.5 8-6 11-1.5 2.5-4.5 8-6 11l-6 12c-1.5 2.5-5 7.5-7 10-1.5 2.5-5.5 5.5-8 6s-6.5-.5-8-2c-1.5-2-1-5 1-6s5.5-4.5 7-7c1.5-3 1-7.5-1-9-2-2-7.5-4-11-4l-12-2c-3-1-8.5-4-11-6-2-2.5-7-5-10-5-3-.5-7.5 2-9 5-1 3-2 9-2 12 .5 2.5-2.5 4.5-6 4-3.5-1-11-1.5-15-1s-11 2.5-14 4c-2.5 1.5-7 5.5-9 8l-9 9c-2 2-5.5 7-7 10-1.5 2.5-3 8.5-3 12s2 9.5 4 12c2 2 6.5 6 9 8 2.5 1.5 8 4.5 11 6s8.5 4.5 11 6c3 1.5 8.5 5 11 7l12 6c3 1 9 3.5 12 5 3 1 8.5 4 11 6 3 1.5 8.5 4.5 11 6l12 6c3 1.5 8.5 4.5 11 6 3 1.5 8.5 4.5 11 6l12 6 12 6c3 1 9 3.5 12 5s8.5 5 11 7l10 6 12 6c3 1.5 8.5 4.5 11 6l12 6c3 1.5 8.5 4.5 11 6l12 6c3 1 8.5 4 11 6l12 6c3 1 8.5 3.5 11 5l12 6c3 1.5 8.5 4.5 11 6l12 6c3 1.5 11 2 16 1l11-3z" stroke-linejoin="round"/>
  <path fill="#fff" stroke="#fff" stroke-width="1.5" d="M79 310c4.5-6.5 6-10 6-11v-3l-3 7c-1 3-2.5 6.5-3 7z" stroke-linejoin="round"/>
  <path stroke="#000" stroke-width="1.5" d="M126 287l2-13-2 3c-1 1-1.5 4-1 6l1 4zM57 286l-1-4v2l1 2z" stroke-linejoin="round"/>
  <path fill="#fff" stroke="#fff" stroke-width="1.5" d="M0 282v1l4-3c2-1.5 4.5-3 5-3h1l-2-1c-.5-.5-1.5-.5-2 0l-3 3-3 2v1z" stroke-linejoin="round"/>
  <path stroke="#000" stroke-width="1.5" d="M1249 271c-9-3.5-15.5-6-19-7-3-1.5-5.5-1.5-5 0 .5 1 4 3.5 7 5 3 1 8.5 2 11 2h6z" stroke-linejoin="round"/>
  <path fill="#fff" stroke="#fff" stroke-width="1.5" d="M31 251c5-7.5 9-12.5 11-15s3.5-8.5 3-12c0-3.5 1-10 2-13 1.5-3 4-9 5-12l3-7-3 4-5 10-6 12c-1.5 2.5-5 7.5-7 10-1.5 2.5-4.5 8.5-6 12-1 3-1 7.5 0 9l3 2z" stroke-linejoin="round"/>
  <path stroke="#000" stroke-width="1.5" d="M470 242c1.5-11 2-19 2-23 .5-4.5 1-13 1-17v-17c.5-4 1-12 1-16 .5-4.5 0-9-1-9-.5 0-1.5 4-2 8s-1 12.5-1 17c0 4-.5 12-1 16 0 4-.5 12-1 16s-1 12.5-1 17c0 4 .5 8 1 8h2zM681 248c5-7.5 8.5-12.5 10-15 2-3 5.5-8.5 7-11 2-2.5 4-7.5 4-10l1-5-4 5-8 10c-1.5 2.5-5 7.5-7 10s-5.5 8-7 11c-1.5 2.5-4 2-5-1-1-3.5-4-9.5-6-12-1.5-3-5-6.5-7-7-1.5-.5-1.5 2 0 5l6 12c1.5 2.5 6 6 9 7l7 1zM719 249c0-6.5-2.5-7-5-5s-6 1.5-7-1c-.5-2.5.5-7.5 2-10 2-2.5 6.5-7 9-9s4-4.5 3-5c-1-1-5 0-8 2-2.5 1.5-7 5.5-9 8-2 2-4 7.5-4 11 0 3 4.5 7 9 8l10 1zM752 248c7.5-5 9.5-10 9-13s-4-7.5-7-9c-2.5-1.5-8.5-2-12-1-3 1-7.5 5-9 8s-1.5 9 0 12c1.5 2.5 7 4.5 11 4l8-1z" stroke-linejoin="round"/>
  <path fill="#fff" stroke="#fff" stroke-width="1.5" d="M742 244c8-3 10-6.5 9-9-.5-2.5-4-3-7-1-2.5 1.5-4.5 5-4 7l2 3z" stroke-linejoin="round"/>
  <path stroke="#000" stroke-width="1.5" d="M708 243c6-5 8-7.5 8-8v-2l-4 5-4 5zM42 224v-1 1zM64 221l2-11-1 6-1 5z" stroke-linejoin="round"/>
  <path fill="#fff" stroke="#fff" stroke-width="1.5" d="M1180 219l-6-5 3 3 3 2z" stroke-linejoin="round"/>
  <path stroke="#000" stroke-width="1.5" d="M71 189c1.5-9.5 1-13.5 0-14-.5-.5-1 3-1 7l1 7z" stroke-linejoin="round"/>
  <path fill="#fff" stroke="#fff" stroke-width="1.5" d="M895 161c-4-7.5-7.5-12-10-14s-7.5-5.5-10-7c-2.5-2-8-3.5-11-3-3 0-7 2-8 4s.5 5.5 3 7c3 1.5 8.5 5 11 7 3 1.5 8.5 4.5 11 6l12 6c3 1 5 0 4-2l-2-4z" stroke-linejoin="round"/>
  <path stroke="#000" stroke-width="1.5" d="M1190 157c-1-12-1.5-20-2-24 0-4.5-.5-13-1-17 0-4-.5-12-1-16 0-4-.5-12-1-16l-2-16c0-4-.5-12-1-16l-2-16c0-4-.5-11-1-14-.5-3.5-1-10.5-1-14V0h-4v12c.5 6 1.5 16 2 20 .5 3.5 1 11 1 15 .5 4 1 12.5 1 17 .5 4 1 12 1 16 .5 4 1 12.5 1 17l2 16c.5 3.5 1 11 1 15l2 16c.5 4 2 9.5 3 11l2 2z" stroke-linejoin="round"/>
  <path fill="#fff" stroke="#fff" stroke-width="1.5" d="M900 153c-5.5-7.5-9.5-12-12-14-2-2.5-7-6.5-10-8-2.5-1.5-8-4.5-11-6-2.5-1.5-7.5-2-10-1-2 .5-5.5 4-7 7l-2 6 3-3c1.5-1.5 6.5-3 10-3 3.5-.5 9.5 1 12 3 2.5 1.5 7.5 5 10 7 3 1.5 7.5 5.5 9 8 2 2.5 5 5 6 5l2-1z" stroke-linejoin="round"/>
  <path stroke="#000" stroke-width="1.5" d="M69 157l-2-5 1 3 1 2z" stroke-linejoin="round"/>
  <path fill="#fff" stroke="#fff" stroke-width="1.5" d="M1020 100l4-1-2 1h-2zM1134 90l-2-9 1 5 1 4z" stroke-linejoin="round"/>
  <path stroke="#000" stroke-width="1.5" d="M686 81c5-7.5 9-12.5 11-15s5-8 6-11l3-6-4 4c-2 1.5-6 6-8 9-1.5 2.5-5 7.5-7 10-1.5 2.5-2.5 6-2 7l1 2z" stroke-linejoin="round"/>
  <path fill="#fff" stroke="#fff" stroke-width="1.5" d="M1139 87v-7 7z" stroke-linejoin="round"/>
  <path stroke="#000" stroke-width="1.5" d="M988 65c-7.5-.5-13.5-2-17-3l-12-6c-2.5-1.5-8-4.5-11-6-2.5-1.5-8.5-4-12-5-3-1.5-9-4-12-5l-12-6c-2.5-2-8-5-11-6l-12-6c-2.5-1.5-8-4.5-11-6l-12-6c-2.5-1.5-8.5-4.5-12-6l-6-4h-4l8 6c4 2.5 10.5 7 13 9l12 6c3 1 9 3.5 12 5s8.5 4.5 11 6c3 1.5 8.5 4.5 11 6l12 6 12 6c3 1 9 3.5 12 5s8.5 4.5 11 6c3 1.5 12 3.5 18 4h12z" stroke-linejoin="round"/>
  <path fill="#fff" stroke="#fff" stroke-width="1.5" d="M1108 62l10-3h-9c-3 0-5 1-4 2l3 1z" stroke-linejoin="round"/>
  <path stroke="#000" stroke-width="1.5" d="M113 48c-4-9.5-6.5-16-8-19-1-3-4-8.5-6-11-1.5-2.5-5-8-7-11l-4-7h-6l4 8c2.5 3.5 6.5 10 8 13 2 2.5 5.5 8 7 11 1.5 2.5 4 8 5 11 1.5 3 4 6 5 6l2-1z" stroke-linejoin="round"/>
  <path fill="#fff" stroke="#fff" stroke-width="1.5" d="M1118 59c9-3 14-6 16-8 2.5-2 6.5-7 8-10l3-6-3 2c-1 1-4 4.5-6 7-2 2-6.5 6-9 8s-6 5-7 6l-2 1zM1094 58c-4-4.5-7-8-9-10l-3-4 1 3c.5 1.5 3.5 5 6 7l5 4zM1125 47c6.5-6 10-11.5 11-15s1.5-10 1-13c-.5-3.5-3.5-10-6-13l-4-6h-27l-6 10-8 16c-1.5 2.5-3.5 8.5-4 12v6-2c0-1 2-1 4 0s6.5 4 9 6c2.5 1.5 11 2 17 1l13-2zM1064 43l3-8-2 4-1 4z" stroke-linejoin="round"/>
  <path stroke="#000" stroke-width="1.5" d="M724 22c6-5 10-10.5 12-14l4-8h-6l-2 5c-.5 2-3 7.5-5 11l-3 6z" stroke-linejoin="round"/>
  <path fill="#fff" stroke="#fff" stroke-width="1.5" d="M2 20l-2-7v6l1 1h1z" stroke-linejoin="round"/>
</svg>
