<svg viewBox="0 0 1440 1440" xmlns="http://www.w3.org/2000/svg"><g style="fill:none;fill-rule:evenodd"><path id="0" d="m0 0h1440v1440h-1440z" style="fill:#d8d8d8"/><g><path id="1" d="m0 0h1440v1440h-1440z" style="fill:#fff"/><path d="m0 1440h24 18 17 18 17 17 18 17 17 18 17 18 17 17 18 17 18 17 17 18 17 18 17 17 18 17 18 17 17 17 8l-6-4c-2.5-2-8.5-5-12-6-3-1.5-9.5-4-13-5-3-1-10-2.5-14-3-3.5-1-10.5-2.5-14-3-3.5-1-10-3.5-13-5-2.5-1.5-8.5-4-12-5l-12-6c-2.5-1.5-8-4.5-11-6-2.5-2-8-5.5-11-7-2.5-1.5-8-4.5-11-6-2.5-1.5-8-4.5-11-6-3-1.5-8.5-4.5-11-6-2.5-2-8-5.5-11-7l-10-8c-2-2-6.5-5.5-9-7-2.5-2-8-5.5-11-7-3-1.5-5.5-1.5-5 0 .5 1 3 4.5 5 7 2.5 2 7 6 9 8 2.5 2 7 6 9 8l5 4-6-2c-3-1-8.5-3.5-11-5-2.5-2-8-5.5-11-7l-10-8-8-8c-2-2.5-6.5-7-9-9-2-2.5-6-7.5-8-10-1.5-2.5-5.5-7-8-9-2-2.5-6.5-7-9-9l-8-8c-2-2.5-4.5-6-5-7 0-1.5 2-1 4 1l5 4-4-4c-1.5-2.5-5-7-7-9-2-2.5-6.5-7-9-9-2-2-6.5-6-9-8l-4-5 2 4c1 1.5 4 5.5 6 8 2 2.5 5.5 8 7 11 1.5 2.5 4 7.5 5 10 1 2 4 6.5 6 9l8 10c2 2 6 6.5 8 9 2 2.5 5 7.5 6 10 1.5 2.5 2.5 6 2 7 0 1 1 5 2 8 1 3 .5 9-1 12-1.5 2.5-5.5 7.5-8 10l-8 8-4 3 2-5 6-10c2-3 4-9 4-12 0-3.5-1.5-10-3-13-1.5-3-5.5-8-8-10-2-2-4.5-5-5-6 0-1-1-4.5-2-7-.5-3-3-8.5-5-11-1.5-2.5-5-7.5-7-10-2-2.5-5.5-7.5-7-10-1.5-3-5-8-7-10l-8-10c-2-2.5-6.5-6.5-9-8-2.5-2-7.5-6-10-8-2-2.5-6.5-6-9-7l-4-2 4 4c2.5 2 7 6.5 9 9 2.5 2 6.5 6 8 8l4 4-5-2c-2.5-1-7.5-4-10-6-2-2-6.5-6-9-8-2-2-7-5.5-10-7-2.5-2-8-4.5-11-5-3-1-7-.5-8 1-1 1.5 1 4 4 5 3 .5 8 3 10 5l10 8c2.5 2 8 5.5 11 7 3 1 8.5 4 11 6 2.5 2 7 5.5 9 7 2.5 1.5 7.5 5 10 7 2.5 1.5 7 5.5 9 8 2 2.5 5.5 7.5 7 10 2 2.5 3 5.5 2 6-.5 0-3-.5-5-1-2-1-6-4.5-8-7-1.5-2.5-6-6-9-7-2.5-1.5-7.5-3-10-3-2.5-.5-8.5 0-12 1l-6 1 3-3c2-1.5 6-5 8-7 2-2.5 1-6.5-2-8-3-1.5-8.5-4.5-11-6l-10-8c-2-2.5-7-6-10-7-2.5-1-7.5-.5-10 1-2 1.5-7.5 2.5-11 2-3-1-8.5-3.5-11-5l-4-3 4 5 5 4h-2c-1-.5-4-3-6-5l-8-10c-2-2.5-6.5-6-9-7-2.5-1.5-7.5-4.5-10-6-2.5-1.5-7.5-3-10-3-2.5-.5-5.5-1-6-1-.5-.5-1 1.5-1 4 0 2.5 3 5.5 6 6 3 0 8 2 10 4 2.5 2 6 7 7 10 1 3 .5 9-1 12-1.5 2.5-4.5 3.5-6 2-1.5-1.5-3-6-3-9 .5-3-1.5-7-4-8-2-1-6.5-1-9 0-2 .5-5.5-1.5-7-4l-6-12c-1.5-3-2.5-9.5-2-13 .5-4 1-9.5 1-11v-4l-4 5c-1.5 2-4.5 5-6 6-1 1-4.5 4-7 6l-10 8c-2.5 1.5-7.5 5-10 7-2.5 1.5-7.5 5.5-10 8-2 2-6.5 6-9 8-2 2-7 5.5-10 7-3 1.5-8.5 5-11 7-2 2-2 4 0 4h5l-6 4c-2.5 1.5-9 5.5-13 8l-8 4v5 14 17 9l6-2c3.5-1 10-3 13-4l6-3-5 5c-2 2-7 5.5-10 7-3 1-7 2-8 2h-2v6 5l7-2c4-1.5 9.5-3 11-3 2 0 1.5 2.5-1 5-2 2-7.5 5-11 6l-6 1v9 13 3l4-1c2.5-.5 5.5-1 6-1h1l-4 3c-2 1-5 2-6 2h-1v2 2l8-5c4.5-3 11-8 13-10 2-2.5 6-7 8-9l5-5v3c.5 1.5-1 5.5-3 8-2 2-6 7-8 10-1.5 2.5-5 7.5-7 10-2 2-7 5-10 6l-6 2v10 18 15 6" id="2" style="fill:#fff;stroke:#fff;stroke-width:1.5"/><path d="m536 1440h24 18 17 17 18 17 18 17 17 18 17 18 17 17 18 17 18 17 17 18 11 2l8-3c4-2 11-3 14-2 3 .5 9.5.5 13 0 3.5-.5 10-2 13-3 3.5-1 10.5-2.5 14-3 3.5-1 10.5-2.5 14-3 4-1 11-3 14-4 3-1.5 9-4 12-5 3.5-1.5 10-4 13-5 3-1.5 8.5-4.5 11-6 3-1.5 8.5-5 11-7 2.5-2 7-6 9-8l10-8c2.5-2 7.5-5.5 10-7 2.5-2 7.5-5.5 10-7 2.5-2 7-6 9-8l9-9c2-2.5 6-7 8-9l9-9c2.5-2 7.5-5.5 10-7 2.5-2 7-6 9-8l9-9 8-10c2-2.5 5-8 6-11 1.5-3 4.5-8.5 6-11 1.5-3 4.5-8.5 6-11 2-3 5.5-8.5 7-11 2-2.5 5-8 6-11 1-3 3.5-8.5 5-11 2-2.5 5.5-7.5 7-10 2-2.5 5.5-7.5 7-10l4-6-4 2c-1.5 1-3 0-3-2 .5-2.5.5-8 0-11 0-3 1-8.5 2-11 1-3 3.5-8.5 5-11 2-3 5-7 6-8l3-2-3 7c-1 3-2.5 9.5-3 13v14c.5 3.5-.5 10-2 13l-6 12c-1 3-3.5 9.5-5 13-1 3-4 8.5-6 11-1.5 2.5-5 7.5-7 10-1.5 2.5-5 7.5-7 10-2 2.5-5.5 8-7 11-1.5 2.5-4.5 8-6 11-1.5 3-2.5 8-2 10 1 2-.5 6-3 8-2 2-6 6.5-8 9l-8 10c-1.5 2.5-5.5 7-8 9-2.5 2-7.5 5.5-10 7-2.5 1-7.5 4-10 6-2 2-6 6.5-8 9-2 2.5-6.5 7-9 9-2 2-7 5.5-10 7-2.5 1.5-8 5-11 7-2.5 1.5-8 4.5-11 6-2.5 1.5-8 5-11 7l-5 3h3l9-3c3-1.5 9-4 12-5 3.5-1.5 10-4 13-5 3-1.5 8.5-4.5 11-6 3-2 8-6 10-8 2.5-2 7-6 9-8l10-8c2.5-2 7-6 9-8 2.5-2 7-6.5 9-9 2-2.5 5.5-7.5 7-10 2-2.5 6-7 8-9 2-2.5 6-7 8-9 2.5-2.5 6-8 7-11 1.5-3 4.5-8.5 6-11 2-3 5.5-8.5 7-11 2-2.5 6-7 8-9 2-2.5 5.5-8 7-11 1.5-3 4-9 5-12 1.5-3 4.5-8.5 6-11 2-3 4-7 4-8 0-1.5-1.5-2.5-3-2-1.5 0-1.5-2.5 0-5 2-3 4.5-9.5 5-13 .5-4 1.5-11 2-14 1-3.5 3-10 4-13 1-3.5 3-10 4-13 1-3.5 4-9 6-11 2.5-2.5 6.5-4.5 8-4 2 .5 2.5 4.5 1 8-1 3-4 8.5-6 11-2 2-6 6.5-8 9-1.5 2.5-2.5 7.5-2 10 .5 2.5 3 3 5 1 2.5-2 7-6 9-8 2.5-2.5 6.5-7.5 8-10 1.5-3 4-9 5-12 1.5-3 2.5-9.5 2-13-.5-3.5-2-9.5-3-12-.5-2.5 1-7.5 3-10 2-2.5 6-7 8-9 2.5-2 7-6 9-8 2-2.5 6-7 8-9l9-9c2-2.5 6-7 8-9 2.5-2.5 6.5-7.5 8-10 2-2.5 5.5-7.5 7-10l8-10c2-2.5 5.5-7.5 7-10 2-2.5 6-7.5 8-10 2-2.5 5.5-7.5 7-10 1.5-3 4.5-8.5 6-11 1.5-3 4.5-9 6-12 1.5-3 4.5-8.5 6-11l6-12c1.5-3 4-9 5-12 1.5-3 4-9 5-12 1-3.5 3-10 4-13 1.5-3.5 3.5-10.5 4-14 1-3.5 2.5-10.5 3-14 1-4 2.5-11.5 3-15 1-3.5 2-11 2-15 .5-4 1-12.5 1-17v-17c0-4.5-.5-13-1-17 0-4.5-.5-12.5-1-16-.5-4-2-11.5-3-15-.5-3.5-2-10.5-3-14-.5-4-2-11-3-14-1-3.5-3.5-10-5-13-1-3.5-3.5-10-5-13-1-3-3.5-9-5-12-1-3-3.5-9-5-12-1.5-3-4.5-8.5-6-11-1.5-3-5-8.5-7-11-2-2.5-5.5-7.5-7-10-1.5-3-5-8.5-7-11-1.5-2.5-5.5-7-8-9-2-2.5-6-7-8-9-2-2.5-6-7.5-8-10-2-2.5-6.5-8-9-11l-5-7h-4c-2-.5-3.5 2.5-3 6 1 3 3.5 8.5 5 11 2 2.5 5.5 8 7 11l8 10c2 2 5.5 6.5 7 9l8 10c2 2.5 5.5 8 7 11 1.5 2.5 4.5 8 6 11 2 2.5 5.5 8 7 11 1.5 2.5 4 8 5 11l6 12c1.5 3 4 9 5 12 1.5 3 4 9.5 5 13 1 3.5 3 10.5 4 14 1 3 2.5 9.5 3 13 1 3.5 2.5 11 3 15l2 16c.5 3.5 1 11.5 1 16 .5 4 .5 12 0 16-.5 3.5-1.5 11-2 15 0 4-.5 12-1 16-.5 4-2 11.5-3 15-.5 3.5-2 10.5-3 14l-4 14c-.5 3.5-2.5 10-4 13-1 3-3.5 9-5 12l-6 12c-1 3-3.5 9-5 12-1.5 3-4.5 9-6 12-1.5 2.5-5 7.5-7 10-1.5 2.5-5 8-7 11-1.5 2.5-5 7.5-7 10-2 2-6 7-8 10-1.5 2.5-5 7.5-7 10-2 2-6 6.5-8 9-2 2-6 6.5-8 9-2 2.5-6.5 7-9 9l-9 9c-2 2-6 6.5-8 9-2 2-6.5 6-9 8l-9 9c-2 2-6.5 6-9 8-2.5 1.5-7.5 5.5-10 8-2 2-6.5 6-9 8-2.5 1.5-8 4.5-11 6-2.5 1.5-7.5 5-10 7-2.5 2-8 5.5-11 7-2.5 1.5-8 4.5-11 6l-12 6c-2.5 1.5-8 4.5-11 6-2.5 1.5-8 4.5-11 6l-12 6c-2.5 1.5-8.5 4-12 5-3.5 1-10 3.5-13 5-3 1-9 3.5-12 5-3 1-9.5 3.5-13 5-3 1-9 3.5-12 5-3 1-9.5 3-13 4-3.5 1-10 3.5-13 5-3 1-9.5 3-13 4-3.5.5-10.5 2-14 3-3.5 1-10.5 3-14 4-3.5.5-10.5 2-14 3-3.5 1-10.5 3-14 4-3 1-9.5 3-13 4-3.5.5-11.5 1.5-16 2-4 0-11.5 1-15 2-3.5.5-11 2-15 3-3.5.5-11 1.5-15 2-3.5.5-11 1.5-15 2-3.5.5-11 1.5-15 2-4 .5-12 1.5-16 2-3.5.5-11.5 1.5-16 2h-17c-4 0-12 .5-16 1-3.5.5-11.5 1-16 1h-18-17-18-16c-4-.5-12.5-1-17-1-4-.5-12-1-16-1l-16-2c-4-.5-12-1-16-1l-16-2c-3.5-.5-11-1.5-15-2-3.5-1-11-2.5-15-3-3.5-.5-11-1.5-15-2-3.5-1-10.5-2.5-14-3-3.5-1-10.5-2.5-14-3l-14-4c-3.5-1-10.5-2.5-14-3l-14-4c-3.5-1-10-3-13-4-3-1.5-9.5-4-13-5-3-1-9.5-3-13-4-3-1.5-9.5-4-13-5-3-1-9.5-3-13-4-3-1.5-9-4-12-5-3-1.5-9-4-12-5-3-1.5-9-4.5-12-6-3-1.5-9-4.5-12-6-2.5-1.5-8-4.5-11-6l-12-6c-2.5-1.5-8-4.5-11-6-2.5-1.5-8-4.5-11-6-2.5-2-7.5-5.5-10-7-2.5-2-8-5.5-11-7l-10-8c-2-2-6.5-5.5-9-7l-10-8-10-8c-2-2-6.5-6-9-8-2.5-2-7-6-9-8-2-2.5-6.5-7-9-9-2-2-6-6.5-8-9-2-2.5-6-7-8-9-2-2.5-6-7.5-8-10l-8-10c-1.5-2.5-4.5-7.5-6-10-1.5-3-5-8.5-7-11-2-2.5-5.5-7.5-7-10l-6-12c-1.5-3-4.5-8.5-6-11-1.5-3-4-9-5-12-1-3.5-3.5-10-5-13-1-3.5-3-10-4-13l-4-14-4-14c-.5-3.5-1.5-10.5-2-14-.5-4-1-12.5-1-17 0-4.5-.5-12.5-1-16-.5-4-.5-12 0-16 .5-4 1-12 1-16 .5-4 1.5-11.5 2-15 .5-4 2-11.5 3-15 1-3.5 2.5-10.5 3-14 1-3.5 3-10 4-13 1.5-3.5 4-10 5-13 1-3.5 3-10 4-13 1.5-3 4.5-9 6-12 1.5-3 4.5-8.5 6-11 1.5-3 4.5-9 6-12 1.5-3 4.5-8.5 6-11 2-2.5 5.5-7.5 7-10 1.5-3 5-8.5 7-11 2-2.5 5.5-7.5 7-10l8-10c2-2.5 6-7 8-9 2-2.5 6-7 8-9 2-2.5 6-7 8-9 2.5-2.5 7-7 9-9 2-2.5 6.5-7 9-9 2.5-2 7-6 9-8 2.5-2 7-6 9-8 2.5-2 7.5-5.5 10-7 3-2 8-6 10-8 2.5-2 7.5-5.5 10-7 3-2 8.5-5.5 11-7 2.5-2 7.5-5.5 10-7 2.5-2 8-5.5 11-7 3-1.5 8.5-4.5 11-6 3-1.5 9-4.5 12-6 3-1.5 8.5-4.5 11-6 3-1.5 8.5-4.5 11-6 3-1.5 9-4 12-5 3.5-1.5 8.5-1 10 1 2 2 4.5 8 5 12 1 3.5 2.5 10.5 3 14 1 3.5 3 10.5 4 14 1 3 3 9.5 4 13 1.5 3 4 9 5 12 1.5 3 4.5 9 6 12 2 2.5 5.5 7.5 7 10 2 2.5 5.5 7.5 7 10 2 2.5 6 7.5 8 10 2 2.5 6 7 8 9 2.5 2 7 6.5 9 9 2.5 2 7 6 9 8l10 8c2.5 1.5 7.5 5 10 7 3 1.5 8.5 4.5 11 6 3 1.5 9.5 3.5 13 4 4 0 11 1 14 2 3 .5 8.5 2.5 11 4 3 1.5 9.5 4 13 5 3.5 1 10 3 13 4 3.5 1 10 3.5 13 5 3 1.5 6 2 6 1 0-1.5-3-4.5-6-6-2.5-2-8.5-5-12-6-3-1-9-3.5-12-5-2.5-1.5-8-4.5-11-6l-12-6c-2.5-1.5-8-4.5-11-6-3-1.5-8.5-4.5-11-6-2.5-2-7.5-5-10-6-2.5-1.5-7.5-4-10-5-2-1.5-6.5-5-9-7-2-2-6.5-6-9-8-2-2.5-6-7-8-9-2-2.5-6-7-8-9-2-2.5-6-7.5-8-10-1.5-3-5-8.5-7-11-1.5-2.5-4.5-8-6-11-1.5-3-4.5-9-6-12-1-3-3.5-9-5-12-1-3-3-9.5-4-13l-4-14c-.5-3.5-2.5-10-4-13-1-3.5-4-9.5-6-12-1.5-2.5-7-5.5-11-6-3.5-.5-10.5.5-14 2-3 1-9 3.5-12 5-2.5 1.5-8 4.5-11 6-3 1.5-9 4.5-12 6-2.5 1.5-8 4.5-11 6-2.5 1.5-8 5-11 7-2.5 1.5-7.5 5-10 7-2.5 1.5-8 5-11 7-2.5 1.5-7.5 5-10 7-2.5 1.5-7.5 5-10 7-2.5 1.5-7.5 5-10 7l-10 8c-2 2-6.5 6-9 8l-10 8c-2 2-6.5 6-9 8l-9 9c-2 2-6.5 6-9 8-2 2-6 6.5-8 9-2 2.5-6 7.5-8 10-2 2-6 6.5-8 9-1.5 2.5-5 7.5-7 10-2 2.5-6 7.5-8 10-1.5 2.5-5 8-7 11-1.5 2.5-5 7.5-7 10-1.5 2.5-4.5 8-6 11-1.5 2.5-4.5 8-6 11-1.5 3-4.5 9-6 12-1.5 2.5-4.5 8.5-6 12-1 3-3.5 9-5 12-1 3-3.5 9-5 12-1 3-3 9.5-4 13l-4 14c-.5 3.5-2 10.5-3 14-1 3.5-2.5 11-3 15-.5 3.5-2 10.5-3 14-.5 3.5-1 11.5-1 16 .5 4 .5 11 0 14v6l-1-8c-.5-4-2-11.5-3-15-.5-3.5-3.5-8.5-6-10-2-1.5-4-.5-4 2 .5 2-1 6.5-3 9-1.5 2.5-.5 4.5 2 4 3-1 7 1.5 8 5 1 3 2.5 9.5 3 13 1 3.5 2.5 11 3 15l2 16c.5 3.5.5 9 0 11-.5 2-3 6.5-5 9-2 2-7 5.5-10 7-3 1-5 4.5-4 7 1.5 2 5.5 6 8 8 2.5 1.5 8 8 11 13l6 10 1 1c.5 0 .5 2 0 4v3l-1-2v-3-2-1l-8-7c-3.5-4-10.5-8.5-14-9-3-.5-7.5-1-9-1-1.5 0-1 2 1 4l10 8c2.5 2 6.5 6.5 8 9 2 2.5 3 8 2 11-1 2.5-3.5 8-5 11-1.5 3-5.5 8-8 10-2 2-6 4-8 4-1.5-.5-1.5-3.5 0-6 1.5-3 4.5-8.5 6-11 2-2.5 4-6.5 4-8l1-4-5 4c-2 2-6 6.5-8 9-2 2.5-7 5.5-10 6-2.5.5-7.5-.5-10-2-2.5-2-7-2.5-9-1-2 1.5-7 4.5-10 6-2.5 1.5-7 5.5-9 8-2 2.5-5 8.5-6 12-1 3-1.5 9-1 12l2 6-4-3c-1.5-2-2.5-7-2-10 1-3 3.5-9 5-12 1.5-3 4.5-8.5 6-11 1.5-3 4-9 5-12 1.5-3 4.5-9 6-12 1.5-3 1.5-5.5 0-5-1.5 0-2-1.5-1-3 1-1.5 4.5-4.5 7-6 2.5-2 6.5-4 8-4 1.5-.5 3-4.5 3-8 .5-4 2.5-10.5 4-13 1.5-3 3.5-9 4-12l1-6-4 5c-2 2-6 6.5-8 9-1.5 2.5-5 8-7 11-1.5 2.5-5.5 7-8 9-2 2-6 6.5-8 9-2 2.5-5.5 8-7 11-1.5 2.5-5 7.5-7 10-1.5 2.5-4 7.5-5 10l-2 5 4-2c2.5-1 6-2.5 7-3l2-1-4 5c-2 2-6 6.5-8 9-2 2-6 7-8 10-1.5 2.5-5 7.5-7 10-2 2-6.5 6-9 8-2.5 2-8.5 5-12 6l-7 1 2-1c1-1 2-2.5 2-3 .5-1-2.5-1-6 0-3.5.5-12.5 2-18 3l-11 2v3 5 1h2 7c2.5-.5 4.5 0 4 1 0 .5-2 2-4 3-2 .5-5.5 1-7 1h-2v4 3l8-3c4-2 7.5-2 7 0-.5 1.5-1 4.5-1 6 .5 1 2 1.5 3 1 1.5-.5 4.5-1 6-1 1.5-.5 4 1.5 5 4 1.5 2 5.5 2.5 8 1 3-1.5 8.5-4.5 11-6 3-2 9.5-3.5 13-3 3.5 0 7-1 7-2v-5c0-1 2-3.5 4-5 2-2 5-7 6-10l2-6 1 6c1 3 3 7 4 8 1.5 1 4 0 5-2 1.5-2.5 5-5 7-5 2-.5 2.5 2.5 1 6-1 3-1 6 0 6 1.5 0 5-2 7-4 2-2.5 6.5-7 9-9l5-4-1 4c-.5 1.5-3 6-5 9-1.5 2.5-2.5 7.5-2 10 1 2.5 3 8 4 11 1.5 3 4 9.5 5 13 1 3.5 5 8.5 8 10 3 1 6.5 3 7 4l2 1-4 1c-1.5.5 0 2.5 3 4 3 1 4.5 3 3 4-1 .5-4.5-.5-7-2-2.5-2-7.5-6-10-8-2.5-2-6-7-7-10-1-3.5-3-10-4-13-.5-3-2.5-6-4-6-1-.5-3 0-4 1-1 .5-4 .5-6 0-2-.5-6 0-8 1-2 .5-3 2.5-2 4 1.5 1.5 3.5 6 4 9 .5 3 2 9.5 3 13 1 3-.5 5-3 4l-4-3 3 5c1.5 2 3 7 3 10 0 2.5-2.5 7.5-5 10-2 2-6.5 6-9 8-2 2-6 6.5-8 9l-4 5 5-2c3-1 8.5-3 11-4 2.5-1.5 7-1 9 1l10 6c2.5 1 6-.5 7-3 1.5-3 4-7.5 5-9l2-4-2 5c-.5 2.5-2.5 8-4 11-1.5 3-5.5 8-8 10-2.5 1.5-10 3-15 3-4.5 0-11.5-1.5-14-3-2.5-2-7.5-5-10-6-2.5-1-5-5.5-5-9 .5-3.5 3-9.5 5-12 2-2.5 5-7 6-9 1.5-2 4.5-6.5 6-9 1.5-3 3-8 3-10l1-5-3 6c-1.5 2.5-5 8-7 11-1.5 2.5-5.5 6.5-8 8-2.5 1-6 1-7 0-.5-1 1-4 3-6 2.5-2.5 4.5-6.5 4-8v-3l-4 5c-2 2.5-6 7.5-8 10-1.5 2.5-5 10-7 15l-3 9-1 4c-.5 1.5-1.5 3-2 3v-2c.5-1 1.5-2.5 2-3l1-2 1-6c.5-3.5 2-10.5 3-14 1-3.5 4-9 6-11 2-2.5 5.5-7.5 7-10 1.5-3 4.5-8.5 6-11 2-3 4.5-7.5 5-9l1-4-5 4-5 4 1-2c.5-1.5 3.5-4.5 6-6 3-1.5 5-4 4-5-1-1-5-1.5-8-1-3 0-9 1.5-12 3-3 1.5-9 3.5-12 4-2.5.5-7.5 0-10-1-2-1-4 1-4 4 .5 2.5 3 7 5 9 2.5 2 8 3.5 11 3l6-1-2 2c-.5 1-3 4-5 6-1.5 2-5.5 2-8 0-2-2.5-6.5-6.5-9-8-2.5-2-9-5-13-6l-7-3v5 4l6 1c3.5.5 9.5 3 12 5 2.5 1.5 8 4.5 11 6l7 2-4 2c-2 .5-4 .5-4 0 .5-1-2-3-5-4-2.5-1.5-9.5-2.5-14-2l-9 1v8 16 8l7 1c4 .5 7 2 6 3-1 .5-5 .5-8 0l-5-2v2 8 6h2c1.5 0 1.5 1.5 0 3l-2 2v4 12 14 4l6-2c3-1 8-2 10-2 2-.5 7-2 10-3l7-2-3 2c-1.5 1-5.5 4-8 6l-9 9c-2 2-6.5 6-9 8l-4 4v2 1l10-5c5-3 12.5-7.5 15-9 3-2 8.5-2.5 11-1 2.5 1 7 4.5 9 7 2 2.5 2 7.5 0 10-2 2-6.5 6-9 8-2.5 1.5-7.5 5-10 7l-10 8c-2.5 1.5-8 4.5-11 6l-5 2v7 7l8-4c4-2.5 10.5-6.5 13-8l6-4h-5c-2 0-2-2 0-4 2.5-2 8-5.5 11-7 3-1.5 8-5 10-7 2.5-2 7-6 9-8 2.5-2.5 7.5-6.5 10-8 2.5-2 7.5-5.5 10-7l10-8c2.5-2 6-5 7-6 1.5-1 4.5-4 6-6l4-5v4c0 1.5-.5 7-1 11-.5 3.5.5 10 2 13 1.5 3 4.5 9 6 12 1.5 2.5 5 4.5 7 4 2.5-1 7-1 9 0 2.5 1 4.5 5 4 8 0 3 1.5 7.5 3 9 1.5 1.5 4.5.5 6-2 1.5-3 2-9 1-12-1-3-4.5-8-7-10-2-2-7-4-10-4-3-.5-6-3.5-6-6 0-2.5.5-4.5 1-4 .5 0 3.5.5 6 1 2.5 0 7.5 1.5 10 3l10 6c2.5 1 7 4.5 9 7l8 10c2 2 5 4.5 6 5h2l-5-4-4-5 4 3c2.5 1.5 8 4 11 5 3.5.5 9-.5 11-2 2.5-1.5 7.5-2 10-1 3 1 8 4.5 10 7 2.5 2 7.5 6 10 8 2.5 1.5 8 4.5 11 6 3 1.5 4 5.5 2 8-2 2-6 5.5-8 7l-3 3 6-1c3.5-1 9.5-1.5 12-1 2.5 0 7.5 1.5 10 3 3 1 7.5 4.5 9 7 2 2.5 6 6 8 7 2 .5 4.5 1 5 1 1-.5 0-3.5-2-6-1.5-2.5-5-7.5-7-10-2-2.5-6.5-6.5-9-8-2.5-2-7.5-5.5-10-7-2-1.5-6.5-5-9-7-2.5-2-8-5-11-6-3-1.5-8.5-5-11-7-2.5-2-7.5-6-10-8-2-2-7-4.5-10-5-3-1-5-3.5-4-5 1-1.5 5-2 8-1 3 .5 8.5 3 11 5 3 1.5 8 5 10 7 2.5 2 7 6 9 8 2.5 2 7.5 5 10 6l5 2-4-4c-1.5-2-5.5-6-8-8-2-2.5-6.5-7-9-9l-4-4 4 2c2.5 1 7 4.5 9 7 2.5 2 7.5 6 10 8 2.5 1.5 7 5.5 9 8l8 10c2 2 5.5 7 7 10 1.5 2.5 5 7.5 7 10 2 2.5 5.5 7.5 7 10 2 2.5 4.5 8 5 11 1 2.5 2 6 2 7 .5 1 3 4 5 6 2.5 2 6.5 7 8 10 1.5 3 3 9.5 3 13 0 3-2 9-4 12l-6 10-2 5 4-3 8-8c2.5-2.5 6.5-7.5 8-10 1.5-3 2-9 1-12-1-3-2-7-2-8 .5-1-.5-4.5-2-7-1-2.5-4-7.5-6-10-2-2.5-6-7-8-9l-8-10c-2-2.5-5-7-6-9-1-2.5-3.5-7.5-5-10-1.5-3-5-8.5-7-11-2-2.5-5-6.5-6-8l-2-4 4 5c2.5 2 7 6 9 8 2.5 2 7 6.5 9 9 2 2 5.5 6.5 7 9l4 4-5-4c-2-2-4-2.5-4-1 .5 1 3 4.5 5 7l8 8c2.5 2 7 6.5 9 9 2.5 2 6.5 6.5 8 9l8 10c2.5 2 7 6.5 9 9l8 8 10 8c3 1.5 8.5 5 11 7 2.5 1.5 8 4 11 5l6 2-5-4c-2-2-6.5-6-9-8-2-2-6.5-6-9-8-2-2.5-4.5-6-5-7-.5-1.5 2-1.5 5 0 3 1.5 8.5 5 11 7 2.5 1.5 7 5 9 7 2.5 2 7.5 6 10 8 3 1.5 8.5 5 11 7 2.5 1.5 8 4.5 11 6 3 1.5 8.5 4.5 11 6 3 1.5 8.5 4.5 11 6 3 1.5 8.5 5 11 7 3 1.5 8.5 4.5 11 6 3 1.5 9 4.5 12 6 3.5 1 9.5 3.5 12 5 3 1.5 9.5 4 13 5 3.5.5 10.5 2 14 3 4 .5 11 2 14 3 3.5 1 10 3.5 13 5 3.5 1 9.5 4 12 6l6 4" id="3" style="fill:#000;stroke:#000;stroke-width:1.5"/><path d="m904 1440h24 18 17 18 17 17 18 17 18 17 17 18 17 18 17 17 18 17 18 17 17 18 17 18 17 17 18 17 18 16 8v-1-9-18-17-18-17-17-18-17-18-17-17-18-17-18-17-17-18-17-18-17-17-18-17-18-17-17-18-17-18-17-17-18-17-18-17-17-18-17-18-17-17-18-17-18-17-17-18-17-18-17-17-18-17-18-17-10-2l-7-9c-3-4.5-7.5-11.5-9-14l-6-12c-1-3-3.5-9-5-12-1.5-3-4.5-9-6-12-1-3-3.5-9-5-12-1.5-3-4.5-8.5-6-11-1.5-3-4.5-8.5-6-11-1.5-3-4.5-9-6-12-1.5-3-4.5-8.5-6-11l-6-12-6-12c-1-3-3.5-8.5-5-11l-6-12c-1.5-3-4.5-8.5-6-11l-6-12c-1.5-3-4.5-8.5-6-11l-6-12c-1-3-3.5-9-5-12-1.5-3-4.5-9-6-12-1-3-3.5-9-5-12-1.5-3-4.5-8.5-6-11-1.5-3-4.5-8.5-6-11-1.5-3-4.5-9-6-12-1.5-3-4.5-8.5-6-11-1.5-3-4.5-9-6-12-1.5-3-4.5-8.5-6-11-1.5-3-4.5-8.5-6-11l-6-12c-1.5-3-4.5-8.5-6-11l-6-12c-1.5-3-4.5-8.5-6-11-1.5-3-4.5-8.5-6-11l-6-12c-1.5-3-4.5-8.5-6-11l-6-12c-1-3.5-3.5-9.5-5-12-1.5-3-4.5-8.5-6-11l-6-12c-1-3.5-4-12-6-17l-4-10h-13-21-18-17-17-18-17-18-17-17-18-17-18-17-17-18-17-18-17-17-18-17-18-17-17-18-17-18-17-17-18-17-18-17-17-18-17-18-17-17-18-17-18-17-13-4l-3 6-6 12c-1.5 2.5-4.5 8-6 11-1.5 2.5-5 7.5-7 10-2 2.5-6 7.5-8 10-1.5 2.5-5 8-7 11-1.5 2.5-4.5 8-6 11-1.5 2.5-5 7.5-7 10-2 2-6 7-8 10-1.5 2.5-5 7.5-7 10-2 2-6 7-8 10-1.5 2.5-4.5 8-6 11-1.5 2.5-5 7.5-7 10-1.5 2.5-5 8-7 11-1.5 2.5-5.5 7-8 9-2 2-4.5 3.5-5 3-.5-.5.5-3.5 2-6 2-3 5.5-8.5 7-11 2-2.5 5.5-7.5 7-10 1.5-3 4.5-8.5 6-11 2-3 5.5-8.5 7-11 2-2.5 5.5-7.5 7-10 2-3 5.5-8.5 7-11 2-2.5 5.5-7.5 7-10 2-2.5 5.5-8 7-11 1.5-3 4.5-8.5 6-11 2-2.5 5.5-7.5 7-10 2-3 5.5-8.5 7-11 2-2.5 5.5-7.5 7-10 1.5-3 4-10 5-14l2-8h-14-22-17-17-18-17-18-17-17-18-17-18-17-17-18-17-18-17-17-18-17-18-13-4v4 13 18 17 18 17 17 18 17 18 17 17 18 17 18 17 17 18 17 18 17 17 18 17 18 17 17 18 17 18 17 17 18 12 3l7-3c4-2 10.5-6 13-8 2.5-2 7.5-5.5 10-7 2.5-2 6.5-6.5 8-9 2-2.5 5.5-7 7-9 1.5-2 3.5-5 4-6 .5-1.5 3-5.5 5-8 2-2.5 5.5-7.5 7-10 2-2.5 5.5-7.5 7-10 2-2.5 5.5-7.5 7-10 2-3 5.5-8.5 7-11 1.5-3 4-9 5-12 1.5-3.5 4.5-9.5 6-12 2-2.5 6.5-6.5 9-8 3-1.5 7.5-3 9-3h3l-5 4c-2 2-5.5 7-7 10-1.5 3-5 8.5-7 11-1.5 2.5-4.5 8-6 11-1.5 2.5-5 7.5-7 10-2 2.5-5 7-6 9-1 1.5-3 5.5-4 8-1 2.5-3.5 8-5 11-1.5 2.5-5 7.5-7 10-1.5 2.5-5 7.5-7 10l-8 10-9 9c-2 2-6.5 6-9 8-2 2-3.5 5.5-3 7 .5 1-1 4.5-3 7l-8 10c-1.5 2.5-5.5 6.5-8 8l-5 3v4 12 12 2l2 1h6c1.5 0 3.5.5 4 1 1 .5.5 1.5-1 2-1 .5-4.5 1-7 1h-4v13 21 18 17 18 17 17 18 17 14 4h4 6c1.5 0 3 1 3 2 0 1-1 2.5-2 3h-7l-4-1v9 18 18 17 17 18 17 18 17 17 18 10 1l3-4c1.5-2.5 3.5-8 4-11 .5-3 2.5-8.5 4-11 1.5-3 5-8.5 7-11 2-2.5 5.5-7.5 7-10 2-2.5 5.5-7.5 7-10 2-3 6-8 8-10l4-5v4c.5 2-1 7-3 10-1.5 2.5-4.5 8-6 11-1 3-3 10-4 14-.5 3.5-2.5 10-4 13-1 3-3.5 9-5 12-1.5 2.5-4.5 8-6 11-1.5 3-4 9.5-5 13-.5 3.5-3.5 8.5-6 10l-5 3v2 3 2l8 2c4.5 1 11 0 13-2 2-2.5 5-4 6-3 1 1 0 4.5-2 7-2 2-9.5 4.5-15 5l-10 1v3 2l11-2c5.5-1 14.5-2.5 18-3 3.5-1 6.5-1 6 0 0 .5-1 2-2 3l-2 1 7-1c3.5-1 9.5-4 12-6 2.5-2 7-6 9-8 2-2.5 5.5-7.5 7-10 2-3 6-8 8-10 2-2.5 6-7 8-9l4-5-2 1c-1 .5-4.5 2-7 3l-4 2 2-5c1-2.5 3.5-7.5 5-10 2-2.5 5.5-7.5 7-10 1.5-3 5-8.5 7-11 2-2.5 6-7 8-9 2.5-2 6.5-6.5 8-9 2-3 5.5-8.5 7-11 2-2.5 6-7 8-9l4-5-1 6c-.5 3-2.5 9-4 12-1.5 2.5-3.5 9-4 13 0 3.5-1.5 7.5-3 8-1.5 0-5.5 2-8 4-2.5 1.5-6 4.5-7 6-1 1.5-.5 3 1 3 1.5-.5 1.5 2 0 5-1.5 3-4.5 9-6 12-1 3-3.5 9-5 12-1.5 2.5-4.5 8-6 11-1.5 3-4 9-5 12-.5 3 .5 8 2 10l4 3-2-6c-.5-3 0-9 1-12 1-3.5 4-9.5 6-12 2-2.5 6.5-6.5 9-8 3-1.5 8-4.5 10-6 2-1.5 6.5-1 9 1 2.5 1.5 7.5 2.5 10 2 3-.5 8-3.5 10-6 2-2.5 6-7 8-9l5-4-1 4c0 1.5-2 5.5-4 8-1.5 2.5-4.5 8-6 11-1.5 2.5-1.5 5.5 0 6 2 0 6-2 8-4 2.5-2 6.5-7 8-10 1.5-3 4-8.5 5-11 1-3 0-8.5-2-11-1.5-2.5-5.5-7-8-9-2.5-2-7.5-6-10-8-2-2-2.5-4-1-4 1.5 0 6 .5 9 1 3.5.5 10.5 5 14 9l8 7-6-10c-3-5-8.5-11.5-11-13-2.5-2-6.5-6-8-8-1-2.5 1-6 4-7 3-1.5 8-5 10-7 2-2.5 4.5-7 5-9 .5-2 .5-7.5 0-11-.5-4-1.5-12-2-16-.5-4-2-11.5-3-15-.5-3.5-2-10-3-13-1-3.5-5-6-8-5-2.5.5-3.5-1.5-2-4 2-2.5 3.5-7 3-9 0-2.5 2-3.5 4-2 2.5 1.5 5.5 6.5 6 10 1 3.5 2.5 11 3 15l1 8v-6c.5-3 .5-10 0-14 0-4.5.5-12.5 1-16 1-3.5 2.5-10.5 3-14 .5-4 2-11.5 3-15 1-3.5 2.5-10.5 3-14 1-3.5 3-10.5 4-14 1-3.5 3-10 4-13 1.5-3 4-9 5-12 1.5-3 4-9 5-12 1.5-3.5 4.5-9.5 6-12 1.5-3 4.5-9 6-12 1.5-3 4.5-8.5 6-11 1.5-3 4.5-8.5 6-11 2-2.5 5.5-7.5 7-10 2-3 5.5-8.5 7-11 2-2.5 6-7.5 8-10 2-2.5 5.5-7.5 7-10 2-2.5 6-7 8-9l8-10c2-2.5 6-7 8-9 2.5-2 7-6 9-8l9-9c2.5-2 7-6 9-8l10-8c2.5-2 7-6 9-8l10-8c2.5-2 7.5-5.5 10-7 2.5-2 7.5-5.5 10-7 2.5-2 7.5-5.5 10-7 3-2 8.5-5.5 11-7 2.5-2 7.5-5.5 10-7 3-2 8.5-5.5 11-7 3-1.5 8.5-4.5 11-6l12-6c3-1.5 8.5-4.5 11-6 3-1.5 9-4 12-5 3.5-1.5 10.5-2.5 14-2 4 .5 9.5 3.5 11 6 2 2.5 5 8.5 6 12 1.5 3 3.5 9.5 4 13l4 14c1 3.5 3 10 4 13 1.5 3 4 9 5 12 1.5 3 4.5 9 6 12 1.5 3 4.5 8.5 6 11 2 2.5 5.5 8 7 11 2 2.5 6 7.5 8 10 2 2 6 6.5 8 9 2 2 6 6.5 8 9 2.5 2 7 6 9 8 2.5 2 7 5.5 9 7 2.5 1 7.5 3.5 10 5 2.5 1 7.5 4 10 6 2.5 1.5 8 4.5 11 6 3 1.5 8.5 4.5 11 6l12 6c3 1.5 8.5 4.5 11 6 3 1.5 9 4 12 5 3.5 1 9.5 4 12 6 3 1.5 6 4.5 6 6 0 1-3 .5-6-1-3-1.5-9.5-4-13-5-3-1-9.5-3-13-4-3.5-1-10-3.5-13-5-2.5-1.5-8-3.5-11-4-3-1-10-2-14-2-3.5-.5-10-2.5-13-4-2.5-1.5-8-4.5-11-6-2.5-2-7.5-5.5-10-7l-10-8c-2-2-6.5-6-9-8-2-2.5-6.5-7-9-9-2-2-6-6.5-8-9l-8-10c-1.5-2.5-5-7.5-7-10-1.5-2.5-5-7.5-7-10l-6-12c-1-3-3.5-9-5-12-1-3.5-3-10-4-13-1-3.5-3-10.5-4-14-.5-3.5-2-10.5-3-14-.5-4-3-10-5-12-1.5-2-6.5-2.5-10-1-3 1-9 3.5-12 5-2.5 1.5-8 4.5-11 6-2.5 1.5-8 4.5-11 6-3 1.5-9 4.5-12 6-2.5 1.5-8 4.5-11 6-3 1.5-8.5 5-11 7-2.5 1.5-7.5 5-10 7-2.5 1.5-8 5-11 7-2.5 1.5-7.5 5-10 7-2 2-7 6-10 8-2.5 1.5-7.5 5-10 7-2 2-6.5 6-9 8-2 2-6.5 6-9 8-2.5 2-7 6.5-9 9l-9 9c-2 2-6 6.5-8 9-2 2-6 6.5-8 9-2 2-6 6.5-8 9-2 2.5-6 7.5-8 10-1.5 2.5-5 7.5-7 10-2 2.5-5.5 8-7 11-1.5 2.5-5 7.5-7 10-1.5 2.5-4.5 8-6 11-1.5 3-4.5 9-6 12-1.5 2.5-4.5 8-6 11-1.5 3-4.5 9-6 12-1 3-3 9.5-4 13-1 3-3.5 9.5-5 13-1 3-3 9.5-4 13-.5 3.5-2 10.5-3 14-1 3.5-2.5 11-3 15-.5 3.5-1.5 11-2 15 0 4-.5 12-1 16-.5 4-.5 12 0 16 .5 3.5 1 11.5 1 16 0 4.5.5 13 1 17 .5 3.5 1.5 10.5 2 14 1 3.5 3 10.5 4 14 1 3.5 3 10.5 4 14 1 3 3 9.5 4 13 1.5 3 4 9.5 5 13 1 3 3.5 9 5 12 1.5 2.5 4.5 8 6 11 1.5 3 4.5 9 6 12 1.5 2.5 5 7.5 7 10 2 2.5 5.5 8 7 11 1.5 2.5 4.5 7.5 6 10 2 2.5 6 7.5 8 10 2 2.5 6 7.5 8 10 2 2 6 6.5 8 9 2 2.5 6 7 8 9 2.5 2 7 6.5 9 9 2 2 6.5 6 9 8 2.5 2 7 6 9 8l10 8 10 8c2.5 1.5 7 5 9 7l10 8c3 1.5 8.5 5 11 7 2.5 1.5 7.5 5 10 7 3 1.5 8.5 4.5 11 6 3 1.5 8.5 4.5 11 6 3 1.5 9 4.5 12 6 3 1.5 8.5 4.5 11 6 3 1.5 9 4.5 12 6l12 6c3 1 9 3.5 12 5 3 1 9 3.5 12 5 3.5 1 10 3 13 4 3.5 1 10 3.5 13 5 3.5 1 10 3 13 4 3.5 1 10 3.5 13 5 3 1 9.5 3 13 4l14 4c3.5.5 10.5 2 14 3l14 4c3.5.5 10.5 2 14 3 3.5.5 10.5 2 14 3 4 .5 11.5 1.5 15 2 4 .5 11.5 2 15 3 4 .5 11.5 1.5 15 2l16 2c4 0 12 .5 16 1l16 2c4 0 12 .5 16 1 4.5 0 13 .5 17 1h16 18 17 18c4.5 0 12.5-.5 16-1 4-.5 12-1 16-1h17c4.5-.5 12.5-1.5 16-2l16-2c4-.5 11.5-1.5 15-2 4-.5 11.5-1.5 15-2 4-.5 11.5-1.5 15-2 4-1 11.5-2.5 15-3 3.5-1 11-2 15-2 4.5-.5 12.5-1.5 16-2 3.5-1 10-3 13-4 3.5-1 10.5-3 14-4 3.5-1 10.5-2.5 14-3 3.5-1 10.5-3 14-4 3.5-1 10.5-2.5 14-3 3.5-1 10-3 13-4 3-1.5 9.5-4 13-5 3.5-1 10-3 13-4 3-1.5 9-4 12-5 3.5-1.5 10-4 13-5 3-1.5 9-4 12-5 3-1.5 9.5-4 13-5 3.5-1 9.5-3.5 12-5l12-6c3-1.5 8.5-4.5 11-6 3-1.5 8.5-4.5 11-6l12-6c3-1.5 8.5-4.5 11-6 3-1.5 8.5-5 11-7 2.5-2 7.5-5.5 10-7 3-1.5 8.5-4.5 11-6 2.5-2 7-6 9-8 2.5-2.5 7.5-6.5 10-8 2.5-2 7-6 9-8l9-9c2.5-2 7-6 9-8 2-2.5 6-7 8-9l9-9c2.5-2 7-6.5 9-9 2-2.5 6-7 8-9 2-2.5 6-7 8-9 2-2.5 5.5-7.5 7-10 2-3 6-8 8-10 2-2.5 5.5-7.5 7-10 2-3 5.5-8.5 7-11 2-2.5 5.5-7.5 7-10l6-12c1.5-3 4-9 5-12 1.5-3 4.5-9 6-12 1.5-3 4-9 5-12 1.5-3 3.5-9.5 4-13 1-3.5 3-10.5 4-14 1-3.5 2.5-10.5 3-14 1-3.5 2.5-11 3-15 .5-4 1-12 1-16 .5-4 1.5-11.5 2-15 .5-4 .5-12 0-16 0-4.5-.5-12.5-1-16l-2-16c-.5-4-2-11.5-3-15-.5-3.5-2-10-3-13-1-3.5-3-10.5-4-14-1-3.5-3.5-10-5-13-1-3-3.5-9-5-12-1.5-3-4.5-9-6-12-1-3-3.5-8.5-5-11-1.5-3-5-8.5-7-11-1.5-3-4.5-8.5-6-11-1.5-3-5-8.5-7-11l-8-10c-1.5-2.5-5-7-7-9l-8-10c-1.5-3-5-8.5-7-11-1.5-2.5-4-8-5-11-.5-3.5 1-6.5 3-6h4l-1-7c-.5-4-1-12.5-1-17 0-4.5-.5-12-1-15-.5-3.5-2-10.5-3-14-.5-3.5-2.5-10-4-13-1.5-3-5-8-7-10-2-2.5-6.5-7-9-9-2.5-2-8-5-11-6-3-1.5-9.5-4-13-5-3-1-10-2.5-14-3-3.5-1-10.5-2.5-14-3-3.5-1-11-2.5-15-3-3.5-1-11-2.5-15-3l-14-2c-3.5-1-11-2.5-15-3l-16-2c-3.5-.5-11-1.5-15-2-3.5-1-11-2.5-15-3-3.5-.5-11-1-15-1-4-.5-11-2.5-14-4-3-1.5-8-5-10-7-2-2.5-4-8-4-11 .5-3.5 1.5-10 2-13 .5-3.5 1.5-10.5 2-14 1-3.5 2.5-10.5 3-14 1-4 2-12 2-16 .5-4 1.5-12 2-16 .5-4 0-11.5-1-15-.5-3.5-2-10.5-3-14-.5-3.5-2.5-10-4-13-1.5-3-4.5-8.5-6-11-1.5-3-5.5-8-8-10-2-2.5-6-7-8-9-2-2.5-6-7-8-9-2-2.5-6.5-7-9-9-2.5-2-7.5-5.5-10-7-2.5-2-8-5.5-11-7-2.5-1.5-8-4.5-11-6-2.5-2-8-5.5-11-7-2.5-1.5-8.5-4-12-5-3-1.5-9-4-12-5-3-1.5-9.5-4-13-5-3-1-9.5-3-13-4-3-1.5-9.5-4-13-5-3-1-10-2.5-14-3-3.5-1-10.5-2.5-14-3-3.5-1-10.5-2.5-14-3-3.5-1-11-2.5-15-3-3.5-1-11-2.5-15-3-3.5-.5-11-1.5-15-2-3.5-1-11.5-2-16-2h-16c-4-.5-12.5-1-17-1-4-.5-12-1-16-1h-16c-4-.5-12-.5-16 0-3.5.5-11 1.5-15 2-4 0-12 .5-16 1l-16 2c-4 0-12 1-16 2-3.5.5-11 1.5-15 2-3.5.5-10.5 2-14 3-3.5.5-11 2-15 3-3.5.5-10.5 2-14 3-3.5.5-10.5 2-14 3l-14 4c-3.5.5-10 2.5-13 4-3 1-9 3.5-12 5-3 1.5-9.5 4-13 5-3 1-9 3.5-12 5l-12 6c-2.5 1.5-8 4.5-11 6-2.5 1.5-8 4.5-11 6-3 1.5-8.5 5-11 7-2 2-7 6-10 8-2.5 1.5-7.5 5-10 7-2 2-6 6.5-8 9-2 2-6 6.5-8 9-2 2.5-6 7.5-8 10-1.5 2.5-4.5 8-6 11-1.5 3-4 9.5-5 13-1 3-3 9.5-4 13-1 3-2.5 10.5-3 15 0 4 .5 12 1 16 .5 3.5 2 10.5 3 14 1 3.5 3 10 4 13 1.5 3 5 8.5 7 11 2 2 6 6.5 8 9 2.5 2 7 6 9 8 2.5 2 7.5 6 10 8 2.5 2 7.5 6 10 8 2.5 1.5 7.5 5 10 7 2.5 1.5 7.5 5 10 7 3 1.5 8.5 4.5 11 6l12 6 12 6c3 1 9 3.5 12 5 3 1 9 3.5 12 5 3.5 1 10 3 13 4l14 4c3.5 1 10 3 13 4 3.5 1 10.5 2.5 14 3l16 2c4 .5 11.5 2 15 3 3.5.5 11 1.5 15 2 4 .5 11.5 2 15 3 3.5.5 11 1.5 15 2h17 17 18 17 17c4-.5 12-1.5 16-2 4-.5 12-1 16-1 4-.5 11.5-1.5 15-2 4-1 11.5-2.5 15-3 4-.5 11.5-1.5 15-2 3.5-1 10.5-2.5 14-3 4-1 11.5-2.5 15-3 3.5-1 10.5-3 14-4 3.5-1 10-3 13-4 3.5-1 10-3 13-4 3.5-1 10.5-3 14-4 3.5-1 10-3 13-4 3-1.5 9-4.5 12-6 3-1.5 9-4 12-5 3.5-1 9.5-3.5 12-5 3-1.5 8.5-4.5 11-6 3-2 8.5-5.5 11-7 2.5-2 7-4.5 9-5l4-1-4 5c-1.5 2.5-5 7.5-7 10-2 2-6.5 6-9 8-2.5 2-7.5 6-10 8-2.5 1.5-5 4.5-5 6 0 1.5-2 5.5-4 8-1.5 2.5-6 6.5-9 8-3 1-9.5 3.5-13 5-3 1-9.5 3-13 4-3.5.5-11 2-15 3-3.5.5-10.5 2-14 3-3.5.5-10.5 2-14 3-3 1-10 3-14 4-3.5.5-10.5 2-14 3-3.5.5-11 2-15 3-3.5.5-11 1.5-15 2-4 0-12 .5-16 1-3.5.5-11 1.5-15 2-4 .5-11.5 2-15 3-3 1-10.5 2.5-15 3-4 0-12 .5-16 1-3.5.5-11.5 1-16 1-4 0-12.5.5-17 1-4 0-12-.5-16-1-3.5-.5-11-1.5-15-2l-16-2-14-2c-3.5-1-11-2.5-15-3-3.5-1-10.5-2.5-14-3-3.5-1-11-2.5-15-3-3.5-1-10.5-2.5-14-3-3.5-1-10.5-2.5-14-3-3.5-1-11-2.5-15-3-3.5-1-7.5-1-8 0-.5.5 2.5 2 6 3 3.5.5 10.5 2 14 3l14 4c3.5.5 10.5 2 14 3l14 4c3.5.5 10.5 2 14 3 3.5.5 10.5 2 14 3 4 .5 11.5 2 15 3 3.5.5 10.5 2 14 3 3.5 1 10.5 2.5 14 3 4 .5 10 1.5 12 2h4l-6 3c-3 1.5-9.5 3.5-13 4-3 .5-10 1-14 1-4 0-11-1-14-2-3-1.5-10-3.5-14-4-3.5-.5-10 .5-13 2-3 1.5-9 3-12 3-3-.5-6.5-3-7-5 0-2.5-4-5-8-5-3.5 0-10.5-1-14-2-3-1-10-2.5-14-3-3.5-1-10.5-1.5-14-1-3.5 0-10 .5-13 1-3 .5-7-1.5-8-4-.5-2.5-4.5-6-8-7l-12-4c-3-1-9-3.5-12-5-2.5-1.5-8-4.5-11-6-2.5-2-8-5-11-6-3-1.5-8.5-4.5-11-6-2.5-2-8-5.5-11-7-3-1.5-8-5-10-7-2-2.5-6-7.5-8-10-2-2.5-5-7-6-9-1-2.5-4.5-7-7-9-2-2-6-6.5-8-9-2-2.5-6-7.5-8-10-1.5-2.5-5-7.5-7-10-1.5-3-4.5-8.5-6-11-1.5-3-4.5-9-6-12-1-3-3-9.5-4-13-1-3.5-3-10.5-4-14-.5-3.5-1-11.5-1-16 0-4.5.5-12.5 1-16 1-3.5 2.5-10.5 3-14 1-3.5 3.5-10 5-13 1.5-3 4.5-8.5 6-11 1.5-3 4.5-8.5 6-11 2-3 6-8 8-10 2-2.5 5.5-7.5 7-10 2-2.5 6-7 8-9 2.5-2.5 7.5-6.5 10-8 2.5-2 7.5-6 10-8 2.5-2 7.5-5.5 10-7 3-1.5 8.5-4.5 11-6 3-1.5 9-4.5 12-6 3-1.5 8.5-4.5 11-6l12-6c3-1.5 9-4 12-5 3.5-1 10-3 13-4 3-1.5 9.5-4 13-5 3.5-1 10-3 13-4l14-4c3.5-1 10.5-2.5 14-3 3.5-1 10.5-2.5 14-3 3.5-1 10.5-2.5 14-3 4-1 11.5-2.5 15-3 3.5-1 10.5-2.5 14-3 4-1 12-2 16-2 4-.5 11.5-1.5 15-2 4-.5 12.5-1 17-1h17 18 17 17c4.5 0 13 .5 17 1 4 .5 12 1 16 1 4.5 0 13 .5 17 1 4 .5 11.5 1.5 15 2 4 .5 11.5 2 15 3 3.5.5 10.5 2 14 3 4 .5 11.5 2 15 3 3.5.5 10.5 2 14 3 4 .5 11.5 2 15 3 3.5.5 10 2.5 13 4 3 1 9.5 3 13 4 3.5 1 10 3.5 13 5 3 1 9 3.5 12 5l12 6c3 1 8.5 3.5 11 5 3 1.5 8.5 5 11 7 3 1.5 8.5 5 11 7 2.5 1.5 7.5 5 10 7l10 8c2.5 1.5 7 5.5 9 8 2 2 6 6.5 8 9 2 2.5 5.5 7.5 7 10 2 2.5 5.5 8 7 11 2 2.5 5 8 6 11 1.5 3 3.5 9.5 4 13 1 3.5 2.5 11 3 15 1 3.5 2 11.5 2 16 0 4-.5 12.5-1 17 0 4-.5 12-1 16-.5 3.5-2 10.5-3 14-.5 3.5-1.5 11.5-2 16 0 4 2 10.5 4 13 2 2 7 5.5 10 7 3.5 1 10.5 2.5 14 3 4 .5 11.5 1.5 15 2 4 .5 11.5 2 15 3 4 .5 11.5 2 15 3 3.5.5 11 1.5 15 2 4.5 0 12.5 1 16 2 3.5.5 10.5 2 14 3 3.5.5 10.5 2 14 3 4 .5 11.5 2 15 3 3.5.5 10.5 2 14 3 3.5 1 10 3.5 13 5 3 1 8.5 3.5 11 5 3 1.5 8.5 5 11 7 2.5 2 6.5 6.5 8 9 2 2.5 5.5 8 7 11 1.5 3 3.5 9.5 4 13 1 3.5 2.5 10.5 3 14 1 3.5 1.5 11.5 1 16 0 4-.5 12-1 16-.5 3.5-3.5 9-6 11l-4 3 5 7c2.5 3 7 8.5 9 11l8 10c2 2 6 6.5 8 9 2.5 2 6.5 6.5 8 9 2 2.5 5.5 8 7 11 1.5 2.5 5 7.5 7 10 2 2.5 5.5 8 7 11 1.5 2.5 4.5 8 6 11 1.5 3 4 9 5 12 1.5 3 4 9 5 12 1.5 3 4 9.5 5 13 1.5 3 4 9.5 5 13 1 3 2.5 10 3 14 1 3.5 2.5 10.5 3 14 1 3.5 2.5 11 3 15 .5 3.5 1 11.5 1 16 .5 4 1 12.5 1 17v17c0 4.5-.5 13-1 17 0 4-1 11.5-2 15-.5 3.5-2 11-3 15-.5 3.5-2 10.5-3 14-.5 3.5-2.5 10.5-4 14-1 3-3 9.5-4 13-1 3-3.5 9-5 12-1 3-3.5 9-5 12l-6 12c-1.5 2.5-4.5 8-6 11-1.5 3-4.5 9-6 12-1.5 2.5-4.5 8-6 11-1.5 2.5-5 7.5-7 10l-8 10c-1.5 2.5-5 7.5-7 10l-8 10c-1.5 2.5-5 7.5-7 10-1.5 2.5-5.5 7.5-8 10-2 2-6 6.5-8 9l-9 9c-2 2-6 6.5-8 9-2 2-6.5 6-9 8-2 2-6 6.5-8 9-2 2.5-3.5 7.5-3 10 1 2.5 2.5 8.5 3 12 .5 3.5-.5 10-2 13-1 3-3.5 9-5 12-1.5 2.5-5.5 7.5-8 10-2 2-6.5 6-9 8-2 2-4.5 1.5-5-1-.5-2.5.5-7.5 2-10 2-2.5 6-7 8-9 2-2.5 5-8 6-11 1.5-3.5 1-7.5-1-8-1.5-.5-5.5 1.5-8 4-2 2-5 7.5-6 11-1 3-3 9.5-4 13-1 3-3 9.5-4 13-.5 3-1.5 10-2 14-.5 3.5-3 10-5 13-1.5 2.5-1.5 5 0 5 1.5-.5 3 .5 3 2 0 1-2 5-4 8-1.5 2.5-4.5 8-6 11-1 3-3.5 9-5 12-1.5 3-5 8.5-7 11-2 2-6 6.5-8 9-1.5 2.5-5 8-7 11-1.5 2.5-4.5 8-6 11-1 3-4.5 8.5-7 11-2 2-6 6.5-8 9-2 2-6 6.5-8 9-1.5 2.5-5 7.5-7 10-2 2.5-6.5 7-9 9-2 2-6.5 6-9 8l-10 8c-2 2-6.5 6-9 8-2 2-7 6-10 8-2.5 1.5-8 4.5-11 6-3 1-9.5 3.5-13 5-3 1-9 3.5-12 5l-9 3h-3l5-3c3-2 8.5-5.5 11-7 3-1.5 8.5-4.5 11-6 3-2 8.5-5.5 11-7 3-1.5 8-5 10-7 2.5-2 7-6.5 9-9 2-2.5 6-7 8-9 2.5-2 7.5-5 10-6 2.5-1.5 7.5-5 10-7 2.5-2 6.5-6.5 8-9l8-10c2-2.5 6-7 8-9 2.5-2 4-6 3-8-.5-2 .5-7 2-10 1.5-3 4.5-8.5 6-11 1.5-3 5-8.5 7-11 2-2.5 5.5-7.5 7-10 2-2.5 5.5-7.5 7-10 2-2.5 5-8 6-11 1.5-3.5 4-10 5-13l6-12c1.5-3 2.5-9.5 2-13v-14c.5-3.5 2-10 3-13l3-7-3 2c-1 1-4 5-6 8-1.5 2.5-4 8-5 11-1 2.5-2 8-2 11 .5 3 .5 8.5 0 11 0 2 1.5 3 3 2l4-2-4 6c-1.5 2.5-5 7.5-7 10-1.5 2.5-5 7.5-7 10-1.5 2.5-4 8-5 11-1 3-4 8.5-6 11-1.5 2.5-5 8-7 11-1.5 2.5-4.5 8-6 11-1.5 2.5-4.5 8-6 11-1 3-4 8.5-6 11l-8 10-9 9c-2 2-6.5 6-9 8-2.5 1.5-7.5 5-10 7l-9 9c-2 2-6 6.5-8 9l-9 9c-2 2-6.5 6-9 8-2.5 1.5-7.5 5-10 7-2.5 1.5-7.5 5-10 7l-10 8c-2 2-6.5 6-9 8-2.5 2-8 5.5-11 7-2.5 1.5-8 4.5-11 6-3 1-9.5 3.5-13 5-3 1-9 3.5-12 5-3 1-10 3-14 4-3.5.5-10.5 2-14 3-3.5.5-10.5 2-14 3-3 1-9.5 2.5-13 3-3.5.5-10 .5-13 0-3-1-10 0-14 2l-8 3" id="4" style="fill:#fff;stroke:#fff;stroke-width:1.5"/><path d="m450 1413c-8.5-4.5-14-7.5-17-9-3-1.5-9-4.5-12-6-2.5-1.5-5.5-2-6-1 0 1 2.5 4 5 6l12 6c3 1 9 3.5 12 5l7 2-1-1v-2" id="5" style="fill:#000;stroke:#000;stroke-width:1.5"/><path d="m403 1402c-10.5-.5-17-2.5-20-4l-12-6c-2.5-1.5-8-3-11-3l-6-1 5 5c3 2 8.5 6 11 8 2.5 1.5 8.5 3.5 12 4 3.5.5 10 .5 13 0 3.5-.5 7-1.5 7-2l1-1" id="6" style="fill:#000;stroke:#000;stroke-width:1.5"/><path d="m1005 1395c9-2 14-4.5 16-6l4-4-6 3-10 5-4 2" id="7" style="fill:#fff;stroke:#fff;stroke-width:1.5"/><path d="m280 1391c7.5-3.5 12-7 14-9 2-2.5 3.5-6 3-7-.5-1-3.5 0-6 2-2 2-6 6.5-8 9l-3 5" id="8" style="fill:#000;stroke:#000;stroke-width:1.5"/><path d="m0 1391c9-3 14-6 16-8 2-2.5 5.5-7.5 7-10 2-3 6-8 8-10 2-2.5 3.5-6.5 3-8v-3l-5 5c-2 2-6 6.5-8 9-2 2-8.5 7-13 10l-8 5v4 5 1" id="9" style="fill:#000;stroke:#000;stroke-width:1.5"/><path d="m351 1387l3 1-4-2-3-2 2 2 2 1" id="A" style="fill:#000;stroke:#000;stroke-width:1.5"/><path d="m189 1378c7.5-5 12-9 14-11l5-5-4 1c-1.5.5-5.5 3-8 5-2 2-7 6-10 8l-5 3h4l4-1" id="B" style="fill:#000;stroke:#000;stroke-width:1.5"/><path d="m353 1373c-8.5-4.5-13.5-8-16-10-2.5-2-7.5-5.5-10-7-2.5-2-7.5-6-10-8-2-2-6.5-6-9-8l-5-4 3 5 8 10c2.5 2 7 6 9 8 2.5 2 7.5 5.5 10 7 3 1.5 9 4.5 12 6 3 1.5 6.5 2.5 7 2l1-1" id="C" style="fill:#000;stroke:#000;stroke-width:1.5"/><path d="m0 1376v1h1c1 0 4-1 6-2l4-3h-1c-.5 0-3.5.5-6 1l-4 1v1 1" id="D" style="fill:#000;stroke:#000;stroke-width:1.5"/><path d="m308 1364l3-4-2 2-1 2" id="E" style="fill:#000;stroke:#000;stroke-width:1.5"/><path d="m0 1348v1l6-1c3.5-1 9-4 11-6 2.5-2.5 3-5 1-5-1.5 0-7 1.5-11 3l-7 2v3 3" id="F" style="fill:#000;stroke:#000;stroke-width:1.5"/><path d="m220 1337c7.5-5 12.5-9 15-11 2.5-2 7-6 9-8 2.5-2 3.5-5 2-6-1-1-4 .5-6 3-2 2.5-6.5 7-9 9-2.5 1.5-8 5-11 7-2.5 1.5-4 4-3 5l3 1" id="G" style="fill:#000;stroke:#000;stroke-width:1.5"/><path d="m243 1337c6.5-6 11-10 13-12 2.5-2.5 5.5-7.5 6-10l2-5-4 4c-2 1.5-6 5.5-8 8-2 2.5-7 6.5-10 8-2.5 1.5-3.5 4-2 5l3 2" id="H" style="fill:#000;stroke:#000;stroke-width:1.5"/><path d="m0 1330v1h2c1 0 5-1 8-2 3-1.5 8-5 10-7l5-5-6 3c-3 1-9.5 3-13 4l-6 2v2 2" id="I" style="fill:#000;stroke:#000;stroke-width:1.5"/><path d="m111 1285l2-3-1 2-1 1" id="J" style="fill:#000;stroke:#000;stroke-width:1.5"/><path d="m0 1267c8-3.5 13.5-6.5 16-8 2.5-2 7.5-6 10-8 2.5-2 7.5-5.5 10-7 2.5-2 7-6 9-8 2-2.5 2-7.5 0-10-2-2.5-6.5-6-9-7-2.5-1.5-8-1-11 1l-15 9-10 5v2 10 15 6" id="K" style="fill:#fff;stroke:#fff;stroke-width:1.5"/><path d="m227 1239c-5.5-7.5-9.5-12-12-14l-10-8c-2-2-4.5-4-5-4v-1l-5-1c-2-.5-3.5.5-3 2 .5 1.5-.5 3.5-2 4-1.5 0-5.5-2-8-4-2-2.5-6.5-7-9-9-2-2-7-5-10-6-3-1.5-8.5-5-11-7-2.5-2-8-5.5-11-7-2.5-1.5-8-3-11-3l-5-1 5 3c3 1.5 8.5 4.5 11 6 3 1.5 8 5.5 10 8 2 2.5 7 5.5 10 6 3.5.5 9.5 3 12 5l10 8c2.5 1.5 8 4.5 11 6 3 1 8.5 3.5 11 5 3 1 8.5 4 11 6 2.5 1.5 7 5.5 9 8l4 5-1-3-1-4" id="L" style="fill:#fff;stroke:#fff;stroke-width:1.5"/><path d="m11 1235c10.5-2 17.5-2.5 21-2 3.5.5 6.5 0 6-1 0-1-2.5-2.5-5-3-2.5-1-8.5-1-12 0-3.5 1-10 3.5-13 5l-5 3 4-1 4-1" id="M" style="fill:#000;stroke:#000;stroke-width:1.5"/><path d="m787 1241c12-.5 20.5-1 25-1h9l-3-1c-1.5-1-7.5-2-12-2-4 0-12.5.5-17 1h-8l3 2 3 1" id="N" style="fill:#000;stroke:#000;stroke-width:1.5"/><path d="m688 1235c-12-.5-20-1.5-24-2-4-.5-12-1-16-1-4-.5-7.5 0-7 1 1 1 6 2.5 10 3 4 .5 12 1.5 16 2 4 0 11-.5 14-1l7-2" id="O" style="fill:#000;stroke:#000;stroke-width:1.5"/><path d="m157 1237l8-7-4 2c-1.5 1-3.5 3-4 4v1" id="P" style="fill:#fff;stroke:#fff;stroke-width:1.5"/><path d="m0 1231c6.5-6 11-10 13-12l9-9c2.5-2 6.5-5 8-6l3-2-7 2c-3 1-8 2.5-10 3-2 0-7 1-10 2l-6 2v4 10 6" id="Q" style="fill:#fff;stroke:#fff;stroke-width:1.5"/><path d="m937 1226c10.5-2 17.5-3.5 21-4 4-1 11.5-2.5 15-3 3.5-1 10-3 13-4l6-3-8 1c-4 .5-11.5 2-15 3-3.5.5-11 1.5-15 2-4 .5-11.5 2-15 3-3.5.5-10 2.5-13 4l-6 2h8l9-1" id="R" style="fill:#000;stroke:#000;stroke-width:1.5"/><path d="m157 1225c6-5 7.5-8 7-9-.5-1.5-3 0-5 3-1.5 2.5-3 5.5-3 6h1" id="S" style="fill:#fff;stroke:#fff;stroke-width:1.5"/><path d="m52 1223c5-6 7-11 7-14 0-3.5-2.5-5-5-3-2.5 2-4.5 7.5-4 11l2 6" id="T" style="fill:#fff;stroke:#fff;stroke-width:1.5"/><path d="m145 1213c6-5 6-8 4-9-1.5-1-3.5.5-4 3-.5 2.5-1 5.5-1 6h1" id="U" style="fill:#fff;stroke:#fff;stroke-width:1.5"/><path d="m198 1211l2 1-2-5c-1-2.5-4.5-5.5-7-6l-4-1 4 5c2.5 2 5.5 4.5 6 5l1 1" id="V" style="fill:#fff;stroke:#fff;stroke-width:1.5"/><path id="W" d="m40 1200h-1 1" style="fill:#fff;stroke:#fff;stroke-width:1.5"/><path d="m18 1199c-3-2-4-2.5-4-2 .5.5 1.5 1.5 2 2h2" id="X" style="fill:#fff;stroke:#fff;stroke-width:1.5"/><path d="m197 1199l-3-4 1 2 2 2" id="Y" style="fill:#fff;stroke:#fff;stroke-width:1.5"/><path d="m67 1191c-6-6.5-9-12.5-10-16l-2-7-2 5c-1 2-4 6-6 8-1.5 2-2 6.5-1 9 1.5 2 4 2 5 0 1.5-2 5-1.5 7 1 2 2.5 5 4 6 3l3-3" id="Z" style="fill:#fff;stroke:#fff;stroke-width:1.5"/><path d="m96 1177c7.5-5 11.5-10 13-13 1.5-3 3.5-8.5 4-11l2-5-2 4c-1 1.5-3.5 6-5 9-1 2.5-4.5 4-7 3l-10-6c-2-2-6.5-2.5-9-1-2.5 1-8 3-11 4l-5 2 4-5c2-2.5 6-7 8-9 2.5-2 7-6 9-8 2.5-2.5 5-7.5 5-10 0-3-1.5-8-3-10l-3-5 4 3c2.5 1 4-1 3-4-1-3.5-2.5-10-3-13-.5-3-2.5-7.5-4-9-1-1.5 0-3.5 2-4 2-1 6-1.5 8-1 2 .5 5 .5 6 0 1-1 3-1.5 4-1 1.5 0 3.5 3 4 6 1 3 3 9.5 4 13 1 3 4.5 8 7 10l10 8c2.5 1.5 6 2.5 7 2 1.5-1 0-3-3-4-3-1.5-4.5-3.5-3-4l4-1-2-1c-.5-1-4-3-7-4-3-1.5-7-6.5-8-10-1-3.5-3.5-10-5-13-1-3-3-8.5-4-11-.5-2.5.5-7.5 2-10 2-3 4.5-7.5 5-9l1-4-5 4c-2.5 2-7 6.5-9 9-2 2-5.5 4-7 4-1 0-1-3 0-6 1.5-3.5 1-6.5-1-6-2 0-5.5 2.5-7 5-1 2-3.5 3-5 2-1-1-3-5-4-8l-1-6-2 6c-1 3-4 8-6 10-2 1.5-4 4-4 5v5c0 1-3.5 2-7 2-3.5-.5-10 1-13 3-2.5 1.5-8 4.5-11 6-2.5 1.5-6.5 1-8-1-1-2.5-3.5-4.5-5-4-1.5 0-4.5.5-6 1-1 .5-2.5 0-3-1 0-1.5.5-4.5 1-6 .5-2-3-2-7 0l-8 3v5 10 5l7 3c4 1 10.5 4 13 6 2.5 1.5 7 5.5 9 8 2.5 2 6.5 2 8 0 2-2 4.5-5 5-6l2-2-6 1c-3 .5-8.5-1-11-3-2-2-4.5-6.5-5-9 0-3 2-5 4-4 2.5 1 7.5 1.5 10 1 3-.5 9-2.5 12-4 3-1.5 9-3 12-3 3-.5 7 0 8 1 1 1-1 3.5-4 5-2.5 1.5-5.5 4.5-6 6l-1 2 5-4 5-4-1 4c-.5 1.5-3 6-5 9-1.5 2.5-4.5 8-6 11-1.5 2.5-5 7.5-7 10-2 2-5 7.5-6 11-1 3.5-2.5 10.5-3 14l-1 6 3-9c2-5 5.5-12.5 7-15l8-10 4-5v3c.5 1.5-1.5 5.5-4 8-2 2-3.5 5-3 6 1 1 4.5 1 7 0 2.5-1.5 6.5-5.5 8-8 2-3 5.5-8.5 7-11l3-6-1 5c0 2-1.5 7-3 10-1.5 2.5-4.5 7-6 9-1 2-4 6.5-6 9-2 2.5-4.5 8.5-5 12 0 3.5 2.5 8 5 9 2.5 1 7.5 4 10 6 2.5 1.5 9.5 3 14 3h10" id="a" style="fill:#fff;stroke:#fff;stroke-width:1.5"/><path d="m0 1176v1l2-2c1.5-1.5 1.5-3 0-3h-2v1 2 1" id="b" style="fill:#fff;stroke:#fff;stroke-width:1.5"/><path d="m161 1165c-6-6.5-11-8-14-7-3 1-9 2.5-12 3-3 0-5 1.5-4 3 1.5 1.5 6 3.5 9 4 3.5 0 10 .5 13 1 3.5.5 7 0 7-1l1-3" id="c" style="fill:#fff;stroke:#fff;stroke-width:1.5"/><path d="m35 1168c.5 0 1.5-1.5 2-3l1-4-1 2c-.5.5-1.5 2-2 3v2" id="d" style="fill:#fff;stroke:#fff;stroke-width:1.5"/><path d="m115 1165l6-5-3 3-3 2" id="e" style="fill:#fff;stroke:#fff;stroke-width:1.5"/><path d="m1209 1162l1-2-1 1v1" id="f" style="fill:#fff;stroke:#fff;stroke-width:1.5"/><path d="m11 1159c3-2 0-3.5-4-4l-7-1v1 1l5 2 6 1" id="g" style="fill:#fff;stroke:#fff;stroke-width:1.5"/><path d="m155 1139c7.5-2 11-4 12-5l2-3-6 4c-2.5 1.5-6 3.5-7 4h-1" id="h" style="fill:#fff;stroke:#fff;stroke-width:1.5"/><path d="m387 1130c-7.5-5-12.5-9-15-11l-10-8c-2-2-6.5-5.5-9-7l-10-8-10-8c-2-2-6.5-6-9-8-2-2.5-6.5-7-9-9-2-2-6-6-8-8-2-2.5-6-7.5-8-10-2-2.5-6-7-8-9-2-2.5-6-7.5-8-10-2-2.5-5.5-7.5-7-10-1.5-3-5-8.5-7-11-1.5-2.5-5-7.5-7-10-1.5-3-4.5-8.5-6-11l-6-12c-1-3.5-3.5-9.5-5-12-1.5-3-5-7.5-7-9l-4-4 2 7c1 3.5 3 10.5 4 14 1 3 3 9.5 4 13 1.5 3 4.5 8.5 6 11 2 2.5 5.5 7.5 7 10 2 2.5 5.5 8 7 11 2 2.5 5.5 8 7 11 1.5 2.5 4.5 8 6 11 2 2.5 6 7.5 8 10 2 2 5.5 6.5 7 9l8 10 8 10c2 2 6.5 6 9 8 2.5 2 7 6 9 8l10 8c2.5 1.5 7.5 5 10 7 3 1.5 8.5 5 11 7 2.5 1.5 7.5 5 10 7l12 6c3 1 6.5 1 7 0l1-3" id="i" style="fill:#000;stroke:#000;stroke-width:1.5"/><path d="m28 1128l8-3-7-2c-3-1.5-8.5-4.5-11-6-2.5-2-8.5-4.5-12-5l-6-1v6 5l9-1c4.5-.5 11.5.5 14 2 3 1 5.5 3 5 4v1" id="j" style="fill:#fff;stroke:#fff;stroke-width:1.5"/><path d="m490 1128c-7.5-5-13-8.5-16-10-3-1.5-9-4-12-5-3-1.5-9-4-12-5-3-1.5-9.5-4-13-5-3-1.5-9.5-3.5-13-4-3.5-1-10.5-3-14-4-3.5-1-10.5-3-14-4l-12-4-12-6c-3-1.5-6.5-1.5-7 0 0 1.5 2.5 5 5 7 2.5 2 8 5.5 11 7 3 1 9 3.5 12 5 3 1 9.5 3 13 4 3.5 1 10 3.5 13 5 3 1 9.5 3 13 4 3.5 1 10 3.5 13 5l12 4c3.5 1 10 3.5 13 5 3 1.5 9.5 4 13 5 3.5.5 7 0 7-1v-3" id="k" style="fill:#000;stroke:#000;stroke-width:1.5"/><path d="m120 1131c-3-5-6-9-8-11-2-2.5-5-6-6-7l-2-3 1 3c1 1.5 3.5 6 5 9 1.5 2.5 4.5 6 6 7l4 2" id="l" style="fill:#fff;stroke:#fff;stroke-width:1.5"/><path d="m187 1125l1-6-1 3v3" id="m" style="fill:#fff;stroke:#fff;stroke-width:1.5"/><path d="m103 1109l1 1-1-1-1-2v1l1 1" id="n" style="fill:#fff;stroke:#fff;stroke-width:1.5"/><path d="m384 1102c-7.5-5-12.5-9-15-11-2.5-2-7.5-6-10-8-2-2-6.5-6-9-8-2-2-6.5-6-9-8-2.5-2-7-6-9-8-2-2.5-6.5-7-9-9-2.5-2-7.5-6-10-8l-8-8c-2-2.5-6.5-7-9-9-2-2.5-5.5-4-7-3-1 1 0 4.5 2 7 2 2.5 5.5 7.5 7 10l8 10c2 2 6 6.5 8 9 2.5 2 7 6 9 8 2.5 2 7 6.5 9 9 2.5 2 7 6 9 8 2.5 2 7.5 6 10 8 2.5 1.5 7.5 5 10 7 3 1.5 8.5 4.5 11 6 3 1.5 7.5 2 9 1l3-3" id="o" style="fill:#000;stroke:#000;stroke-width:1.5"/><path d="m139 1101c5-7.5 9.5-11.5 12-13 3-2 6.5-7.5 7-11 1-3.5 2.5-10.5 3-14 1-3.5 2-11 2-15 0-4-1.5-9.5-3-11-1-1.5-5-3.5-8-4-3-.5-9-1-12-1h-5l5 4c2.5 1.5 6.5 6 8 9 2 2.5 4.5 8.5 5 12 1 3.5 1 10.5 0 14-.5 3-3 8.5-5 11l-6 10c-1 2.5-4.5 7-7 9l-5 4 4-2 5-2" id="p" style="fill:#fff;stroke:#fff;stroke-width:1.5"/><path d="m450 1082c-5.5-7.5-9-12.5-11-15-1.5-3-5.5-8-8-10-2-2-7-5-10-6-3-1.5-6-1.5-6 0 0 1.5 2.5 5 5 7 2.5 1.5 7 5.5 9 8 2.5 2 6.5 6.5 8 9 2 2.5 6 7.5 8 10 2 2 4 2.5 4 1l1-4" id="q" style="fill:#000;stroke:#000;stroke-width:1.5"/><path d="m136 1087c2-4.5 1-6.5-1-7-2-1-5.5-4-7-6l-3-4 3 6c1.5 2.5 4 6.5 5 8l3 3" id="r" style="fill:#fff;stroke:#fff;stroke-width:1.5"/><path d="m142 1080l5-10-1 1c-.5 0-2 2.5-3 5l-1 4" id="s" style="fill:#fff;stroke:#fff;stroke-width:1.5"/><path d="m184 1079l-3-8 1 4 2 4" id="t" style="fill:#fff;stroke:#fff;stroke-width:1.5"/><path d="m0 1074v1h2c1.5 0 5-.5 7-1 2-1 4-2.5 4-3 .5-1-1.5-1.5-4-1h-7-2v2 2" id="u" style="fill:#fff;stroke:#fff;stroke-width:1.5"/><path d="m62 1070l5-4-3 2-2 2" id="v" style="fill:#fff;stroke:#fff;stroke-width:1.5"/><path id="w" d="m137 1067v-3 2 1" style="fill:#fff;stroke:#fff;stroke-width:1.5"/><path d="m690 1056c-7-1.5-13-2.5-17-3l-14-4c-3-1-7.5-2-9-2h-2l6 3c3.5 1 10 3.5 13 5 3 1 10 2 14 2l9-1" id="x" style="fill:#000;stroke:#000;stroke-width:1.5"/><path d="m21 1054c6-6.5 7-10 6-11-1-1-4 .5-6 3-2 2-8.5 3-13 2l-8-2v5 5l10-1 11-1" id="y" style="fill:#000;stroke:#000;stroke-width:1.5"/><path d="m93 1042c6.5-6 11-10.5 13-13 2-2.5 2.5-6 1-7-1-1-4.5 0-7 2-2 2-6 7-8 10-1.5 2.5-2 6-1 7l2 1" id="z" style="fill:#fff;stroke:#fff;stroke-width:1.5"/><path d="m674 1039c6-6.5 8-10 8-11 .5-1.5 3-5 5-7 2.5-2 3.5-4.5 2-5-1.5-1-5.5 0-8 2-2.5 2-9 4.5-13 5-3.5.5-11 1-15 1-4 0-10.5-1.5-13-3-2.5-2-4-4.5-3-5 1-1-1-3-4-4-2.5-1.5-8-4.5-11-6-2.5-1.5-7.5-5-10-7-2-2.5-6-7-8-9-2-2.5-6.5-7-9-9-2-2-6-6.5-8-9-1.5-3-5-8-7-10l-8-10c-1.5-3-2-6-1-6 1-.5 5 0 8 1 3 .5 5.5 3 5 5-.5 2 0 6.5 1 9l3 5v-1c.5-1 2.5-3.5 4-5 2-1.5 7.5-2 11-1 3.5.5 10.5 2 14 3 3.5 1 10 3 13 4 3.5 1 10 3.5 13 5 3 1.5 9.5 4 13 5 3.5.5 10 2 13 3l14 4c4 .5 11.5 2 15 3 3.5.5 11 1.5 15 2 4 .5 11.5 1.5 15 2 4 .5 12 1 16 1 4.5 0 13 .5 17 1h17c4-.5 12-1.5 16-2 4-.5 12-1 16-1 4-.5 11.5-1.5 15-2 3.5-1 10.5-2.5 14-3 4-1 11-3 14-4l14-4c3.5-1 9.5-3.5 12-5 3-1.5 9-4 12-5 3.5-1 9.5-3.5 12-5 3-2 8.5-5.5 11-7 2.5-2 5.5-5 6-6 .5-1-2.5-1-6 0-3.5.5-10.5 2-14 3-3 1-10 3-14 4-3.5.5-10 2.5-13 4-3 1-10 3-14 4-3.5.5-10.5 2-14 3-3.5.5-10.5 2-14 3-3.5.5-11 2-15 3-3.5.5-11 1.5-15 2-4 0-12.5.5-17 1-4 0-12 .5-16 1-4 0-12-.5-16-1-3.5-.5-11.5-1-16-1-4-.5-12-1.5-16-2-3.5-.5-11.5-1-16-1-4-.5-11.5-2-15-3-3-1-9.5-3-13-4-3-1-10-2.5-14-3-3.5-1-10-3-13-4-3-1.5-9.5-4-13-5-3-1.5-9-4.5-12-6-2.5-1.5-8-4-11-5-3-1.5-9-4.5-12-6-2.5-2-7.5-5.5-10-7-2.5-2-8-5.5-11-7-2.5-2-7.5-6-10-8-2-2-6.5-5.5-9-7-2.5-2-8-5.5-11-7-2.5-2-8-5.5-11-7-2.5-1.5-8-4.5-11-6-3-1.5-5.5-.5-5 2 .5 2 3 6.5 5 9 2 2 4 7.5 4 11 0 3.5 1.5 7 3 7h7c1.5 0 5 1.5 7 3 2 1 4 5.5 4 9 .5 3.5 1.5 11 2 15 1 3.5 3 10 4 13l6 12c1.5 3 4.5 8.5 6 11 2 2.5 5.5 8 7 11 1.5 2.5 5 7.5 7 10 2 2.5 6 7 8 9l10 8c2.5 2 7.5 5.5 10 7 3 1.5 9 4.5 12 6 3 1 9 3.5 12 5 3 1.5 9 4.5 12 6 3 1 10.5 1.5 15 1l10-2" id="10" style="fill:#000;stroke:#000;stroke-width:1.5"/><path d="m119 1043c3-.5 6-3 8-5 2.5-2 5.5-5.5 6-7l2-4-5 3c-2.5 1-7 4.5-9 7-1.5 2.5-3 5.5-3 6h1" id="11" style="fill:#fff;stroke:#fff;stroke-width:1.5"/><path d="m354 1034c-7-6-11.5-10-14-12l-10-8c-2-2-6.5-6-9-8-2-2-6-6.5-8-9-1.5-3-5-8-7-10-2-2.5-7-6.5-10-8-2.5-2-7.5-5.5-10-7-2.5-2-7.5-6-10-8-2-2-6.5-6-9-8-2-2.5-5-4.5-6-4h-2l5 4c2.5 2 7 6.5 9 9 2 2 6 6 8 8 2.5 2 7.5 6 10 8 2.5 2 6.5 6.5 8 9 2 2.5 5 8.5 6 12l6 12c1.5 2.5 5.5 7 8 9 2.5 1.5 8 4.5 11 6 3.5 1 9.5 3.5 12 5 3 1.5 7.5 2.5 9 2l3-2" id="12" style="fill:#000;stroke:#000;stroke-width:1.5"/><path d="m0 1039c7.5-4.5 10.5-9.5 11-13 1-3.5 3.5-10 5-13 1.5-3 4.5-8.5 6-11 1.5-3 4-9 5-12 1.5-3 3.5-9.5 4-13 1-4 3-11 4-14 1.5-3 4.5-8.5 6-11 2-3 3.5-8 3-10v-4l-4 5c-2 2-6 7-8 10-1.5 2.5-5 7.5-7 10-1.5 2.5-5 7.5-7 10-2 2.5-5.5 8-7 11-1.5 2.5-3.5 8-4 11-.5 3-2.5 8.5-4 11l-3 4v2 11 12 4" id="13" style="fill:#000;stroke:#000;stroke-width:1.5"/><path d="m404 1033c-7.5-5-13-8.5-16-10l-10-8c-2-2-6.5-6-9-8l-4-4 3 5c1.5 2.5 5 7.5 7 10 2 2 6.5 6 9 8 3 1.5 8.5 5 11 7 2.5 1.5 6 2.5 7 2l2-2" id="14" style="fill:#000;stroke:#000;stroke-width:1.5"/><path d="m377 1028c-5.5-7.5-9-12.5-11-15-2-2.5-6-7-8-9-2-2.5-6.5-7-9-9-2-2-6.5-6-9-8-2.5-2-7.5-5.5-10-7l-10-8c-2.5-2-8.5-5-12-6-3-1-7-1-8 0-.5 1 1.5 4 4 6 2.5 2 7.5 6 10 8 2.5 1.5 7 5.5 9 8 2.5 2 7 6 9 8 2.5 2 7 6 9 8 2.5 2 7 6.5 9 9 2.5 2 7 6.5 9 9 2 2 7.5 4.5 11 5l7 1" id="15" style="fill:#000;stroke:#000;stroke-width:1.5"/><path d="m1287 1028c6-6.5 10-11.5 12-14 2-2.5 6-7 8-9 2.5-2 6.5-6.5 8-9 2-2.5 5.5-7.5 7-10 2-3 5.5-8.5 7-11 1.5-3 4.5-8.5 6-11 2-3 5-9 6-12 1.5-3 4-9 5-12 1.5-3 4-9 5-12 1.5-3.5 4-10 5-13 1-3.5 3-10 4-13 1.5-3.5 3.5-10.5 4-14 1-3.5 2-11 2-15 .5-4 1.5-12 2-16 .5-4 1-12 1-16 0-4.5-.5-13-1-17-.5-4-2-11.5-3-15-.5-3.5-2-10.5-3-14-.5-3.5-2-10.5-3-14-.5-4-2-11-3-14-1-3.5-3.5-10-5-13-1-3.5-3.5-9.5-5-12-1.5-3-4.5-8.5-6-11-1.5-3-4.5-9-6-12-1.5-3-5-8.5-7-11-1.5-2.5-5-7.5-7-10-1.5-3-5-8-7-10-2-2.5-6-7-8-9-2-2.5-5.5-8-7-11l-3-6v5c0 2 1.5 7 3 10 1.5 3 4.5 8.5 6 11 2 2.5 5.5 7.5 7 10 2 2.5 5.5 8 7 11 2 2.5 5.5 8 7 11 1.5 2.5 4.5 8 6 11 1.5 3 4 9 5 12 1.5 3 4.5 9 6 12 1.5 2.5 4 8.5 5 12 1 3.5 3 10.5 4 14 1 3 3 9.5 4 13 1 3.5 2 11 2 15l2 16c.5 3.5 1 11.5 1 16 0 4.5-.5 13-1 17 0 4-.5 12-1 16-.5 4-2 11.5-3 15-.5 3.5-2 10.5-3 14-1 3-3 9.5-4 13-1 3.5-3.5 10-5 13-1 3-3.5 9.5-5 13-1 3-3.5 9-5 12-1.5 2.5-4.5 8-6 11-1.5 2.5-5 7.5-7 10-2 2.5-5.5 8-7 11-1.5 2.5-5 7.5-7 10l-8 10c-2 2-6 6.5-8 9-1.5 2.5-5 7.5-7 10l-4 5 4-1 4-1" id="16" style="fill:#000;stroke:#000;stroke-width:1.5"/><path d="m177 1032l2-13-2 4c-.5 2-1 5.5-1 7l1 2" id="17" style="fill:#fff;stroke:#fff;stroke-width:1.5"/><path d="m178 1007l-1-10v5l1 5" id="18" style="fill:#fff;stroke:#fff;stroke-width:1.5"/><path d="m174 992c.5-5 .5-7 0-7l-1-1v1 2 3l1 2" id="19" style="fill:#fff;stroke:#fff;stroke-width:1.5"/><path d="m89 975c7.5-5 12.5-9 15-11 2.5-2 6.5-6.5 8-9 2-2.5 5.5-7.5 7-10l8-10c2-2.5 5.5-7.5 7-10 1.5-3 4.5-8.5 6-11 1.5-2.5 5-7 7-9l5-4-5 2c-2.5.5-7.5 3-10 5-2.5 2-7 6.5-9 9l-9 9c-2 2-6 6.5-8 9-2 2-5 7-6 10-1 2.5-3 6.5-4 8-.5 1-3 4.5-5 7l-9 9c-2 2-2.5 4.5-1 5l3 1" id="1A" style="fill:#000;stroke:#000;stroke-width:1.5"/><path d="m39 941c6-6.5 9.5-12 11-15 1.5-3 4.5-8.5 6-11 2-2.5 5-8 6-11 1.5-3 3-8 3-10 .5-2.5.5-6 0-7-.5-1.5-3.5-.5-6 2-2 2-6 6.5-8 9-1.5 2.5-4.5 8-6 11-1.5 2.5-4.5 8-6 11-1.5 3-5 8.5-7 11-1.5 2.5-.5 6.5 2 8l5 2" id="1B" style="fill:#000;stroke:#000;stroke-width:1.5"/><path d="m309 897c6.5-6 10-11.5 11-15 1-3.5 3-10 4-13 1-3.5 1-7.5 0-8-1-1-3.5 1-5 4l-5 10c-.5 2-2.5 7.5-4 11-1 3-5.5 7-9 8l-6 2 7 1h7" id="1C" style="fill:#000;stroke:#000;stroke-width:1.5"/><path d="m308 887c-7.5-5-12.5-9-15-11-2.5-2-8-5.5-11-7l-5-3 2 5c1 2 4 6.5 6 9 2.5 2 9.5 5 14 6l9 1" id="1D" style="fill:#000;stroke:#000;stroke-width:1.5"/><path d="m998 869c4.5-8 9.5-12 13-13 3.5-1 11-2 15-2h17c4-.5 11-2 14-3 3.5-1.5 10.5-3.5 14-4l14-4c3.5-1 10.5-2.5 14-3 3.5-1 10.5-2.5 14-3 3.5-1 10-3 13-4 3.5-1.5 10-4 13-5 3.5-1 10-3 13-4 3.5-1.5 9.5-4.5 12-6 3-1.5 9-4 12-5 3.5-1 10-3.5 13-5 3-1.5 8.5-4.5 11-6 2.5-2 7.5-5.5 10-7 3-2 8-6 10-8 2.5-2 7-6 9-8 2.5-2 6.5-6.5 8-9 2-3 6-8 8-10 2-2.5 5.5-7.5 7-10 2-3 5.5-8.5 7-11 1.5-3 4.5-8.5 6-11 1.5-3 4-9 5-12 1.5-3.5 4-10 5-13 1.5-3 4-9 5-12 1.5-3.5 3.5-10.5 4-14 1-3.5 2-10.5 2-14 .5-3.5.5-11 0-15-.5-4-2.5-10.5-4-13-1-2.5-3-8-4-11-.5-3.5-3-9.5-5-12-1.5-2.5-5-7-7-9-2-2.5-6.5-7-9-9-2.5-2-8-5.5-11-7-2.5-1.5-8.5-4-12-5-3.5-1-10.5-2.5-14-3-3.5-1-10.5-2.5-14-3l-7-2h5c2.5 0 9 .5 13 1 4 0 11.5 1 15 2 4 .5 11.5 2 15 3 3.5.5 10 2.5 13 4 3 1 7.5 1.5 9 1 2-1 1.5-3.5-1-5-2.5-2-8.5-5-12-6-3-1.5-9.5-3.5-13-4-3.5-1-10.5-3-14-4-3-1-10-2.5-14-3-3.5-1-10.5-2.5-14-3-3.5-1-11-2.5-15-3l-16-2c-3.5-.5-11.5-1-16-1h-16-16l-16-2c-3.5-1-10.5-3-14-4-3-1-6-3-6-4 0-1.5-2.5-5-5-7-2.5-2-7-6-9-8-2-2.5-5.5-8-7-11-1-3.5-2.5-10-3-13-.5-3.5-.5-10.5 0-14l4-14c1-3.5 3-10 4-13 1-3.5 1.5-8 1-9-.5-1-2.5 1-4 4-1.5 2.5-4.5 8-6 11-1.5 2.5-5 7.5-7 10-2 2.5-6 7.5-8 10-2 2-6 6.5-8 9-2 2.5-5.5 8-7 11-1 3-3 9.5-4 13-1 3-3 10-4 14-.5 3.5-2 10.5-3 14-1 3-.5 6.5 1 7 1.5.5 5-1 7-3 2.5-2 6.5-6.5 8-9 2-2.5 5-8 6-11 1.5-3.5 5-9 7-11 2.5-2 6-4 7-4 1.5-.5 3 2.5 3 6 0 3 1.5 9 3 12 1.5 2.5 2 6.5 1 8-1 1.5-5.5 2-9 1-3-1-8 0-10 2-2 2-5.5 7-7 10-1.5 2.5-4 8.5-5 12-1 3-3.5 9-5 12l-6 12c-1.5 2.5-4.5 8-6 11-1.5 3-4 9.5-5 13-1 3-3 9.5-4 13-1 3-.5 6.5 1 7 2 0 5.5-2.5 7-5 2-2.5 6-7.5 8-10 2-2.5 5.5-7.5 7-10 2-2.5 5.5-7.5 7-10 2-2.5 6-7 8-9 2.5-2.5 7.5-6.5 10-8 3-1.5 9-4 12-5 3.5-1.5 10.5-3.5 14-4 4-.5 11.5-1.5 15-2 4-.5 12-.5 16 0 4 .5 11.5 2 15 3 3.5.5 10.5 2 14 3 4 .5 11.5 1.5 15 2 4 .5 11.5 1.5 15 2 4 .5 11.5 2 15 3 3.5 1 10 3 13 4 3.5 1 10.5 3 14 4 4 .5 10.5 2.5 13 4 3 1.5 8.5 5 11 7 2.5 1.5 6.5 6 8 9 1.5 3 3.5 9.5 4 13 1 3.5 1.5 11.5 1 16 0 4-.5 12-1 16-.5 3.5-2 10.5-3 14-1 3-3 10-4 14-.5 3.5-2.5 10-4 13-1 3-3.5 9-5 12l-6 12c-1.5 2.5-4.5 8-6 11-1 3-1 7.5 0 9 1 1.5 4 1 6-1 2.5-2 6.5-6.5 8-9 2-3 5.5-8.5 7-11 1.5-3 4-9 5-12 1.5-3 4-9.5 5-13 1-3.5 2.5-10.5 3-14 1-3.5 3-8 4-9 1.5-1 2.5 2.5 2 7 0 4-.5 12-1 16-.5 3.5-2.5 10.5-4 14-1 3-3.5 9-5 12-1.5 2.5-5 7.5-7 10-1.5 2.5-5 8-7 11-1.5 2.5-5 7.5-7 10-2 2-6 6.5-8 9-2 2.5-6.5 7-9 9-2 2-6.5 6-9 8-2.5 1.5-8 5-11 7-2.5 1.5-8 4.5-11 6-3 1-9 3.5-12 5-3 1.5-9.5 4-13 5-3 1-9 3.5-12 5-3 1-9.5 3-13 4-3.5 1-10 3.5-13 5-3 1-9.5 3-13 4-3.5 1-10.5 3-14 4-3.5.5-10.5 2-14 3-3.5.5-10.5 2-14 3l-14 4c-3.5.5-11.5 1.5-16 2-4 0-11-1.5-14-3-2.5-1.5-7.5-3-10-3-2 0-5.5 3.5-7 7-1 3-3.5 9-5 12-1 3-3 10-4 14l-1 7 3-3 3-3" id="1E" style="fill:#000;stroke:#000;stroke-width:1.5"/><path d="m30 875c6-5 10-9 12-11 2-2.5 6-6 8-7l5-3-6 2c-3 .5-8 3.5-10 6-2 2-5.5 6.5-7 9l-2 4" id="1F" style="fill:#000;stroke:#000;stroke-width:1.5"/><path d="m315 860c5-7.5 9-12 11-14 2.5-2.5 6.5-7.5 8-10 1.5-3 3-10 3-14 .5-4 .5-12 0-16 0-4.5-.5-12.5-1-16-.5-4 0-11 1-14 1.5-3.5.5-6.5-2-6-2 .5-5 4.5-6 8-.5 3.5-2 11-3 15-.5 3.5-1 11.5-1 16 0 4-1 12-2 16-.5 3.5-2.5 10-4 13-1.5 2.5-4.5 8-6 11-1.5 2.5-2 6.5-1 8l3 3" id="1G" style="fill:#000;stroke:#000;stroke-width:1.5"/><path id="1H" d="m2 851h9-5-4" style="fill:#000;stroke:#000;stroke-width:1.5"/><path d="m1033 828c5-7.5 10-9.5 13-9l6 1-4-4c-1.5-2-6.5-3.5-10-3-3 .5-8 4-10 7-1.5 2.5-1 6 1 7l4 1" id="1I" style="fill:#000;stroke:#000;stroke-width:1.5"/><path d="m311 825c0-8-.5-14.5-1-18l-1-8v5 13l1 8h1" id="1J" style="fill:#000;stroke:#000;stroke-width:1.5"/><path d="m9 816c3-.5 4-2 4-3 0-1-1.5-2-3-2h-6-4v1 2 1l4 1h5" id="1K" style="fill:#000;stroke:#000;stroke-width:1.5"/><path d="m497 806c1.5-11 2.5-18.5 3-22 1-4 2-12 2-16 .5-4 0-11.5-1-15-.5-3.5-2-10.5-3-14-1-3.5-2.5-10.5-3-14-.5-4-1.5-12-2-16 0-4.5-.5-12.5-1-16-.5-4-1.5-11.5-2-15-.5-4-2-11.5-3-15-1-3.5-3.5-10-5-13-1-3-3.5-9-5-12-1-3.5-3.5-10-5-13-1-3-3.5-9-5-12-1-3-3.5-7.5-5-9-1.5-1.5-3 1-3 5l2 16c1 3.5 2.5 10.5 3 14l4 14c1 3 2.5 10 3 14 .5 4 1 12 1 16l2 16c1 3.5 2.5 11 3 15 .5 3.5 1.5 10.5 2 14 1 3.5 2 11.5 2 16 .5 4 2 11.5 3 15 1 3 2 10.5 2 15 .5 4 1.5 11.5 2 15 .5 3 1 10 1 14 0 3.5 2 6 4 5l4-2" id="1L" style="fill:#000;stroke:#000;stroke-width:1.5"/><path d="m1084 805c9.5-3 16.5-5 20-6 3.5-1 10-3 13-4 3.5-1 10-3 13-4 3-1.5 9-4 12-5 3.5-1.5 10-4 13-5 3-1.5 9-4.5 12-6 3-1.5 8.5-4.5 11-6 2.5-2 7-6 9-8l10-8c2.5-2 7-6 9-8 2-2.5 5.5-7.5 7-10l4-6-3 1c-1 .5-4.5 3-7 5-2 2-6.5 6-9 8l-10 8c-2.5 1.5-8 4.5-11 6l-12 6c-2.5 1.5-8 4.5-11 6-2.5 1.5-8.5 4.5-12 6-3 1-9 3.5-12 5-3 1-10 3-14 4-3.5.5-10.5 2-14 3-3 1-10 2.5-14 3-3.5.5-11.5 1.5-16 2h-17c-4 0-11.5-1-15-2-3-1.5-8.5-5-11-7-2-2-4.5-.5-5 3v14c0 3.5 3 6.5 6 6 3.5-.5 11-.5 15 0 4.5 0 13 .5 17 1 4 0 11.5-.5 15-1l7-1" id="1M" style="fill:#000;stroke:#000;stroke-width:1.5"/><path d="m232 780c3-9.5 5.5-16 7-19 1.5-3 4.5-8.5 6-11 2-2.5 5.5-7.5 7-10 2-2.5 5.5-7.5 7-10 2-3 5.5-8.5 7-11l6-12c1.5-3 5-8 7-10 2-2.5 5.5-7.5 7-10 1.5-3 2-6.5 1-7-1-.5-4 1.5-6 4-2 2-6 6.5-8 9-2 2.5-5.5 8-7 11-1.5 2.5-5 7.5-7 10-1.5 2.5-5 8-7 11-1.5 2.5-5 7.5-7 10-1.5 2.5-4.5 8-6 11l-6 12c-1.5 2.5-4 8.5-5 12-.5 3.5 0 8 1 9l3 1" id="1N" style="fill:#000;stroke:#000;stroke-width:1.5"/><path d="m1059 786c-8.5-4.5-11-10.5-11-15v-17c0-4.5-1.5-9.5-3-10-1-.5-2.5 3.5-3 8 0 4-1 11.5-2 15-.5 3.5 0 10.5 1 14 1.5 3 6.5 6 10 6l8-1" id="1O" style="fill:#000;stroke:#000;stroke-width:1.5"/><path d="m30 768c6-5 9-8.5 10-10l2-4-5 5c-2 2-5 5.5-6 7l-1 2" id="1P" style="fill:#000;stroke:#000;stroke-width:1.5"/><path d="m489 724c-1-9-2-13.5-3-15l-1-3 1 8c1 3.5 2 8 2 9l1 1" id="1Q" style="fill:#fff;stroke:#fff;stroke-width:1.5"/><path d="m0 636v1h4c2.5 0 6-.5 7-1 1.5-.5 2-1.5 1-2-.5-.5-2.5-1-4-1h-6l-2-1v2 2" id="1R" style="fill:#000;stroke:#000;stroke-width:1.5"/><path d="m1307 623c1.5-11 2-19 2-23 .5-4.5 0-12.5-1-16-.5-3.5-2-10.5-3-14-.5-3.5-2.5-10-4-13-1.5-3-5-8.5-7-11-1.5-2.5-5.5-7-8-9-2.5-2-8-5.5-11-7-2.5-1.5-8-4-11-5-3-1.5-9.5-4-13-5-3.5-1-10.5-2.5-14-3-3.5-1-11-2.5-15-3-3.5-1-10.5-2.5-14-3-3.5-1-10.5-2.5-14-3-3.5-1-11.5-2-16-2-4-.5-11.5-1.5-15-2-3.5-1-11-2.5-15-3-3.5-1-11-2.5-15-3-3.5-.5-11-1.5-15-2-3.5-.5-10.5-2-14-3-3-1.5-8-5-10-7-2-2.5-4-9-4-13 .5-4.5 1.5-12.5 2-16 1-3.5 2.5-10.5 3-14 .5-4 1-12 1-16 .5-4.5 1-13 1-17 0-4.5-1-12.5-2-16-.5-4-2-11.5-3-15-.5-3.5-2.5-10-4-13-1-3-4-8.5-6-11-1.5-3-5-8.5-7-11-1.5-2.5-5-7.5-7-10-2-2.5-6-7-8-9-2-2.5-6.5-6.5-9-8l-10-8c-2.5-2-7.5-5.5-10-7-2.5-2-8-5.5-11-7-2.5-2-8-5.5-11-7-2.5-1.5-8-4-11-5l-12-6c-3-1.5-9-4-12-5-3-1.5-9.5-4-13-5-3.5-1-10-3-13-4-3-1.5-9.5-3.5-13-4-3.5-1-11-2.5-15-3-3.5-1-10.5-2.5-14-3-3.5-1-11-2.5-15-3-3.5-1-10.5-2.5-14-3-3.5-1-11-2.5-15-3-3.5-.5-11-1.5-15-2-4-.5-12.5-1-17-1-4 0-12-.5-16-1-4-.5-12.5-1-17-1h-17-17-18-17c-4.5 0-13 .5-17 1-3.5.5-11 1.5-15 2-4 0-12 1-16 2-3.5.5-10.5 2-14 3-3.5.5-11 2-15 3-3.5.5-10.5 2-14 3-3.5.5-10.5 2-14 3-3.5.5-10.5 2-14 3l-14 4c-3 1-9.5 3-13 4-3.5 1-10 3.5-13 5-3 1-9.5 3-13 4-3 1-9 3.5-12 5-3 1.5-9 4.5-12 6-2.5 1.5-8 4.5-11 6-3 1.5-9 4.5-12 6-2.5 1.5-8 4.5-11 6-2.5 1.5-7.5 5-10 7-2.5 2-7.5 6-10 8-2.5 1.5-7.5 5.5-10 8-2 2-6 6.5-8 9-1.5 2.5-5 7.5-7 10-2 2-6 7-8 10-1.5 2.5-4.5 8-6 11-1.5 2.5-4.5 8-6 11-1.5 3-4 9.5-5 13-.5 3.5-2 10.5-3 14-.5 3.5-1 11.5-1 16 0 4.5.5 12.5 1 16 1 3.5 3 10.5 4 14 1 3.5 3 10 4 13 1.5 3 4.5 9 6 12 1.5 2.5 4.5 8 6 11 2 2.5 5.5 7.5 7 10l8 10c2 2.5 6 7 8 9 2.5 2 6 6.5 7 9 1 2 4 6.5 6 9l8 10c2 2 7 5.5 10 7 3 1.5 8.5 5 11 7 2.5 1.5 8 4.5 11 6 3 1 8.5 4 11 6 3 1.5 8.5 4.5 11 6 3 1.5 9 4 12 5l12 4c3.5 1 7.5 4.5 8 7 1 2.5 5 4.5 8 4 3-.5 9.5-1 13-1 3.5-.5 10.5 0 14 1 4 .5 11 2 14 3 3.5 1 10.5 2 14 2 4 0 8 2.5 8 5 .5 2 4 4.5 7 5 3 0 9-1.5 12-3 3-1.5 9.5-2.5 13-2 4 .5 11 2.5 14 4 3 1 10 2 14 2 4 0 11-.5 14-1 3.5-.5 10-2.5 13-4l6-3h-4c-2-.5-8-1.5-12-2-3.5-.5-10.5-2-14-3-3.5-1-10.5-2.5-14-3-3.5-1-11-2.5-15-3-3.5-1-10.5-2.5-14-3-3.5-1-10.5-2.5-14-3l-14-4c-3.5-1-10.5-2.5-14-3l-14-4c-3.5-1-10.5-2.5-14-3-3.5-1-6.5-2.5-6-3 .5-1 4.5-1 8 0 4 .5 11.5 2 15 3 3.5.5 10.5 2 14 3 3.5.5 10.5 2 14 3 4 .5 11.5 2 15 3 3.5.5 10.5 2 14 3 4 .5 11.5 2 15 3l14 2 16 2c4 .5 11.5 1.5 15 2 4 .5 12 1 16 1 4.5-.5 13-1 17-1 4.5 0 12.5-.5 16-1 4-.5 12-1 16-1 4.5-.5 12-2 15-3 3.5-1 11-2.5 15-3 4-.5 11.5-1.5 15-2 4-.5 12-1 16-1 4-.5 11.5-1.5 15-2 4-1 11.5-2.5 15-3 3.5-1 10.5-2.5 14-3 4-1 11-3 14-4 3.5-1 10.5-2.5 14-3 3.5-1 10.5-2.5 14-3 4-1 11.5-2.5 15-3 3.5-1 10-3 13-4 3.5-1.5 10-4 13-5 3-1.5 7.5-5.5 9-8 2-2.5 4-6.5 4-8 0-1.5 2.5-4.5 5-6l10-8c2.5-2 7-6 9-8 2-2.5 5.5-7.5 7-10l4-5-4 1c-2 .5-6.5 3-9 5-2.5 1.5-8 5-11 7-2.5 1.5-8 4.5-11 6-2.5 1.5-8.5 4-12 5-3 1-9 3.5-12 5l-12 6c-3 1-9.5 3-13 4-3.5 1-10.5 3-14 4-3 1-9.5 3-13 4-3 1-9.5 3-13 4-3.5 1-10.5 3-14 4-3.5.5-11 2-15 3-3.5.5-10.5 2-14 3-3.5.5-11 1.5-15 2-3.5.5-11 2-15 3-3.5.5-11 1.5-15 2-4 0-12 .5-16 1l-16 2h-17-17-18-17-17c-4-.5-11.5-1.5-15-2-3.5-1-11-2.5-15-3-4-.5-11.5-1.5-15-2-3.5-1-11-2.5-15-3l-16-2c-3.5-.5-10.5-2-14-3-3-1-9.5-3-13-4l-14-4c-3-1-9.5-3-13-4-3-1.5-9-4-12-5-3-1.5-9-4-12-5-3-1.5-9-4.5-12-6-3-1.5-9-4.5-12-6-2.5-1.5-8-4.5-11-6-2.5-2-7.5-5.5-10-7-2.5-2-7.5-5.5-10-7l-10-8c-2.5-2-7.5-6-10-8-2-2-6.5-6-9-8-2-2.5-6-7-8-9-2-2.5-5.5-8-7-11-1-3-3-9.5-4-13-1-3.5-2.5-10.5-3-14-.5-4-1-12-1-16 .5-4.5 2-12 3-15 1-3.5 3-10 4-13 1-3.5 3.5-10 5-13 1.5-3 4.5-8.5 6-11l8-10c2-2.5 6-7 8-9 2-2.5 6-7 8-9 2.5-2 7.5-5.5 10-7 3-2 8-6 10-8 2.5-2 8-5.5 11-7 3-1.5 8.5-4.5 11-6 3-1.5 8.5-4.5 11-6 3-1.5 9-4.5 12-6 3-1.5 9-4 12-5 3.5-1 10-3.5 13-5 3-1.5 9-4 12-5 3-1.5 9.5-3.5 13-4l14-4c3.5-1 10.5-2.5 14-3 3.5-1 10.5-2.5 14-3 4-1 11.5-2.5 15-3 3.5-1 10.5-2.5 14-3 4-.5 11.5-1.5 15-2 4-1 12-2 16-2l16-2c4-.5 12-1 16-1 4-.5 11.5-1.5 15-2 4-.5 12-.5 16 0h16c4 0 12 .5 16 1 4.5 0 13 .5 17 1h16c4.5 0 12.5 1 16 2 4 .5 11.5 1.5 15 2 4 .5 11.5 2 15 3 4 .5 11.5 2 15 3 3.5.5 10.5 2 14 3 3.5.5 10.5 2 14 3 4 .5 11 2 14 3 3.5 1 10 3.5 13 5 3.5 1 10 3 13 4 3.5 1 10 3.5 13 5 3 1 9 3.5 12 5 3.5 1 9.5 3.5 12 5 3 1.5 8.5 5 11 7 3 1.5 8.5 4.5 11 6 3 1.5 8.5 5 11 7 2.5 1.5 7.5 5 10 7 2.5 2 7 6.5 9 9 2 2 6 6.5 8 9 2 2 6 6.5 8 9 2.5 2 6.5 7 8 10 1.5 2.5 4.5 8 6 11 1.5 3 3.5 9.5 4 13 1 3.5 2.5 10.5 3 14 1 3.5 1.5 11 1 15l-2 16c0 4-1 12-2 16-.5 3.5-2 10.5-3 14-.5 3.5-1.5 10.5-2 14-.5 3-1.5 9.5-2 13 0 3 2 8.5 4 11 2 2 7 5.5 10 7 3 1.5 10 3.5 14 4 4 0 11.5.5 15 1 4 .5 11.5 2 15 3 4 .5 11.5 1.5 15 2l16 2c4 .5 11.5 2 15 3l14 2c4 .5 11.5 2 15 3 4 .5 11.5 2 15 3 3.5.5 10.5 2 14 3 4 .5 11 2 14 3 3.5 1 10 3.5 13 5 3 1 8.5 4 11 6 2.5 2 7 6.5 9 9 2 2 5.5 7 7 10 1.5 3 3.5 9.5 4 13 1 3.5 2.5 10.5 3 14 .5 3 1 10.5 1 15 0 4.5.5 13 1 17l1 7 4-3 5-4" id="1S" style="fill:#000;stroke:#000;stroke-width:1.5"/><path d="m734 620c8-4.5 14-7.5 17-9 3-1.5 9-4 12-5 3.5-1 10.5-2.5 14-3 3.5-1 7.5-1.5 8-1h2l-6 3c-3 1-9.5 3.5-13 5-3 1-7 4-8 6-.5 2 2 3.5 5 3 3.5-.5 10-2 13-3 3.5-1.5 9.5-4.5 12-6 3-1.5 9-4 12-5 3.5-1.5 6.5-1.5 6 0-.5 1-1.5 4-2 6 0 2 3 2.5 6 1 3-1.5 9-4 12-5 3.5-1 11.5-2 16-2h16c4 0 11 .5 14 1l14 2c3.5.5 6.5-1 6-3-.5-2.5-5-5.5-9-6-3.5-1-11-2.5-15-3-3.5-.5-11.5-1-16-1h-14l-5-1h1l2-1-14 1c-7 0-17.5 1-21 2-3.5.5-10.5 1.5-14 2-3 .5-10.5 1.5-15 2-4 0-11.5 1-15 2-3 1-9.5 3.5-13 5-3 1-9 3.5-12 5-2.5 1.5-6 5-7 7-1 1.5 1 2.5 4 2l7-1" id="1T" style="fill:#000;stroke:#000;stroke-width:1.5"/><path d="m0 602c7.5-4.5 11.5-8.5 13-11l8-10c2-2.5 3.5-6 3-7-.5-1.5 1-5 3-7 2.5-2 7-6 9-8l9-9 8-10c2-2.5 5.5-7.5 7-10 2-2.5 5.5-7.5 7-10 1.5-3 4-8.5 5-11 1-2.5 3-6.5 4-8 1-2 4-6.5 6-9 2-2.5 5.5-7.5 7-10 1.5-3 4.5-8.5 6-11 2-2.5 5.5-8 7-11 1.5-3 5-8 7-10l5-4h-3c-1.5 0-6 1.5-9 3-2.5 1.5-7 5.5-9 8-1.5 2.5-4.5 8.5-6 12-1 3-3.5 9-5 12-1.5 2.5-5 8-7 11-1.5 2.5-5 7.5-7 10-1.5 2.5-5 7.5-7 10-1.5 2.5-5 7.5-7 10-2 2.5-4.5 6.5-5 8-.5 1-2.5 4-4 6-1.5 2-5 6.5-7 9-1.5 2.5-5.5 7-8 9-2.5 1.5-7.5 5-10 7-2.5 2-9 6-13 8l-7 3v7 15 8" id="1U" style="fill:#000;stroke:#000;stroke-width:1.5"/><path d="m855 593c-1-1.5-5-2-9-2-3.5 0-8.5.5-10 1l-2 1h5 11 5" id="1V" style="fill:#000;stroke:#000;stroke-width:1.5"/><path d="m771 556c12-.5 20-1 24-1 4.5-.5 12.5-1.5 16-2 4-.5 11.5-1.5 15-2 4-.5 12-1.5 16-2 4-.5 11.5-1.5 15-2 4-.5 11.5-1.5 15-2 4-1 11-3 14-4 3.5-1 10-3 13-4 3.5-1 10.5-3 14-4 3.5-1 10-3 13-4 3.5-1 10-3 13-4 3.5-1.5 10-4 13-5 3-1.5 9-4 12-5 3-1.5 9-4.5 12-6 3-1.5 8.5-4.5 11-6 3-1.5 8.5-4.5 11-6 3-2 8-6 10-8 2.5-2 7-6 9-8 2.5-2 7-6.5 9-9 2-2.5 5.5-7.5 7-10l8-10c2-2.5 5-8 6-11 1.5-3 3.5-9.5 4-13l2-16 1-8 2 6c1 2.5 1.5 9 1 13-.5 4-2 11.5-3 15-1 3-3.5 9-5 12-1 3-4 8.5-6 11l-8 10c-1.5 2.5-1.5 5 0 5 2-.5 6-3 8-5 2.5-2 7-6 9-8 2-2.5 5.5-7.5 7-10 2-3 5-9 6-12 1-3.5 2.5-10.5 3-14 1-4 2.5-11.5 3-15 .5-4 0-11.5-1-15-.5-3.5-2.5-10-4-13-1.5-3-4.5-8.5-6-11-1.5-3-5.5-8-8-10-2-2.5-6-7-8-9-2-2.5-6.5-6.5-9-8-2.5-2-8-5.5-11-7-2.5-2-8-5.5-11-7-2.5-1.5-8-4.5-11-6-2.5-2-8-5.5-11-7-2.5-1.5-8-4.5-11-6-2.5-1.5-8-4.5-11-6-3-1.5-9-4-12-5-3-1.5-9.5-4-13-5-3-1.5-9.5-4-13-5-3-1-8-3-10-4-2-1.5-5.5-4.5-7-6-1.5-1.5-6.5-4-10-5-3-1-9.5-3-13-4-3.5-1-10.5-2.5-14-3-3.5-1-11-2.5-15-3-3.5-.5-11-1.5-15-2-3.5-1-11-2-15-2-4-.5-12-1.5-16-2-4-.5-12.5-1-17-1h-16c-4-.5-12.5-.5-17 0h-17c-4 0-12 .5-16 1l-16 2c-4 0-12 .5-16 1-3.5.5-11 2-15 3-3.5.5-11 1.5-15 2-3.5.5-11 1.5-15 2-4 .5-11.5 2-15 3-3.5.5-10.5 2-14 3-3 1-9.5 3-13 4-3.5 1-10.5 3-14 4-3.5.5-10.5 2.5-14 4-3 1-9 3.5-12 5-3 1-9 3.5-12 5-3 1-9 3.5-12 5-3 1.5-8.5 5-11 7-2.5 1.5-8 4.5-11 6-3 1.5-8.5 5-11 7-2.5 1.5-7.5 5-10 7-2 2-6.5 6.5-9 9-2 2-6.5 6-9 8-2 2-6.5 6.5-9 9-2 2-6 6.5-8 9-1.5 2.5-4.5 8-6 11-1.5 2.5-4.5 8.5-6 12-1 3-3 9.5-4 13-.5 3.5-.5 11 0 15 .5 4 1.5 11.5 2 15 1 3.5 3 10 4 13 1.5 3 4.5 9 6 12 2 2.5 5.5 7.5 7 10 2 2.5 6.5 7 9 9 2.5 2 7 6.5 9 9l8 8c2.5 2 7.5 6 10 8 3 1.5 8.5 5 11 7 2.5 1.5 8 4.5 11 6 3 1.5 8.5 4.5 11 6 3 1.5 9 4 12 5 3.5 1 10 3.5 13 5 3.5 1 10 3 13 4l14 4 14 4c3.5.5 10.5 2 14 3 3.5.5 10.5 2 14 3 4 .5 12 1.5 16 2 4 0 12 .5 16 1 4 .5 11.5 1.5 15 2 4 .5 11.5 1.5 15 2 4 .5 12.5 1 17 1h17 23 14" id="1W" style="fill:#000;stroke:#000;stroke-width:1.5"/><path d="m602 519c-7-6-12-9.5-15-11-3-1.5-8.5-5-11-7-2-2-6.5-5.5-9-7l-10-8c-2-2.5-5-8.5-6-12-.5-3.5 0-10.5 1-14 1-3.5 3.5-9.5 5-12 1.5-3 4.5-8.5 6-11 1.5-3 5-8 7-10l9-9c2.5-2 7.5-6 10-8 2.5-2 7-6 9-8 2.5-2 7.5-5.5 10-7 2.5-2 8-5 11-6 3.5-1.5 9.5-4.5 12-6 2.5-2 8-5.5 11-7 3-1.5 9-4 12-5 3-1.5 9-4 12-5 3.5-1 10.5-2.5 14-3 4-1 11.5-2.5 15-3 4-.5 11.5-2 15-3 3.5-1 10-3 13-4 3.5-1 10.5-2.5 14-3 4-.5 12-1 16-1 4.5-.5 13-1 17-1 4-.5 12-.5 16 0 4 .5 12 1.5 16 2h16c4.5 0 12.5 1 16 2 4 .5 11.5 2 15 3 3.5.5 10.5 2 14 3 4 .5 11.5 2 15 3 3.5.5 10.5 2 14 3 3.5.5 10 2.5 13 4 3 1.5 8.5 5 11 7 2.5 1.5 4 4 3 5-1 1-5 .5-8-1-2.5-1.5-8.5-3.5-12-4l-14-4c-3.5-1-9-2-11-2l-3-1 10 3c5.5 1.5 14 4.5 17 6l12 4c3.5 1 9.5 4 12 6 3 1.5 8 5 10 7l10 8c2.5 2 7 6.5 9 9 2 2 5.5 7 7 10 1.5 2.5 4.5 8 6 11 2 2.5 5.5 8 7 11 1.5 2.5 4.5 8 6 11 1.5 3 4 9 5 12 1.5 3 5.5 7 8 8 2.5.5 6.5.5 8 0 1.5-.5 5-3 7-5 2.5-2 6.5-6.5 8-9 2-3 3.5-8 3-10 0-2-2.5-5-5-6-2-1-6.5-4-9-6-2.5-2-7.5-5.5-10-7-2.5-2-7.5-6-10-8-2.5-2-7-6.5-9-9-1.5-2.5-5-7-7-9-2-2.5-6.5-7-9-9l-10-8c-2-2-3.5-5-3-6 1-1.5-1-4-4-5-3-1.5-9-4-12-5l-12-6c-2.5-2-8.5-5-12-6-3-1-9.5-3-13-4-3.5-1-11-2.5-15-3-3.5-.5-10-2-13-3-3-1.5-10-3.5-14-4-3.5-1-10.5-2.5-14-3-3.5-1-11.5-2-16-2l-16-2c-3.5-.5-11-1-15-1-4-.5-12.5-1-17-1h-18c-4 0-12.5.5-17 1-4 0-12 .5-16 1-3.5.5-11 1.5-15 2-4 0-12 .5-16 1-4 .5-12.5 1-17 1-4 0-12.5.5-17 1-4 0-12 .5-16 1-3.5.5-10.5.5-14 0-3.5-1-11-2.5-15-3-4-.5-9.5 0-11 1-1 1 2 2.5 6 3 4 .5 11.5 1.5 15 2 4 .5 7.5 2 7 3 0 1-4 3-8 4-3.5.5-10 2.5-13 4-2.5 1.5-9 4-13 5-3.5.5-11 1.5-15 2-3.5.5-11 1.5-15 2-4 0-11 2-14 4-2.5 1.5-8 4.5-11 6-2.5 1.5-8 5-11 7-2.5 1.5-7.5 5-10 7-2 2-6 6.5-8 9-1.5 2.5-5 7.5-7 10-2 2.5-6 7.5-8 10-2 2-6.5 6.5-9 9l-4 4 1-7c1-3.5 3.5-9.5 5-12 1.5-3 4.5-9 6-12 1.5-3 4.5-8.5 6-11 2-2.5 6.5-7 9-9 2.5-2 7.5-5.5 10-7 2.5-2 7-6 9-8 2.5-2 8-5.5 11-7 3-1.5 8.5-4.5 11-6 3-1.5 9-4.5 12-6 3-1.5 8-5 10-7 2-2.5 5.5-7.5 7-10 2-2.5 6.5-7 9-9 2.5-2 7.5-5.5 10-7 2.5-2 8-4 11-4h13c3.5-.5 9.5-2.5 12-4 3-1.5 8.5-5 11-7 2.5-2 1.5-4.5-2-5-3-.5-10.5-.5-15 0-4 0-11.5 1-15 2-3 1-9 3.5-12 5-3 1-8.5 4-11 6-2.5 2-7 6.5-9 9-1.5 2.5-5.5 7-8 9-2.5 1.5-8 5-11 7-2.5 1.5-8 4.5-11 6-2.5 1.5-8 5-11 7-2.5 1.5-8 4.5-11 6-2.5 1.5-7.5 5-10 7-2 2-6.5 6-9 8l-10 8c-2 2-6 6.5-8 9l-4 5v-6c.5-3 3-8 5-10 2-2.5 6-7 8-9l9-9c2-2.5 5.5-7.5 7-10 2-3 4-8 4-10l1-4-5 4c-2 2-6 6.5-8 9-2 2.5-6.5 7-9 9-2.5 1.5-7.5 5.5-10 8-2 2-6 6.5-8 9-1.5 2.5-4.5 8-6 11-1 3-3 10-4 14-.5 3.5-1 11.5-1 16 0 4 1.5 11 3 14 2 2.5 5 8 6 11 1.5 3 4.5 8.5 6 11 2 2.5 6.5 5.5 9 6 3 0 6.5-3.5 7-7 1-3.5 3-10 4-13 1.5-3.5 5-9 7-11 2.5-2 6.5-6.5 8-9 1.5-3 4.5-8.5 6-11 2-3 6.5-7.5 9-9 2.5-2 8-5.5 11-7 3-1.5 9-4 12-5 3-1.5 9-4 12-5 3-1.5 9.5-4 13-5 3.5-1 10-3 13-4 3.5-1 10-3 13-4 3.5-1.5 10-4 13-5 3.5-1 10.5-2.5 14-3 4-.5 11.5-1.5 15-2 4-1 12-2 16-2h18 15 7l-7 2c-3 1-10 3-14 4-3.5.5-11 1.5-15 2-3.5.5-11 2-15 3-3.5.5-10.5 2-14 3-3.5.5-10 2.5-13 4-3 1-9.5 3-13 4l-14 4c-3 1-9.5 3.5-13 5-3 1-9 3.5-12 5-3 1-9 3.5-12 5-3 1-9 3.5-12 5-3 1.5-8.5 5-11 7-2 2-5.5 7-7 10-1.5 3-4.5 9-6 12-1.5 2.5-5 7.5-7 10-2 2-5 7.5-6 11-1 3.5-3.5 10-5 13-1 3 0 8.5 2 11l10 8c2.5 1.5 7.5 5 10 7 2.5 1.5 7.5 5 10 7 2.5 2 3 4.5 1 5-1.5.5-.5 2.5 2 4l10 6c3 1.5 8.5 4.5 11 6 3 1.5 9.5 4 13 5 4 .5 11.5.5 15 0l7-1" id="1X" style="fill:#fff;stroke:#fff;stroke-width:1.5"/><path d="m1440 478v-40-16-7l-7-3c-3-2-8-6.5-10-9-1.5-3-4.5-8.5-6-11l-6-12-6-12c-1-3-3.5-8.5-5-11-1.5-3-5-8.5-7-11l-6-12c-1-3-3.5-9-5-12-1.5-3-3.5-7.5-4-9 0-1.5 1.5-3 3-3 2 0 2.5-3 1-6-1.5-3-4-9-5-12-1-3.5-3.5-10-5-13-1-3.5-3-10-4-13-1-3.5-3.5-10-5-13-1-3-3.5-9-5-12-1-3.5-3.5-10-5-13-1-3-4.5-8-7-10-2-2.5-6.5-7-9-9-2-2-5.5-6.5-7-9-1.5-3-4.5-9-6-12-1-3.5-3.5-9.5-5-12-1.5-3-5.5-8-8-10-2-2.5-6-7-8-9l-8-10c-1.5-2.5-5-7.5-7-10-1.5-3-4.5-8.5-6-11-1.5-3-5-8.5-7-11-2-2.5-4.5-3.5-5-2 0 1.5-1 2.5-2 2-1-1-4-4.5-6-7-1.5-3-4.5-8.5-6-11l-6-12c-1-3.5-3.5-10-5-13-1-3-3.5-8.5-5-11l-6-12c-1-3.5-3.5-9.5-5-12-1.5-3-4.5-9-6-12-1.5-3-3.5-10.5-4-15l-1-10h-7-10-3l4 10c2 5 5 13.5 6 17l6 12c1.5 2.5 4.5 8 6 11 1.5 2.5 4 8.5 5 12 1.5 3 4.5 9 6 12 1.5 2.5 4.5 8 6 11l6 12c1.5 2.5 4.5 8 6 11 1.5 2.5 4.5 8 6 11 1.5 3 4.5 9 6 12 1.5 2.5 4.5 8 6 11l6 12c1.5 2.5 4.5 8 6 11 1.5 2.5 4.5 8 6 11l6 12c1.5 2.5 4.5 8 6 11l6 12c1.5 2.5 4.5 8 6 11 1.5 2.5 4.5 8 6 11 1.5 3 4 9 5 12l6 12c1.5 3 4 9 5 12l6 12c1.5 2.5 4.5 8 6 11l6 12c1.5 2.5 4.5 8 6 11l6 12c1.5 2.5 4 8 5 11l6 12 6 12c1.5 2.5 4.5 8 6 11l6 12c1.5 2.5 4.5 8 6 11 1.5 2.5 4.5 8 6 11 1.5 3 4 9 5 12l6 12c1.5 3 4 9 5 12l6 12c1.5 2.5 6 9.5 9 14l7 9" id="1Y" style="fill:#000;stroke:#000;stroke-width:1.5"/><path d="m754 467l2-11-1 6-1 5" id="1Z" style="fill:#fff;stroke:#fff;stroke-width:1.5"/><path d="m776 457c9-3.5 15-6 18-7 3.5-1.5 7.5-5 8-7 .5-2.5-3-5-7-5-3.5 0-10 2-13 4-2.5 1.5-6.5 6-8 9-1 3-1 6 0 6h2" id="1a" style="fill:#fff;stroke:#fff;stroke-width:1.5"/><path d="m839 447c10.5-.5 17.5 0 21 1 4 .5 8 .5 8 0 0-1-3.5-2.5-7-3-3.5-1-10.5-2.5-14-3-3-1-9-.5-12 1-2.5 1.5-3 3.5-1 4h5" id="1b" style="fill:#fff;stroke:#fff;stroke-width:1.5"/><path d="m1019 433c-2.5-10.5-4.5-17-6-20-1.5-3-5-8-7-10-2-2.5-7-6.5-10-8-2.5-1.5-8-4.5-11-6-3-1.5-10-3-14-3l-8-1 7 2c3.5 1 9.5 3.5 12 5 3 1.5 8.5 5 11 7 2.5 1.5 7 5.5 9 8 2.5 2 5.5 6.5 6 9 1 2.5 3.5 8 5 11 1.5 3 3.5 6 4 6h2" id="1c" style="fill:#fff;stroke:#fff;stroke-width:1.5"/><path d="m1045 429c.5-12 1.5-19.5 2-23 1-4 2.5-8 3-8 1 0 .5-3-1-6-1-3-4-8.5-6-11-1.5-3-5-8-7-10-2-2.5-6-3.5-8-2-2 1.5-6.5 2-9 1-2.5-1.5-7.5-5-10-7-2-2-7-5.5-10-7l-10-8c-2-2-7-5.5-10-7-3-1.5-9-4.5-12-6-2.5-1.5-7.5-4.5-10-6-2.5-2-8-5.5-11-7-3-1.5-9-4-12-5l-12-6c-3-1.5-9.5-4-13-5l-12-4c-3-1.5-10-3.5-14-4-3.5-1-10.5-2.5-14-3-3.5-1-11-1.5-15-1-3.5 0-10 1.5-13 3-3 1-4.5 3-3 4 1.5.5 6.5 2 10 3 4 .5 11 2.5 14 4 3 1 9.5 3 13 4 3.5 1 10 3 13 4 3.5 1 10 3 13 4 3.5 1 10 3.5 13 5 3 1.5 9 4 12 5 3.5 1 10 3.5 13 5 3.5 1 9.5 3.5 12 5 3 1.5 8.5 4.5 11 6 3 1.5 8.5 5 11 7 3 1.5 8 5 10 7l10 8c3 1.5 8.5 4.5 11 6 3 1.5 8 5 10 7 2.5 2 7 6.5 9 9 2.5 2 6.5 7 8 10 1.5 2.5 3.5 9 4 13 1 3.5 3.5 10 5 13 1.5 2.5 3.5 4.5 4 4l1-1" id="1d" style="fill:#fff;stroke:#fff;stroke-width:1.5"/><path d="m650 424c-4-4.5-6.5-6-8-6l-3-1 5 4 6 3" id="1e" style="fill:#fff;stroke:#fff;stroke-width:1.5"/><path d="m907 412c-9-3.5-16-5.5-20-6-3.5-1-10.5-2.5-14-3-3.5-1-11-2.5-15-3-3.5-.5-10.5-2-14-3-3.5-1-11-2.5-15-3-3.5-.5-11-1.5-15-2l-16-2c-3.5-.5-11-1-15-1-4-.5-12.5-1-17-1-4-.5-12-1-16-1-4-.5-12.5-1-17-1h-18c-4 0-11.5 1-15 2-3.5.5-11 1.5-15 2-4 .5-8.5 2-9 3-.5.5 3 1.5 7 2h17c4-.5 12-1 16-1h18 17c4.5 0 13 .5 17 1h17c4.5 0 12.5.5 16 1 4 .5 12 1.5 16 2 4.5 0 12.5.5 16 1 4 .5 11.5 2 15 3l14 4c3.5.5 10.5 2 14 3 3.5.5 10.5 2 14 3 4 .5 10 1 12 1l5-1" id="1f" style="fill:#fff;stroke:#fff;stroke-width:1.5"/><path d="m1440 415v-19-9l-5 1c-2.5.5-7.5-1-10-3-2-2-5.5-6.5-7-9l-6-12c-1-3.5-3.5-9.5-5-12-1.5-3-5-8.5-7-11-1.5-3-1.5-5.5 0-5 1.5 0 4.5 2.5 6 5 2 2.5 5.5 8 7 11 2 2.5 5.5 8 7 11 1.5 2.5 7 8 11 11l9 6v-2-10-11-3l-8-5c-4-2.5-10-7.5-12-10-2-2.5-5.5-7.5-7-10l-6-12c-1-3-4.5-8-7-10-2-2.5-5.5-7.5-7-10l-6-12c-1-3.5-3.5-9.5-5-12l-6-12c-1-3-3.5-9-5-12-1-3.5-4-9-6-11-2-2.5-5.5-8-7-11-1-3.5-3-9-4-11-.5-2-3.5-5.5-6-7-2.5-2-5-6-5-8 0-2 2.5-2 5 0 2.5 1.5 8 4.5 11 6 3 1.5 8 5 10 7 2.5 2 7.5 6 10 8 2.5 1.5 7.5 5 10 7 2.5 2 7 6 9 8 2.5 2 4 5.5 3 7-.5 1 1 4 3 6 2 1.5 6.5 5 9 7 2.5 1.5 7.5 5 10 7 2.5 2 5.5 7.5 6 11 .5 3 3.5 8.5 6 11l5 4v-10-18-18-17-18-17-17-18-17-18-17-17-18-17-18-17-13-5h-4-13-18-17-18-17-17-18-17-18-13-5l5 7c3 3.5 8.5 9 11 11 2.5 1.5 7.5 5 10 7 3 1.5 8.5 5 11 7 2.5 1.5 6.5 5.5 8 8l4 5-7-2-12-6-5-3 4 4c2 2 6.5 6 9 8 2.5 1.5 7.5 5 10 7 2.5 1.5 3.5 4 2 5-1 .5-4.5-.5-7-2-2.5-2-8-5.5-11-7-2.5-2-5.5-1.5-6 1-.5 2 1 6.5 3 9 2 2 6.5 6 9 8 3 1.5 8.5 5 11 7 2.5 1.5 4 4.5 3 6-1 1-6 1.5-10 1-3.5-.5-10-2-13-3-2.5-1.5-7-5-9-7-2-2.5-6-7.5-8-10-2-2.5-6-7.5-8-10-1.5-2.5-5-7.5-7-10-1.5-2.5-4.5-8-6-11-1.5-3-4.5-8.5-6-11-1.5-3-4.5-9-6-12l-2-7h-9-12-3l1 10c.5 4.5 2.5 12 4 15l6 12c1.5 2.5 4 8.5 5 12 1.5 3 4.5 9 6 12 1.5 2.5 4 8 5 11 1.5 3 4 9.5 5 13l6 12c1.5 2.5 4.5 8 6 11 2 2.5 5 6 6 7 1 .5 2-.5 2-2 .5-1.5 3-.5 5 2 2 2.5 5.5 8 7 11 1.5 2.5 4.5 8 6 11 2 2.5 5.5 7.5 7 10l8 10c2 2 6 6.5 8 9 2.5 2 6.5 7 8 10 1.5 2.5 4 8.5 5 12 1.5 3 4.5 9 6 12 1.5 2.5 5 7 7 9 2.5 2 7 6.5 9 9 2.5 2 6 7 7 10 1.5 3 4 9.5 5 13 1.5 3 4 9 5 12 1.5 3 4 9.5 5 13 1 3 3 9.5 4 13 1.5 3 4 9.5 5 13 1 3 3.5 9 5 12 1.5 3 1 6-1 6-1.5 0-3 1.5-3 3 .5 1.5 2.5 6 4 9 1.5 3 4 9 5 12l6 12c2 2.5 5.5 8 7 11 1.5 2.5 4 8 5 11l6 12 6 12c1.5 2.5 4.5 8 6 11 2 2.5 7 7 10 9l7 3" id="1g" style="fill:#fff;stroke:#fff;stroke-width:1.5"/><path d="m329 405l9-6-3 1c-1 .5-3 2-4 3l-2 2" id="1h" style="fill:#000;stroke:#000;stroke-width:1.5"/><path d="m330 385c6.5-6 12-9.5 15-11 3-1.5 8-5 10-7l5-4-6 2c-3 .5-9 2.5-12 4-3 1.5-8.5 5-11 7-2.5 1.5-6 6-7 9l-2 6 4-3 4-3" id="1i" style="fill:#000;stroke:#000;stroke-width:1.5"/><path d="m1440 387v-5-2l-9-6c-4-3-9.5-8.5-11-11-1.5-3-5-8.5-7-11-1.5-3-5-8.5-7-11-1.5-2.5-4.5-5-6-5-1.5-.5-1.5 2 0 5 2 2.5 5.5 8 7 11 1.5 2.5 4 8.5 5 12l6 12c1.5 2.5 5 7 7 9 2.5 2 7.5 3.5 10 3l5-1" id="1j" style="fill:#000;stroke:#000;stroke-width:1.5"/><path d="m871 368c-15-5-24-7.5-28-8-3.5-1-9-2-11-2h-3l7 2c3.5.5 10.5 2 14 3l14 4 7 1" id="1k" style="fill:#fff;stroke:#fff;stroke-width:1.5"/><path d="m551 355l16 1-4-1c-2-1-6-1.5-8-1l-4 1" id="1l" style="fill:#fff;stroke:#fff;stroke-width:1.5"/><path d="m1440 354v-20-6h-2c-.5-.5-1.5-2.5-2-4l-1-4 1 1h3 1v-7-16-8l-5-4c-2.5-2.5-5.5-8-6-11-.5-3.5-3.5-9-6-11-2.5-2-7.5-5.5-10-7-2.5-2-7-5.5-9-7-2-2-3.5-5-3-6 1-1.5-.5-5-3-7-2-2-6.5-6-9-8-2.5-2-7.5-5.5-10-7l-10-8c-2-2-7-5.5-10-7-3-1.5-8.5-4.5-11-6-2.5-2-5-2-5 0 0 2 2.5 6 5 8 2.5 1.5 5.5 5 6 7 1 2 3 7.5 4 11 1.5 3 5 8.5 7 11 2 2 5 7.5 6 11 1.5 3 4 9 5 12l6 12c1.5 2.5 4 8.5 5 12 1.5 3 4.5 9 6 12 1.5 2.5 5 7.5 7 10 2.5 2 6 7 7 10 1.5 3 4.5 9 6 12 1.5 2.5 5 7.5 7 10 2 2.5 8 7.5 12 10l8 5" id="1m" style="fill:#000;stroke:#000;stroke-width:1.5"/><path d="m537 333c7.5-5 12.5-8.5 15-10 3-2 9-5 12-6 3-1.5 5.5-4 5-5-.5-1.5-4.5-1.5-8 0-3 1-9 3.5-12 5-2.5 1.5-7.5 5-10 7-2.5 2-7 6.5-9 9l-4 4 5-2 6-2" id="1n" style="fill:#fff;stroke:#fff;stroke-width:1.5"/><path d="m1437 327l3 1v-3-4h-1-3l-1-1 1 4 1 3" id="1o" style="fill:#fff;stroke:#fff;stroke-width:1.5"/><path id="1p" d="m138 316h-1 1" style="fill:#000;stroke:#000;stroke-width:1.5"/><path d="m158 307c-6-6.5-11-10.5-14-12-3-1.5-9.5-2-13-1-3 1-7 4-8 6l-2 3 7-2c3.5-1 10-.5 13 1 3 1 8 4.5 10 7 2.5 2 5.5 2.5 6 1l1-3" id="1q" style="fill:#000;stroke:#000;stroke-width:1.5"/><path d="m122 313l4-1-2 1h-2" id="1r" style="fill:#000;stroke:#000;stroke-width:1.5"/><path d="m798 300c9-3.5 14.5-5 17-5l6-1h-8c-4-.5-12.5-1-17-1h-17l-16-2c-3.5-.5-11-.5-15 0-4 .5-10 1.5-12 2l-3 1h7c4 0 12 .5 16 1 4 .5 11.5 2 15 3 3.5.5 12 1.5 17 2h10" id="1s" style="fill:#fff;stroke:#fff;stroke-width:1.5"/><path d="m1428 284c-7-6-12-9.5-15-11-2.5-2-8-5.5-11-7-2.5-1.5-7-5.5-9-8-1.5-2.5-4.5-5-6-5l-2-1 4 5c2 2 5.5 7 7 10 2 2.5 6 7.5 8 10 2 2 6.5 6 9 8 2.5 1.5 7.5 2 10 1l5-2" id="1t" style="fill:#fff;stroke:#fff;stroke-width:1.5"/><path d="m730 272c12-.5 20.5-1 25-1 4.5 0 13 .5 17 1h16 18 16l7-1-8-1c-4-.5-12.5-1-17-1h-16l-16-2c-4-.5-12.5-1-17-1-4 0-12 .5-16 1l-16 2h-8l7 2 8 1" id="1u" style="fill:#fff;stroke:#fff;stroke-width:1.5"/><path d="m1416 240c-6-6.5-10-11.5-12-14-1.5-3-5-8-7-10-2-2.5-6.5-7-9-9l-4-4 3 1h4l-4-3c-2-2-7-5.5-10-7-3-1.5-6.5-4-7-5-.5-1.5 2-2 5-1l7 2-2-3c-1-1.5-4.5-4.5-7-6l-10-8c-2-2.5-6.5-7-9-9-2-2-6.5-6-9-8-2-2-6-6.5-8-9l-3-6 2 2c1.5 1 5 4.5 7 7 2.5 2 7.5 6 10 8 2.5 1.5 7 5.5 9 8 2 2 5 3 6 2 1-1 0-4.5-2-7-1.5-2.5-5-7.5-7-10l-8-10c-1.5-2.5-4.5-8-6-11-1-3-3.5-8-5-10l-2-5 4 4 5 4-2-5c-.5-3-3.5-8-6-10l-8-8c-2-2.5-6.5-7-9-9-2.5-2-8.5-5-12-6-3-1-10-2.5-14-3-3.5-1-10-3.5-13-5-2.5-1.5-7.5-5-10-7l-4-4 3 6c1.5 3 5 8.5 7 11 2 2 5 7 6 10 1.5 2.5 2 7 1 9-.5 2 0 4.5 1 5 1 0 3.5.5 5 1 1.5.5 3.5 5 4 9 .5 3.5 2.5 10 4 13 1.5 3 5 8 7 10 2 1.5 6 5.5 8 8 2 2 5.5 7 7 10 1.5 3 2.5 7.5 2 9 0 1.5 1.5 5.5 3 8 1.5 2.5 5 7.5 7 10 2 2 6 6 8 8 2.5 2 7.5 6 10 8 3 1.5 9 4.5 12 6 3 1 8.5 4 11 6 2.5 2 7.5 5.5 10 7 3 1.5 8 5.5 10 8 2 2 6 6.5 8 9 2.5 2 7 4 9 4l4-1" id="1v" style="fill:#000;stroke:#000;stroke-width:1.5"/><path d="m1345 241c-1-9-2.5-15-4-18l-2-6-1 6c0 2.5 1 8 2 11 1.5 3 3.5 6.5 4 7h1" id="1w" style="fill:#fff;stroke:#fff;stroke-width:1.5"/><path d="m311 156c6.5-6 10.5-10.5 12-13 2-3 5.5-8.5 7-11 2-2.5 5.5-7.5 7-10 1.5-3 4.5-8.5 6-11 2-3 6-8 8-10 2-2.5 5.5-7.5 7-10 2-3 6-8 8-10 2-2.5 5.5-7.5 7-10 1.5-3 4.5-8.5 6-11 2-3 5.5-8.5 7-11l8-10c2-2.5 5.5-7.5 7-10 1.5-3 4.5-8.5 6-11l6-12 3-6h-8-7l-2 8c-1 4-3.5 11-5 14-1.5 2.5-5 7.5-7 10-1.5 2.5-5 8-7 11-1.5 2.5-5 7.5-7 10-1.5 2.5-4.5 8-6 11-1.5 3-5 8.5-7 11-1.5 2.5-5 7.5-7 10-1.5 2.5-5 8-7 11-1.5 2.5-5 7.5-7 10-1.5 2.5-5 8-7 11-1.5 2.5-4.5 8-6 11-1.5 2.5-5 7.5-7 10-1.5 2.5-5 8-7 11-1.5 2.5-2.5 5.5-2 6l1 1" id="1x" style="fill:#000;stroke:#000;stroke-width:1.5"/><path d="m141 128l-2-9 1 5 1 4" id="1y" style="fill:#000;stroke:#000;stroke-width:1.5"/><path d="m1319 77c-7.5-5-13-8.5-16-10-2.5-2-7-6-9-8-2-2.5-3.5-7-3-9 .5-2.5 3.5-3 6-1 3 1.5 8.5 5 11 7 2.5 1.5 6 2.5 7 2 1.5-1 .5-3.5-2-5-2.5-2-7.5-5.5-10-7-2.5-2-7-6-9-8l-4-4 5 3 12 6 7 2-4-5c-1.5-2.5-5.5-6.5-8-8-2.5-2-8-5.5-11-7-2.5-2-7.5-5.5-10-7-2.5-2-8-7.5-11-11l-5-7h-3-12-8l2 7 6 12c1.5 2.5 4.5 8 6 11 1.5 3 4.5 8.5 6 11 2 2.5 5.5 7.5 7 10 2 2.5 6 7.5 8 10 2 2.5 6 7.5 8 10 2 2 6.5 5.5 9 7 3 1 9.5 2.5 13 3 4 .5 9 0 10-1l2-3" id="1z" style="fill:#000;stroke:#000;stroke-width:1.5"/><path d="m231 65c-4.5-3.5-10-5.5-14-6-4-.5-11.5-2-15-3-3-1-8.5-2.5-11-3l-4-1 5 4c2.5 2 8 5.5 11 7 3 1 11.5 2 17 2h11" id="20" style="fill:#000;stroke:#000;stroke-width:1.5"/><path d="m234 52c10.5-.5 13-2.5 12-4-1-1.5-6-3-10-3l-16-2c-3.5-.5-11-1.5-15-2-4-.5-10 0-12 1-1.5 1 .5 3 4 4 3.5 1 14.5 3 22 4l15 2" id="21" style="fill:#000;stroke:#000;stroke-width:1.5"/><path id="22" d="m164 16h-1 1" style="fill:#000;stroke:#000;stroke-width:1.5"/></g></g></svg>