<svg xmlns="http://www.w3.org/2000/svg" viewBox="0 0 2440 904">
  <g fill-rule="evenodd">
    <path d="M268.401034 0v136.5c0 9.3-1 10.4-10.2 10.4h-33.5c-5.8-.2-7-1.4-7-7.2-.2-12.2 0-24.3-.2-36.5 0-6.3-1-7.2-7.2-7.3h-19.5c-4.4 0-6.3 2-6.3 6.4v36c0 6.7-1 8.2-7.6 8.4-12.5.3-25 0-37.5.2-4 0-5.8-2-5.8-6V0h51v43.6c0 3.5.7 6.4 5 6.5 8 .2 16 0 24 0 3.3 0 4.8-1.8 5-5V33l-1-33h50.8zm113 0v32c0 7.2-.8 8-8 8h-29.6c-6.2 0-7.4 1.5-7.4 8 0 6 1 7 7.5 7h27c4.7 0 6.6 2 6.5 6.6 0 7.8-.2 15.7 0 23.5 0 5-2 7-6.8 7-9-.2-18 0-27 0-6.2 0-7.2 1.2-7.2 7.4 0 6.5 1 7.6 7.4 7.7 10.8.2 21.7 0 32.5.2 6 0 6.8 1 7 7 0 8.3-.2 16.7 0 25 0 4.8-2 7-6.6 7.3-2.7 0-5.3.5-8 .5h-76c-8.6 0-9.4-.8-9.4-9.5V0h98.1zm-263 0v38.5c0 6.6-1 7.4-7.7 7.5H98.2010344c-8.4 0-9 .5-9 9.2v81c0 9.4-.7 10.4-10.4 10.6-11.3.2-22.6 0-34 0-7.5 0-8.4-.8-8.4-8.2v-83c0-9.3-.3-9.6-10-9.6h-11.3c-6.69999997 0-7.69999997-1-7.69999997-7.5V0H118.401034zm261.6 439c0-2 .4-4.2.4-6.3v-59c0-8 .6-8.6 8.4-8.7h34.6c6 0 7 1 7 7v131.5c0 6.4-1 7.3-7.3 7.4-12.3 0-24.7-.2-37 0-4.5 0-7.3-1.8-9.7-5.6-12.3-20.4-24.7-40.7-37.2-61-1-1.6-2-3.2-4.5-4.5-.2 2-.5 4-.5 6v57c0 7.2-.7 8-8 8h-36c-5 .2-7-2-7-6.8.2-44 .2-88.3 0-132.4 0-5 2.3-6.7 7-6.7 12.6.2 25 .3 37.6 0 4.8 0 7.6 2 10 6 12.3 21.2 24.8 42.3 37.2 63.3 1 1.8 2.3 3.5 3.5 5.2.6 0 1-.3 1.6-.5l-.1.1zm141.8-182.7c.2-2.2.6-4.5.6-6.7V191c0-7.2.8-8 8-8h34.5c6.4 0 7.4 1 7.4 7v131.6c0 6.3-1 7.2-7.4 7.3-12 0-24-.2-36 0-5 0-8.3-2-11-6.2-12-20.3-24.5-40.4-36.8-60.6-1-1.7-2.2-3.2-3.3-4.8h-1.4c-.4 2.3-1 4.6-1 6.8v56.5c0 7.6-.8 8.3-8.4 8.3h-34.6c-6 0-7-1-7-7V190c0-6 1-6.8 7-7 12.6 0 25 .2 37.6 0 4.5 0 7.4 1.8 9.7 5.6 12.2 21 24.6 42 37 63 1 1.7 2.4 3.3 3.6 5 .4 0 1 0 1.4-.3h.1zm151.6 106.7c19.6-.4 36 4 50.7 13.7 19.3 12.7 29.7 30.7 32 53.3 2.2 21.3-2.6 41-17 57.2-13 14.8-30 22.5-49.3 25-28 3.8-53.7-1.7-74.3-22-20.3-20-25.3-45-18-72 9.4-34.8 39-55.2 76-55.2h-.1zm30.2 76.4c0-17.3-11.7-29.5-28.3-29.4-16 0-28 12.7-28 29.6 0 16.3 11.7 28.3 27.7 28.5 17 .2 28.5-11.5 28.5-28.6l.1-.1zm-261.2-1.8V373c0-7.2.8-8 8-8 21.6.4 43 0 64.5 1.4 9.4.6 19 3.7 28 7.2 20 8 32.7 22.8 38 44 4.3 18 4 35.7-3.4 52.8-11.5 27-34 38.7-61.7 40.2-22 1.2-44 .3-66 .2-6.3 0-7.2-1-7.2-7.4v-65.8h-.2zm53 1v23.5c0 4.3 2 6 6.2 6 17.3 0 29.3-11.4 29.5-28.3.2-18-10.6-29.3-28.4-29.7-5.8 0-7.2 1-7.3 6.8v22-.3zm409.3 71.8c-3 .3-4.5.5-6.2.5-15.4 0-31-.2-46.4 0-4.8 0-7.7-1.8-9.7-6-5.6-11.7-11.5-23-17.3-34.5l-3-5-1.3.4c-.2 1.8-.5 3.6-.5 5.5-.2 10.7 0 21.3-.2 32 0 6.5-1 7.4-7 7.4-12.4 0-24.8-.2-37 0-4.6 0-7-1.6-7.2-6.3 0-3.3-.6-6.6-.6-10V375.2c0-9.7.6-10.3 10-10.3 19.6 0 39-.3 58.6 0 12.8.2 25.2 2.8 36.2 10 13 8.3 19.6 20.5 20 36 .3 9.4 1.2 19.4-5.3 27.3-3.7 4.6-9 8-14.2 11.3-6.4 4-6.8 4-2.7 10l30 44.8c1.4 1.6 2.2 3.3 3.7 6l.1.1zm-77.3-80.4c10.5-.2 16.2-6.2 14.7-15.4-1.2-7.6-12.4-13.6-19-10-1.5.8-2.5 3.3-2.6 5-.3 4.6 0 9.3 0 14 0 5.3 1.4 6.5 7 6.4h-.1zm-104-196.2v39.5c-.2 28.4-16 48.5-43.5 55.2-17 4-34 4-51-.8-24.5-7-39.7-26-40.2-51.5-.5-28.8 0-57.6-.2-86.4 0-5 2.4-6.7 7-6.7 12.8.2 25.4 0 38 .2 6 0 7 1 7 7 .2 23.8 0 47.4.2 71 0 5 .5 10 1.4 15 1.3 7.5 5.7 10.2 14.8 10 8-.2 12.4-3.4 13.4-10.6.8-5.8 1.3-11.6 1.3-17.4.2-22 0-44 .2-66 0-8.5.5-9 9-9h35.6c6.4 0 7.3 1 7.3 7.3v43.3l-.3-.1zm-389-50.8c7.8 0 15.4.2 23 0 4.4 0 6.7 1.8 8.2 6 14.5 41 29.2 81.8 44 122.7l4 11.8c1.4 3.5.6 5.5-3.5 5.5h-45c-3.8 0-5.7-2-6.6-5.6-3.3-14-2.7-12.3-16.8-12.4h-21.5c-4.3 0-6.7 1.6-7.8 6-3.3 12-3.4 12-15.8 12h-35.5c-6 0-6.6-1-4.6-6.5l45.6-131.3c2.8-8 3-8 11.5-8 7-.2 14-.2 21 0 0-.2 0 0 0 0l-.2-.2zm0 51h-2l-9 39.2c0 1 2.2 3.6 3.5 3.7 4.6.4 9.3.3 14 0 3.5-.3 4.6-2.7 3.7-6l-9-34c0-1-1-2-1.4-3l.2.1zM7.40103443 255.7v-64.4c0-7.4.8-8.2 7.99999997-8.2 21.4 0 43-.3 64.3.2 19.3.5 35.9999996 7.2 46.5999996 24.4 12 19.3 8.6 49.7-7 65-7.4 7-16.3 10.6-25.9999996 11.3-9.5.6-19 .7-28.5 1-6.6.2-7.5 1-7.5 7.6v29c0 6.4-1 7.3-7.2 7.4h-35.4c-6.29999997 0-6.99999997-1-7.29999997-7.3v-66zm49.99999997-21c0 13.7 2.3 15.6 15.2 12.8 7.4-1.6 11.7-7.7 10.5-15-1.2-7.5-8.4-11.3-20-10.5-5.3.4-5.7 1.2-5.7 11.3v1.4zm86.9999996 21v-64c0-8 .7-8.7 8.5-8.7h81c8 0 8.5.6 8.5 8.6v24c0 4.4-1.8 6.4-6.3 6.3-10.5-.2-21-.2-31.5 0-6.2 0-7.2 1-7.2 7.3 0 6.4 1 7.5 7 7.6h26.5c6.4 0 7.4 1 7.4 7 0 8-.2 15.8 0 23.6 0 4.4-2 6.3-6.4 6.3-9-.2-18-.3-27 0-2.4 0-6.3 1.3-6.7 2.7-1 3.5-.7 7.5 0 11 .3 1 3.7 2 5.7 2 10.8.3 21.7.2 32.5.2 6.8 0 7.6.8 7.7 7.3 0 8.3-.2 16.7 0 25 0 4.7-2 6.6-6.7 6.5h-86.5c-6 0-6.8-1-6.8-7.3v-65.8l.3.4zm22 182.1v-64.5c0-7.6.8-8.3 8.4-8.3h81.6c7.3 0 8 .7 8 8v24.4c0 4.7-2 6.6-6.6 6.5-10.5-.2-21-.2-31.5 0-6 0-7 1.2-7 7.6 0 6 1 7.2 6.8 7.3h27.5c4.6-.2 6.8 1.6 6.7 6.4v24c0 4.7-2 6.6-6.6 6.5-9.2-.2-18.3-.2-27.5 0-6.2 0-7 1-7 8 0 6.6 1 7.8 7 7.8h32.4c6 .2 7.4 1.4 7.5 7.4v25.5c0 4.2-1.8 6-6 6h-88c-5 0-6-3-6-7v-66l.3.4zm-87.9999996 6.5l6.8-22.8c4.7-16 9.2-32 14-48 2.2999996-8 2.6999996-8.4 10.9999996-8.4h39.2c5.7 0 6.2 1 4.2 6.2l-51.2 133.3c-1.8 4.6-4.3999996 6.6-9.3999996 6.4-10.3-.2-20.7-.2-31 0-4.8 0-7.7-1.6-9.5-6.2-17.1-44.8-34.4-89.5-51.79999997-134.2-1.6-4-.5-5.5 3.7-5.5 14.19999997.2 28.59999997.2 42.99999997 0 4.6 0 6.7 2.4 8 6.6 6 21.8 12.5 43.5 18.8 65.3.7 2.4 1.7 4.8 2.5 7.3h1.7zM793.901034 183h48c6.6 0 7.4 1 7.5 7.6V221c.2 5-1.8 7-6.7 7-5-.2-10 0-15 0-6.3 0-7.2 1-7.2 7.4v82c0 11.6 0 11.6-11.3 11.6h-34c-6.6 0-7.4-1-7.4-7.6v-84c0-9-.4-9.4-9.3-9.4h-14c-4.4 0-5.8-2.3-5.8-6.3v-31.5c0-6.2 1-7 7.5-7 15.8-.2 31.8-.2 47.8-.2h-.1z"/>
    <text font-family="Arial-BoldMT, Arial" font-size="350" font-weight="bold">
      <tspan x="0" y="830">Coffee Project</tspan>
    </text>
  </g>
</svg>
