<svg viewBox="0 0 1764 1176" xmlns="http://www.w3.org/2000/svg"><g style="fill:none;fill-rule:evenodd"><path id="0" d="m0 0h1764v1176h-1764z" style="fill:#d8d8d8"/><g transform="translate(6)"><path d="m0 0h1752v1176h-1752z" style="fill:#fff"/><path d="m1752 1176v-24-18-17-18-17-17-17-8l-3 2-4 1 4-3 3-3v-2-3-1l-1-1c-1-.5-3.5-2.5-5-4l-3-3h1c.5-.5 3 .5 5 2l3 2v-9-17-8l-4 1c-2 .5-4 2.5-4 4-.5 1-3 1.5-5 1-2.5-.5-3.5 1.5-2 4 1 2 1 4 0 4-1.5 0-5-.5-7-1l-4-2 4 5c2 2.5 2.5 5 1 5-1.5-.5-4-1-5-1l-3-1 4 5c1.5 2.5 4 7 5 9l1 3 3 3c1.5 1 2.5 2.5 2 3-1 0-2.5-1-3-2l-1-3-1-1-5-6c-3-3-8.5-7.5-11-9-3-2-8-6-10-8-2.5-2-5.5-2-6 0-.5 1.5 1.5 4.5 4 6 2 1 6.5 4 9 6 2.5 1.5 7.5 5.5 10 8 2 2 4 6.5 4 9-.5 2.5-2.5 7.5-4 10-2 2.5-6 7.5-8 10-2.5 2-7 6-9 8-2.5 2-6 6.5-7 9l-3 4 3-3c1.5-2 5.5-6 8-8 2-2 6-6.5 8-9 2-2.5 5-3.5 6-2 1 1 4 4.5 6 7 2 2.5 4 7 4 9 0 1.5-2 2-4 1-2.5-1-7.5 0-10 2l-5 4 4-5c1.5-2.5 3-6 3-7-.5-1.5-3-.5-5 2-2 2-6 6.5-8 9-2 2-2.5 6-1 8l3 4-5-3c-2.5-2-5-3-5-2-.5.5-3-1-5-3-2.5-2-7-6-9-8-2.5-2-6-4.5-7-5-1.5-1-4-1.5-5-1-1.5.5-.5 3.5 2 6 2 2 6.5 6 9 8 2 2 6 6.5 8 9 2 2 2 6.5 0 9-2 2.5-6 7-8 9-2.5 2-7 6.5-9 9-2.5 2-7 6.5-9 9-2 2-4.5 6-5 8-1 2-4.5 6-7 8-2.5 2-6.5 4.5-8 5h-3c-.5-.5-3-.5-5 0-2.5.5-7.5 2.5-10 4l-12 6c-3 1.5-8.5 4-11 5-3 1-6.5 1.5-7 1-.5-.5-1-1.5-1-2-.5-.5-3 0-5 1l-4 1 5-4 4-5-5 3c-2.5 1-4.5.5-4-1 0-2-2.5-2-5 0-2.5 1.5-5.5 2-6 1-.5-1.5-2-3-3-3-1.5-.5-5.5 1-8 3-2.5 1.5-8 7.5-11 12l-7 8h2 2l2-1c1-.5 2-.5 2 0v1h12 21 18 17 18 17 17 18 17 18 16 7" id="1" style="fill:#fff;stroke:#fff;stroke-width:1.2"/><path d="m1752 1040v-3l-3 3-4 3 4-1 3-2" id="2" style="fill:#000;stroke:#000;stroke-width:1.2"/><path d="m1752 1031v-4l-3-2c-2-1.5-4.5-2.5-5-2h-1l3 3c1.5 1.5 4 3.5 5 4l1 1" id="3" style="fill:#000;stroke:#000;stroke-width:1.2"/><path d="m1752 993v-21-6l-7 3c-4 1-11.5 1.5-15 1-4-.5-12-1-16-1-4.5-.5-13-1-17-1-4-.5-12-1-16-1-4-.5-12-1-16-1-4 0-8.5-1-9-2-.5-1.5 3.5-3 8-3 4.5 0 13 .5 17 1h16c4-.5 12.5-1 17-1 4-.5 11.5-.5 15 0h15 8v-4-5l-9-1c-5-.5-14-1-18-1-4-.5-12-1-16-1-4.5-.5-12.5-.5-16 0h-15-18-17-18-16-16-17c-4.5-.5-13-1-17-1-4-.5-12.5-1-17-1-4.5 0-12.5.5-16 1-4 .5-12 1-16 1-4-.5-12-.5-16 0h-17c-4.5 0-13-.5-17-1-4-.5-12-1-16-1h-17-18c-4.5 0-12 .5-15 1-3.5.5-11 .5-15 0-4-.5-10-3-12-5-2-2.5-3-8.5-2-12 .5-3.5 2.5-10 4-13 1-3.5 3.5-9.5 5-12 1.5-3 5-8.5 7-11 1.5-3 5-8.5 7-11 1.5-2.5 4.5-7.5 6-10l6-12c1-3.5 3.5-10 5-13 1-3 3.5-9 5-12 1.5-3 4.5-8.5 6-11 1.5-3 4.5-8.5 6-11l6-12c1.5-3 4.5-9 6-12 1-3 3-9.5 4-13 .5-4 1-12 1-16-.5-4-.5-12 0-16 0-4 2-10.5 4-13 1.5-3 4-9 5-12 .5-3-1.5-7.5-4-9-3-2-9-5-12-6-3-1.5-9.5-3.5-13-4-4-.5-12.5-1-17-1-4.5 0-12.5-.5-16-1-4-.5-11.5-2-15-3-3.5-1-10.5-1.5-14-1-3.5 0-10.5.5-14 1-3.5 0-11 .5-15 1h-17-18-17-17-18-17-18c-4.5 0-12.5-.5-16-1-3.5-1-9-3.5-11-5-2-2-5.5-7-7-10-1.5-3-3.5-9.5-4-13-1-3.5-2-11.5-2-16v-17c-.5-4-1.5-11.5-2-15-.5-4-1-12-1-16-.5-4.5-1.5-12.5-2-16-.5-4-1-12-1-16-.5-4.5-1.5-12.5-2-16-1-3.5-2.5-10.5-3-14-.5-4-1-12-1-16-.5-4.5-1.5-12.5-2-16-1-3.5-2.5-10.5-3-14-1-4-3.5-10.5-5-13-2-2.5-6-7-8-9-2-2.5-6-7-8-9l-9-9c-2.5-2-7.5-5.5-10-7-3-2-9.5-4.5-13-5-3.5-1-10.5-2-14-2-3.5-.5-10.5 0-14 1-4 .5-11 2.5-14 4-3 1-9 3.5-12 5-3.5 1-9.5 3.5-12 5-3 1.5-8.5 5-11 7-2.5 1.5-7.5 5-10 7-3 1.5-8 5-10 7-2.5 2-7 6.5-9 9-2.5 2-7 6-9 8-2.5 2-7 6.5-9 9-2 2-6 6.5-8 9-2 2.5-5.5 7.5-7 10l-8 10c-2 2.5-5.5 7.5-7 10-2 2.5-5.5 8-7 11-1.5 2.5-4.5 8-6 11-2 2.5-5 8-6 11-1.5 3-4 9.5-5 13-1 3.5-3.5 10-5 13-1.5 2.5-4 8.5-5 12-1 3-3 9.5-4 13-1.5 3-4 9-5 12-1.5 3-4.5 9-6 12-2 2.5-5.5 8-7 11-1.5 2.5-4.5 8-6 11-1.5 2.5-5 7.5-7 10-2 2.5-6 7.5-8 10-2 2-6 6.5-8 9-2 2.5-6 7-8 9-2.5 2-7 6-9 8l-10 8c-3 1.5-8.5 4.5-11 6-3 1.5-9 4.5-12 6-3 1.5-9 4.5-12 6-3 1-9 3-12 4-3.5 1-10.5 3-14 4-4 .5-11.5 1.5-15 2-4 .5-12 .5-16 0-4-.5-11.5-1.5-15-2-3.5-1-10-2.5-13-3-3-1-4-4.5-2-7 1.5-3 2-9 1-12-1.5-3-3.5-10-4-14-.5-4-.5-11.5 0-15l2-16c0-4 2.5-9.5 5-11 2-2 6-1.5 8 1 2 2 6 6.5 8 9l8 10c1.5 2.5 4 8 5 11 .5 3 1.5 10.5 2 15 0 4 1 10.5 2 13 .5 2.5-3 5-7 5l-9-1 6 2c2.5 1 9 2.5 13 3 3.5.5 11 .5 15 0l7-2-6-2c-3-1.5-7-5-8-7-1-2-2.5-7-3-10-.5-3.5-1-9.5-1-12 0-3-1-9-2-12-1.5-3.5-4.5-9.5-6-12-1.5-3-4.5-8.5-6-11-2-3-5.5-8.5-7-11-1.5-3-3.5-9.5-4-13-1-3.5-2-10-2-13-.5-3.5-.5-11 0-15 0-4-.5-12-1-16-.5-4-1.5-11.5-2-15-.5-4-.5-11.5 0-15 0-3.5 3-7 6-7 2.5-.5 7.5 1 10 3 2 2 6.5 4 9 4 2.5 0 7.5 1.5 10 3 2 1.5 6.5 5 9 7 2 2 6.5 6.5 9 9 2 2 6 6.5 8 9 2 2 6.5 6.5 9 9 2 2 6 6.5 8 9 1.5 2.5 5 7.5 7 10 2 2 6 6.5 8 9 2 2.5 5.5 8 7 11 1.5 2.5 4.5 8 6 11l6 12c1.5 2.5 2.5 7 2 9-1 2-4.5 3.5-7 3-2.5-.5-7-3-9-5-2-2.5-6-7-8-9-2.5-2.5-7.5-6.5-10-8-3-1.5-9-4-12-5l-7-2 4 5c1.5 2 5.5 6 8 8 2 2 6 6.5 8 9l4 5-5-3c-3-1.5-6-2-6-1-.5 1 1 4.5 3 7 1.5 2 5 6.5 7 9 1.5 2.5 3 5.5 3 6 0 .5-2 .5-4 0-2-1-6-4-8-6-2.5-2-7.5-5.5-10-7l-6-4 2 5c.5 2.5-.5 4.5-2 4-2-1-6-4-8-6-2.5-2-6.5-4.5-8-5l-4-1 4 5c2 2.5 6.5 7 9 9 2.5 1.5 7 6 9 9l4 5 2 1c.5.5 2 3 3 5l1 3-1-1c-.5-1-2-3.5-3-5l-2-3-4-4c-2-2-6-6-8-8-2.5-2-7-6-9-8-2.5-2.5-7-7-9-9-2-2.5-5.5-5.5-7-6l-3-1 4 5c1.5 2.5 5 7.5 7 10 1.5 2.5 5.5 7 8 9 2.5 2 7 6.5 9 9 2 2 6 6.5 8 9 2 2.5 3 6.5 2 8-1.5 1.5-6 2-9 1-3.5-1-6.5-.5-6 1 0 1 2 3.5 4 5 2 1 8 1.5 12 1 3.5-1 10-3.5 13-5 2.5-1.5 8-4 11-5 3-1.5 9-4.5 12-6 3-1.5 9-4.5 12-6 2.5-1.5 7.5-5 10-7 2.5-2 7-6 9-8 2-2.5 6-7.5 8-10 1.5-2.5 5-7.5 7-10 1.5-3 4-9.5 5-13 .5-3.5 1.5-11 2-15 0-4.5 1-12.5 2-16l2-14 2-16c0-4.5-.5-12.5-1-16-1-3.5-1-10.5 0-14 .5-4 3-10 5-12 2-2.5 2.5-5 1-5-1.5-.5-6 .5-9 2-3 1.5-7 6.5-8 10-1 3-1.5 10-1 14 0 3.5-.5 11-1 15-.5 3.5-1 11-1 15-.5 4 0 12 1 16 .5 3.5 1 11 1 15 0 3.5-2.5 6-5 5-3-1.5-7.5-4.5-9-6-2-1.5-5.5-5.5-7-8-2-2.5-5.5-7.5-7-10-2-3-5.5-8.5-7-11-1.5-3-4.5-8.5-6-11-2-3-6-8-8-10-2-2.5-6-7-8-9-2.5-2-7-6-9-8l-9-9c-2-2.5-6-7-8-9l-9-9c-2-2.5-6-7-8-9-2.5-2-8-5.5-11-7-3-1.5-8.5-4.5-11-6-2.5-2-6-4-7-4-1.5-.5-3.5-2-4-3-.5-1.5.5-6 2-9 1-3 1.5-9.5 1-13-.5-3.5 0-10.5 1-14 .5-3.5 1-11.5 1-16 0-4.5-1-12-2-15-1-3.5-2.5-10.5-3-14-.5-4-1-12-1-16-.5-4.5-.5-13 0-17 0-4 .5-12 1-16 .5-4 2.5-10.5 4-13 1.5-3 5.5-7.5 8-9 2.5-2 9-4 13-4 3.5-.5 10.5-.5 14 0 3 .5 9.5 2.5 13 4 3 1 9 3.5 12 5 2.5 1.5 8 4.5 11 6 2.5 1.5 5.5 4.5 6 6 0 1 2 4.5 4 7 2 2 3 5 2 6-1.5.5-1 3.5 1 6 1.5 2.5 5 7.5 7 10 2 2 6 7 8 10 1.5 2.5 4.5 8 6 11 1.5 2.5 5 6.5 7 8l3 2-2-6c-1.5-3-3.5-9-4-12-1-3-2.5-9-3-12-1-3.5-3-10-4-13-1.5-3-3.5-9.5-4-13-.5-3.5 0-10.5 1-14 .5-3.5 1.5-10.5 2-14 .5-4 2-11.5 3-15 .5-4 3.5-9.5 6-11 2.5-2 8-2 11 0 2.5 1.5 7.5 5 10 7 2 2 6 6.5 8 9 1.5 2.5 5 7.5 7 10 2 2.5 5.5 8 7 11 1.5 2.5 4.5 8.5 6 12 1 3 3.5 9 5 12 1 3 3 9.5 4 13 .5 3.5 2 10.5 3 14 1 3.5 3 10.5 4 14 1 3 3.5 9 5 12l6 12c1 3 4 8.5 6 11 2 2 6 5.5 8 7 2 1.5 5.5.5 7-2 1.5-3 4-9.5 5-13 1-3.5 2-11 2-15 0-4.5 1.5-11 3-13 1-2 2-8 2-12-.5-4.5-1-13-1-17-.5-4-.5-12 0-16 .5-4 1-12 1-16-.5-4-2-11-3-14-1-3.5-.5-10 1-13 1-3.5 3.5-9.5 5-12 1.5-3 5.5-8 8-10 2.5-2 8-5.5 11-7l10-6 5-4-5 2c-3 .5-8.5 2.5-11 4-3 1.5-8.5 5-11 7-2.5 2-6.5 5-8 6-1.5.5-2-2-1-5 .5-3 2.5-8.5 4-11 1.5-2.5 5.5-6.5 8-8 2.5-2 8-5.5 11-7l5-4-1 3c-.5 1-.5 3 0 4 .5.5 4-.5 7-2l10-8c2-2 6-6.5 8-9l6-12c1-3 3.5-9 5-12 1-3 3-9.5 4-13 1-3.5 3.5-10 5-13 1-3 2.5-10 3-14 0-4.5-.5-12.5-1-16-1-3.5-2.5-10-3-13-1-3-3-9.5-4-13-1-3.5-2.5-10.5-3-14-1-3.5-3-10-4-13-1.5-3.5-4-10-5-13-1.5-3-4-9-5-12-1.5-3-4.5-8.5-6-11-2-3-6-8-8-10-2.5-2-8-5-11-6-3-1-5.5.5-5 3 0 2.5 1.5 7.5 3 10l2 5-4-4c-2.5-2.5-7-7-9-9-2-2.5-6-7-8-9l-9-9c-2-2.5-6-7-8-9l-8-10c-2-2.5-5.5-7.5-7-10-2-2.5-6-7-8-9l-8-8c-2-2.5-6-7-8-9l-8-10c-2-2.5-2.5-5.5-1-6 1.5-1 5 .5 7 3l8 10c1.5 2.5 5 7 7 9 1.5 2 5 5.5 7 7 2 1.5 5 3 6 3 .5 0-.5-3-2-6-1.5-3-4-9-5-12-1.5-3-2-6-1-6 1-.5 1-5.5 0-10l-3-10h-1-9-8l1 3c0 1 1 4 2 6 1 2 2 4.5 2 5l-1 1c-.5-.5-2-2.5-3-4-1.5-2-3.5-4.5-4-5-1-1-2-3-2-4l-1-2h-3-6-2v3c0 1.5-.5 2.5-1 2-1-.5-2.5-1.5-3-2-.5-.5-1-1.5-1-2l-1-1h-2-2l5 7c2.5 3.5 7 9.5 9 12l9 9c2 2 6.5 6 9 8 2 2 6 6.5 8 9 2 2 6 6.5 8 9l8 10c2 2 6 7 8 10 1.5 2.5 5 7.5 7 10 2 2 4 5 4 6-.5 1-3 0-5-2-2-2.5-6-7.5-8-10-2-2.5-6-7-8-9-2.5-2-7-6-9-8-2-2.5-5.5-7.5-7-10-1.5-2.5-5-7-7-9-2.5-2-7-6-9-8l-9-9c-2-2.5-6-7-8-9-2-2.5-5.5-6.5-7-8-2-2-6.5-2.5-9-1-2.5 1-4.5 0-4-2v-5h-8-8l-2 6c-1 2.5-4 7-6 9-2.5 2-5.5 3-6 2-1-1.5-.5-5.5 1-8 1.5-3 3-6.5 3-7v-2h-2-2v3c-.5 1.5-1.5 4-2 5-1 1-3.5 2.5-5 3-1.5 0-4-.5-5-1-1-.5-3.5-2.5-5-4-1.5-1.5-3.5-3.5-4-4l-1-2h-6-7l1 2c.5.5 1 1.5 1 2-.5.5-1.5.5-2 0-.5-1-1.5-2.5-2-3l-2-1h-11-19-18-12-3l-3 8c-2 4-6 10.5-8 13l-8 8c-2.5 2-7.5 6-10 8-3 1.5-8.5 4.5-11 6-3 1.5-9.5 4-13 5-3.5 1-10.5 2.5-14 3-4 .5-12 1-16 1h-18c-4.5 0-12.5 1-16 2-3.5.5-9.5 3-12 5-2.5 2-6.5 6.5-8 9-2 2.5-5 8-6 11-1.5 3-6.5 6.5-10 7-4 0-11 1.5-14 3-3 1-10 2.5-14 3-4.5 0-12.5-.5-16-1-4-.5-11.5-1-15-1-3.5-.5-9.5 1-12 3-2.5 2-5.5 7.5-6 11-1 3.5-2.5 10.5-3 14-1 3.5-.5 10.5 1 14 1 3 4 8.5 6 11 1.5 2.5 5.5 7.5 8 10 2 2 2 4.5 0 5h-11c-4 0-11.5-.5-15-1-4-1-11.5-2.5-15-3l-14-4c-3.5-1-10-1-13 0-3.5 1-9.5 4-12 6-2.5 1.5-7.5 5-10 7-2.5 2-7 6-9 8-2.5 2-6.5 6-8 8l-4 4 7-2c3-1.5 9.5-4 13-5 3-1 9.5-1 13 0l7 1-6 2c-3.5.5-10 2.5-13 4-3 1-8 4.5-10 7-2 2.5-5.5 8-7 11-1.5 2.5-4 8.5-5 12-1 3-2.5 10-3 14-.5 4-.5 12 0 16 0 4-1 11.5-2 15-1 3.5-3.5 10-5 13-1.5 2.5-4.5 8-6 11-1.5 2.5-4 8.5-5 12-1.5 3-3 10-3 14 0 3.5 1.5 10.5 3 14 1 3 4 8.5 6 11 2 2 7 3.5 10 3 2.5-.5 5.5-4 6-7 .5-3 4.5-6.5 8-7 3.5-1 11-2.5 15-3 3.5-1 9.5-1.5 12-1 2.5 0 8 1.5 11 3 3 1 9 3 12 4 2.5.5 5.5-2 6-5 0-3-2-8.5-4-11-2-2.5-6-7-8-9-2.5-2-7.5-5.5-10-7l-10-8c-2.5-2-6.5-6-8-8-1.5-2.5-3.5-7.5-4-10-.5-2.5 1.5-7 4-9 2-2 6.5-6 9-8 2-2 6-6.5 8-9 2-2.5 6.5-7 9-9 2-2 7-5.5 10-7 2.5-2 7.5-5.5 10-7 2.5-2 8.5-3 12-2 3.5.5 10.5 2 14 3 3.5 1 10 3.5 13 5 3 1 10 3 14 4 3.5.5 6.5 3 6 5-1 2-3 7-4 10-1.5 3-4.5 9-6 12-1.5 3-4.5 9-6 12-1.5 2.5-4.5 8-6 11l-4 5 1-3c.5-2 2.5-6.5 4-9 1.5-3 2-7.5 1-9-1-1.5-4-1-6 1-2.5 2-8 5.5-11 7-3.5 1-9 4.5-11 7-2 2-3 7.5-2 11 1 3 4 8.5 6 11 2 2.5 5.5 8 7 11 1.5 2.5 3.5 8.5 4 12 0 3-1.5 8.5-3 11-2 2.5-6.5 7-9 9-2.5 1.5-7.5 5-10 7-2.5 2-8 5.5-11 7-3 1-9 3.5-12 5-3 1.5-7.5 5.5-9 8-2 2.5-5.5 7.5-7 10-2 2.5-5 8.5-6 12-1 3.5-1 10.5 0 14 .5 3.5 2.5 10 4 13l6 12c1 3 2 10 2 14 0 3.5-1.5 10-3 13-1.5 3-5 8.5-7 11-2 2-6 6.5-8 9-2.5 2-7.5 6-10 8-2.5 1.5-8.5 4-12 5-3.5.5-10 2.5-13 4-3 1.5-7.5 5.5-9 8-2 2.5-4 8.5-4 12 0 3.5 1.5 10 3 13 1 3 3.5 9 5 12 1.5 2.5 3.5 9 4 13 0 3.5-1 10-2 13l-6 12c-2 2.5-6.5 7-9 9-2.5 1.5-8 4.5-11 6-3 1-8.5 4-11 6-3 1.5-8 4.5-10 6l-5 3 5-4c2.5-2 7-6 9-8l4-5-5 2c-2.5.5-8 2.5-11 4-3.5 1-7.5.5-8-1-1-1.5-3.5-3.5-5-4-1.5-1-6-.5-9 1-3 1.5-7.5 6-9 9-1.5 2.5-2.5 8.5-2 12 0 3 3 7.5 6 9 2.5 1.5 8.5 4 12 5 3 1 9.5 3.5 13 5 3 1 9.5 3 13 4 3 1 9.5 3 13 4 3.5 1 9.5 4 12 6 2.5 1.5 8 4.5 11 6 3 1 9.5 3.5 13 5 3 1 9.5 3 13 4 3 1 9.5 3.5 13 5 3 1 9 3.5 12 5 3 1 9 3.5 12 5 3 1 9 3.5 12 5 3 1.5 8.5 5 11 7 2.5 1.5 8.5 4 12 5 3.5 1 10 3.5 13 5 3 1 9.5 3 13 4 3 1 9.5 3.5 13 5 3 1 10 2.5 14 3 3.5.5 10 2.5 13 4 3 1.5 10 3.5 14 4 3.5.5 10.5 2 14 3 3.5.5 10.5 0 14-1 3-1.5 6.5-5.5 7-8 .5-3-.5-9-2-12-1.5-3-5.5-7.5-8-9-3-1.5-6.5-5.5-7-8-1-2.5-2.5-8.5-3-12-1-4-3-7.5-4-7-1.5.5-2.5 5-2 9 .5 4 .5 11.5 0 15-1 3.5-4 9.5-6 12-2 2-7 5.5-10 7l-7 2 5-2c2-1 6-4.5 8-7 2-2.5 4.5-8.5 5-12 .5-4 1-12 1-16-.5-4-1-12.5-1-17 0-4.5.5-12.5 1-16 .5-4 2.5-11 4-14 1-3.5 4-9.5 6-12 1.5-2.5 5-7 7-9 2-2.5 6-7.5 8-10 1.5-3 3.5-9.5 4-13 .5-4 .5-11.5 0-15-1-4-2.5-11.5-3-15-1-3.5-2.5-10.5-3-14-1-3.5-2.5-10.5-3-14-1-4-1-11.5 0-15 .5-3.5 3-9.5 5-12 2-2.5 6-7 8-9 2-2.5 6-7.5 8-10 1.5-2.5 4-8.5 5-12l4-14c.5-3.5 1.5-11 2-15l2-16v-16-18c0-4.5.5-12.5 1-16 .5-4 2-11.5 3-15 1-3.5 3-10.5 4-14 .5-3.5 2-10.5 3-14 .5-3.5 2-10.5 3-14 1-3.5 3-10 4-13 1-3.5 5-7.5 8-8 2.5-1 7.5-1 10 0 2.5.5 7.5 3 10 5 2 2 4 8.5 4 13v18c0 4-1 11.5-2 15-1.5 3-3.5 10-4 14-.5 3.5-1.5 8.5-2 10-1 1.5-3.5 0-5-3-1.5-3-5.5-5.5-8-5l-6 1 6 4c2.5 1.5 6 6.5 7 10 1 3 2 10.5 2 15 0 4 .5 12.5 1 17v17 17c-.5 4-1.5 12-2 16-.5 3.5 0 9.5 1 12 .5 2.5 2.5 4.5 4 4 1-1 3-5 4-8 1-3.5 3-10.5 4-14 .5-4 1-12 1-16 0-4.5.5-13 1-17v-16c-.5-4.5-.5-12.5 0-16 .5-4 2-11.5 3-15 .5-4 2-11.5 3-15 .5-3.5 2-10.5 3-14 .5-3.5 1-11 1-15 0-4 1-10 2-12 1-2.5 3.5-2 5 1 1.5 3 3.5 10 4 14v15c-.5 3.5-1 11.5-1 16 0 4.5-1 12.5-2 16-1 3-3.5 9-5 12-1.5 3-3 10.5-3 15 0 4 .5 12 1 16 .5 3.5 1.5 11 2 15 .5 4 1.5 12 2 16 .5 3.5 1.5 11.5 2 16v16c-.5 4-.5 12 0 16l1 7 2-7c1-3.5 3-10 4-13 1-3.5 2-11.5 2-16 0-4.5-.5-12.5-1-16-1-3.5-2.5-10.5-3-14-1-3.5-2.5-10.5-3-14-1-4-2-11.5-2-15 0-4 1.5-11 3-14 1-3.5 3.5-9.5 5-12 1.5-3 4-9.5 5-13 .5-3.5 1-11.5 1-16 0-4.5-.5-12.5-1-16-.5-4-.5-12 0-16 0-4.5.5-12.5 1-16 0-3.5-2-9-4-11-2-2.5-6.5-7-9-9-2.5-2-7-6-9-8-2.5-2-7.5-5.5-10-7l-12-6c-3-1.5-8.5-4.5-11-6-2.5-2-8-5.5-11-7-3-1.5-8.5-4.5-11-6-3-1.5-9-4-12-5-3-1.5-9-4-12-5-3.5-1.5-10-4-13-5-3-1.5-9.5-4-13-5-3.5-1-10-3-13-4-3-1.5-9-4-12-5-3-1.5-9.5-4-13-5-3.5-1-10-3-13-4-3-1.5-9-4-12-5-3.5-1.5-10-4-13-5-3-1.5-9-4-12-5-3.5-1-10.5-3-14-4-3.5-1-9.5-3.5-12-5l-6-3 7 1c3 0 9.5 1 13 2 3.5.5 10.5 2 14 3 3 1 9.5 3.5 13 5 3 1 9 3.5 12 5 3 1 9.5 3.5 13 5 3 1 9.5 3 13 4 3 1 9 3.5 12 5 3 1 9.5 3.5 13 5 3 1 9.5 3 13 4 3 1 9.5 3.5 13 5 3 1 9 3.5 12 5 3 1 9 3.5 12 5 3 1 9.5 3.5 13 5 3 1 9 3.5 12 5 2.5 1.5 8 4.5 11 6l12 6c2.5 1.5 7.5 5 10 7 2.5 1.5 8 4.5 11 6 3 1.5 8.5 5 11 7 2.5 1.5 7.5 5.5 10 8 2 2 5 7.5 6 11l1 7 3-6c1-3 1-9 0-12-1.5-3.5-5-9-7-11-2-2.5-6.5-7-9-9-2.5-2-7-6-9-8-2.5-2-7-6-9-8-2-2.5-7-6.5-10-8-3-1.5-7.5-3.5-9-4l-3-2 8 1c4 .5 11 2.5 14 4 2.5 1.5 8 4.5 11 6 2.5 1.5 7.5 5.5 10 8 2 2 6 6.5 8 9 1.5 2.5 4.5 8 6 11 1.5 3 3.5 10 4 14 .5 3.5.5 10.5 0 14-1 3.5-2 11-2 15 0 4 .5 12 1 16 .5 3.5 1.5 11 2 15 .5 4 1.5 12 2 16v17c0 4-.5 12-1 16-1 3.5-2.5 11-3 15-.5 3.5-.5 11.5 0 16 0 4 .5 12 1 16 .5 3.5 2 10.5 3 14 .5 3.5 1 11.5 1 16-.5 4-1.5 11.5-2 15-1 3.5-3 10.5-4 14-1.5 3-4 9.5-5 13l-4 12c-1.5 3-3.5 10-4 14-.5 4-1 12-1 16-.5 4-.5 12 0 16 .5 4 2 11.5 3 15 .5 3.5 1.5 11 2 15v17c-.5 4-2 11.5-3 15-1 3-3.5 9-5 12-2 2.5-5 8-6 11-1.5 3-3 9.5-3 13-.5 3.5-.5 11 0 15 .5 4 1 12.5 1 17 0 4-.5 12-1 16-.5 4-2 11.5-3 15-1 3-2.5 10-3 14-.5 3.5 1 9.5 3 12 2 2.5 7 6.5 10 8 2.5 1.5 9 4 13 5 3.5.5 11 1.5 15 2 3.5.5 11 1.5 15 2h17c4.5 0 12.5-.5 16-1 3.5-1 11-2.5 15-3 3.5-1 10.5-3 14-4 3-1 9-3.5 12-5 2.5-1.5 8-4.5 11-6 2.5-2 7.5-5.5 10-7 2.5-2 8-5.5 11-7l10-8 8-8c2-2.5 6.5-7 9-9 2-2.5 6-7.5 8-10 1.5-2.5 5-7.5 7-10 1.5-3 5-8.5 7-11l6-10c1.5-3 4.5-9 6-12 1.5-3 4.5-8.5 6-11 1.5-3 4.5-9 6-12 1.5-3 4-9 5-12 1-3.5 3.5-9.5 5-12 1.5-3 4.5-9 6-12 1-3.5 3.5-9.5 5-12 1.5-3 5-8.5 7-11 1.5-3 4.5-8.5 6-11 1.5-3 4.5-8.5 6-11 1.5-3 5-8.5 7-11l8-10c1.5-2.5 5-7.5 7-10l8-10c1.5-2.5 5.5-7 8-9 2-2 6.5-6 9-8 2.5-2 7.5-6 10-8 2-2 7-5.5 10-7 3-1.5 9-4.5 12-6 2.5-1.5 8-4 11-5 3-1.5 9.5-4 13-5 3.5-1 10.5-2.5 14-3 3.5-1 10.5-2 14-2 3 0 5 1.5 4 3-1 1.5-5.5 3.5-9 4-3.5 0-10.5 1-14 2-4 .5-11 2-14 3-3.5 1-9.5 3.5-12 5-3 1.5-9 4.5-12 6-3 1.5-8.5 5-11 7-2.5 1.5-7.5 5-10 7-2.5 2-7 6-9 8-2.5 2-7 6.5-9 9-2 2-6 6.5-8 9-2.5 2-6.5 6.5-8 9l-8 10c-2 2.5-5.5 8-7 11-1.5 2.5-4.5 8-6 11-1.5 2.5-4 8.5-5 12l-6 12c-1.5 2.5-4 8.5-5 12-1.5 3-4.5 9-6 12-1.5 2.5-4 8.5-5 12-1 3-3.5 9-5 12-1.5 3-4 9-5 12l-6 12c-2 2.5-5.5 8-7 11l-6 10-8 10c-2 2.5-5.5 7.5-7 10-2 2.5-4 7-4 9l-1 3 5-3c2.5-2 7-6 9-8 2-2.5 6-7.5 8-10 1.5-3 5-8.5 7-11 1.5-2.5 5-7.5 7-10 1.5-3 4.5-8.5 6-11l6-12c1-3 3.5-9 5-12 1-3.5 3.5-9.5 5-12l6-12c1.5-3 4.5-9 6-12 1-3 3.5-8.5 5-11 1.5-3 4.5-9 6-12 1.5-3 4.5-8.5 6-11 1.5-3 5-8.5 7-11 1.5-3 5-8.5 7-11 1.5-2.5 5-7 7-9l8-10c2-2.5 6-7 8-9 2-2.5 6.5-7 9-9 2.5-2 7.5-5.5 10-7 2.5-2 8-5.5 11-7 2.5-1.5 8-4.5 11-6 3-1.5 9.5-4 13-5 3-1 10-2.5 14-3 3.5-1 11-2.5 15-3 3.5-.5 11-1 15-1 3.5 0 10 1.5 13 3 3 1.5 8 5.5 10 8 1.5 2.5 4.5 8.5 6 12 1 3 2.5 10 3 14 .5 3.5 2 10.5 3 14 .5 3.5 2 11 3 15 .5 3.5 1.5 11 2 15 .5 3.5 2 11 3 15 .5 3.5 1 11.5 1 16 0 4 .5 12 1 16v17c0 4.5.5 13 1 17 .5 3.5 1.5 11.5 2 16v15c-.5 3.5-3 8.5-5 10l-5 3 9 1h8l-5 3c-2.5 1-9.5 2-14 2h-17-17c-4.5 0-13 .5-17 1-4.5 0-12.5-.5-16-1-4-.5-11-2-14-3-3.5-1.5-10.5-3.5-14-4-3.5-1-11-2-15-2h-18c-4.5 0-12 1-15 2l-14 4-14 4c-3.5.5-10 2.5-13 4-3 1-8.5 4-11 6-2.5 2-4.5 7-4 10 0 3 1.5 9 3 12 1.5 3 4.5 9 6 12 1.5 2.5 4 8.5 5 12 1 3 5 8 8 10 2.5 1.5 8.5 4 12 5 3.5.5 11 1.5 15 2l16 2c4 0 12 .5 16 1 3.5.5 11 1.5 15 2 4 .5 12 1.5 16 2 4 0 12 .5 16 1 4 .5 12 1.5 16 2 4 0 15.5.5 23 1h15 11 19c4-.5 12.5-1 17-1h8l-5 2c-3 .5-10.5 1-15 1h-16c-4 0-10.5-.5-13-1l-6-1-1 3c-.5 1.5 1 4.5 3 6 2 1 4 4.5 4 7 0 2.5-1 8-2 11-1.5 3-4 9.5-5 13-1 3-2.5 10-3 14-.5 4-1 12.5-1 17 0 4 .5 12 1 16 .5 4 2.5 11 4 14 1 3 4 8.5 6 11 2 2 8 5 12 6 3.5.5 10 2.5 13 4 2.5 1.5 7.5 5 10 7 2.5 2 6.5 7 8 10 1 3 2.5 10 3 14 .5 3.5 1.5 11 2 15 .5 4 2 11.5 3 15 1 3 4 9 6 12 1.5 2.5 5 7.5 7 10 2 2 6 6 8 8 1.5 2 5 4.5 7 5 2 .5 7 .5 10 0 2.5-.5 8-1.5 11-2 2.5-1 8.5-2.5 12-3 3.5-1 8-3.5 9-5 1-2 2-5 2-6l-1-3 1 7c0 3.5-2.5 8.5-5 10-3 1.5-9 4.5-12 6-3 1-8.5 3-11 4-3 .5-9.5 2-13 3-3.5.5-10 2-13 3-3.5 1-9.5 4-12 6-3 1.5-7.5 6-9 9-1.5 2.5-4.5 7-6 9-1.5 2-3.5 1-4-2-1-3-3.5-8-5-10l-8-8c-2.5-2.5-7.5-6.5-10-8-2.5-2-6.5-3.5-8-3-1.5.5-5-1-7-3-2-2.5-6-3-8-1-2 1.5-4.5 1.5-5 0-.5-1.5 2-4 5-5 3-1.5 10-2.5 14-2 4 .5 10.5 3 13 5 2.5 1.5 7 5.5 9 8 2 2 5 2.5 6 1 1-1.5 2.5-6 3-9 .5-3.5-2-8-5-9-3.5-1.5-10-4-13-5l-6-3 7 1c3.5 0 10.5 1 14 2 3.5 1 9.5 3.5 12 5l4 3-3-5c-2-3-4-8.5-4-11 0-3-1-5-2-4-1 .5-5.5 1.5-9 2-3.5.5-10.5 1-14 1-4 0-10 1.5-12 3-2 1.5-8.5 4-13 5l-9 2-3 5-3 4v-1c0-.5 1.5-2.5 3-4l3-4-1-4c-.5-2-3.5-5.5-6-7-3-1.5-6.5-1.5-7 0-1 1.5-2.5 7-3 11-1 3.5-1.5 10.5-1 14 0 3.5.5 11 1 15 .5 4 2 11.5 3 15 .5 3.5 1.5 9.5 2 12 .5 2 3 5.5 5 7 1.5 1 5 4.5 7 7 2 2 6 6.5 8 9 1.5 2 4.5 7 6 10 1 3 1 8.5 0 11-1 2 1.5 3.5 5 3 3-1 7-5 8-8 1-3.5 3.5-7 5-7 1.5 0 2 3 1 6-1.5 3-4 9-5 12-1.5 3-6 7.5-9 9l-12 6c-3 1-9.5 3-13 4-3.5 1-10.5 3-14 4-3.5.5-10.5 1.5-14 2-4 .5-12.5 1-17 1-4.5 0-13 .5-17 1-4 0-12 .5-16 1h-15c-3.5 0-9.5-1.5-12-3l-6-3 5-1c2.5-.5 9-1.5 13-2 3.5-.5 11-1.5 15-2 3.5-1 10.5-2.5 14-3 3.5-1 11.5-2 16-2 4 0 12-.5 16-1 3.5-1 10.5-2.5 14-3 3.5-1 10-3.5 13-5 2.5-2 6.5-6.5 8-9 1.5-3 3-9 3-12 0-3.5-2-8-4-9-2.5-1.5-7.5-4.5-10-6-2.5-2-7-6.5-9-9-2-2.5-5.5-7.5-7-10-1.5-3-4-9-5-12-1-3.5-3-10-4-13-1.5-3.5-4.5-9.5-6-12-1.5-3-4.5-8.5-6-11-2-3-5.5-8.5-7-11-2-2.5-6-7-8-9-2-2.5-6.5-7-9-9-2.5-2-8.5-4-12-4-3.5-.5-9.5 1-12 3-3 1.5-10 3-14 3h-17c-4.5 0-11-.5-13-1-2.5-1-8-3-11-4l-6-3c-.5-.5 3-1.5 7-2 3.5-.5 11-1 15-1 4-.5 12.5-1 17-1h17c4-.5 10-3 12-5 2-2 0-4-4-4h-17c-4.5 0-13 .5-17 1-4.5 0-12 1.5-15 3-3 1-9.5 2.5-13 3-4 0-10 2-12 4-2.5 2-6 7.5-7 11-1 3-3 9-4 12-1 3-2 10-2 14l-2 16c-.5 4-1.5 11.5-2 15l-4 14c-1 3-3 9.5-4 13-1 3.5-2 11-2 15-.5 4-1 12.5-1 17v18c0 4 .5 12 1 16 .5 3.5 1.5 11 2 15 .5 4 2 11.5 3 15 .5 3.5 2 12.5 3 18l2 10h14 22 18 17 18 17 8l-1-7c-1-4-3.5-10.5-5-13-2-2.5-7.5-5.5-11-6-4-1-12-2-16-2-4-.5-11-2-14-3-3.5-1-6-3.5-5-5 .5-2 4.5-3 8-2 3.5.5 11 2 15 3 3.5.5 10.5 2 14 3 3.5.5 10.5 2 14 3 3.5.5 11 1.5 15 2l16 2c3.5.5 11.5 1.5 16 2 4 0 12 .5 16 1h17c4 0 12.5.5 17 1 4 0 12 .5 16 1 4 0 12.5.5 17 1h17 17 17 18 17 17c4-.5 12.5-1 17-1 4 0 12-.5 16-1 4-.5 12-1 16-1 4-.5 12.5-1 17-1l16-2c3.5-.5 10-2 13-3 3-1.5 10-3.5 14-4 3.5-1 8 0 9 2 .5 2-2.5 5-6 6-3.5.5-10.5 2-14 3-3.5.5-9.5 3-12 5-3 1.5-6.5 6.5-7 10l-1 6h10 10l1-2c0-1.5 2.5-3.5 5-4 2-.5 4.5-.5 5 0 .5.5.5 2 0 3-.5 1-1 2.5-1 3h11 20 17 18 17 17 18 17 18 11 2l7-8c3-4.5 8.5-10.5 11-12 2.5-2 6.5-3.5 8-3 1 0 2.5 1.5 3 3 .5 1 3.5.5 6-1 2.5-2 5-2 5 0-.5 1.5 1.5 2 4 1l5-3-4 5-5 4 4-1c2-1 4.5-1.5 5-1 0 .5.5 1.5 1 2 .5.5 4 0 7-1 2.5-1 8-3.5 11-5l12-6c2.5-1.5 7.5-3.5 10-4 2-.5 4.5-.5 5 0h3c1.5-.5 5.5-3 8-5 2.5-2 6-6 7-8 .5-2 3-6 5-8 2-2.5 6.5-7 9-9 2-2.5 6.5-7 9-9 2-2 6-6.5 8-9 2-2.5 2-7 0-9-2-2.5-6-7-8-9-2.5-2-7-6-9-8-2.5-2.5-3.5-5.5-2-6 1-.5 3.5 0 5 1 1 .5 4.5 3 7 5 2 2 6.5 6 9 8 2 2 4.5 3.5 5 3 0-1 2.5 0 5 2l5 3-3-4c-1.5-2-1-6 1-8 2-2.5 6-7 8-9 2-2.5 4.5-3.5 5-2 0 1-1.5 4.5-3 7l-4 5 5-4c2.5-2 7.5-3 10-2 2 1 4 .5 4-1 0-2-2-6.5-4-9-2-2.5-5-6-6-7-1-1.5-4-.5-6 2-2 2.5-6 7-8 9-2.5 2-6.5 6-8 8l-3 3 3-4c1-2.5 4.5-7 7-9 2-2 6.5-6 9-8l8-10c1.5-2.5 3.5-7.5 4-10 0-2.5-2-7-4-9-2.5-2.5-7.5-6.5-10-8-2.5-2-7-5-9-6-2.5-1.5-4.5-4.5-4-6 .5-2 3.5-2 6 0 2 2 7 6 10 8 2.5 1.5 8 6 11 9l5 6-1-3c-1-2-3.5-6.5-5-9l-4-5 3 1c1 0 3.5.5 5 1 1.5 0 1-2.5-1-5l-4-5 4 2c2 .5 5.5 1 7 1 1 0 1-2 0-4-1.5-2.5-.5-4.5 2-4 2 .5 4.5 0 5-1 0-1.5 2-3.5 4-4l4-1" id="4" style="fill:#000;stroke:#000;stroke-width:1.2"/><path d="m1752 966v-5h-8-15c-3.5-.5-11-.5-15 0-4.5 0-13 .5-17 1h-16c-4-.5-12.5-1-17-1-4.5 0-8.5 1.5-8 3 .5 1 5 2 9 2 4 0 12 .5 16 1 4 0 12 .5 16 1 4 0 12.5.5 17 1 4 0 12 .5 16 1 3.5.5 11 0 15-1l7-3" id="5" style="fill:#fff;stroke:#fff;stroke-width:1.2"/><path d="m1752 952v-10h-11c-5.5-.5-15.5-1-20-1h-17-17c-4.5-.5-13-1-17-1h-17c-4.5 0-13 .5-17 1h-17-18-17c-4-.5-12-1-16-1h-18c-4.5 0-13 .5-17 1h-17-17-17-18-17-18-17c-4-.5-12-.5-16 0h-17c-4.5 0-10-2.5-11-5-1-3 0-8.5 2-11 2-2.5 6-2.5 8 0 2 2 7.5 5 11 6 3.5.5 11.5 1 16 1h18 17 18 17 17 18 17 18 17 17 18 17 18 17 17 18 17 18 21 12v-13-23-17-17-18-17-18-17-17-18-17-18-17-17-18-17-18-17-17-18-17-18-17-17-18-17-18-17-17-18-17-18-17-17-18-17-18-17-17-18-17-18-17-17-18-17-18-17-17-18-17-18-17-9h-8-18-17-18-17-17-18-17-18-17-17-18-17-18-17-17-18-17-18-17-17-18-17-18-17-17-18-17-18-17-17-18-17-18-17-17-18-17-18-17-17-18-17-18-17-17-17-9l2 8c.5 3.5 2.5 10 4 13 1.5 3 2 6.5 1 7-1 0-3.5-2.5-5-5-1.5-3-4-9-5-12-1.5-3.5-3-8-3-9v-2h-3-4l3 10c1 4.5 1 9.5 0 10-1 0-.5 3 1 6 1 3 3.5 9 5 12 1.5 3 2.5 6 2 6-1 0-4-1.5-6-3-2-1.5-5.5-5-7-7-2-2-5.5-6.5-7-9l-8-10c-2-2.5-5.5-4-7-3-1.5.5-1 3.5 1 6l8 10c2 2 6 6.5 8 9l8 8c2 2 6 6.5 8 9 1.5 2.5 5 7.5 7 10l8 10c2 2 6 6.5 8 9l9 9c2 2 6 6.5 8 9l9 9 4 4-2-5c-1.5-2.5-3-7.5-3-10-.5-2.5 2-4 5-3 3 1 8.5 4 11 6 2 2 6 7 8 10 1.5 2.5 4.5 8 6 11 1 3 3.5 9 5 12 1 3 3.5 9.5 5 13 1 3 3 9.5 4 13 .5 3.5 2 10.5 3 14 1 3.5 3 10 4 13 .5 3 2 9.5 3 13 .5 3.5 1 11.5 1 16-.5 4-2 11-3 14-1.5 3-4 9.5-5 13-1 3.5-3 10-4 13-1.5 3-4 9-5 12l-6 12c-2 2.5-6 7-8 9l-10 8c-3 1.5-6.5 2.5-7 2-.5-1-.5-3 0-4l1-3-5 4c-3 1.5-8.5 5-11 7-2.5 1.5-6.5 5.5-8 8-1.5 2.5-3.5 8-4 11-1 3-.5 5.5 1 5 1.5-1 5.5-4 8-6 2.5-2 8-5.5 11-7 2.5-1.5 8-3.5 11-4l5-2-5 4-10 6c-3 1.5-8.5 5-11 7-2.5 2-6.5 7-8 10-1.5 2.5-4 8.5-5 12-1.5 3-2 9.5-1 13 1 3 2.5 10 3 14 0 4-.5 12-1 16-.5 4-.5 12 0 16 0 4 .5 12.5 1 17 0 4-1 10-2 12-1.5 2-3 8.5-3 13 0 4-1 11.5-2 15-1 3.5-3.5 10-5 13-1.5 2.5-5 3.5-7 2-2-1.5-6-5-8-7-2-2.5-5-8-6-11l-6-12c-1.5-3-4-9-5-12l-4-14c-1-3.5-2.5-10.5-3-14-1-3.5-3-10-4-13-1.5-3-4-9-5-12-1.5-3.5-4.5-9.5-6-12-1.5-3-5-8.5-7-11-2-2.5-5.5-7.5-7-10-2-2.5-6-7-8-9-2.5-2-7.5-5.5-10-7-3-2-8.5-2-11 0-2.5 1.5-5.5 7-6 11-1 3.5-2.5 11-3 15l-2 14c-1 3.5-1.5 10.5-1 14 .5 3.5 2.5 10 4 13 1 3 3 9.5 4 13 .5 3 2 9 3 12 .5 3 2.5 9 4 12l2 6-3-2c-2-1.5-5.5-5.5-7-8-1.5-3-4.5-8.5-6-11-2-3-6-8-8-10-2-2.5-5.5-7.5-7-10-2-2.5-2.5-5.5-1-6 1-1 0-4-2-6-2-2.5-4-6-4-7-.5-1.5-3.5-4.5-6-6-3-1.5-8.5-4.5-11-6-3-1.5-9-4-12-5-3.5-1.5-10-3.5-13-4-3.5-.5-10.5-.5-14 0-4 0-10.5 2-13 4-2.5 1.5-6.5 6-8 9-1.5 2.5-3.5 9-4 13-.5 4-1 12-1 16-.5 4-.5 12.5 0 17 0 4 .5 12 1 16 .5 3.5 2 10.5 3 14 1 3 2 10.5 2 15 0 4.5-.5 12.5-1 16-1 3.5-1.5 10.5-1 14 .5 3.5 0 10-1 13-1.5 3-2.5 7.5-2 9 .5 1 2.5 2.5 4 3 1 0 4.5 2 7 4 2.5 1.5 8 4.5 11 6 3 1.5 8.5 5 11 7 2 2 6 6.5 8 9l9 9c2 2 6 6.5 8 9l9 9c2 2 6.5 6 9 8 2 2 6 6.5 8 9 2 2 6 7 8 10 1.5 2.5 4.5 8 6 11 1.5 2.5 5 8 7 11 1.5 2.5 5 7.5 7 10 1.5 2.5 5 6.5 7 8 1.5 1.5 6 4.5 9 6 2.5 1 5-1.5 5-5 0-4-.5-11.5-1-15-1-4-1.5-12-1-16 0-4 .5-11.5 1-15 .5-4 1-11.5 1-15-.5-4 0-11 1-14 1-3.5 5-8.5 8-10 3-1.5 7.5-2.5 9-2 1.5 0 1 2.5-1 5-2 2-4.5 8-5 12-1 3.5-1 10.5 0 14 .5 3.5 1 11.5 1 16l-2 16-2 14c-1 3.5-2 11.5-2 16-.5 4-1.5 11.5-2 15-1 3.5-3.5 10-5 13-2 2.5-5.5 7.5-7 10l-8 10c-2 2-6.5 6-9 8-2.5 2-7.5 5.5-10 7l-12 6-12 6c-3 1-8.5 3.5-11 5-3 1.5-9.5 4-13 5-4 .5-10 0-12-1-2-1.5-4-4-4-5-.5-1.5 2.5-2 6-1 3 1 7.5.5 9-1 1-1.5 0-5.5-2-8-2-2.5-6-7-8-9-2-2.5-6.5-7-9-9-2.5-2-6.5-6.5-8-9-2-2.5-5.5-7.5-7-10l-4-5 3 1c1.5.5 5 3.5 7 6l9 9c2 2 6.5 6 9 8l8 8 4 4-4-5c-2-3-6.5-7.5-9-9-2.5-2-7-6.5-9-9l-4-5 4 1c1.5.5 5.5 3 8 5 2 2 6 5 8 6 1.5.5 2.5-1.5 2-4l-2-5 6 4c2.5 1.5 7.5 5 10 7 2 2 6 5 8 6 2 .5 4 .5 4 0 0-.5-1.5-3.5-3-6-2-2.5-5.5-7-7-9-2-2.5-3.5-6-3-7 0-1 3-.5 6 1l5 3-4-5c-2-2.5-6-7-8-9-2.5-2-6.5-6-8-8l-4-5 7 2c3 1 9 3.5 12 5 2.5 1.5 7.5 5.5 10 8 2 2 6 6.5 8 9 2 2 6.5 4.5 9 5 2.5.5 6-1 7-3 .5-2-.5-6.5-2-9l-6-12c-1.5-3-4.5-8.5-6-11-1.5-3-5-8.5-7-11-2-2.5-6-7-8-9-2-2.5-5.5-7.5-7-10-2-2.5-6-7-8-9l-9-9c-2-2.5-6-7-8-9l-9-9c-2.5-2-7-5.5-9-7-2.5-1.5-7.5-3-10-3-2.5 0-7-2-9-4-2.5-2-7.5-3.5-10-3-3 0-6 3.5-6 7-.5 3.5-.5 11 0 15 .5 3.5 1.5 11 2 15 .5 4 1 12 1 16-.5 4-.5 11.5 0 15 0 3 1 9.5 2 13 .5 3.5 2.5 10 4 13 1.5 2.5 5 8 7 11 1.5 2.5 4.5 8 6 11 1.5 2.5 4.5 8.5 6 12 1 3 2 9 2 12 0 2.5.5 8.5 1 12 .5 3 2 8 3 10 1 2 5 5.5 8 7l6 2-7 2c-4 .5-11.5.5-15 0-4-.5-10.5-2-13-3l-6-2 9 1c4 0 7.5-2.5 7-5-1-2.5-2-9-2-13-.5-4.5-1.5-12-2-15-1-3-3.5-8.5-5-11l-8-10c-2-2.5-6-7-8-9-2-2.5-6-3-8-1-2.5 1.5-5 7-5 11l-2 16c-.5 3.5-.5 11 0 15 .5 4 2.5 11 4 14 1 3 .5 9-1 12-2 2.5-1 6 2 7 3 .5 9.5 2 13 3 3.5.5 11 1.5 15 2 4 .5 12 .5 16 0 3.5-.5 11-1.5 15-2l14-4 12-4c3-1.5 9-4.5 12-6l12-6c2.5-1.5 8-4.5 11-6l10-8c2-2 6.5-6 9-8 2-2 6-6.5 8-9 2-2.5 6-7 8-9l8-10c2-2.5 5.5-7.5 7-10 1.5-3 4.5-8.5 6-11 1.5-3 5-8.5 7-11l6-12c1-3 3.5-9 5-12 1-3.5 3-10 4-13 1-3.5 3.5-9.5 5-12 1.5-3 4-9.5 5-13 1-3.5 3.5-10 5-13 1-3 4-8.5 6-11 1.5-3 4.5-8.5 6-11 1.5-3 5-8.5 7-11 1.5-2.5 5-7.5 7-10l8-10c1.5-2.5 5-7.5 7-10 2-2.5 6-7 8-9 2-2.5 6.5-7 9-9 2-2 6.5-6 9-8 2-2.5 6.5-7 9-9 2-2 7-5.5 10-7 2.5-2 7.5-5.5 10-7 2.5-2 8-5.5 11-7 2.5-1.5 8.5-4 12-5 3-1.5 9-4 12-5 3-1.5 10-3.5 14-4 3.5-1 10.5-1.5 14-1 3.5 0 10.5 1 14 2 3.5.5 10 3 13 5 2.5 1.5 7.5 5 10 7l9 9c2 2 6 6.5 8 9 2 2 6 6.5 8 9 1.5 2.5 4 9 5 13 .5 3.5 2 10.5 3 14 .5 3.5 1.5 11.5 2 16 0 4 .5 12 1 16 .5 3.5 2 10.5 3 14 .5 3.5 1.5 11.5 2 16 0 4 .5 12 1 16 .5 3.5 1.5 11.5 2 16 0 4 .5 12 1 16 .5 3.5 1.5 11 2 15v17c0 4.5 1 12.5 2 16 .5 3.5 2.5 10 4 13 1.5 3 5 8 7 10 2 1.5 7.5 4 11 5 3.5.5 11.5 1 16 1h18 17 18 17 17 18 17c4-.5 11.5-1 15-1 3.5-.5 10.5-1 14-1 3.5-.5 10.5 0 14 1 3.5 1 11 2.5 15 3 3.5.5 11.5 1 16 1 4.5 0 13 .5 17 1 3.5.5 10 2.5 13 4 3 1 9 4 12 6 2.5 1.5 4.5 6 4 9-1 3-3.5 9-5 12-2 2.5-4 9-4 13-.5 4-.5 12 0 16 0 4-.5 12-1 16-1 3.5-3 10-4 13l-6 12-6 12c-1.5 2.5-4.5 8-6 11-1.5 2.5-4.5 8-6 11-1.5 3-4 9-5 12-1.5 3-4 9.5-5 13l-6 12-6 10c-2 2.5-5.5 8-7 11-2 2.5-5.5 8-7 11-1.5 2.5-4 8.5-5 12-1.5 3-3.5 9.5-4 13-1 3.5 0 9.5 2 12 2 2 8 4.5 12 5 4 .5 11.5.5 15 0 3-.5 10.5-1 15-1h18 17c4 0 12 .5 16 1 4 .5 12.5 1 17 1h17c4-.5 12-.5 16 0 4 0 12-.5 16-1 3.5-.5 11.5-1 16-1 4.5 0 13 .5 17 1 4 0 12.5.5 17 1h17 16 16 18 17 18 15c3.5-.5 11.5-.5 16 0 4 0 12 .5 16 1 4 0 13 .5 18 1l9 1" id="6" style="fill:#fff;stroke:#fff;stroke-width:1.2"/><path d="m1752 942v-10h-12-21-18-17-18-17-17-18-17-18-17-17-18-17-18-17-17-18-17-18c-4.5 0-12.5-.5-16-1-3.5-1-9-4-11-6-2-2.5-6-2.5-8 0-2 2.5-3 8-2 11 1 2.5 6.5 5 11 5h17c4-.5 12-.5 16 0h17 18 17 18 17 17 17c4-.5 12.5-1 17-1h18c4 0 12 .5 16 1h17 18 17c4-.5 12.5-1 17-1h17c4 0 12.5.5 17 1h17 17c4.5 0 14.5.5 20 1h11" id="7" style="fill:#000;stroke:#000;stroke-width:1.2"/><path d="m1739 1034l-6-5 1 1 1 3c.5 1 2 2 3 2l1-1" id="8" style="fill:#000;stroke:#000;stroke-width:1.2"/><path d="m1721 1031l-6 5 2-1c.5-.5 2-1.5 3-2l1-2" id="9" style="fill:#fff;stroke:#fff;stroke-width:1.2"/><path d="m1712 1030c-5 3-9 6.5-11 9-2 2-3.5 4-3 4 .5 0 3.5-2 6-4 2-2 5-5 6-6l2-3" id="A" style="fill:#fff;stroke:#fff;stroke-width:1.2"/><path d="m1695 1021c-6.5-6-10-7.5-11-7-1.5 0-1 2.5 1 5 2 2 5 6.5 6 9 1 2.5 2.5 6 3 7 .5.5 1-2.5 1-6v-8" id="B" style="fill:#fff;stroke:#fff;stroke-width:1.2"/><path d="m1694 1052c-4.5-6.5-8-10.5-10-12-2-1.5-4-1.5-4 0 0 1 2 5 4 8 1.5 2.5 1.5 6 0 7-1.5.5-4 1-5 1l-2-1 3 5c1.5 2.5 5 7 7 9 2 1.5 5-2 6-7l1-10" id="C" style="fill:#fff;stroke:#fff;stroke-width:1.2"/><path d="m1691 1062l-3 4 2-2 1-2" id="D" style="fill:#000;stroke:#000;stroke-width:1.2"/><path d="m1677 919h-26c-4.5 0-12.5.5-16 1-4 .5-12 1-16 1-4.5-.5-12.5-1-16-1h-15-17-17-17c-4.5 0-13 .5-17 1-4 .5-11 1.5-14 2l-7 1 9 1h17 17 17 18 17c4.5 0 13-.5 17-1 3.5-.5 11.5-1 16-1h17c4.5 0 13-.5 17-1 3.5-.5 11.5-.5 16 0h8l-4-1-4-2" id="E" style="fill:#000;stroke:#000;stroke-width:1.2"/><path d="m1680 1094l-2-3 1 2 1 1" id="F" style="fill:#fff;stroke:#fff;stroke-width:1.2"/><path d="m1672 1078c-5-6-7-10-7-12v-5l-2 4c-1 2 .5 6 3 8 2 2 4.5 4.5 5 5h1" id="G" style="fill:#fff;stroke:#fff;stroke-width:1.2"/><path d="m1665 1085c-5-7.5-8-12.5-9-15-1.5-3-4-5-5-4-1 .5-1.5 3-1 5 0 2 2.5 6.5 5 9 2 2 6 6.5 8 9 2 2 2 6.5 0 9l-4 5 3-1c1.5-1 3-5.5 3-9v-8" id="H" style="fill:#fff;stroke:#fff;stroke-width:1.2"/><path d="m1661 1054l-4 5 2-2 2-3" id="I" style="fill:#fff;stroke:#fff;stroke-width:1.2"/><path id="J" d="m1650 1091h-1 1" style="fill:#fff;stroke:#fff;stroke-width:1.2"/><path d="m1643 1085c-3.5-7.5-7.5-10.5-10-11-3-.5-6.5-.5-7 0-1 0 0 2.5 2 5 2 2 5.5 4.5 7 5 1.5 0 4.5.5 6 1h2" id="K" style="fill:#fff;stroke:#fff;stroke-width:1.2"/><path d="m1634 967c-8-3-10.5-3-10-2 0 1 2.5 2 5 2h5" id="L" style="fill:#fff;stroke:#fff;stroke-width:1.2"/><path d="m1566 971l-12-3 2 1c.5.5 3.5 1.5 6 2h4" id="M" style="fill:#fff;stroke:#fff;stroke-width:1.2"/><path d="m1556 1174l-4 2h2 2v-1-1" id="N" style="fill:#000;stroke:#000;stroke-width:1.2"/><path d="m1495 922c-9-2-16-3-20-3h-9l3 2c1 .5 6 1.5 10 2h12l4-1" id="O" style="fill:#000;stroke:#000;stroke-width:1.2"/><path d="m1406 774l-4 3 2-1 2-2" id="P" style="fill:#fff;stroke:#fff;stroke-width:1.2"/><path d="m1390 1142c-11 2.5-18 4.5-21 6-3 1-9.5 2.5-13 3l-16 2c-4.5 0-13 .5-17 1-4 0-12 .5-16 1-4 .5-12 1-16 1-4.5 0-13 .5-17 1h-17-17-18-17-17-17c-4.5-.5-13-1-17-1-4-.5-12-1-16-1-4.5-.5-13-1-17-1h-17c-4-.5-12-1-16-1-4.5-.5-12.5-1.5-16-2l-16-2c-4-.5-11.5-1.5-15-2-3.5-1-10.5-2.5-14-3-3.5-1-10.5-2.5-14-3-4-1-11.5-2.5-15-3-3.5-1-7.5 0-8 2-1 1.5 1.5 4 5 5 3 1 10 2.5 14 3 4 0 12 1 16 2 3.5.5 9 3.5 11 6 1.5 2.5 4 9 5 13l1 7h8 13 5v-1c-.5-.5-.5-1.5 0-2 0-1 2-.5 4 1l3 2h12 20 17 18 17 17 18 17 18 17 17 18 17 13 3v-1c-.5-1 0-2.5 1-3 1-.5 4-1 6-1h3-1c-.5 0-1.5.5-2 1-.5.5-1 2-1 3l-1 1h4 4l1-1c0-.5.5-1.5 1-2 0-.5 1.5-2 3-3 1-1.5 2.5-2.5 3-2h4c1.5 0 2.5.5 2 1-.5.5-1 2-1 3-.5.5-1 2-1 3v1h5 7 1l1-6c.5-3.5 4-8.5 7-10 2.5-2 8.5-4.5 12-5 3.5-1 10.5-2.5 14-3 3.5-1 6.5-4 6-6l-2-4" id="Q" style="fill:#fff;stroke:#fff;stroke-width:1.2"/><path d="m1397 1117c-10.5-2-17.5-3.5-21-4-4-1-11.5-2.5-15-3-3.5-1-10.5-2.5-14-3-4-.5-12.5-1-17-1h-16c-4 0-11 1.5-14 3-3 1.5-6 6-6 9 0 2.5 2.5 6.5 5 8 2 1.5 2 4 0 5l-4 2 3 1c1 .5 6.5 1 11 1 4.5 0 13-.5 17-1 3.5-.5 11-1 15-1 4-.5 12-1.5 16-2 4-.5 12-1.5 16-2 3.5-.5 11-1.5 15-2 4-.5 8.5-3 9-5v-5" id="R" style="fill:#fff;stroke:#fff;stroke-width:1.2"/><path d="m1395 822l-3 4 2-2 1-2" id="S" style="fill:#fff;stroke:#fff;stroke-width:1.2"/><path d="m1384 1171c-1.5-1.5-4-1.5-6-1-2.5.5-5 2.5-5 4l-1 2h5 5c0-.5.5-2 1-3l1-2" id="T" style="fill:#fff;stroke:#fff;stroke-width:1.2"/><path d="m1367 965c-10.5-.5-18-.5-22 0-4 .5-10 3-12 5-2.5 2-7 6.5-9 9-2 2-5.5 7-7 10-2 2.5-5 8.5-6 12-1 3-1.5 7-1 8 0 .5 2-1 4-3 2-2.5 5.5-7.5 7-10 1.5-3 5-8.5 7-11 2-2.5 7-6.5 10-8 2.5-1.5 9-3.5 13-4 3.5-1 10.5-2.5 14-3l7-2-2-1-3-2" id="U" style="fill:#fff;stroke:#fff;stroke-width:1.2"/><path d="m1367 1120c-10.5-2-18-3.5-22-4-4-.5-12-1-16-1-4.5 0-12.5-.5-16-1-3.5-1-10-.5-13 1-3.5 1-4.5 4-2 6 2 2 8 4.5 12 5l16 2c4 0 12 .5 16 1h17c4-.5 8-3 8-5v-4" id="V" style="fill:#000;stroke:#000;stroke-width:1.2"/><path d="m1367 778h-26c-4.5 0-12.5 1-16 2-3.5.5-11 1-15 1h-18c-4.5 0-13 .5-17 1h-8l4 1c2 .5 8 .5 12 0 3.5-.5 10.5 0 14 1 3.5.5 11 .5 15 0 4-.5 12-1.5 16-2 3.5-.5 11-1 15-1 4 0 12 .5 16 1 4 0 8-1 8-2v-2" id="W" style="fill:#fff;stroke:#fff;stroke-width:1.2"/><path d="m1355 828c-.5-6-4.5-8-8-8-4-.5-12-.5-16 0-4 0-12 .5-16 1-4 0-11.5 1-15 2-4 .5-11 2-14 3-3.5 1-11 2.5-15 3-4.5 0-12.5-.5-16-1-4-.5-11.5-1.5-15-2-3.5-1-11-2-15-2-4.5-.5-12-.5-15 0-3.5.5-7 1.5-7 2h-1l4 4c2 2 4.5 6.5 5 9 0 2.5-1.5 8-3 11l-3 5 6-2c2.5-1.5 9-3 13-3 4-.5 11.5-1.5 15-2l14-2c3.5-1 10.5-1.5 14-1 3.5 0 11 .5 15 1 4 .5 11.5.5 15 0 3.5-1 10.5-2.5 14-3 3-1 9-.5 12 1 2.5 1.5 9 2.5 13 2 3.5-.5 10.5-2 14-3 3-1.5 6-6 6-9l-1-6" id="X" style="fill:#fff;stroke:#fff;stroke-width:1.2"/><path d="m1342 1168h-7c-.5-.5-2 .5-3 2-1.5 1-3 2.5-3 3-.5.5-1 1.5-1 2l-1 1h6 6v-1c0-1 .5-2.5 1-3 0-1 .5-2.5 1-3l1-1" id="Y" style="fill:#000;stroke:#000;stroke-width:1.2"/><path d="m1325 926c-4.5-8-6-13-6-15-.5-2.5 1.5-6.5 4-8 2.5-2 3-4.5 1-5-2-1-7-.5-10 1-3.5 1-10 3.5-13 5-3 1-8.5 3-11 4-3 .5-9 .5-12 0l-14-2c-3.5-1-10-2.5-13-3-3-.5-9-2-12-3-3.5-1-11-2.5-15-3-4-.5-11-2-14-3-3.5-1-8-5-9-8-1.5-3-3.5-10-4-14-.5-4-.5-12 0-16 0-4 .5-12 1-16 0-4.5 1-10 2-11l2-3-6 3c-3 1-7 5.5-8 9-1.5 3-3 10-3 14-.5 4-1 12.5-1 17 0 4.5.5 13 1 17 .5 3.5 2 10.5 3 14 .5 3.5 2 10.5 3 14 1 3.5 3.5 4.5 5 2 1-2.5 3.5-8 5-11 1.5-3 4.5-6 6-6 1 0 6 .5 10 1h8l-5 3c-3 1-8.5 4-11 6-2.5 1.5-6 6-7 9-1 3 .5 7 3 8l4 1 9 2 16 2c4 .5 12 .5 16 0 3.5-.5 11-1.5 15-2 4-.5 12-.5 16 0h15c3.5-.5 11 0 15 1 3.5.5 10.5.5 14 0l6-1-3-1-3-2" id="Z" style="fill:#fff;stroke:#fff;stroke-width:1.2"/><path d="m1324 1171c-5 0-8 .5-9 1-1 .5-1.5 2-1 3v1h3 2l1-1c0-1 .5-2.5 1-3 .5-.5 1.5-1 2-1h1" id="a" style="fill:#000;stroke:#000;stroke-width:1.2"/><path d="m1300 897c-8 1.5-14.5 2.5-18 3l-8 1 7 3c3 1 8.5.5 11-1 2.5-2 6-4.5 7-5l1-1" id="b" style="fill:#fff;stroke:#fff;stroke-width:1.2"/><path id="c" d="m1279 980h-5 3 2" style="fill:#fff;stroke:#fff;stroke-width:1.2"/><path d="m1275 915c-6.5-3-12-4.5-15-5-3.5-.5-7 .5-7 2-.5 1 2.5 3 6 4 3.5.5 9.5.5 12 0l4-1" id="d" style="fill:#000;stroke:#000;stroke-width:1.2"/><path d="m1253 981c1 4 0 7-1 9-1 1.5-5.5 4-9 5-3.5.5-9.5 2-12 3-3 .5-8.5 1.5-11 2-3 .5-8 .5-10 0-2-.5-5.5-3-7-5l-8-8c-2-2.5-5.5-7.5-7-10-2-3-5-9-6-12-1-3.5-2.5-11-3-15-.5-4-1.5-11.5-2-15-.5-4-2-11-3-14-1.5-3-5.5-8-8-10-2.5-2-7.5-5.5-10-7-3-1.5-9.5-3.5-13-4-4-1-10-4-12-6-2-2.5-5-8-6-11-1.5-3-3.5-10-4-14-.5-4-1-12-1-16 0-4.5.5-13 1-17 .5-4 2-11 3-14 1-3.5 3.5-10 5-13 1-3 2-8.5 2-11 0-2.5-2-6-4-7-2-1.5-3.5-4.5-3-6l1-3h-15c-7.5-.5-19-1-23-1-4-.5-12-1.5-16-2-4-.5-12-1-16-1l-16-2c-4-.5-11.5-1.5-15-2-4-.5-12-1-16-1-4-.5-12-1.5-16-2-4-.5-11.5-1.5-15-2-3.5-1-9.5-3.5-12-5-3-2-7-7-8-10-1-3.5-3.5-9.5-5-12-1.5-3-4.5-9-6-12-1.5-3-3-9-3-12-.5-3 1.5-8 4-10 2.5-2 8-5 11-6 3-1.5 9.5-3.5 13-4l14-4 14-4c3-1 10.5-2 15-2h18c4 0 11.5 1 15 2 3.5.5 10.5 2.5 14 4 3 1 10 2.5 14 3 3.5.5 11.5 1 16 1 4-.5 12.5-1 17-1h17 17c4.5 0 11.5-1 14-2l5-3h-8l-9-1 5-3c2-1.5 4.5-6.5 5-10v-15c-.5-4.5-1.5-12.5-2-16-.5-4-1-12.5-1-17v-17c-.5-4-1-12-1-16 0-4.5-.5-12.5-1-16-1-4-2.5-11.5-3-15-.5-4-1.5-11.5-2-15-1-4-2.5-11.5-3-15-1-3.5-2.5-10.5-3-14-.5-4-2-11-3-14-1.5-3.5-4.5-9.5-6-12-2-2.5-7-6.5-10-8-3-1.5-9.5-3-13-3-4 0-11.5.5-15 1-4 .5-11.5 2-15 3-4 .5-11 2-14 3-3.5 1-10 3.5-13 5-3 1.5-8.5 4.5-11 6-3 1.5-8.5 5-11 7-2.5 1.5-7.5 5-10 7-2.5 2-7 6.5-9 9-2 2-6 6.5-8 9-2 2.5-6 7.5-8 10-2 2-5.5 6.5-7 9-2 2.5-5.5 8-7 11-2 2.5-5.5 8-7 11-1.5 2.5-4.5 8-6 11-1.5 3-4.5 9-6 12-1.5 2.5-4 8-5 11-1.5 3-4.5 9-6 12-1.5 3-4.5 9-6 12-1.5 2.5-4 8.5-5 12-1.5 3-4 9-5 12l-6 12c-1.5 2.5-4.5 8-6 11-2 2.5-5.5 7.5-7 10-2 2.5-5.5 8-7 11-2 2.5-6 7.5-8 10-2 2-6.5 6-9 8l-5 3 1-3c0-2 2-6.5 4-9 1.5-2.5 5-7.5 7-10 2-2.5 6-7.5 8-10 1.5-2.5 4.5-7.5 6-10 1.5-3 5-8.5 7-11 1.5-3 4.5-9 6-12 1-3 3.5-9 5-12 1.5-3 4-9 5-12 1-3.5 3.5-9.5 5-12 1.5-3 4.5-9 6-12 1-3.5 3.5-9.5 5-12l6-12c1-3.5 3.5-9.5 5-12 1.5-3 4.5-8.5 6-11 1.5-3 5-8.5 7-11l8-10c1.5-2.5 5.5-7 8-9 2-2.5 6-7 8-9 2-2.5 6.5-7 9-9 2-2 6.5-6 9-8 2.5-2 7.5-5.5 10-7 2.5-2 8-5.5 11-7 3-1.5 9-4.5 12-6 2.5-1.5 8.5-4 12-5 3-1 10-2.5 14-3 3.5-1 10.5-2 14-2 3.5-.5 8-2.5 9-4 1-1.5-1-3-4-3-3.5 0-10.5 1-14 2-3.5.5-10.5 2-14 3-3.5 1-10 3.5-13 5-3 1-8.5 3.5-11 5-3 1.5-9 4.5-12 6-3 1.5-8 5-10 7-2.5 2-7.5 6-10 8-2.5 2-7 6-9 8-2.5 2-6.5 6.5-8 9-2 2.5-6 7.5-8 10-2 2.5-5.5 7.5-7 10-2 2.5-6 7.5-8 10-2 2.5-5.5 8-7 11-1.5 2.5-4.5 8-6 11-1.5 2.5-4.5 8-6 11-2 2.5-5.5 8-7 11-1.5 2.5-4 8.5-5 12-1.5 3-4.5 9-6 12-1.5 2.5-4 8.5-5 12-1 3-3.5 9-5 12-1.5 3-4.5 9-6 12-1.5 2.5-4.5 8-6 11-1.5 3-4.5 9-6 12-1.5 2.5-4.5 7.5-6 10-2 2.5-5.5 8-7 11-2 2.5-5.5 7.5-7 10-2 2.5-6 7.5-8 10-2.5 2-7 6.5-9 9-2 2-6 6-8 8l-10 8c-3 1.5-8.5 5-11 7-2.5 1.5-7.5 5-10 7-3 1.5-8.5 4.5-11 6-3 1.5-9 4-12 5-3.5 1-10.5 3-14 4-4 .5-11.5 2-15 3-3.5.5-11.5 1-16 1h-17c-4-.5-11.5-1.5-15-2-4-.5-11.5-1.5-15-2-4-1-10.5-3.5-13-5-3-1.5-8-5.5-10-8-2-2.5-3.5-8.5-3-12 .5-4 2-11 3-14 1-3.5 2.5-11 3-15 .5-4 1-12 1-16 0-4.5-.5-13-1-17-.5-4-.5-11.5 0-15 0-3.5 1.5-10 3-13 1-3 4-8.5 6-11 1.5-3 4-9 5-12 1-3.5 2.5-11 3-15v-17c-.5-4-1.5-11.5-2-15-1-3.5-2.5-11-3-15-.5-4-.5-12 0-16 0-4 .5-12 1-16 .5-4 2.5-11 4-14 1-3 3-9 4-12 1-3.5 3.5-10 5-13l4-14c.5-3.5 1.5-11 2-15 0-4.5-.5-12.5-1-16-1-3.5-2.5-10.5-3-14-.5-4-1-12-1-16-.5-4.5-.5-12.5 0-16 .5-4 2-11.5 3-15 .5-4 1-12 1-16v-17c-.5-4-1.5-12-2-16-.5-4-1.5-11.5-2-15-.5-4-1-12-1-16 0-4 1-11.5 2-15 .5-3.5.5-10.5 0-14-.5-4-2.5-11-4-14-1.5-3-4.5-8.5-6-11-2-2.5-6-7-8-9-2.5-2.5-7.5-6.5-10-8-3-1.5-8.5-4.5-11-6-3-1.5-10-3.5-14-4l-8-1 3 2c1.5.5 6 2.5 9 4 3 1.5 8 5.5 10 8 2 2 6.5 6 9 8 2 2 6.5 6 9 8 2.5 2 7 6.5 9 9 2 2 5.5 7.5 7 11 1 3 1 9 0 12l-3 6-1-7c-1-3.5-4-9-6-11-2.5-2.5-7.5-6.5-10-8-2.5-2-8-5.5-11-7-3-1.5-8.5-4.5-11-6-2.5-2-7.5-5.5-10-7-3-1.5-9-4.5-12-6-3-1.5-8.5-4.5-11-6-3-1.5-9-4-12-5-3.5-1.5-10-4-13-5-3-1.5-9-4-12-5-3-1.5-9-4-12-5-3.5-1.5-10-4-13-5-3.5-1-10-3-13-4-3.5-1.5-10-4-13-5-3-1.5-9-4-12-5-3.5-1-10-3-13-4-3.5-1.5-10-4-13-5-3-1.5-9-4-12-5-3.5-1.5-10-4-13-5-3.5-1-10.5-2.5-14-3-3.5-1-10-2-13-2l-7-1 6 3c2.5 1.5 8.5 4 12 5 3.5 1 10.5 3 14 4 3 1 9 3.5 12 5 3 1 9.5 3.5 13 5 3 1 9 3.5 12 5 3 1 9.5 3 13 4 3.5 1 10 3.5 13 5 3 1 9 3.5 12 5 3 1 9.5 3 13 4 3.5 1 10 3.5 13 5 3 1 9.5 3.5 13 5 3 1 9 3.5 12 5 3 1 9 3.5 12 5 2.5 1.5 8 4.5 11 6 3 1.5 8.5 5 11 7 2.5 1.5 8 4.5 11 6 3 1.5 9 4.5 12 6 2.5 1.5 7.5 5 10 7 2 2 6.5 6 9 8 2.5 2 7 6.5 9 9 2 2 4 7.5 4 11-.5 3.5-1 11.5-1 16-.5 4-.5 12 0 16 .5 3.5 1 11.5 1 16 0 4.5-.5 12.5-1 16-1 3.5-3.5 10-5 13-1.5 2.5-4 8.5-5 12-1.5 3-3 10-3 14 0 3.5 1 11 2 15 .5 3.5 2 10.5 3 14 .5 3.5 2 10.5 3 14 .5 3.5 1 11.5 1 16 0 4.5-1 12.5-2 16-1 3-3 9.5-4 13l-2 7-1-7c-.5-4-.5-12 0-16v-16c-.5-4.5-1.5-12.5-2-16-.5-4-1.5-12-2-16-.5-4-1.5-11.5-2-15-.5-4-1-12-1-16 0-4.5 1.5-12 3-15 1.5-3 4-9 5-12 1-3.5 2-11.5 2-16 0-4.5.5-12.5 1-16v-15c-.5-4-2.5-11-4-14-1.5-3-4-3.5-5-1-1 2-2 8-2 12 0 4-.5 11.5-1 15-1 3.5-2.5 10.5-3 14-1 3.5-2.5 11-3 15-1 3.5-2.5 11-3 15-.5 3.5-.5 11.5 0 16v16c-.5 4-1 12.5-1 17 0 4-.5 12-1 16-1 3.5-3 10.5-4 14-1 3-3 7-4 8-1.5.5-3.5-1.5-4-4-1-2.5-1.5-8.5-1-12 .5-4 1.5-12 2-16v-17-17c-.5-4.5-1-13-1-17 0-4.5-1-12-2-15-1-3.5-4.5-8.5-7-10l-6-4 6-1c2.5-.5 6.5 2 8 5 1.5 3 4 4.5 5 3 .5-1.5 1.5-6.5 2-10 .5-4 2.5-11 4-14 1-3.5 2-11 2-15v-18c0-4.5-2-11-4-13-2.5-2-7.5-4.5-10-5-2.5-1-7.5-1-10 0-3 .5-7 4.5-8 8-1 3-3 9.5-4 13-1 3.5-2.5 10.5-3 14-1 3.5-2.5 10.5-3 14-1 3.5-3 10.5-4 14-1 3.5-2.5 11-3 15-.5 3.5-1 11.5-1 16v18 16l-2 16c-.5 4-1.5 11.5-2 15l-4 14c-1 3.5-3.5 9.5-5 12-2 2.5-6 7.5-8 10-2 2-6 6.5-8 9-2 2.5-4.5 8.5-5 12-1 3.5-1 11 0 15 .5 3.5 2 10.5 3 14 .5 3.5 2 10.5 3 14 .5 3.5 2 11 3 15 .5 3.5.5 11 0 15-.5 3.5-2.5 10-4 13-2 2.5-6 7.5-8 10-2 2-5.5 6.5-7 9-2 2.5-5 8.5-6 12-1.5 3-3.5 10-4 14-.5 3.5-1 11.5-1 16 0 4.5.5 13 1 17 0 4-.5 12-1 16-.5 3.5-3 9.5-5 12-2 2.5-6 6-8 7l-5 2 7-2c3-1.5 8-5 10-7 2-2.5 5-8.5 6-12 .5-3.5.5-11 0-15-.5-4 .5-8.5 2-9 1-.5 3 3 4 7 .5 3.5 2 9.5 3 12 .5 2.5 4 6.5 7 8 2.5 1.5 6.5 6 8 9 1.5 3 2.5 9 2 12-.5 2.5-4 6.5-7 8-3.5 1-10.5 1.5-14 1-3.5-1-10.5-2.5-14-3-4-.5-11-2.5-14-4-3-1.5-9.5-3.5-13-4-4-.5-11-2-14-3-3.5-1.5-10-4-13-5-3.5-1-10-3-13-4-3-1.5-9.5-4-13-5-3.5-1-9.5-3.5-12-5-2.5-2-8-5.5-11-7-3-1.5-9-4-12-5-3-1.5-9-4-12-5-3-1.5-9-4-12-5-3.5-1.5-10-4-13-5-3.5-1-10-3-13-4-3.5-1.5-10-4-13-5-3-1.5-8.5-4.5-11-6-2.5-2-8.5-5-12-6-3.5-1-10-3-13-4-3.5-1-10-3-13-4-3.5-1.5-10-4-13-5-3.5-1-9.5-3.5-12-5-3-1.5-6-6-6-9-.5-3.5.5-9.5 2-12 1.5-3 6-7.5 9-9 3-1.5 7.5-2 9-1 1.5.5 4 2.5 5 4 .5 1.5 4.5 2 8 1 3-1.5 8.5-3.5 11-4l5-2-4 5c-2 2-6.5 6-9 8l-5 4 5-3c2-1.5 7-4.5 10-6 2.5-2 8-5 11-6 3-1.5 8.5-4.5 11-6 2.5-2 7-6.5 9-9l6-12c1-3 2-9.5 2-13-.5-4-2.5-10.5-4-13-1.5-3-4-9-5-12-1.5-3-3-9.5-3-13 0-3.5 2-9.5 4-12 1.5-2.5 6-6.5 9-8 3-1.5 9.5-3.5 13-4 3.5-1 9.5-3.5 12-5l10-8c2-2.5 6-7 8-9 2-2.5 5.5-8 7-11 1.5-3 3-9.5 3-13 0-4-1-11-2-14l-6-12c-1.5-3-3.5-9.5-4-13-1-3.5-1-10.5 0-14 1-3.5 4-9.5 6-12 1.5-2.5 5-7.5 7-10 1.5-2.5 6-6.5 9-8 3-1.5 9-4 12-5 3-1.5 8.5-5 11-7 2.5-2 7.5-5.5 10-7 2.5-2 7-6.5 9-9 1.5-2.5 3-8 3-11-.5-3.5-2.5-9.5-4-12-1.5-3-5-8.5-7-11-2-2.5-5-8-6-11-1-3.5 0-9 2-11 2-2.5 7.5-6 11-7 3-1.5 8.5-5 11-7 2-2 5-2.5 6-1 1 1.5.5 6-1 9-1.5 2.5-3.5 7-4 9l-1 3 4-5c1.5-3 4.5-8.5 6-11l6-12 6-12c1-3 3-8 4-10 .5-2-2.5-4.5-6-5-4-1-11-3-14-4-3-1.5-9.5-4-13-5-3.5-1-10.5-2.5-14-3-3.5-1-9.5 0-12 2-2.5 1.5-7.5 5-10 7-3 1.5-8 5-10 7-2.5 2-7 6.5-9 9-2 2.5-6 7-8 9-2.5 2-7 6-9 8-2.5 2-4.5 6.5-4 9 .5 2.5 2.5 7.5 4 10 1.5 2 5.5 6 8 8l10 8c2.5 1.5 7.5 5 10 7 2 2 6 6.5 8 9 2 2.5 4 8 4 11-.5 3-3.5 5.5-6 5-3-1-9-3-12-4-3-1.5-8.5-3-11-3-2.5-.5-8.5 0-12 1-4 .5-11.5 2-15 3-3.5.5-7.5 4-8 7-.5 3-3.5 6.5-6 7-3 .5-8-1-10-3-2-2.5-5-8-6-11-1.5-3.5-3-10.5-3-14 0-4 1.5-11 3-14 1-3.5 3.5-9.5 5-12 1.5-3 4.5-8.5 6-11 1.5-3 4-9.5 5-13 1-3.5 2-11 2-15-.5-4-.5-12 0-16 .5-4 2-11 3-14 1-3.5 3.5-9.5 5-12 1.5-3 5-8.5 7-11 2-2.5 7-6 10-7 3-1.5 9.5-3.5 13-4l6-2-7-1c-3.5-1-10-1-13 0-3.5 1-10 3.5-13 5l-7 2-3 4c-2 2-5.5 7-7 10-1.5 3-4.5 8.5-6 11l-8 10c-2 2-6 6.5-8 9-2 2.5-5.5 7.5-7 10-2 2.5-5.5 8-7 11-1.5 3-4.5 9-6 12-1.5 2.5-4.5 7.5-6 10l-8 10c-2 2.5-6.5 7-9 9-2.5 1.5-8 4.5-11 6-3.5 1-6 0-5-2 1-2.5 4.5-7 7-9 2-2 6-6.5 8-9 2-2.5 6-7.5 8-10 1.5-2.5 5-7.5 7-10 1.5-3 4.5-8.5 6-11 1.5-3 5-8.5 7-11 1.5-2.5 5-7.5 7-10 2-2.5 6-7 8-9 2-2.5 6-7.5 8-10 2-2.5 6-7.5 8-10 1.5-2.5 6.5-6.5 10-8l7-3 4-4c1.5-2 5.5-6 8-8 2-2 6.5-6 9-8 2.5-2 7.5-5.5 10-7 2.5-2 8.5-5 12-6 3-1 9.5-1 13 0 3.5 1 10.5 3 14 4 3.5.5 11 2 15 3 3.5.5 11 1 15 1h11c2-.5 2-3 0-5-2.5-2.5-6.5-7.5-8-10-2-2.5-5-8-6-11-1.5-3.5-2-10.5-1-14 .5-3.5 2-10.5 3-14 .5-3.5 3.5-9 6-11 2.5-2 8.5-3.5 12-3 3.5 0 11 .5 15 1 3.5.5 11.5 1 16 1 4-.5 11-2 14-3 3-1.5 10-3 14-3 3.5-.5 8.5-4 10-7 1-3 4-8.5 6-11 1.5-2.5 5.5-7 8-9 2.5-2 8.5-4.5 12-5 3.5-1 11.5-2 16-2h18c4 0 12-.5 16-1 3.5-.5 10.5-2 14-3 3.5-1 10-3.5 13-5 2.5-1.5 8-4.5 11-6l10-8c2-2 6-6 8-8 2-2.5 6-9 8-13l3-8h-15-23-17-18-17-18-17-17-18-17-18-17-17-18-17-18-17-17-18-17-18-17-17-18-17-18-17-11-3l6 7c3 3.5 10 8 14 9 3.5.5 11 1.5 15 2 4 0 11.5 1 15 2 3.5 1 11 2.5 15 3 3.5.5 11 1.5 15 2 3.5.5 10.5 2 14 3 3.5 1 10 3.5 13 5 3 1 9 3.5 12 5 3 1.5 9 4.5 12 6 3 1 9.5 3 13 4 3.5.5 10 2.5 13 4 3 1.5 9.5 4 13 5 3 1 9.5 3.5 13 5 3 1 8.5 4 11 6 2.5 1.5 7.5 5 10 7 2.5 1.5 7.5 5.5 10 8 2 2 5.5 7 7 10 1.5 2.5 2.5 13 2 21-.5 8-3 17-5 18-2.5.5-5.5 1-6 1-.5-.5 0-4 1-7 1-3 2-10 2-14-.5-4-3-10-5-12-2-2.5-6.5-6.5-9-8-3-2-8.5-5.5-11-7-3-1.5-9-4-12-5-3.5-1.5-10-4-13-5-3-1.5-9-4-12-5-3.5-1-10.5-2.5-14-3-4-1-11-3-14-4-3.5-1-10.5-2.5-14-3-4-1-11-3-14-4-3-1.5-9-4-12-5-3.5-1-10-3.5-13-5-3-1.5-9.5-3.5-13-4-3.5-1-10.5-2.5-14-3-3.5-.5-10-1-13-1h-7l7 2c3.5.5 10.5 2.5 14 4 3 1 9 3.5 12 5 3 1 9 3.5 12 5 3 1.5 8.5 5 11 7 2.5 1.5 7.5 5 10 7 2.5 1.5 7.5 5 10 7 2.5 2 8 5.5 11 7 3 1 9.5 3 13 4 3.5 1 9 3.5 11 5l4 2-6-2c-3.5-1-10.5-3-14-4-3.5-1-10-2.5-13-3-3-1-9-3-12-4-3.5-1.5-9.5-4.5-12-6-2.5-2-7-6-9-8-2.5-2-7.5-5.5-10-7-3-2-8-4-10-4-2-.5-2.5 2-1 5 1.5 3 5 8.5 7 11 1.5 2.5 5 7.5 7 10 1.5 2.5 4.5 8.5 6 12 1 3 3 9.5 4 13 1 3 1.5 10 1 14-.5 4-2.5 11-4 14-1.5 2.5-5 7.5-7 10-2 2-6 6.5-8 9-2.5 2-8 5-11 6-3.5 1-7-.5-7-3 0-2.5 2.5-7 5-9l8-8c2-2.5 5.5-8 7-11 1.5-3 3-9.5 3-13-.5-3.5-2.5-9.5-4-12-2-3-5.5-8.5-7-11-1.5-3-4.5-8.5-6-11-2-2.5-5.5-8-7-11-1.5-3-4.5-8.5-6-11-2-2.5-6-7-8-9-2.5-2.5-7.5-6.5-10-8-2.5-2-7-6-9-8-2-2.5-6.5-6.5-9-8-3-2-8.5-5.5-11-7-2.5-2-8.5-7.5-12-11l-8-8h-11-20-17-17-18-17-15-7l2 6c1 3 4 8.5 6 11 1.5 2.5 5 8 7 11 1.5 2.5 3.5 6.5 4 8 0 1.5-2 3.5-4 4-2 0-6.5-1.5-9-3-2.5-2-8-5.5-11-7-3-1.5-7-5-8-7-1.5-2-6-5-9-6-3-1.5-9.5-3.5-13-4-4-1-11.5-1-15 0-3.5.5-8 1.5-9 2-1 .5-1.5 2.5-1 4 0 1.5-2.5 5-5 7-2.5 1.5-7.5 5-10 7-2.5 2-5 8-5 12v16c0 4.5 1 12.5 2 16 .5 3.5 2 10.5 3 14 .5 3.5 2 9 3 11 .5 1.5-3 1.5-7 0l-9-3v16 24 18 17 17 10l5 3c2.5 1.5 7.5 5 10 7 2.5 2 7.5 6 10 8 2 2 7 5.5 10 7 2.5 1.5 8 4.5 11 6 3 1.5 8.5 5 11 7 2.5 1.5 7.5 5.5 10 8 2 2 6.5 6 9 8 2 2 6.5 6 9 8 2.5 1.5 7.5 5 10 7 2.5 2 7.5 6 10 8 2 2 6 7 8 10 1.5 2.5 3.5 11.5 4 18 0 6-3 13.5-6 15-3.5 1-8 .5-9-1-1-2-.5-6.5 1-9 1.5-2.5 1.5-7.5 0-10-1.5-3-5-8-7-10-2-2.5-6.5-7-9-9-2.5-2-7.5-5.5-10-7l-10-8c-2.5-2-7-6-9-8-2.5-2-7-6-9-8-2.5-2-7.5-5.5-10-7-3-2-8.5-5.5-11-7-3-1.5-8.5-5-11-7-2.5-2-8-7-11-10l-6-6v14 23 17 18 17 17 18 17 18 17 17 18 17 18 17 17 18 17 18 17 17 18 17 18 17 17 18 17 18 17 17 18 17 18 17 17 18 17 18 17 17 18 17 18 17 17 18 17 18 17 17 18 17 18 14 6h3 11 18 17 18 17 17 18 17 17 18 17 18 17 17 18 17 18 17 17 18 17 18 17 17 18 17 18 17 17 18 17 18 17 17 18 17 18 17 17 18 17 18 17 17 18 17 18 17 17 18 17 18 17 9l-2-10c-1-5.5-2.5-14.5-3-18-1-3.5-2.5-11-3-15-.5-4-1.5-11.5-2-15-.5-4-1-12-1-16v-18c0-4.5.5-13 1-17 0-4 1-11.5 2-15 1-3.5 3-10 4-13 1-3.5 3-10.5 4-14 .5-3.5 1.5-11 2-15l2-16c0-4 1-11 2-14 1-3 3-9 4-12 1-3.5 4.5-9 7-11 2-2 8-4 12-4 3.5-.5 10-2 13-3 3-1.5 10.5-3 15-3 4-.5 12.5-1 17-1h17c4 0 6 2 4 4-2 2-8 4.5-12 5h-17c-4.5 0-13 .5-17 1-4 0-11.5.5-15 1-4 .5-7.5 1.5-7 2 0 0 3 1.5 6 3 3 1 8.5 3 11 4 2 .5 8.5 1 13 1h17c4 0 11-1.5 14-3 2.5-2 8.5-3.5 12-3 3.5 0 9.5 2 12 4 2.5 2 7 6.5 9 9 2 2 6 6.5 8 9 1.5 2.5 5 8 7 11 1.5 2.5 4.5 8 6 11 1.5 2.5 4.5 8.5 6 12 1 3 3 9.5 4 13 1 3 3.5 9 5 12 1.5 2.5 5 7.5 7 10 2 2.5 6.5 7 9 9l10 6c2 1 4 5.5 4 9 0 3-1.5 9-3 12-1.5 2.5-5.5 7-8 9-3 1.5-9.5 4-13 5-3.5.5-10.5 2-14 3-4 .5-12 1-16 1-4.5 0-12.5 1-16 2-3.5.5-10.5 2-14 3-4 .5-11.5 1.5-15 2-4 .5-10.5 1.5-13 2l-5 1 6 3c2.5 1.5 8.5 3 12 3h15c4-.5 12-1 16-1 4-.5 12.5-1 17-1 4.5 0 13-.5 17-1l14-2 14-4c3.5-1 10-3 13-4l12-6c3-1.5 7.5-6 9-9 1-3 3.5-9 5-12 1-3 .5-6-1-6-1.5 0-4 3.5-5 7-1 3-5 7-8 8-3.5.5-6-1-5-3 1-2.5 1-8 0-11-1.5-3-4.5-8-6-10-2-2.5-6-7-8-9-2-2.5-5.5-6-7-7-2-1.5-4.5-5-5-7-.5-2.5-1.5-8.5-2-12-1-3.5-2.5-11-3-15-.5-4-1-11.5-1-15-.5-3.5 0-10.5 1-14 .5-4 2-9.5 3-11 .5-1.5 4-1.5 7 0 2.5 1.5 5.5 5 6 7l1 4 9-2c4.5-1 11-3.5 13-5 2-1.5 8-3 12-3 3.5 0 10.5-.5 14-1 3.5-.5 8-1.5 9-2 1-1 2 1 2 4 0 2.5 2 8 4 11l3 5-4-3c-2.5-1.5-8.5-4-12-5-3.5-1-10.5-2-14-2l-7-1 6 3c3 1 9.5 3.5 13 5 3 1 5.5 5.5 5 9-.5 3-2 7.5-3 9-1 1.5-4 1-6-1-2-2.5-6.5-6.5-9-8-2.5-2-9-4.5-13-5-4-.5-11 .5-14 2-3 1-5.5 3.5-5 5 .5 1.5 3 1.5 5 0 2-2 6-1.5 8 1 2 2 5.5 3.5 7 3 1.5-.5 5.5 1 8 3 2.5 1.5 7.5 5.5 10 8l8 8c1.5 2 4 7 5 10 .5 3 2.5 4 4 2 1.5-2 4.5-6.5 6-9 1.5-3 6-7.5 9-9 2.5-2 8.5-5 12-6 3-1 9.5-2.5 13-3 3.5-1 10-2.5 13-3 2.5-1 8-3 11-4 3-1.5 9-4.5 12-6 2.5-1.5 5-6.5 5-10l-1-7" id="e" style="fill:#fff;stroke:#fff;stroke-width:1.2"/><path d="m1226 788c-2-3-5-4.5-7-5-2-.5-5.5 0-7 1-1.5.5-6.5 2-10 3-3.5.5-9 2-11 3l-5 1 7 1h15c4 0 12 .5 16 1h8l-3-2-3-3" id="f" style="fill:#fff;stroke:#fff;stroke-width:1.2"/><path d="m1209 978c1.5-11 2-18.5 2-22 0-3.5-2-9-4-11-2.5-2-5-3-5-2-.5 1 0 5.5 1 9 1 3.5 2.5 11 3 15 .5 3.5 2 10.5 3 14l2 7-1-5-1-5" id="g" style="fill:#fff;stroke:#fff;stroke-width:1.2"/><path d="m1208 928l1-1-5-1-6-1 5 2 5 1" id="h" style="fill:#fff;stroke:#fff;stroke-width:1.2"/><path d="m1180 781c-12.5 0-21 .5-25 1h-19-11l6 1c2.5.5 9 1 13 1h16c4.5 0 12-.5 15-1l5-2" id="i" style="fill:#fff;stroke:#fff;stroke-width:1.2"/><path d="m1157 946c-9-3.5-15-6-18-7-3.5-1.5-8.5-3.5-10-4l-4-1 5 4c2 2 7.5 5.5 11 7 3 1 9 3.5 12 5 3 1 5.5.5 5-1l-1-3" id="j" style="fill:#000;stroke:#000;stroke-width:1.2"/><path d="m1115 988c-4.5 5.5-6 7.5-6 8v1l3-4 3-5" id="k" style="fill:#fff;stroke:#fff;stroke-width:1.2"/><path d="m1110 1026c-1.5 2.5-1.5 3.5-1 4 .5 0 1-1 1-2v-2" id="l" style="fill:#fff;stroke:#fff;stroke-width:1.2"/><path id="m" d="m1108 1009v-7 4 3" style="fill:#fff;stroke:#fff;stroke-width:1.2"/><path d="m1075 973c-3.5-9-6.5-14.5-8-17-2-3-5-9-6-12-1.5-3-4-6.5-5-7-1.5-.5-1.5 2.5 0 6 1 3 3.5 9 5 12 1.5 2.5 4.5 8 6 11 1.5 3 5 8.5 7 11l3 5-1-4-1-5" id="n" style="fill:#000;stroke:#000;stroke-width:1.2"/><path d="m1074 1176h1l-3-2c-2-1.5-4-2-4-1-.5.5-.5 1.5 0 2v1h3 3" id="o" style="fill:#000;stroke:#000;stroke-width:1.2"/><path d="m1039 728c-12-.5-20-.5-24 0h-9l5 2c2.5.5 9 1.5 13 2h16l7-1-4-1-4-2" id="p" style="fill:#fff;stroke:#fff;stroke-width:1.2"/><path d="m1031 804c1-9-2.5-13-6-14-3.5-1-10-3-13-4-3-1.5-9-3.5-12-4-3-1-9-2.5-12-3l-7-2 6 4c3 1.5 9 5 12 7 2.5 1.5 7 5.5 9 8 2 2 6 6.5 8 9 2 2 7 6 10 8 2.5 1.5 5 0 5-3v-6" id="q" style="fill:#000;stroke:#000;stroke-width:1.2"/><path d="m1030 911c-3.5-9-6.5-15-8-18-1.5-3-4.5-8.5-6-11-1.5-3-4.5-8.5-6-11-1.5-3-4-9.5-5-13-1-3.5-3-10-4-13-1-3.5-3-10-4-13-1.5-3.5-4.5-9.5-6-12-1.5-3-4.5-8.5-6-11-1.5-3-5-8.5-7-11-2-2.5-6-7-8-9-2.5-2-7.5-6-10-8-2.5-2-6.5-6.5-8-9-2-2.5-4.5-3.5-5-2-.5 1 .5 5 2 8 1.5 3 5 8.5 7 11 1.5 2.5 5 8 7 11 1.5 2.5 4.5 8 6 11 1 3 3.5 9 5 12 1.5 2.5 4.5 8 6 11l6 12c1 3 3 9.5 4 13 1 3.5 3.5 10 5 13 1.5 2.5 4.5 8 6 11 1.5 2.5 5 8 7 11 1.5 2.5 4.5 8 6 11 1 3 3.5 9.5 5 13 1 3 .5 9-1 12-1.5 2.5-5.5 6.5-8 8l-5 2h8c4 0 10.5-1.5 13-3 2.5-2 5-9.5 5-15l-1-11" id="r" style="fill:#000;stroke:#000;stroke-width:1.2"/><path d="m1013 200c-2 10.5-4 17.5-5 21-1.5 3-4.5 9-6 12l-6 10c-2 2.5-5.5 8-7 11-2 2.5-6 7.5-8 10-2 2-6 6.5-8 9-2.5 2-7 6.5-9 9-2 2-3 5.5-2 7 1 1 4.5.5 7-1 2.5-1.5 7.5-5 10-7 2-2 6.5-6 9-8 2-2.5 6-7 8-9 2-2.5 5.5-8 7-11 1-3 2-7.5 2-9-.5-2 .5-7 2-10 1-3 3.5-9 5-12 1-3.5 2-10.5 2-14l-1-8" id="s" style="fill:#fff;stroke:#fff;stroke-width:1.2"/><path id="t" d="m998 117h-1 1" style="fill:#fff;stroke:#fff;stroke-width:1.2"/><path d="m980 777h1l-4-1-4-1 4 1 3 1" id="u" style="fill:#000;stroke:#000;stroke-width:1.2"/><path d="m957 543c-5 7.5-8.5 13-10 16-2 2.5-5.5 8-7 11-1.5 2.5-3 6-3 7v1l4-5c1.5-3 4.5-8.5 6-11 1.5-3 5-8.5 7-11 2-2.5 4-5.5 4-6l-1-2" id="v" style="fill:#fff;stroke:#fff;stroke-width:1.2"/><path d="m952 88c-6-6.5-9.5-11.5-11-14-2-3-6-8-8-10-2-2.5-6-7.5-8-10-2-2.5-6-7-8-9-2-2.5-6-7-8-9-2.5-2-7-6-9-8l-9-9c-2-2.5-6.5-8.5-9-12l-5-7h-4-7-4v5c-.5 2 1.5 3 4 2 2.5-1.5 7-1 9 1 1.5 1.5 5 5.5 7 8 2 2 6 6.5 8 9 2 2 6.5 6.5 9 9 2 2 6.5 6 9 8 2 2 5.5 6.5 7 9 1.5 2.5 5 7.5 7 10 2 2 6.5 6 9 8 2 2 6 6.5 8 9l8 10c2 2 4.5 3 5 2v-2" id="w" style="fill:#fff;stroke:#fff;stroke-width:1.2"/><path d="m947 822c-2-10.5-4-17.5-5-21-1-3.5-3-7-4-7-1-.5-1 2.5 0 6 .5 3.5 2 11 3 15 .5 3.5 1.5 11 2 15l1 7 2-7 1-8" id="x" style="fill:#000;stroke:#000;stroke-width:1.2"/><path d="m944 27c-4.5-9-6.5-15.5-7-19l-2-8h-3-3v2c0 1 1.5 5.5 3 9 1 3 3.5 9 5 12 1.5 2.5 4 5 5 5l2-1" id="y" style="fill:#000;stroke:#000;stroke-width:1.2"/><path d="m926 930c-2 10.5-3.5 18-4 22-.5 4-1.5 11.5-2 15-1 3.5-2 11-2 15 0 3.5 1 6 2 5 .5-1.5 2-6.5 3-10 .5-3.5 2-10.5 3-14 1-3.5 3-10 4-13 1-3.5.5-10-1-13l-3-7" id="z" style="fill:#000;stroke:#000;stroke-width:1.2"/><path d="m908 15c1-1.5 0-4-1-6-1-2-2-5-2-6l-1-3h-3-3l1 2c0 1 1 3 2 4 .5.5 2.5 3 4 5 1 1.5 2.5 3.5 3 4" id="10" style="fill:#fff;stroke:#fff;stroke-width:1.2"/><path d="m887 527c-5-7.5-9-12.5-11-15-2-2.5-6-7-8-9-2.5-2-8-5-11-6-3.5-1-5.5 1-4 4 1.5 3 5 8.5 7 11 2 2 6 7 8 10 1.5 2.5 4 8 5 11 .5 3-1 8-3 10-2.5 2-7 6.5-9 9-2 2.5-2.5 6-1 7 1 1 4.5 0 7-2 2.5-2 8-5 11-6 3-1.5 7-8 8-13l1-11" id="11" style="fill:#000;stroke:#000;stroke-width:1.2"/><path d="m887 6v-6h-3-3l1 1c0 .5.5 1.5 1 2 .5.5 2 1.5 3 2l1 1" id="12" style="fill:#fff;stroke:#fff;stroke-width:1.2"/><path d="m871 744c-6.5 6-11.5 10-14 12-3 1.5-8.5 4.5-11 6-3 1.5-8.5 4.5-11 6-3 1.5-8.5 5-11 7l-12 6c-3 1-9.5 3-13 4-3.5 1-10 3-13 4l-14 4c-3.5.5-11 1.5-15 2-4 .5-12 1-16 1-4.5 0-13-.5-17-1-4-.5-12-1-16-1-4-.5-10.5-2.5-13-4-3-1.5-8-5-10-7-2.5-2.5-6-8-7-11-1.5-3-4-4-5-2-1 2-1 7.5 0 11 .5 3.5 1 11 1 15v16c-.5 4-2.5 10.5-4 13-2 2.5-7.5 6-11 7-4 .5-12 1-16 1-4-.5-11.5-1.5-15-2-4-.5-11.5-1.5-15-2-4-1-11.5-2.5-15-3-3.5-1-10.5-2.5-14-3-4-1-11.5-2.5-15-3-3.5-1-10.5-2.5-14-3-3.5-1-10.5-2.5-14-3-4-1-11-3-14-4-3.5-1-10.5-2.5-14-3-4-1-11-3-14-4-3.5-1-10-3-13-4-3.5-1-10.5-2.5-14-3-4-1-11-3-14-4-3.5-1-10-3-13-4-3.5-1.5-10-4-13-5-3.5-1-10-3-13-4-3-1.5-9.5-4-13-5-3.5-1-10-3-13-4-3-1.5-9.5-4-13-5-3.5-1-10-3-13-4-3-1.5-9-4-12-5-3.5-1-10-3-13-4-3.5-1.5-10-4-13-5-3-1.5-9-4-12-5-3.5-1.5-10-4-13-5-3-1.5-9-4-12-5-3.5-1-10-3.5-13-5-3-1.5-9-4-12-5-3-1.5-9.5-4-13-5-3.5-1-9.5-3.5-12-5-3-1.5-9-4-12-5-3-1.5-9-4-12-5-3.5-1.5-10-4-13-5-3-1.5-8.5-4.5-11-6-3-2-9-5-12-6-3-1.5-8.5-4.5-11-6-3-1.5-9-4-12-5-3.5-1.5-9.5-4.5-12-6-3-1.5-8.5-4.5-11-6-3-2-8.5-5.5-11-7-3-1.5-8.5-4.5-11-6-3-1.5-8.5-4.5-11-6-3-2-8.5-5.5-11-7-2.5-2-7.5-6-10-8-2.5-2-6.5-6.5-8-9-1.5-3-1.5-9 0-12 1-3 4-8.5 6-11 1.5-3 5-8 7-10l8-10c1.5-3 4.5-8.5 6-11 1.5-3 4.5-8.5 6-11 1.5-3 5-8.5 7-11 1.5-3 5-8.5 7-11 1.5-2.5 5-7.5 7-10 2-2.5 6-7.5 8-10 1.5-2.5 5-7.5 7-10 1.5-2.5 5-7.5 7-10 2-2.5 5.5-8 7-11 1-3 3.5-9 5-12 1-3.5 3.5-10 5-13 1-3 4-8.5 6-11 1.5-2.5 5-7.5 7-10 2-2.5 6.5-7 9-9 2-2 6.5-6 9-8l8-10c1.5-2.5 4.5-7 6-9l3-5-5 4c-3 1.5-8 5-10 7l-10 8c-2.5 2-7 6-9 8-2.5 2-7 6.5-9 9-2 2-5.5 7-7 10-2 2.5-5 8-6 11-1.5 3-4 9.5-5 13-1.5 3-4 9-5 12l-6 12c-1.5 2.5-5 7.5-7 10-2 2.5-5.5 7.5-7 10-2 2.5-6 7.5-8 10-2 2.5-5.5 7.5-7 10-2 2.5-5.5 8-7 11-1.5 2.5-4.5 8-6 11-2 2.5-5 8-6 11l-6 12-8 10c-2 2-6 6.5-8 9-2 2-4.5 8-5 12-.5 4 0 11.5 1 15 1 3 4 8.5 6 11 2 2.5 6.5 7 9 9 2 2 6.5 6 9 8 2.5 1.5 8 5 11 7 2.5 1.5 8 4.5 11 6 2.5 1.5 8 5 11 7 2.5 1.5 8 4.5 11 6 3 1 9 3.5 12 5 3 1 9 3.5 12 5 3 1.5 9 4.5 12 6 3 1 9 4 12 6 2.5 1.5 8 4.5 11 6 2.5 1.5 8 4.5 11 6 2.5 1.5 8.5 4.5 12 6 3 1 9 3.5 12 5 3 1 9.5 3.5 13 5 3 1 9 3.5 12 5 3 1 9 3.5 12 5 3 1 9.5 3.5 13 5 3 1 9 3.5 12 5 3 1 9 3.5 12 5 3 1 9.5 3.5 13 5 3 1 9 3.5 12 5 3 1 9.5 3 13 4 3.5 1 10 3.5 13 5 3 1 9.5 3 13 4 3 1 9.5 3.5 13 5 3 1 9.5 3 13 4 3 1 9 3.5 12 5 3 1.5 9.5 4 13 5 3 1 9 3.5 12 5 3 1 9.5 3 13 4l14 4c3 1 10 3 14 4 3.5.5 10.5 2 14 3 3 1 9.5 3 13 4 3.5.5 10.5 2.5 14 4 3 1 9.5 3 13 4 3.5.5 11 2 15 3 3.5.5 10.5 2 14 3 3.5.5 10.5 2 14 3 3.5.5 11 1.5 15 2 4 .5 11.5 2 15 3 3 1 9.5 3 13 4 3.5 1 11 2.5 15 3 3.5.5 11 1.5 15 2h17c4-.5 11-2 14-3 3-1.5 8-5.5 10-8 2-2.5 4.5-8.5 5-12 .5-4 3.5-9.5 6-11 2.5-2 9-4.5 13-5 4-.5 12-.5 16 0h17c4-.5 12.5-1 17-1h16c4-.5 11.5-2 15-3l14-4c3-1 9.5-3 13-4 3-1.5 7-2.5 8-2 1 0 4 2.5 6 5 1.5 2.5 5 7.5 7 10 2 2.5 5.5 8 7 11 1.5 2.5 5 7.5 7 10 2 2.5 5 8.5 6 12 1 3 2 9.5 2 13v13 7l3-5c1.5-3 4.5-8.5 6-11 1.5-2.5 4-7 5-9 .5-2 2-7.5 3-11 .5-3.5 1-11.5 1-16 0-4.5-.5-12.5-1-16-.5-4-1.5-11.5-2-15-1-4-3-11-4-14-1-3.5-2-10-2-13 0-3.5 1.5-9 3-11l3-4 1-1c0-1-1-2-2-2l-2-1" id="13" style="fill:#000;stroke:#000;stroke-width:1.2"/><path d="m875 772v-19l-1-5v2c-.5 1-.5 6 0 10 0 3.5.5 8.5 1 10v2" id="14" style="fill:#000;stroke:#000;stroke-width:1.2"/><path d="m872 438c-2-10.5-3.5-17.5-4-21-1-4-3-11-4-14l-2-7-1 4c-.5 1.5-.5 7 0 11 .5 4 2 11.5 3 15 .5 3.5 2 11 3 15l1 7 2-5 2-5" id="15" style="fill:#000;stroke:#000;stroke-width:1.2"/><path d="m866 524c-6-6.5-10.5-11-13-13-2.5-2-7.5-5.5-10-7-2.5-2-7.5-5.5-10-7-2.5-2-7.5-5.5-10-7-3-2-8.5-5.5-11-7l-10-8c-2.5-2-7-6-9-8-2.5-2-7-6-9-8l-10-8c-2.5-2-7-6-9-8l-10-8c-2.5-2-7.5-5.5-10-7-2.5-2-6-5.5-7-7l-2-4 2 8c.5 3.5 1 11 1 15 0 3.5 1 11 2 15 .5 3.5 2 10.5 3 14 1 3 4 8.5 6 11l9 9c2 2 6 6.5 8 9 2 2 6.5 6 9 8 2.5 2 7.5 6 10 8 2 2 6 6.5 8 9 2 2 6.5 6.5 9 9 2 2 6.5 6 9 8 2 2 5.5 6.5 7 9 1.5 2.5 5 7.5 7 10 1.5 2.5 5 7.5 7 10 1.5 2.5 5 8 7 11 1.5 2.5 4.5 8 6 11 1.5 2.5 4.5 8 6 11 1.5 3 3.5 4.5 4 3 .5-2 .5-7.5 0-11-1-3.5-2.5-10.5-3-14-1-4-2-11.5-2-15-.5-3.5 1-9.5 3-12 2-2.5 6.5-7 9-9 2-2 4-8 4-12l-1-8" id="16" style="fill:#000;stroke:#000;stroke-width:1.2"/><path d="m856 896c-3.5 9-5.5 16-6 20-1 3.5-2.5 11-3 15-.5 3.5-1.5 11-2 15-.5 3.5-1 11.5-1 16-.5 4-.5 12 0 16 0 4 .5 11.5 1 15v6l2-7c.5-3.5 1.5-10.5 2-14 .5-4 2-11.5 3-15 .5-4 1.5-12 2-16 0-4 .5-12 1-16 .5-4 2-11.5 3-15 .5-3.5.5-10 0-13l-2-7" id="17" style="fill:#000;stroke:#000;stroke-width:1.2"/><path d="m846 0h-10v2c0 .5-1.5 4-3 7-1.5 2.5-2 6.5-1 8 .5 1 3.5 0 6-2 2-2 5-6.5 6-9l2-6" id="18" style="fill:#fff;stroke:#fff;stroke-width:1.2"/><path d="m831 527c-4.5-6.5-8.5-10.5-11-12-2.5-2-7-5-9-6l-4-2 5 4c2 2 6.5 6 9 8 2 2 5.5 5 7 6l3 2" id="19" style="fill:#fff;stroke:#fff;stroke-width:1.2"/><path d="m831 6l1-6h-5-11-6l1 2 4 4c1.5 1.5 4 3.5 5 4 1 .5 3.5 1 5 1 1.5-.5 4-2 5-3l1-2" id="1A" style="fill:#fff;stroke:#fff;stroke-width:1.2"/><path d="m829 48c-7.5-3.5-12.5-6.5-15-8l-6-3 4 5c1.5 2 6 5 9 6 3 .5 6.5 1 7 1l1-1" id="1B" style="fill:#fff;stroke:#fff;stroke-width:1.2"/><path d="m817 63l-4 1h2l2-1" id="1C" style="fill:#fff;stroke:#fff;stroke-width:1.2"/><path d="m798 5c1-1.5.5-2.5 0-3l-1-2h-2-2l2 1c.5.5 1.5 2 2 3l1 1" id="1D" style="fill:#fff;stroke:#fff;stroke-width:1.2"/><path d="m793 722c-2-5-3.5-7.5-4-8l-2-1 2 3c1 1.5 2.5 4 3 5l1 1" id="1E" style="fill:#fff;stroke:#fff;stroke-width:1.2"/><path d="m710 464c-2-10.5-4-13.5-5-13-1 .5-1 4.5 0 8 .5 3.5 1 11.5 1 16 0 4-1 11.5-2 15-1 3.5-3 10-4 13-1.5 3-4 9.5-5 13-1.5 3-4 9.5-5 13-1 3-2.5 9.5-3 13-1 3.5-2 11.5-2 16-.5 4-.5 12 0 16l1 7-2-2c-1-1-3-5-4-8-1.5-3-4-9-5-12-1.5-3-4.5-9-6-12-1.5-3-1.5-8.5 0-11 1-2.5.5-5.5-1-6-1.5-.5-4.5 1-6 3-2 2-3 7.5-2 11 1 3 3.5 9.5 5 13 1 3 3 9.5 4 13 .5 3.5 2 11 3 15 .5 3.5 2 10.5 3 14 1 3 3.5 9 5 12 1.5 2.5 4.5 5 6 5 1-.5 3 2.5 4 6 .5 3.5.5 11 0 15-.5 4 .5 7 2 6 1.5-1.5 4-6.5 5-10 .5-3.5 1-11.5 1-16 0-4.5-.5-12.5-1-16-1-3.5-2.5-10.5-3-14-1-4-2-12-2-16-.5-4-1-12-1-16 0-4.5 1-12.5 2-16 .5-4 2-11 3-14l4-14c1-3.5 3.5-9.5 5-12 1.5-3 4-9.5 5-13 .5-3.5 1-10.5 1-14l-1-8" id="1F" style="fill:#000;stroke:#000;stroke-width:1.2"/><path d="m706 214c-.5-10.5-3-16-5-18l-4-5v2c0 1 1.5 5 3 8 1 3 3 8 4 10l2 3" id="1G" style="fill:#fff;stroke:#fff;stroke-width:1.2"/><path d="m686 685c-3-9.5-4.5-12.5-5-12-1 0-3.5-2.5-5-5l-4-5 1 8c0 4 .5 12.5 1 17v17c0 4 1 12 2 16 .5 3.5 2 10.5 3 14 .5 3.5 2 10 3 13l1 6 2-7c.5-4 1-12 1-16v-18-18-10" id="1H" style="fill:#000;stroke:#000;stroke-width:1.2"/><path d="m678 194c-6.5 6-12 9.5-15 11-3 1.5-9.5 4-13 5-3.5.5-6 2.5-5 4 1 1 5.5 3.5 9 5 3 1 10 2.5 14 3 3.5.5 7.5 0 8-1 0-1.5 2.5-3.5 5-4 2-.5 2.5-3.5 1-6-2-2.5-3-6-2-7 .5-1.5.5-4.5 0-6l-2-4" id="1I" style="fill:#fff;stroke:#fff;stroke-width:1.2"/><path d="m679 663l-3-12 1 3c0 1.5.5 4.5 1 6l1 3" id="1J" style="fill:#000;stroke:#000;stroke-width:1.2"/><path d="m673 728c-8-3-13.5-2-16 0-3 1.5-7.5 6-9 9-1.5 2.5-2 6-1 7 1 .5 4.5-1 7-3 2-2.5 7-5 10-5 2.5 0 6-2 7-4l2-4" id="1K" style="fill:#000;stroke:#000;stroke-width:1.2"/><path d="m665 150c-7.5-5-13-8.5-16-10-3-1.5-8.5-4.5-11-6-3-1.5-9-4-12-5-3-1.5-9.5-4-13-5-3.5-1-10-3-13-4-3-1.5-9.5-4-13-5-3.5-1-9.5-3.5-12-5-3-1.5-9.5-3.5-13-4-3.5-1-11-2-15-2-4.5-.5-12-2-15-3-3.5-1-10-1.5-13-1-3 .5-6.5 4.5-7 8-1 3.5-2 11-2 15 0 3.5 1.5 10.5 3 14 1 3 3.5 9 5 12 1.5 2.5 5.5 7.5 8 10 2 2 7 5.5 10 7 3 1 9 3.5 12 5 3 1 9.5 3.5 13 5 3 1 9.5 3 13 4 3 1 9 3.5 12 5 3 1.5 9 4.5 12 6 3 1 9 3.5 12 5 2.5 1.5 8.5 2 12 1 3.5-1 10-3.5 13-5 2.5-1.5 7.5-5 10-7l10-8 8-8c2-2.5 3.5-8.5 3-12l-1-7" id="1L" style="fill:#fff;stroke:#fff;stroke-width:1.2"/><path d="m662 709c-.5-12-1-20.5-1-25 0-4.5-.5-11-1-13l-2-4-1 7c-1 3.5-2 11.5-2 16 0 4.5.5 13 1 17 0 4-1.5 11-3 14l-3 6 6-3c2.5-1.5 5.5-6 6-9v-6" id="1M" style="fill:#000;stroke:#000;stroke-width:1.2"/><path d="m664 805c-5-7.5-8.5-12.5-10-15-2-3-7-7-10-8-3-1.5-9-2.5-12-2-3.5.5-10.5.5-14 0-3.5-.5-8 0-9 1-1 .5 1 2.5 4 4 3 1.5 7.5 6 9 9 1.5 2.5 3.5 4 4 3 0-1 1.5-4 3-6 1.5-2 6-2.5 9-1 2.5 1.5 7.5 5 10 7 2.5 2 7 6.5 9 9 2 2 5 7 6 10l1 6v-8-9" id="1N" style="fill:#000;stroke:#000;stroke-width:1.2"/><path d="m649 570c-1.5-11-2.5-18.5-3-22-1-4-2-11.5-2-15 0-4 1.5-11 3-14 1-3 1-9.5 0-13-1-3.5-3.5-9.5-5-12-2-2.5-4.5-8.5-5-12-.5-3.5-1-9.5-1-12v-6l-3 6c-1.5 2.5-4 8.5-5 12-1 3.5-4 8.5-6 10l-10 5c-3 1.5-7.5 5.5-9 8l-4 5 3-1c1-.5 5.5-1.5 9-2 3.5-.5 9.5 1 12 3 2.5 1.5 6 6.5 7 10 .5 3 1.5 10 2 14 0 4 1 11.5 2 15 .5 3.5 1.5 11 2 15 .5 4 .5 12 0 16-.5 3.5-1 9.5-1 12-.5 2 2 3 5 2 3-1.5 7-8 8-13l1-11" id="1O" style="fill:#000;stroke:#000;stroke-width:1.2"/><path d="m641 803l-7-8 1 4c.5 2-.5 6.5-2 9-1.5 2-6 5.5-9 7l-6 2h7c3.5 0 10.5-.5 14-1 3.5-1 6-4.5 5-7l-3-6" id="1P" style="fill:#000;stroke:#000;stroke-width:1.2"/><path d="m639 226c-6.5-4.5-11-6-13-6l-4-1 7 3c3 1 7 2.5 8 3l2 1" id="1Q" style="fill:#fff;stroke:#fff;stroke-width:1.2"/><path d="m629 672v-24c0-4.5-.5-12.5-1-16-1-3.5-3.5-5.5-5-4-2 1.5-4 7.5-4 12v18 17c0 4.5-.5 12.5-1 16-1 3.5-1.5 9-1 11v4l4-5c2-2.5 5-11 6-17l2-12" id="1R" style="fill:#000;stroke:#000;stroke-width:1.2"/><path d="m619 766c-6.5-6-11.5-9.5-14-11-3-2-9-5-12-6-3-1.5-9-4-12-5-3.5-1-9.5-4-12-6-2.5-2-8-5-11-6-3.5-1-10-3.5-13-5-3-1.5-9-4-12-5-3-1.5-9-4-12-5-3.5-1-10-3.5-13-5-3-1.5-9-4-12-5-3-1.5-9-4.5-12-6-3-1.5-9-4-12-5-3.5-1-10-3-13-4-3-1.5-9-4-12-5-3.5-1.5-10-4-13-5l-12-6c-3-1.5-9-4-12-5-3-1.5-9-4-12-5-3.5-1-10-3.5-13-5-3-1.5-8.5-4.5-11-6-3-1.5-9-4-12-5-3.5-1.5-10-4-13-5-3-1.5-9-4-12-5-3.5-1-10.5-3-14-4-3.5-1-10.5-2.5-14-3l-14-4c-3.5-1-10-3-13-4-3-1.5-9.5-3.5-13-4-4-.5-11.5-1.5-15-2-4-1-10-3.5-12-5-2.5-1.5-6-5-7-7-1.5-2.5-4-7.5-5-10-1-3-1-9 0-12 1-3.5 3-10.5 4-14 .5-4 .5-11.5 0-15-.5-4 .5-10 2-12 1.5-2 5-4.5 7-5 2-1 4.5-5.5 5-9 .5-4 3-10.5 5-13 2-2.5 7-6.5 10-8 2.5-1.5 7-5.5 9-8 2-2.5 5.5-8 7-11 1-3 2.5-9.5 3-13 .5-4 .5-11.5 0-15-1-4-4.5-6.5-7-5-3 1.5-7.5 6-9 9-2 2.5-5.5 7.5-7 10-2 2.5-5.5 7.5-7 10-2 2.5-5.5 8-7 11l-8 10c-2 2-6.5 6-9 8-2.5 2-6.5 6.5-8 9-2 2.5-5 8-6 11-1.5 3-4 9.5-5 13-1.5 3-4 9.5-5 13-1 3-3.5 9-5 12-1.5 3-5 8.5-7 11l-8 8c-2.5 2-7.5 5-10 6-3 .5-9.5 1-13 1-4 0-11.5 1-15 2-4 .5-12 1-16 1-4-.5-11.5-1-15-1-4 0-12 .5-16 1-4.5 0-12 1.5-15 3-3 1-4 3.5-2 5 1.5 1 7 2 11 2 4-.5 12-.5 16 0 3.5.5 11 1.5 15 2 4 .5 11.5.5 15 0 3.5-1 11-1 15 0 3.5.5 10 2.5 13 4 3 1 9 3.5 12 5 2.5 1.5 8.5 4.5 12 6 3 1 9.5 2.5 13 3l6 1-5-2c-3-1.5-6.5-4-7-5l-2-2 7 2c3.5.5 11.5 1.5 16 2 4 0 11.5 1 15 2 3 1 9.5 3.5 13 5 3 1 9.5 3 13 4 3.5.5 10.5 2 14 3 3.5.5 10 3 13 5 2.5 1.5 8 4.5 11 6 3 1 9.5 3 13 4 3.5 1 10.5 3 14 4 3.5.5 10.5 2 14 3 3 1 9.5 3 13 4 3.5 1 10.5 3 14 4 3 1 9.5 3.5 13 5 3 1 9.5 3 13 4 3 1 9 3.5 12 5 3 1 9 3.5 12 5 3 1.5 9.5 4 13 5 3 1 10 3 14 4 3.5.5 10 2.5 13 4 3 1 9.5 3 13 4 3 1 9.5 3.5 13 5 3 1 9.5 3 13 4 3 1 9.5 3.5 13 5 3 1 9 3.5 12 5 3 1 9 3.5 12 5 2.5 1.5 7 5 9 7l4 4-6-2c-3.5-1-10-3.5-13-5-3-1.5-9-4-12-5-3-1.5-9-4-12-5-3.5-1-10-3-13-4-3.5-1.5-10-4-13-5l-7-2 4 4c1.5 1.5 6 4.5 9 6 2.5 1.5 8 4.5 11 6 3 1 9 3.5 12 5l12 6c3 1 9 3.5 12 5 3 1.5 9.5 4 13 5 3 1 9.5 3 13 4 3 1 10 3 14 4 3.5.5 10.5 2 14 3 3.5.5 10.5 2 14 3l14 4c3 1 6.5.5 7-1l1-3" id="1S" style="fill:#000;stroke:#000;stroke-width:1.2"/><path d="m607 723c-6.5 1.5-12.5 2.5-16 3-4 .5-7 2-6 3 1 1 5.5 1.5 9 1 3.5-1 8.5-3 10-4l3-3" id="1T" style="fill:#000;stroke:#000;stroke-width:1.2"/><path d="m564 450c-9.5-3-16.5-4.5-20-5-3.5-.5-7.5-.5-8 0-1 .5 1 2.5 4 4 2.5 1.5 9 4 13 5 3.5.5 8 0 9-1l2-3" id="1U" style="fill:#fff;stroke:#fff;stroke-width:1.2"/><path d="m554 193c-10.5-2-17.5-4-21-5-3.5-1-10-2-13-2l-6-1 6 3c3 1 10 3 14 4 3.5.5 10.5 2 14 3 3.5.5 7 .5 7 0l-1-2" id="1V" style="fill:#fff;stroke:#fff;stroke-width:1.2"/><path d="m558 352c-3-2-4.5 1-5 5-.5 3.5-.5 8 0 9l1 2 2-7c.5-3.5 1.5-7.5 2-8v-1" id="1W" style="fill:#fff;stroke:#fff;stroke-width:1.2"/><path d="m543 583c-7.5-3.5-12.5-4.5-15-4h-5l7 2c3.5 1 8.5 2 10 2h3" id="1X" style="fill:#fff;stroke:#fff;stroke-width:1.2"/><path d="m520 484c-3-8-6-12.5-8-14l-5-3 1 1 4 5c2 2.5 4 8 4 11l-1 6 3-3 2-3" id="1Y" style="fill:#fff;stroke:#fff;stroke-width:1.2"/><path d="m506 467h1l-6-2-6-2 6 2 5 2" id="1Z" style="fill:#fff;stroke:#fff;stroke-width:1.2"/><path d="m475 363c-5 7.5-8 13.5-9 17-1 3.5-2.5 10.5-3 14l-4 14c-1 3 1 5 4 4 3-1 7.5-4.5 9-7 1.5-3 3.5-10 4-14 .5-4 1.5-11.5 2-15 .5-4 0-9-1-10l-2-3" id="1a" style="fill:#fff;stroke:#fff;stroke-width:1.2"/><path d="m467 98c-4.5-8-8-13-10-15-2.5-2.5-7.5-6.5-10-8-2.5-2-7.5-5.5-10-7-2.5-2-8-5-11-6-3.5-1.5-10-4-13-5-3.5-1-10-3.5-13-5-3-1.5-9.5-3.5-13-4-3.5-1-10-3-13-4-3-1.5-9-4.5-12-6-3-1.5-9-4-12-5-3-1.5-9.5-4-13-5-3.5-1-10.5-2.5-14-3-4-.5-11.5-1.5-15-2-4-.5-11.5-2-15-3-3.5-1-11-2-15-2-4-.5-11.5-1.5-15-2-4-1-11-5.5-14-9l-6-7h-4-13-12-4l8 8c3.5 3.5 9.5 9 12 11 2.5 1.5 8 5 11 7 2.5 1.5 7 5.5 9 8 2 2 6.5 6 9 8 2.5 1.5 7.5 5.5 10 8 2 2 6 6.5 8 9 1.5 2.5 4.5 8 6 11 1.5 3 5 8.5 7 11 1.5 2.5 4.5 8 6 11 1.5 2.5 5 8 7 11 1.5 2.5 3.5 8.5 4 12 0 3.5-1.5 10-3 13-1.5 3-5 8.5-7 11l-8 8c-2.5 2-5 6.5-5 9 0 2.5 3.5 4 7 3 3-1 8.5-4 11-6 2-2.5 6-7 8-9 2-2.5 5.5-7.5 7-10 1.5-3 3.5-10 4-14 .5-4 0-11-1-14-1-3.5-3-10-4-13-1.5-3.5-4.5-9.5-6-12-2-2.5-5.5-7.5-7-10-2-2.5-5.5-8-7-11-1.5-3-1-5.5 1-5 2 0 7 2 10 4 2.5 1.5 7.5 5 10 7 2 2 6.5 6 9 8 2.5 1.5 8.5 4.5 12 6 3 1 9 3 12 4 3 .5 9.5 2 13 3l14 4 6 2-4-2c-2-1.5-7.5-4-11-5-3.5-1-10-3-13-4-3-1.5-8.5-5-11-7-2.5-2-7.5-5.5-10-7-2.5-2-7.5-5.5-10-7-2.5-2-8-5.5-11-7-3-1.5-9-4-12-5-3-1.5-9-4-12-5-3.5-1.5-10.5-3.5-14-4l-7-2h7c3 0 9.5.5 13 1 3.5.5 10.5 2 14 3 3.5.5 10 2.5 13 4 3 1.5 9.5 4 13 5 3 1 9 3.5 12 5 3 1 10 3 14 4 3.5.5 10.5 2 14 3 3 1 10 3 14 4 3.5.5 10.5 2 14 3 3 1 9 3.5 12 5 3 1 9.5 3.5 13 5 3 1 9 3.5 12 5 2.5 1.5 8 5 11 7 2.5 1.5 7 5.5 9 8 2 2 4.5 8 5 12 0 4-1 11-2 14-1 3-1.5 6.5-1 7 .5 0 3.5-.5 6-1 2-1 4.5-10 5-18l1-16" id="1b" style="fill:#000;stroke:#000;stroke-width:1.2"/><path d="m449 129c-9.5-1.5-15-1-17 0-2.5 1-4.5 3-4 4 0 .5 3 .5 6 0 3-1 8.5-2.5 11-3l4-1" id="1c" style="fill:#000;stroke:#000;stroke-width:1.2"/><path d="m427 348c-7.5 5.5-11.5 10-13 13-2 2.5-5 8.5-6 12-1 3-3 9.5-4 13-1 3-2 10.5-2 15-.5 4 1 10.5 3 13 1.5 2.5 5 5 7 5 2 0 3.5-3 3-6-.5-3.5-.5-11 0-15 0-4 1.5-11 3-14 1-3.5 3.5-10 5-13 1-3 4.5-8 7-10 2-2.5 2.5-7 1-9l-4-4" id="1d" style="fill:#000;stroke:#000;stroke-width:1.2"/><path d="m428 509c-5-7.5-8.5-7-10-4-2 2.5-5 8-6 11-1.5 3-4.5 9-6 12-1.5 2.5-3.5 9-4 13-.5 4 1 7 3 6 1.5-1 5.5-4 8-6 2-2.5 6.5-7 9-9 2-2 4.5-8.5 5-13l1-10" id="1e" style="fill:#fff;stroke:#fff;stroke-width:1.2"/><path d="m415 142c-9.5 3-16.5 5-20 6-4 .5-12 1-16 1-4-.5-11.5-1.5-15-2-3.5-1-10-1.5-13-1-3 .5-7.5 3.5-9 6-2 2.5-4 9-4 13 0 4 .5 11.5 1 15 .5 3 .5 9.5 0 13-1 3.5-4 9.5-6 12l-8 10c-2 2-6 6.5-8 9-2 2.5-5.5 7.5-7 10-2 2.5-5.5 7.5-7 10-2 2.5-5 8.5-6 12-1.5 3-1.5 9 0 12 1 3 5 6 8 6 3 0 8.5-2 11-4l8-8 8-10 8-10c1.5-2.5 5-7.5 7-10 1.5-3 5-8.5 7-11 1.5-2.5 5-7 7-9l8-10c1.5-3 4.5-8.5 6-11l6-12c1.5-3 5.5-8 8-10 2-2 6.5-5.5 9-7l10-8c2-2.5 6.5-6.5 9-8l5-4h-3-4" id="1f" style="fill:#000;stroke:#000;stroke-width:1.2"/><path d="m401 183c-10.5 4.5-15.5 8.5-17 11l-8 10c-2 2.5-6 7.5-8 10-2 2-6 6.5-8 9-2 2.5-5.5 7.5-7 10-2 2.5-5.5 8-7 11-1.5 2.5-4.5 8-6 11-2 2.5-5.5 7.5-7 10l-8 10c-2 2.5-6 7-8 9-2.5 2-6 6.5-7 9-1 2 1.5 3 5 2 3-1.5 8.5-4.5 11-6 2.5-2 7-6.5 9-9 2-2.5 6-7.5 8-10l6-10 6-12c1.5-3 5-8.5 7-11 1.5-2.5 5-7.5 7-10 2-2.5 6-7 8-9l8-10c1.5-2.5 4.5-8 6-11 1.5-3 5-8 7-10l3-4" id="1g" style="fill:#000;stroke:#000;stroke-width:1.2"/><path d="m391 430c-4.5-8-8.5-12.5-11-14-3-2-9-2.5-12-1-3 1-7.5 4.5-9 7-2 2.5-3.5 9.5-3 14 0 4 2 10.5 4 13 1.5 2.5 6.5 6.5 10 8 3 1 8.5 0 11-2 2-2 5.5-9 7-14l3-11" id="1h" style="fill:#000;stroke:#000;stroke-width:1.2"/><path d="m385 584c-4.5 8.5-7 14.5-8 18-1.5 3-2 9.5-1 13 1 3 4 3.5 6 1 1.5-2.5 2.5-9 2-13-.5-4 .5-11 2-14l2-6-1 1h-2" id="1i" style="fill:#fff;stroke:#fff;stroke-width:1.2"/><path d="m363 484c-6.5 6-10 11.5-11 15-1.5 3-2 9.5-1 13 .5 3.5 3 9.5 5 12 1.5 2.5 5.5 5.5 8 6 2.5.5 3.5-1.5 2-4-1.5-3-4-9.5-5-13-1-3.5-.5-9.5 1-12 1.5-3 2.5-8.5 2-11l-1-6" id="1j" style="fill:#000;stroke:#000;stroke-width:1.2"/><path d="m369 607c-5 3-6.5 5-6 6 .5.5 2.5-.5 4-2l2-4" id="1k" style="fill:#fff;stroke:#fff;stroke-width:1.2"/><path d="m359 329c-3 10-5.5 16-7 19-1.5 3-4 9-5 12-1.5 3-4.5 9-6 12-1.5 2.5-2 5.5-1 6 1 .5 3.5-1.5 5-4l6-12c1.5-3 4.5-9 6-12 1-3 2-9.5 2-13v-8" id="1l" style="fill:#000;stroke:#000;stroke-width:1.2"/><path d="m356 171c-4.5-8-7-13-8-15l-3-5 1 6c0 3 1.5 9 3 12 1 3 2 10 2 14-.5 3.5-2 10.5-3 14-1 3-4 8.5-6 11l-8 10c-2 2-5.5 6.5-7 9l-8 10c-2 2.5-5.5 7.5-7 10-2 2.5-5.5 8-7 11-2 2.5-3 5-2 5 .5 0 3-2.5 5-5 1.5-2.5 5-7.5 7-10 2-2.5 6-7 8-9l8-10c1.5-3 5-8 7-10 2-2.5 6-7.5 8-10 1.5-2.5 4.5-8 6-11 1.5-3 3.5-11 4-16v-11" id="1m" style="fill:#fff;stroke:#fff;stroke-width:1.2"/><path d="m330 173c-9-.5-16-.5-20 0-4.5 0-12.5.5-16 1-4 .5-11 2.5-14 4-3 1-8 3.5-10 5-2.5 1-7 0-9-2-2.5-2-6.5-7-8-10-1.5-3-4.5-8.5-6-11-1.5-3-4.5-8.5-6-11-1.5-3-5-8.5-7-11-2-2.5-5.5-7.5-7-10l-8-10c-2-2.5-6-7-8-9-2.5-2-7-6-9-8-2.5-2-7-6-9-8-2.5-2.5-7-7-9-9-2-2.5-6.5-7-9-9-2.5-2-7-6-9-8-2.5-2-7-6-9-8l-10-8c-2.5-2-6.5-6.5-8-9-1.5-3-5-7.5-7-9-2-1.5-5-1-6 1-1 1.5-.5 6 1 9 1 3 4 8.5 6 11 2 2.5 6.5 7 9 9 2 2 7 6 10 8 2.5 1.5 7.5 5 10 7 2 2 6.5 6 9 8 2 2 6 6.5 8 9l8 10c1.5 2.5 5.5 7.5 8 10 2 2 6.5 6 9 8 2 2 6 6.5 8 9 1.5 2.5 5 7.5 7 10l8 10c1.5 2.5 5 7.5 7 10 2 2.5 5.5 8 7 11 1 3 3.5 9 5 12 1 3 2.5 10 3 14 .5 4 2.5 11 4 14 1.5 2.5 5 7.5 7 10l8 10c2 2 5.5 7 7 10 1.5 2.5 3.5 5 4 5h1l1-7c0-4-1.5-10.5-3-13-2-2.5-6-7-8-9l-9-9c-2-2.5-1.5-6.5 1-8 2-1.5 8-3.5 12-4 3.5-1 9.5-3.5 12-5 2.5-2 8-4.5 11-5 3-.5 9 3 12 7 2.5 3.5 3.5 10 2 13l-8 10c-2 2-5.5 7-7 10-2 2.5-7 9-10 13l-6 7-1 8c-.5 3.5.5 10 2 13 1 3 4 8.5 6 11 2 2.5 6.5 5.5 9 6 2.5 0 3.5-2.5 2-5l-6-12c-1.5-3-2.5-9-2-12 0-3 2-8.5 4-11 2-2.5 6-7 8-9l8-10c1.5-2.5 5-7.5 7-10l8-10c1.5-2.5 4-8.5 5-12 1-3.5 1.5-10.5 1-14l-1-8" id="1n" style="fill:#000;stroke:#000;stroke-width:1.2"/><path d="m303 187c-9 1.5-14.5 4-17 6-2.5 1.5-8.5 4-12 5-4 .5-10 2.5-12 4-2.5 1.5-3 5.5-1 8l9 9c2 2 6 6.5 8 9 1.5 2.5 3 9 3 13l-1 7 6-7c3-4 8-10.5 10-13 1.5-3 5-8 7-10l8-10c1.5-3 .5-9.5-2-13l-6-8" id="1o" style="fill:#fff;stroke:#fff;stroke-width:1.2"/><path d="m288 291c-4.5-8-7.5-11.5-9-12-1.5-.5-2 2.5-1 6 1 3 3 9.5 4 13 .5 3.5 0 10.5-1 14-1.5 3-4 9.5-5 13-1 3-1.5 9.5-1 13v6l3-6c1-3 3.5-9 5-12 1-3 3.5-9 5-12 1-3.5 1.5-11 1-15l-1-8" id="1p" style="fill:#000;stroke:#000;stroke-width:1.2"/><path d="m265 305c-6.5 6-11 10.5-13 13-2 2.5-5.5 7.5-7 10-2 2.5-5 8-6 11-1.5 3-4 9.5-5 13-1 3.5-3 10-4 13-1.5 3-4 9.5-5 13-1 3.5-1.5 7.5-1 8 .5 0 3-2.5 5-5 1.5-2.5 4.5-8 6-11 1.5-3 4-9 5-12 1-3.5 3.5-10 5-13 1.5-3 4.5-8.5 6-11 1.5-3 5-8.5 7-11 1.5-2.5 5-7.5 7-10 2-2.5 3-5.5 2-6l-2-2" id="1q" style="fill:#000;stroke:#000;stroke-width:1.2"/><path d="m258 360c-5 7.5-9 12.5-11 15-2 2.5-6 7.5-8 10l-8 8c-2.5 2-7 6.5-9 9-2.5 2-7 6.5-9 9-2 2-5.5 7-7 10-2 2.5-5 8-6 11-1.5 3-2 8-1 10 1 1.5 4 .5 6-2 1.5-3 5-8.5 7-11 1.5-2.5 5-7.5 7-10 2-2.5 6.5-7 9-9 2-2 6-6 8-8 2-2.5 6.5-7 9-9l8-10c1.5-2.5 5-7.5 7-10 1.5-3 2-7.5 1-9l-3-4" id="1r" style="fill:#000;stroke:#000;stroke-width:1.2"/><path d="m251 638c-10.5-2-18-3-22-3-4 0-9.5 1.5-11 3l-3 2 8 1c3.5.5 11 1.5 15 2 4 .5 9.5-.5 11-2l2-3" id="1s" style="fill:#000;stroke:#000;stroke-width:1.2"/><path d="m251 219c-7.5-5-13.5-7.5-17-8-4-1-12-2-16-2-4-.5-10.5-2.5-13-4-3-1.5-7.5-2.5-9-2h-4l5 4c2 2 7 5.5 10 7 3 1.5 10 3.5 14 4 4 0 11.5 1 15 2 3 1 9 3.5 12 5 3 1.5 5.5 1 5-1l-2-5" id="1t" style="fill:#000;stroke:#000;stroke-width:1.2"/><path d="m243 243c-7.5 1-13.5 2-17 3-3.5.5-9 2.5-11 4l-4 3 7-1c3.5-1 10-3 13-4 3-1.5 7.5-3.5 9-4l3-1" id="1u" style="fill:#000;stroke:#000;stroke-width:1.2"/><path d="m206 82c-6-6.5-10-11-12-13l-9-9c-2.5-2-7-6-9-8l-10-8c-2.5-2-6.5-4-8-4l-3-1 5 5c2 2 6 6.5 8 9 2 2 6.5 6 9 8 2 2 6.5 6 9 8 2.5 2 7 6.5 9 9 2 2 6.5 6 9 8l5 4-1-4-2-4" id="1v" style="fill:#000;stroke:#000;stroke-width:1.2"/><path d="m190 632c-9-3.5-15-6-18-7-3.5-1.5-10.5-3.5-14-4-3.5-1-11-2-15-2-4.5 0-13-.5-17-1-4-.5-9.5-.5-11 0-2 .5-1 3 2 5 2.5 1.5 8.5 4 12 5 3.5.5 11 1.5 15 2 4 0 12 .5 16 1 4 .5 11.5 2 15 3 3.5.5 11 2 15 3l7 1-3-3-4-3" id="1w" style="fill:#000;stroke:#000;stroke-width:1.2"/><path d="m195 248c-3.5-9-6.5-15-8-18-1.5-3-5-8-7-10-2-2.5-6-7-8-9-2-2.5-6-7-8-9l-9-9c-2.5-2-7.5-6-10-8-2.5-2-7-6-9-8-2.5-2-7-6-9-8-2-2.5-6.5-7-9-9-2.5-2-7.5-5.5-10-7-2.5-2-7.5-5.5-10-7-3-2-8-6-10-8-2.5-2-7-6-9-8-2.5-2-7.5-5.5-10-7-3-2-8-3.5-10-3-2.5.5-3 3.5-1 6 2 2.5 6.5 7 9 9 2 2 6 6.5 8 9 2 2 7 6 10 8 2.5 1.5 7.5 5 10 7 2 2 6.5 6 9 8 2.5 2 7.5 6 10 8 2 2 6.5 6 9 8 2 2 6.5 6.5 9 9 2 2 6 6.5 8 9 2 2 6.5 6.5 9 9 2 2 6 6.5 8 9 2 2 6 6.5 8 9 2 2 6 7 8 10 1.5 2.5 4 8.5 5 12 1 3 .5 8.5-1 11-2 2-6.5 5.5-9 7-3 1.5-9 2-12 1-3.5-1-6.5-.5-6 1 0 1 3 3.5 6 5 3 1 10 1.5 14 1 4-.5 11-2 14-3 3-1.5 7.5-8.5 9-14l2-11" id="1x" style="fill:#000;stroke:#000;stroke-width:1.2"/><path d="m187 200c-6-6.5-10-11.5-12-14-2-2.5-6-7-8-9-2.5-2-7-6-9-8-2-2.5-5-4-6-3-1 1 0 4.5 2 7 2 2 6.5 6.5 9 9 2 2 6 6.5 8 9 2 2 6 6.5 8 9 2 2 5 3 6 2l2-2" id="1y" style="fill:#000;stroke:#000;stroke-width:1.2"/><path d="m163 100c-3.5-7.5-5.5-9-6-8-.5.5 1 3 3 5l3 3" id="1z" style="fill:#000;stroke:#000;stroke-width:1.2"/><path d="m134 274c-8-4.5-13.5-7.5-16-9-3-2-8-6-10-8-2.5-2-7.5-5.5-10-7-2.5-2-7.5-6-10-8-2.5-2-7-6-9-8-2.5-2-7-6-9-8-2.5-2.5-7.5-6.5-10-8-2.5-2-7.5-5.5-10-7-2.5-2-7.5-4.5-10-5l-6-2 5 4c2 2 7 6 10 8 2.5 1.5 7.5 5 10 7 2 2 6.5 6 9 8l9 9c2 2 6.5 6 9 8 2 2 6.5 6 9 8l10 8c2 2 6.5 6 9 8 2.5 1.5 7.5 5 10 7 2.5 2 6.5 2 8 0l2-5" id="20" style="fill:#000;stroke:#000;stroke-width:1.2"/><path d="m123 140c-6.5-6-11-10-13-12-2.5-2.5-7-7-9-9-2.5-2-8-5-11-6-3-1.5-8.5-2.5-11-2h-6l5 4c2.5 1.5 8 5 11 7 2.5 1.5 7.5 5 10 7 2 2 6.5 6 9 8 2.5 1.5 8 4.5 11 6 3 1.5 5.5 1.5 5 0l-1-3" id="21" style="fill:#000;stroke:#000;stroke-width:1.2"/><path d="m115 57c-7.5-5-12.5-9-15-11-2.5-2-7.5-5.5-10-7-2.5-2-7-3.5-9-3h-4l6 4c2.5 1.5 7.5 5 10 7 2.5 1.5 7.5 5 10 7l10 8c2.5 1.5 4.5 1 4-1l-2-4" id="22" style="fill:#000;stroke:#000;stroke-width:1.2"/><path d="m116 293c-5-8-9-13-11-15l-10-8c-2.5-2-7.5-5.5-10-7-2.5-2-7-6-9-8-2.5-2-7-6-9-8-2.5-2.5-7.5-6.5-10-8-2.5-2-8-5.5-11-7-3-1.5-8.5-4.5-11-6-3-1.5-8-5-10-7l-10-8c-2.5-2-7.5-5.5-10-7l-5-3v5 7 1l6 6c3 3 8.5 8 11 10 2.5 2 8 5.5 11 7 2.5 1.5 8 5 11 7 2.5 1.5 7.5 5 10 7 2 2 6.5 6 9 8 2 2 6.5 6 9 8l10 8c2.5 1.5 7.5 5 10 7 2.5 2 7 6.5 9 9 2 2 5.5 7 7 10 1.5 2.5 1.5 7.5 0 10-1.5 2.5-2 7-1 9 1 1.5 5.5 2 9 1 3-1.5 6-9 6-15l-1-13" id="23" style="fill:#000;stroke:#000;stroke-width:1.2"/><path d="m107 39c-.5-4.5-2.5-8.5-4-11-2-3-5.5-8.5-7-11-2-2.5-5-8-6-11l-2-6h-9-18-18-15-6l-1 1c-1 .5-4.5 2.5-7 4-3 1.5-8 4.5-10 6l-4 3v11 19 18 17 14 6l9 3c4 1.5 7.5 1.5 7 0-1-2-2.5-7.5-3-11-1-3.5-2.5-10.5-3-14-1-3.5-2-11.5-2-16v-16c0-4 2.5-10 5-12 2.5-2 7.5-5.5 10-7 2.5-2 5-5.5 5-7-.5-1.5 0-3.5 1-4 1-.5 5.5-1.5 9-2 3.5-1 11-1 15 0 3.5.5 10 2.5 13 4 3 1 7.5 4 9 6 1 2 5 5.5 8 7 3 1.5 8.5 5 11 7 2.5 1.5 7 3 9 3l4-1" id="24" style="fill:#000;stroke:#000;stroke-width:1.2"/><path d="m98 300l-6-7 3 4 3 3" id="25" style="fill:#000;stroke:#000;stroke-width:1.2"/><path d="m51 265l-3-4 2 2 1 2" id="26" style="fill:#000;stroke:#000;stroke-width:1.2"/><path d="m47 261h1l-3-4-4-5 2 3c.5 1.5 2 4 3 5l1 1" id="27" style="fill:#000;stroke:#000;stroke-width:1.2"/><path d="m22 0h-18-4v5 7 2l4-3c2-1.5 7-4.5 10-6 2.5-1.5 6-3.5 7-4l1-1" id="28" style="fill:#fff;stroke:#fff;stroke-width:1.2"/></g></g></svg>